<svg width="245" height="89" viewBox="0 0 245 89" fill="none" xmlns="http://www.w3.org/2000/svg">
<path d="M0.971591 33.4133V66.6245C5.35122 75.5711 11.8134 70.3522 14.4971 66.6245V41.5466C14.2395 39.1066 17.1807 37.367 18.6835 36.8022H35.7514C43.8022 32.3966 39.8305 24.4892 35.7514 22.9077H9.66652C2.45295 25.6188 0.864246 31.0411 0.971591 33.4133Z" fill="white" stroke="white" stroke-width="0.890451"/>
<path d="M40.2607 16.4688H6.44706C-3.85804 10.2332 2.15327 3.70394 6.44706 1.21875H41.2268C62.0946 6.36987 65.1647 25.7318 64.0912 34.7688C63.576 51.5777 47.9895 59.8466 40.2607 61.88H27.3793C16.3013 55.9155 22.7635 49.454 27.3793 46.9688L41.2268 45.9522C57.9726 33.7521 47.5601 21.2132 40.2607 16.4688Z" fill="white" stroke="white" stroke-width="0.890451"/>
<path d="M102.844 72.3231C99.7787 72.3231 98.1265 70.2035 97.8873 65.9643C96.7786 67.9643 95.2786 69.5513 93.3872 70.7252C91.5176 71.8992 89.4959 72.4861 87.3219 72.4861C85.1697 72.4861 83.4197 72.1926 82.0718 71.6057C80.724 71.0187 79.6044 70.1709 78.7131 69.0622C76.9739 66.8882 76.1043 63.8012 76.1043 59.8011V57.7793C76.1043 55.2576 74.7782 53.388 72.126 52.1706C73.6912 51.4097 74.6913 50.7684 75.126 50.2466C75.7782 49.4422 76.1043 48.5401 76.1043 47.54V43.1378C76.1043 41.2899 75.4739 40.2899 74.213 40.1377C73.8434 40.0943 73.376 40.0725 72.8108 40.0725C72.2456 40.0725 71.7238 40.2573 71.2455 40.6269C70.9412 40.2138 70.789 39.7899 70.789 39.3551C70.789 38.8986 70.8977 38.3986 71.1151 37.8551C71.3542 37.2899 71.7129 36.7572 72.1912 36.2572C73.3217 35.0833 74.6369 34.4963 76.1369 34.4963C77.637 34.4963 79.05 34.7463 80.3761 35.2463C81.3327 33.8768 82.4631 33.192 83.7675 33.192C86.0067 33.192 87.1263 34.3659 87.1263 36.7138V57.9424C87.1263 62.0729 88.0828 64.5512 89.9959 65.3773C90.6046 65.6382 91.2785 65.7686 92.0176 65.7686C92.7785 65.7686 93.4633 65.6164 94.072 65.3121C94.6807 64.986 95.2134 64.5512 95.6699 64.0077C96.5177 62.9425 97.0612 61.4859 97.3004 59.6381V43.1378C97.3004 40.6595 96.2895 39.4203 94.2677 39.4203C93.5285 39.4203 92.9198 39.6051 92.4416 39.9747C92.1372 39.5616 91.985 39.1377 91.985 38.7029C91.985 38.2464 92.0937 37.779 92.3111 37.3007C92.5503 36.8007 92.909 36.3442 93.3872 35.9311C94.4525 34.9746 95.746 34.4963 97.2677 34.4963C98.8112 34.4963 100.246 34.7463 101.572 35.2463C102.529 33.8768 103.659 33.192 104.964 33.192C107.203 33.192 108.322 34.3659 108.322 36.7138V47.54C108.322 48.5401 108.518 49.2792 108.909 49.7575C109.605 50.6053 110.735 51.4097 112.301 52.1706C109.648 53.388 108.322 55.2576 108.322 57.7793V66.1925C108.735 67.8665 109.638 68.7035 111.029 68.7035C111.768 68.7035 112.377 68.5187 112.855 68.1491C113.159 68.5621 113.312 69.0839 113.312 69.7143C113.312 70.323 112.996 70.91 112.366 71.4752C111.757 72.0405 110.79 72.3231 109.464 72.3231C108.159 72.3231 106.92 71.9753 105.746 71.2796C104.877 71.9753 103.909 72.3231 102.844 72.3231ZM100.398 63.0294C101.659 62.5294 102.322 60.1272 102.387 55.8228C102.387 54.9097 102.387 53.8662 102.387 52.6923C102.387 51.5184 102.377 50.5184 102.355 49.6922C102.355 48.8444 102.344 48.04 102.322 47.2792C102.235 44.54 101.985 42.9095 101.572 42.3878C101.159 41.8443 100.768 41.4856 100.398 41.3117V63.0294ZM80.8979 52.1706L80.9957 47.8661C80.9957 45.9313 80.9305 44.6487 80.8001 44.0182C80.4305 42.366 79.9087 41.4638 79.2348 41.3117V43.4313C79.2348 47.1052 79.1479 49.2683 78.9739 49.9205C78.8218 50.551 78.5609 51.0292 78.1913 51.3553C77.8435 51.6597 77.3217 51.9314 76.6261 52.1706C77.9304 52.6271 78.6696 53.1814 78.8435 53.8336C79.1044 54.8771 79.2348 57.2359 79.2348 60.9098V63.0294C79.887 62.8773 80.4196 61.9099 80.8327 60.1272C80.9414 59.6272 80.9957 58.4098 80.9957 56.475L80.8979 52.1706ZM123.616 71.2796C122.616 71.9753 121.475 72.3231 120.192 72.3231C118.909 72.3231 117.975 72.0296 117.388 71.4426C116.822 70.8339 116.54 70.2578 116.54 69.7143C116.54 68.9969 116.659 68.4752 116.899 68.1491C117.377 68.5187 117.985 68.7035 118.725 68.7035C120.116 68.7035 121.018 68.0295 121.431 66.6817V56.8011C121.431 55.8011 121.236 55.0619 120.844 54.5836C120.149 53.7358 119.018 52.9314 117.453 52.1706C120.105 50.9531 121.431 49.0835 121.431 46.5618V43.1378C121.431 41.2899 120.801 40.2899 119.54 40.1377C119.17 40.0943 118.703 40.0725 118.138 40.0725C117.572 40.0725 117.051 40.2573 116.572 40.6269C116.268 40.2138 116.116 39.7899 116.116 39.3551C116.116 38.8986 116.225 38.3986 116.442 37.8551C116.681 37.2899 117.04 36.7572 117.518 36.2572C118.649 35.0833 119.964 34.4963 121.464 34.4963C122.986 34.4963 124.246 34.7355 125.246 35.2137C126.442 33.8659 127.725 33.192 129.094 33.192C131.225 33.192 132.29 34.3659 132.29 36.7138V41.1812C134.464 35.8333 137.921 33.1593 142.66 33.1593C144.79 33.1593 146.519 33.8115 147.845 35.1159C149.214 36.442 149.899 38.279 149.899 40.6269V41.0834C149.899 41.2356 149.877 41.5508 149.834 42.0291C149.79 42.4856 149.801 42.953 149.866 43.4313C149.953 43.9095 150.084 44.3008 150.258 44.6052C150.497 45.0617 150.943 45.4204 151.595 45.6813C151.443 46.2683 151.084 46.8009 150.519 47.2792C149.975 47.7357 149.366 47.964 148.693 47.964H148.073C147.225 49.0292 146.04 49.7792 144.519 50.214C144.084 50.3444 143.606 50.4097 143.084 50.4097C142.584 50.4097 142.138 50.301 141.747 50.0836C141.377 49.8444 141.171 49.5944 141.127 49.3335C141.54 49.1379 141.747 48.7466 141.747 48.1596V47.9966C141.573 48.04 141.421 48.0618 141.29 48.0618H140.964C140.247 48.0618 139.595 47.79 139.008 47.2466C138.442 46.7031 138.073 46.0183 137.899 45.1922C139.073 45.2356 140.095 44.8009 140.964 43.8878C141.747 43.0834 142.138 42.2573 142.138 41.4095C142.138 39.4095 141.269 38.4094 139.529 38.4094C138.029 38.4094 136.518 39.6051 134.997 41.9965C133.562 44.1922 132.66 46.4639 132.29 48.8118V66.4534C132.529 67.2143 132.899 67.7795 133.399 68.1491C133.899 68.5187 134.584 68.7035 135.453 68.7035C136.323 68.7035 136.997 68.5187 137.475 68.1491C137.714 68.4752 137.834 68.9535 137.834 69.5839C137.834 70.2144 137.54 70.8339 136.953 71.4426C136.388 72.0296 135.421 72.3231 134.051 72.3231C132.703 72.3231 131.41 71.9535 130.17 71.2144C129.301 71.9535 128.247 72.3231 127.007 72.3231C125.768 72.3231 124.638 71.9753 123.616 71.2796ZM126.42 55.8228C126.442 55.0836 126.453 54.4641 126.453 53.9641C126.475 53.4641 126.486 53.0619 126.486 52.7575V51.8771C126.486 51.551 126.475 51.1379 126.453 50.6379C126.453 50.1162 126.442 49.5401 126.42 48.9096C126.42 48.2574 126.41 47.627 126.388 47.0183C126.257 44.7574 126.007 43.3117 125.638 42.6813C125.29 42.0291 124.931 41.5834 124.562 41.3443V43.4639C124.562 47.1161 124.475 49.2683 124.301 49.9205C124.149 50.551 123.888 51.0292 123.518 51.3553C123.17 51.6597 122.649 51.9314 121.953 52.1706C123.257 52.6271 123.996 53.1814 124.17 53.8336C124.431 54.8771 124.562 57.225 124.562 60.8772V62.9968C125.562 62.3446 126.127 61.0185 126.257 59.0185C126.366 57.6054 126.42 56.5402 126.42 55.8228ZM162.812 28.5288C161.704 28.5288 160.628 28.2353 159.584 27.6484C158.562 27.0614 157.78 26.2788 157.236 25.3005C156.649 24.3005 155.867 23.5396 154.888 23.0179C154.584 22.8657 154.236 22.7026 153.845 22.5287L154.954 21.8439C155.997 21.1917 156.769 20.3983 157.269 19.4635C157.769 18.5287 158.519 17.8004 159.519 17.2786C160.541 16.7351 161.638 16.4634 162.812 16.4634C165.247 16.4634 167.008 17.4852 168.095 19.5287C168.834 20.8765 169.976 21.8765 171.519 22.5287C171.193 22.7244 170.867 22.8983 170.541 23.0505C170.236 23.2026 169.943 23.3766 169.66 23.5722C169.03 24.007 168.465 24.6483 167.965 25.4962C167.486 26.344 166.78 27.0614 165.845 27.6484C164.932 28.2353 163.921 28.5288 162.812 28.5288ZM161.084 24.5505C160.954 24.3114 160.845 24.0396 160.758 23.7353C160.693 23.4092 160.66 22.8439 160.66 22.0396C160.66 21.2352 161.073 20.2135 161.899 18.9743C161.095 18.9743 160.53 19.1265 160.204 19.4308C159.878 19.7135 159.628 19.9635 159.454 20.1809C159.301 20.3765 159.16 20.583 159.03 20.8004C158.921 20.9961 158.78 21.2135 158.606 21.4526C158.193 22.0396 157.856 22.3983 157.595 22.5287C157.943 22.7244 158.258 23.0396 158.541 23.4744C158.845 23.8874 159.193 24.3222 159.584 24.7788C160.171 25.4962 160.943 25.8549 161.899 25.8549C161.769 25.6157 161.628 25.3983 161.475 25.2027C161.345 24.9853 161.215 24.7679 161.084 24.5505ZM159.551 71.2796C158.551 71.9753 157.41 72.3231 156.127 72.3231C154.867 72.3231 153.921 72.0405 153.29 71.4752C152.682 70.91 152.377 70.3665 152.377 69.8448C152.377 69.1274 152.53 68.5621 152.834 68.1491C153.312 68.5187 154.019 68.7035 154.954 68.7035C155.888 68.7035 156.693 68.0947 157.367 66.8773V56.475C157.367 55.5184 157.171 54.8228 156.78 54.388C156.149 53.7358 155.019 53.0075 153.388 52.2032C154.91 51.5075 155.877 50.9531 156.291 50.5401C157.008 49.8227 157.367 48.9422 157.367 47.8987V43.1378C157.367 41.2899 156.736 40.2899 155.475 40.1377C155.106 40.0943 154.638 40.0725 154.073 40.0725C153.508 40.0725 152.986 40.2573 152.508 40.6269C152.203 40.2138 152.051 39.7899 152.051 39.3551C152.051 38.8986 152.16 38.3986 152.377 37.8551C152.617 37.2899 152.975 36.7572 153.454 36.2572C154.584 35.0833 155.888 34.4963 157.367 34.4963C158.845 34.4963 160.182 34.7572 161.378 35.279C162.443 33.8876 163.66 33.192 165.03 33.192C167.269 33.192 168.389 34.3659 168.389 36.7138V47.8987C168.389 48.9422 168.617 49.6922 169.073 50.1488C169.747 50.8227 170.845 51.5075 172.367 52.2032C170.736 53.0075 169.715 53.6162 169.302 54.0293C168.693 54.7032 168.389 55.5184 168.389 56.475V66.9752C169.106 68.1274 169.921 68.7035 170.834 68.7035C171.747 68.7035 172.443 68.5187 172.921 68.1491C173.226 68.5621 173.378 69.0839 173.378 69.7143C173.378 70.323 173.063 70.91 172.432 71.4752C171.823 72.0405 170.899 72.3231 169.66 72.3231C168.421 72.3231 167.269 71.9753 166.204 71.2796C165.312 71.9753 164.236 72.3231 162.975 72.3231C161.715 72.3231 160.573 71.9753 159.551 71.2796ZM162.356 55.8228C162.378 55.0836 162.388 54.4641 162.388 53.9641C162.41 53.4641 162.421 53.0619 162.421 52.7575V51.8771C162.421 51.551 162.41 51.1271 162.388 50.6053C162.388 50.0836 162.378 49.5075 162.356 48.877C162.356 48.2466 162.345 47.627 162.323 47.0183C162.236 45.5183 162.128 44.4856 161.997 43.9204C161.736 42.6595 161.236 41.7899 160.497 41.3117V43.4313C160.497 47.1052 160.41 49.2683 160.236 49.9205C160.084 50.551 159.823 51.0292 159.454 51.3553C159.106 51.6597 158.584 51.9314 157.888 52.1706C159.193 52.6271 159.932 53.1814 160.106 53.8336C160.367 54.8771 160.497 57.2359 160.497 60.9098V63.0294C161.497 62.3773 162.062 61.0403 162.193 59.0185C162.301 57.6272 162.356 56.5619 162.356 55.8228ZM197.867 66.9099C198.28 66.4752 198.606 65.9317 198.846 65.2795C199.085 64.6056 199.204 63.9099 199.204 63.1925C199.204 62.4533 199.161 61.7794 199.074 61.1707C199.226 60.8446 199.639 60.5946 200.313 60.4207C200.987 60.225 201.433 60.1272 201.65 60.1272C202.476 60.1272 203.139 60.4424 203.639 61.0729C204.139 61.6816 204.389 62.5403 204.389 63.649C204.389 64.736 204.063 65.8121 203.411 66.8773C202.78 67.9426 201.933 68.8882 200.867 69.7143C198.498 71.5622 195.737 72.4861 192.585 72.4861C186.585 72.4861 182.606 70.2144 180.65 65.6708C179.932 63.9968 179.574 61.899 179.574 59.3772V55.3989C179.574 54.3771 178.454 53.301 176.215 52.1706C178.454 50.8879 179.574 49.1596 179.574 46.9857V43.1378C179.574 40.6595 178.563 39.4203 176.541 39.4203C175.802 39.4203 175.193 39.6051 174.715 39.9747C174.41 39.5616 174.258 39.1377 174.258 38.7029C174.258 38.2464 174.334 37.7573 174.487 37.2355C174.66 36.692 174.954 36.2029 175.367 35.7681C176.41 34.6376 178.03 34.2463 180.226 34.5942V33.5507C180.226 31.268 180.802 29.2571 181.954 27.5179C182.976 25.9527 183.878 25.1701 184.661 25.1701C185.465 25.1701 186.085 25.4418 186.519 25.9853C186.889 24.2679 187.378 23.0287 187.987 22.2679C188.595 21.507 189.465 21.1265 190.595 21.1265V34.7246H201.193C201.367 35.0724 201.454 35.6594 201.454 36.4855C201.454 37.2899 201.139 37.942 200.509 38.442C199.878 38.9203 199.117 39.1595 198.226 39.1595H190.595V61.2359C190.595 65.0186 191.454 67.236 193.172 67.8882C193.672 68.0621 194.204 68.1491 194.769 68.1491C195.356 68.1491 195.911 68.0513 196.433 67.8556C196.976 67.6382 197.454 67.323 197.867 66.9099ZM182.704 63.0294C183.726 62.3773 184.302 61.0185 184.432 58.9533C184.519 57.475 184.563 56.3228 184.563 55.4967C184.585 54.6706 184.595 54.0075 184.595 53.5075C184.617 52.9858 184.628 52.5836 184.628 52.301V50.9966C184.628 50.3662 184.617 49.5618 184.595 48.5835C184.595 47.5835 184.585 46.5074 184.563 45.3552C184.563 44.1813 184.541 43.0617 184.498 41.9965C184.432 39.4312 184.335 37.866 184.204 37.3007C183.943 36.0398 183.443 35.1703 182.704 34.692V44.8661C182.704 47.8879 182.65 49.4857 182.541 49.6596C182.454 49.8336 182.378 50.0401 182.313 50.2792C182.117 50.9314 181.378 51.4749 180.095 51.9097C181.4 52.3662 182.139 52.9206 182.313 53.5728C182.574 54.6162 182.704 57.0619 182.704 60.9098V63.0294ZM244.336 38.0507C243.857 37.7464 243.096 37.5942 242.053 37.5942C239.966 37.5942 238.39 39.0073 237.325 41.8334L236.314 44.6704C235.575 46.7357 235.194 48.1487 235.172 48.9096C235.172 49.6705 235.303 50.2901 235.564 50.7684C235.846 51.2249 236.466 51.7032 237.422 52.2032C235.075 52.8553 233.477 53.9532 232.629 55.4967C232.368 55.975 232.14 56.475 231.944 56.9967L226.531 71.7035C224.422 77.7688 222.466 81.8776 220.661 84.0298C219.009 86.0081 216.944 86.9973 214.465 86.9973C212.574 86.9973 210.791 86.3886 209.118 85.1711C207.204 83.8015 206.248 82.1928 206.248 80.345C206.248 79.1928 206.552 78.3123 207.161 77.7036C207.77 77.1166 208.324 76.8232 208.824 76.8232C209.346 76.8232 209.705 76.8232 209.9 76.8232C210.096 76.8449 210.291 76.8884 210.487 76.9536C210.878 77.1275 211.248 77.5188 211.596 78.1275C211.139 78.9971 211.433 79.9537 212.476 80.9972C213.455 82.0189 214.368 82.5298 215.215 82.5298C216.085 82.5298 216.802 82.3667 217.368 82.0406C217.955 81.7146 218.476 81.2145 218.933 80.5406C219.933 79.0623 220.433 76.9427 220.433 74.1818C220.433 72.6818 220.031 71.0296 219.226 69.2252C219.009 68.6165 218.748 67.9752 218.444 67.3013L213.813 56.8663C213.313 55.7576 212.552 54.7793 211.531 53.9315C210.531 53.0619 209.4 52.4858 208.139 52.2032C209.639 51.4423 210.389 50.4423 210.389 49.2031C210.389 48.3118 210.031 46.9965 209.313 45.2574L207.389 40.6269C206.824 39.366 206.357 38.5725 205.987 38.2464C205.335 37.7246 204.574 37.4638 203.704 37.4638C202.857 37.4638 202.194 37.6486 201.715 38.0181C201.454 37.7573 201.324 37.3768 201.324 36.8768C201.302 36.3768 201.357 35.9637 201.487 35.6377C201.617 35.2898 201.835 34.9855 202.139 34.7246C202.791 34.1376 203.726 33.8441 204.944 33.8441C206.183 33.8441 207.346 34.2355 208.433 35.0181C209.324 34.2355 210.411 33.8441 211.694 33.8441C212.976 33.8441 214.107 34.2028 215.085 34.9202C216.063 34.2028 217.161 33.8441 218.379 33.8441C219.596 33.8441 220.553 34.1376 221.248 34.7246C221.966 35.2898 222.335 35.855 222.357 36.4203C222.379 37.2681 222.237 37.8442 221.933 38.1486C221.411 37.7573 220.868 37.5616 220.303 37.5616C219.737 37.5616 219.27 37.7246 218.9 38.0507C218.553 38.3768 218.4 38.9094 218.444 39.6486L225.977 59.9968L233.118 39.0942C232.879 37.9855 232.085 37.4312 230.737 37.4312C229.89 37.4312 229.085 37.6377 228.324 38.0507C228.107 37.6377 227.998 37.1051 227.998 36.4529C228.02 35.8007 228.324 35.2029 228.911 34.6594C229.52 34.1159 230.335 33.8441 231.357 33.8441C232.401 33.8441 233.292 34.192 234.031 34.8876C234.814 34.192 235.694 33.8441 236.672 33.8441C237.651 33.8441 238.542 34.1485 239.346 34.7572C240.085 34.1485 240.901 33.8441 241.792 33.8441C242.705 33.8441 243.423 34.105 243.944 34.6268C244.488 35.1485 244.749 35.692 244.727 36.2572C244.683 37.1268 244.553 37.7246 244.336 38.0507ZM212.933 41.3117C212.433 41.6378 212.183 42.0508 212.183 42.5508C212.205 43.0508 212.226 43.4421 212.248 43.7248C212.292 43.9856 212.357 44.3008 212.444 44.6704C212.639 45.3661 213.031 46.3987 213.618 47.7683C214.226 49.1162 214.542 49.964 214.563 50.3118C214.607 50.6379 214.498 51.0075 214.237 51.4205C213.976 51.8119 213.661 52.0727 213.292 52.2032C214.683 52.464 215.542 52.9532 215.868 53.6706C216.02 53.9749 216.237 54.4532 216.52 55.1054L218.737 60.062C219.172 61.062 219.629 62.0512 220.107 63.0294C220.998 61.9425 220.607 59.4424 218.933 55.5293L212.933 41.3117Z" fill="white"/>
</svg>
