<svg width="196" height="24" viewBox="0 0 196 24" fill="none" xmlns="http://www.w3.org/2000/svg">
<path d="M8.704 14.832C8.704 15.3653 8.57067 15.8667 8.304 16.336C8.048 16.8053 7.664 17.2 7.152 17.52C6.65067 17.84 6.05333 18.032 5.36 18.096V19.392H4.32V18.096C3.31733 18 2.50667 17.6853 1.888 17.152C1.26933 16.6187 0.96 15.9147 0.96 15.04H2.912C2.944 15.456 3.07733 15.8027 3.312 16.08C3.54667 16.3467 3.88267 16.5173 4.32 16.592V13.072C3.60533 12.8907 3.024 12.7093 2.576 12.528C2.128 12.336 1.744 12.0373 1.424 11.632C1.11467 11.2267 0.96 10.672 0.96 9.968C0.96 9.08267 1.26933 8.352 1.888 7.776C2.50667 7.18933 3.31733 6.848 4.32 6.752V5.456H5.36V6.752C6.29867 6.83733 7.05067 7.136 7.616 7.648C8.192 8.14933 8.51733 8.84267 8.592 9.728H6.64C6.608 9.39733 6.48 9.104 6.256 8.848C6.032 8.58133 5.73333 8.4 5.36 8.304V11.76C6.07467 11.9307 6.656 12.112 7.104 12.304C7.552 12.4853 7.93067 12.7787 8.24 13.184C8.54933 13.5787 8.704 14.128 8.704 14.832ZM2.816 9.872C2.816 10.3093 2.944 10.6507 3.2 10.896C3.46667 11.1413 3.84 11.3387 4.32 11.488V8.256C3.86133 8.30933 3.49333 8.47467 3.216 8.752C2.94933 9.02933 2.816 9.40267 2.816 9.872ZM5.36 16.592C5.82933 16.5173 6.19733 16.3307 6.464 16.032C6.73067 15.7227 6.864 15.3547 6.864 14.928C6.864 14.5013 6.73067 14.1707 6.464 13.936C6.208 13.6907 5.84 13.4933 5.36 13.344V16.592ZM18.7583 7.744L14.3103 18H12.4703L16.9663 7.936H11.0463V6.384H18.7583V7.744ZM20.3194 12.016C20.3194 10.1707 20.6287 8.73067 21.2474 7.696C21.8767 6.65067 22.954 6.128 24.4794 6.128C26.0047 6.128 27.0767 6.65067 27.6954 7.696C28.3247 8.73067 28.6394 10.1707 28.6394 12.016C28.6394 13.8827 28.3247 15.344 27.6954 16.4C27.0767 17.4453 26.0047 17.968 24.4794 17.968C22.954 17.968 21.8767 17.4453 21.2474 16.4C20.6287 15.344 20.3194 13.8827 20.3194 12.016ZM26.8474 12.016C26.8474 11.152 26.7887 10.4213 26.6714 9.824C26.5647 9.22667 26.3407 8.74133 25.9994 8.368C25.658 7.984 25.1514 7.792 24.4794 7.792C23.8074 7.792 23.3007 7.984 22.9594 8.368C22.618 8.74133 22.3887 9.22667 22.2714 9.824C22.1647 10.4213 22.1114 11.152 22.1114 12.016C22.1114 12.912 22.1647 13.664 22.2714 14.272C22.378 14.88 22.602 15.3707 22.9434 15.744C23.2954 16.1173 23.8074 16.304 24.4794 16.304C25.1514 16.304 25.658 16.1173 25.9994 15.744C26.3514 15.3707 26.5807 14.88 26.6874 14.272C26.794 13.664 26.8474 12.912 26.8474 12.016ZM30.5694 12.016C30.5694 10.1707 30.8787 8.73067 31.4974 7.696C32.1267 6.65067 33.204 6.128 34.7294 6.128C36.2547 6.128 37.3267 6.65067 37.9454 7.696C38.5747 8.73067 38.8894 10.1707 38.8894 12.016C38.8894 13.8827 38.5747 15.344 37.9454 16.4C37.3267 17.4453 36.2547 17.968 34.7294 17.968C33.204 17.968 32.1267 17.4453 31.4974 16.4C30.8787 15.344 30.5694 13.8827 30.5694 12.016ZM37.0974 12.016C37.0974 11.152 37.0387 10.4213 36.9214 9.824C36.8147 9.22667 36.5907 8.74133 36.2494 8.368C35.908 7.984 35.4014 7.792 34.7294 7.792C34.0574 7.792 33.5507 7.984 33.2094 8.368C32.868 8.74133 32.6387 9.22667 32.5214 9.824C32.4147 10.4213 32.3614 11.152 32.3614 12.016C32.3614 12.912 32.4147 13.664 32.5214 14.272C32.628 14.88 32.852 15.3707 33.1934 15.744C33.5454 16.1173 34.0574 16.304 34.7294 16.304C35.4014 16.304 35.908 16.1173 36.2494 15.744C36.6014 15.3707 36.8307 14.88 36.9374 14.272C37.044 13.664 37.0974 12.912 37.0974 12.016Z" fill="#DB4444"/>
<path d="M64.673 12.1717C65.7437 11.3618 65.1709 9.65517 63.8284 9.65517H61.3992C60.7853 9.65517 60.243 9.25521 60.0617 8.66868L59.3375 6.32637C58.9309 5.01106 57.0691 5.01106 56.6625 6.32637L55.9383 8.66868C55.757 9.25521 55.2147 9.65517 54.6008 9.65517H52.1296C50.7914 9.65517 50.2159 11.3527 51.2782 12.1665L53.3947 13.7879C53.8588 14.1435 54.0531 14.7501 53.882 15.3092L53.113 17.8207C52.7142 19.1232 54.2217 20.1704 55.303 19.342L57.1486 17.9281C57.651 17.5432 58.349 17.5432 58.8514 17.9281L60.6807 19.3295C61.7636 20.159 63.2725 19.1079 62.8696 17.8046L62.09 15.2827C61.9159 14.7198 62.113 14.1081 62.5829 13.7526L64.673 12.1717Z" fill="#FFAD33"/>
<path d="M84.673 12.1717C85.7437 11.3618 85.1709 9.65517 83.8284 9.65517H81.3992C80.7853 9.65517 80.243 9.25521 80.0617 8.66868L79.3375 6.32637C78.9309 5.01106 77.0691 5.01106 76.6625 6.32637L75.9383 8.66868C75.757 9.25521 75.2147 9.65517 74.6008 9.65517H72.1296C70.7914 9.65517 70.2159 11.3527 71.2782 12.1665L73.3947 13.7879C73.8588 14.1435 74.0531 14.7501 73.882 15.3092L73.113 17.8207C72.7142 19.1232 74.2217 20.1704 75.303 19.342L77.1486 17.9281C77.651 17.5432 78.349 17.5432 78.8514 17.9281L80.6807 19.3295C81.7636 20.159 83.2725 19.1079 82.8696 17.8046L82.09 15.2827C81.9159 14.7198 82.113 14.1081 82.5829 13.7526L84.673 12.1717Z" fill="#FFAD33"/>
<path d="M104.673 12.1717C105.744 11.3618 105.171 9.65517 103.828 9.65517H101.399C100.785 9.65517 100.243 9.25521 100.062 8.66868L99.3375 6.32637C98.9309 5.01106 97.0691 5.01106 96.6625 6.32637L95.9383 8.66868C95.757 9.25521 95.2147 9.65517 94.6008 9.65517H92.1296C90.7914 9.65517 90.2159 11.3527 91.2782 12.1665L93.3947 13.7879C93.8588 14.1435 94.0531 14.7501 93.882 15.3092L93.113 17.8207C92.7142 19.1232 94.2217 20.1704 95.303 19.342L97.1486 17.9281C97.651 17.5432 98.349 17.5432 98.8514 17.9281L100.681 19.3295C101.764 20.159 103.273 19.1079 102.87 17.8046L102.09 15.2827C101.916 14.7198 102.113 14.1081 102.583 13.7526L104.673 12.1717Z" fill="#FFAD33"/>
<path d="M124.673 12.1717C125.744 11.3618 125.171 9.65517 123.828 9.65517H121.399C120.785 9.65517 120.243 9.25521 120.062 8.66868L119.338 6.32637C118.931 5.01106 117.069 5.01106 116.662 6.32637L115.938 8.66868C115.757 9.25521 115.215 9.65517 114.601 9.65517H112.13C110.791 9.65517 110.216 11.3527 111.278 12.1665L113.395 13.7879C113.859 14.1435 114.053 14.7501 113.882 15.3092L113.113 17.8207C112.714 19.1232 114.222 20.1704 115.303 19.342L117.149 17.9281C117.651 17.5432 118.349 17.5432 118.851 17.9281L120.681 19.3295C121.764 20.159 123.273 19.1079 122.87 17.8046L122.09 15.2827C121.916 14.7198 122.113 14.1081 122.583 13.7526L124.673 12.1717Z" fill="#FFAD33"/>
<path d="M144.673 12.1717C145.744 11.3618 145.171 9.65517 143.828 9.65517H141.399C140.785 9.65517 140.243 9.25521 140.062 8.66868L139.338 6.32637C138.931 5.01106 137.069 5.01106 136.662 6.32637L135.938 8.66868C135.757 9.25521 135.215 9.65517 134.601 9.65517H132.13C130.791 9.65517 130.216 11.3527 131.278 12.1665L133.395 13.7879C133.859 14.1435 134.053 14.7501 133.882 15.3092L133.113 17.8207C132.714 19.1232 134.222 20.1704 135.303 19.342L137.149 17.9281C137.651 17.5432 138.349 17.5432 138.851 17.9281L140.681 19.3295C141.764 20.159 143.273 19.1079 142.87 17.8046L142.09 15.2827C141.916 14.7198 142.113 14.1081 142.583 13.7526L144.673 12.1717Z" fill="#FFAD33"/>
<path opacity="0.5" d="M160.354 19.758C159.449 18.8807 158.744 17.7607 158.24 16.398C157.745 15.0353 157.498 13.5747 157.498 12.016C157.498 10.42 157.759 8.922 158.282 7.522C158.805 6.11267 159.565 4.96 160.564 4.064H162.538V4.246C161.511 5.226 160.727 6.402 160.186 7.774C159.654 9.146 159.388 10.56 159.388 12.016C159.388 13.4347 159.64 14.8067 160.144 16.132C160.657 17.448 161.385 18.5913 162.328 19.562V19.758H160.354ZM163.565 9.482C163.612 8.54867 163.938 7.83 164.545 7.326C165.161 6.81267 165.968 6.556 166.967 6.556C167.648 6.556 168.232 6.67733 168.717 6.92C169.202 7.15333 169.566 7.47533 169.809 7.886C170.061 8.28733 170.187 8.74467 170.187 9.258C170.187 9.846 170.033 10.3453 169.725 10.756C169.426 11.1573 169.067 11.428 168.647 11.568V11.624C169.188 11.792 169.608 12.0907 169.907 12.52C170.215 12.9493 170.369 13.5 170.369 14.172C170.369 14.732 170.238 15.2313 169.977 15.67C169.725 16.1087 169.347 16.454 168.843 16.706C168.348 16.9487 167.751 17.07 167.051 17.07C165.996 17.07 165.138 16.804 164.475 16.272C163.812 15.74 163.462 14.956 163.425 13.92H165.329C165.348 14.3773 165.502 14.746 165.791 15.026C166.09 15.2967 166.496 15.432 167.009 15.432C167.485 15.432 167.849 15.3013 168.101 15.04C168.362 14.7693 168.493 14.424 168.493 14.004C168.493 13.444 168.316 13.0427 167.961 12.8C167.606 12.5573 167.056 12.436 166.309 12.436H165.903V10.826H166.309C167.634 10.826 168.297 10.3827 168.297 9.496C168.297 9.09467 168.176 8.782 167.933 8.558C167.7 8.334 167.359 8.222 166.911 8.222C166.472 8.222 166.132 8.34333 165.889 8.586C165.656 8.81933 165.52 9.118 165.483 9.482H163.565ZM172.534 14.788C173.43 14.0413 174.144 13.4207 174.676 12.926C175.208 12.422 175.651 11.8993 176.006 11.358C176.36 10.8167 176.538 10.2847 176.538 9.762C176.538 9.286 176.426 8.91267 176.202 8.642C175.978 8.37133 175.632 8.236 175.166 8.236C174.699 8.236 174.34 8.39467 174.088 8.712C173.836 9.02 173.705 9.44467 173.696 9.986H171.792C171.829 8.866 172.16 8.01667 172.786 7.438C173.42 6.85933 174.223 6.57 175.194 6.57C176.258 6.57 177.074 6.85467 177.644 7.424C178.213 7.984 178.498 8.726 178.498 9.65C178.498 10.378 178.302 11.0733 177.91 11.736C177.518 12.3987 177.07 12.9773 176.566 13.472C176.062 13.9573 175.404 14.5453 174.592 15.236H178.722V16.86H171.806V15.404L172.534 14.788ZM186.817 8.488H182.281V10.882C182.477 10.6393 182.757 10.4433 183.121 10.294C183.485 10.1353 183.872 10.056 184.283 10.056C185.03 10.056 185.641 10.2193 186.117 10.546C186.593 10.8727 186.938 11.2927 187.153 11.806C187.368 12.31 187.475 12.8513 187.475 13.43C187.475 14.5033 187.167 15.3667 186.551 16.02C185.944 16.6733 185.076 17 183.947 17C182.883 17 182.034 16.734 181.399 16.202C180.764 15.67 180.405 14.9747 180.321 14.116H182.225C182.309 14.4893 182.496 14.788 182.785 15.012C183.084 15.236 183.462 15.348 183.919 15.348C184.47 15.348 184.885 15.1753 185.165 14.83C185.445 14.4847 185.585 14.0273 185.585 13.458C185.585 12.8793 185.44 12.4407 185.151 12.142C184.871 11.834 184.456 11.68 183.905 11.68C183.513 11.68 183.186 11.778 182.925 11.974C182.664 12.17 182.477 12.4313 182.365 12.758H180.489V6.766H186.817V8.488ZM188.687 19.758V19.562C189.629 18.5913 190.353 17.448 190.857 16.132C191.37 14.8067 191.627 13.4347 191.627 12.016C191.627 10.56 191.356 9.146 190.815 7.774C190.283 6.402 189.503 5.226 188.477 4.246V4.064H190.451C191.449 4.96 192.21 6.11267 192.733 7.522C193.255 8.922 193.517 10.42 193.517 12.016C193.517 13.5747 193.265 15.0353 192.761 16.398C192.266 17.7607 191.566 18.8807 190.661 19.758H188.687Z" fill="black"/>
</svg>
