<svg width="198" height="24" viewBox="0 0 198 24" fill="none" xmlns="http://www.w3.org/2000/svg">
<path d="M8.704 14.832C8.704 15.3653 8.57067 15.8667 8.304 16.336C8.048 16.8053 7.664 17.2 7.152 17.52C6.65067 17.84 6.05333 18.032 5.36 18.096V19.392H4.32V18.096C3.31733 18 2.50667 17.6853 1.888 17.152C1.26933 16.6187 0.96 15.9147 0.96 15.04H2.912C2.944 15.456 3.07733 15.8027 3.312 16.08C3.54667 16.3467 3.88267 16.5173 4.32 16.592V13.072C3.60533 12.8907 3.024 12.7093 2.576 12.528C2.128 12.336 1.744 12.0373 1.424 11.632C1.11467 11.2267 0.96 10.672 0.96 9.968C0.96 9.08267 1.26933 8.352 1.888 7.776C2.50667 7.18933 3.31733 6.848 4.32 6.752V5.456H5.36V6.752C6.29867 6.83733 7.05067 7.136 7.616 7.648C8.192 8.14933 8.51733 8.84267 8.592 9.728H6.64C6.608 9.39733 6.48 9.104 6.256 8.848C6.032 8.58133 5.73333 8.4 5.36 8.304V11.76C6.07467 11.9307 6.656 12.112 7.104 12.304C7.552 12.4853 7.93067 12.7787 8.24 13.184C8.54933 13.5787 8.704 14.128 8.704 14.832ZM2.816 9.872C2.816 10.3093 2.944 10.6507 3.2 10.896C3.46667 11.1413 3.84 11.3387 4.32 11.488V8.256C3.86133 8.30933 3.49333 8.47467 3.216 8.752C2.94933 9.02933 2.816 9.40267 2.816 9.872ZM5.36 16.592C5.82933 16.5173 6.19733 16.3307 6.464 16.032C6.73067 15.7227 6.864 15.3547 6.864 14.928C6.864 14.5013 6.73067 14.1707 6.464 13.936C6.208 13.6907 5.84 13.4933 5.36 13.344V16.592ZM18.8863 7.904H13.5263V11.088C13.7503 10.7893 14.0809 10.5387 14.5182 10.336C14.9663 10.1333 15.4409 10.032 15.9423 10.032C16.8383 10.032 17.5636 10.224 18.1183 10.608C18.6836 10.992 19.0836 11.4773 19.3183 12.064C19.5636 12.6507 19.6863 13.2693 19.6863 13.92C19.6863 14.7093 19.5316 15.4133 19.2222 16.032C18.9236 16.64 18.4703 17.12 17.8623 17.472C17.2649 17.824 16.5289 18 15.6543 18C14.4916 18 13.5583 17.712 12.8543 17.136C12.1503 16.56 11.7289 15.7973 11.5903 14.848H13.3663C13.4836 15.3493 13.7449 15.7493 14.1503 16.048C14.5556 16.336 15.0623 16.48 15.6703 16.48C16.4276 16.48 16.9929 16.2507 17.3663 15.792C17.7503 15.3333 17.9423 14.7253 17.9423 13.968C17.9423 13.2 17.7503 12.6133 17.3663 12.208C16.9823 11.792 16.4169 11.584 15.6703 11.584C15.1476 11.584 14.7049 11.7173 14.3423 11.984C13.9903 12.24 13.7343 12.592 13.5743 13.04H11.8463V6.304H18.8863V7.904ZM21.585 12.016C21.585 10.1707 21.8943 8.73067 22.513 7.696C23.1423 6.65067 24.2197 6.128 25.745 6.128C27.2703 6.128 28.3423 6.65067 28.961 7.696C29.5903 8.73067 29.905 10.1707 29.905 12.016C29.905 13.8827 29.5903 15.344 28.961 16.4C28.3423 17.4453 27.2703 17.968 25.745 17.968C24.2197 17.968 23.1423 17.4453 22.513 16.4C21.8943 15.344 21.585 13.8827 21.585 12.016ZM28.113 12.016C28.113 11.152 28.0543 10.4213 27.937 9.824C27.8303 9.22667 27.6063 8.74133 27.265 8.368C26.9237 7.984 26.417 7.792 25.745 7.792C25.073 7.792 24.5663 7.984 24.225 8.368C23.8837 8.74133 23.6543 9.22667 23.537 9.824C23.4303 10.4213 23.377 11.152 23.377 12.016C23.377 12.912 23.4303 13.664 23.537 14.272C23.6437 14.88 23.8677 15.3707 24.209 15.744C24.561 16.1173 25.073 16.304 25.745 16.304C26.417 16.304 26.9237 16.1173 27.265 15.744C27.617 15.3707 27.8463 14.88 27.953 14.272C28.0597 13.664 28.113 12.912 28.113 12.016ZM31.835 12.016C31.835 10.1707 32.1443 8.73067 32.763 7.696C33.3923 6.65067 34.4697 6.128 35.995 6.128C37.5203 6.128 38.5923 6.65067 39.211 7.696C39.8403 8.73067 40.155 10.1707 40.155 12.016C40.155 13.8827 39.8403 15.344 39.211 16.4C38.5923 17.4453 37.5203 17.968 35.995 17.968C34.4697 17.968 33.3923 17.4453 32.763 16.4C32.1443 15.344 31.835 13.8827 31.835 12.016ZM38.363 12.016C38.363 11.152 38.3043 10.4213 38.187 9.824C38.0803 9.22667 37.8563 8.74133 37.515 8.368C37.1737 7.984 36.667 7.792 35.995 7.792C35.323 7.792 34.8163 7.984 34.475 8.368C34.1337 8.74133 33.9043 9.22667 33.787 9.824C33.6803 10.4213 33.627 11.152 33.627 12.016C33.627 12.912 33.6803 13.664 33.787 14.272C33.8937 14.88 34.1177 15.3707 34.459 15.744C34.811 16.1173 35.323 16.304 35.995 16.304C36.667 16.304 37.1737 16.1173 37.515 15.744C37.867 15.3707 38.0963 14.88 38.203 14.272C38.3097 13.664 38.363 12.912 38.363 12.016Z" fill="#DB4444"/>
<path d="M66.673 12.1717C67.7437 11.3618 67.1709 9.65517 65.8284 9.65517H63.3992C62.7853 9.65517 62.243 9.25521 62.0617 8.66868L61.3375 6.32637C60.9309 5.01106 59.0691 5.01106 58.6625 6.32637L57.9383 8.66868C57.757 9.25521 57.2147 9.65517 56.6008 9.65517H54.1296C52.7914 9.65517 52.2159 11.3527 53.2782 12.1665L55.3947 13.7879C55.8588 14.1435 56.0531 14.7501 55.882 15.3092L55.113 17.8207C54.7142 19.1232 56.2217 20.1704 57.303 19.342L59.1486 17.9281C59.651 17.5432 60.349 17.5432 60.8514 17.9281L62.6807 19.3295C63.7636 20.159 65.2725 19.1079 64.8696 17.8046L64.09 15.2827C63.9159 14.7198 64.113 14.1081 64.5829 13.7526L66.673 12.1717Z" fill="#FFAD33"/>
<path d="M86.673 12.1717C87.7437 11.3618 87.1709 9.65517 85.8284 9.65517H83.3992C82.7853 9.65517 82.243 9.25521 82.0617 8.66868L81.3375 6.32637C80.9309 5.01106 79.0691 5.01106 78.6625 6.32637L77.9383 8.66868C77.757 9.25521 77.2147 9.65517 76.6008 9.65517H74.1296C72.7914 9.65517 72.2159 11.3527 73.2782 12.1665L75.3947 13.7879C75.8588 14.1435 76.0531 14.7501 75.882 15.3092L75.113 17.8207C74.7142 19.1232 76.2217 20.1704 77.303 19.342L79.1486 17.9281C79.651 17.5432 80.349 17.5432 80.8514 17.9281L82.6807 19.3295C83.7636 20.159 85.2725 19.1079 84.8696 17.8046L84.09 15.2827C83.9159 14.7198 84.113 14.1081 84.5829 13.7526L86.673 12.1717Z" fill="#FFAD33"/>
<path d="M106.673 12.1717C107.744 11.3618 107.171 9.65517 105.828 9.65517H103.399C102.785 9.65517 102.243 9.25521 102.062 8.66868L101.338 6.32637C100.931 5.01106 99.0691 5.01106 98.6625 6.32637L97.9383 8.66868C97.757 9.25521 97.2147 9.65517 96.6008 9.65517H94.1296C92.7914 9.65517 92.2159 11.3527 93.2782 12.1665L95.3947 13.7879C95.8588 14.1435 96.0531 14.7501 95.882 15.3092L95.113 17.8207C94.7142 19.1232 96.2217 20.1704 97.303 19.342L99.1486 17.9281C99.651 17.5432 100.349 17.5432 100.851 17.9281L102.681 19.3295C103.764 20.159 105.273 19.1079 104.87 17.8046L104.09 15.2827C103.916 14.7198 104.113 14.1081 104.583 13.7526L106.673 12.1717Z" fill="#FFAD33"/>
<path d="M126.673 12.1717C127.744 11.3618 127.171 9.65517 125.828 9.65517H123.399C122.785 9.65517 122.243 9.25521 122.062 8.66868L121.338 6.32637C120.931 5.01106 119.069 5.01106 118.662 6.32637L117.938 8.66868C117.757 9.25521 117.215 9.65517 116.601 9.65517H114.13C112.791 9.65517 112.216 11.3527 113.278 12.1665L115.395 13.7879C115.859 14.1435 116.053 14.7501 115.882 15.3092L115.113 17.8207C114.714 19.1232 116.222 20.1704 117.303 19.342L119.149 17.9281C119.651 17.5432 120.349 17.5432 120.851 17.9281L122.681 19.3295C123.764 20.159 125.273 19.1079 124.87 17.8046L124.09 15.2827C123.916 14.7198 124.113 14.1081 124.583 13.7526L126.673 12.1717Z" fill="#FFAD33"/>
<path opacity="0.25" d="M146.673 12.1717C147.744 11.3618 147.171 9.65517 145.828 9.65517H143.399C142.785 9.65517 142.243 9.25521 142.062 8.66868L141.338 6.32637C140.931 5.01106 139.069 5.01106 138.662 6.32637L137.938 8.66868C137.757 9.25521 137.215 9.65517 136.601 9.65517H134.13C132.791 9.65517 132.216 11.3527 133.278 12.1665L135.395 13.7879C135.859 14.1435 136.053 14.7501 135.882 15.3092L135.113 17.8207C134.714 19.1232 136.222 20.1704 137.303 19.342L139.149 17.9281C139.651 17.5432 140.349 17.5432 140.851 17.9281L142.681 19.3295C143.764 20.159 145.273 19.1079 144.87 17.8046L144.09 15.2827C143.916 14.7198 144.113 14.1081 144.583 13.7526L146.673 12.1717Z" fill="black"/>
<path opacity="0.5" d="M162.354 19.758C161.449 18.8807 160.744 17.7607 160.24 16.398C159.745 15.0353 159.498 13.5747 159.498 12.016C159.498 10.42 159.759 8.922 160.282 7.522C160.805 6.11267 161.565 4.96 162.564 4.064H164.538V4.246C163.511 5.226 162.727 6.402 162.186 7.774C161.654 9.146 161.388 10.56 161.388 12.016C161.388 13.4347 161.64 14.8067 162.144 16.132C162.657 17.448 163.385 18.5913 164.328 19.562V19.758H162.354ZM165.299 8.6V6.794H168.673V17H166.657V8.6H165.299ZM170.525 15.012V13.472L175.103 6.92H177.385V13.304H178.617V15.012H177.385V17H175.425V15.012H170.525ZM175.551 9.02L172.681 13.304H175.551V9.02ZM186.725 8.488H182.189V10.882C182.385 10.6393 182.665 10.4433 183.029 10.294C183.393 10.1353 183.78 10.056 184.191 10.056C184.938 10.056 185.549 10.2193 186.025 10.546C186.501 10.8727 186.846 11.2927 187.061 11.806C187.276 12.31 187.383 12.8513 187.383 13.43C187.383 14.5033 187.075 15.3667 186.459 16.02C185.852 16.6733 184.984 17 183.855 17C182.791 17 181.942 16.734 181.307 16.202C180.672 15.67 180.313 14.9747 180.229 14.116H182.133C182.217 14.4893 182.404 14.788 182.693 15.012C182.992 15.236 183.37 15.348 183.827 15.348C184.378 15.348 184.793 15.1753 185.073 14.83C185.353 14.4847 185.493 14.0273 185.493 13.458C185.493 12.8793 185.348 12.4407 185.059 12.142C184.779 11.834 184.364 11.68 183.813 11.68C183.421 11.68 183.094 11.778 182.833 11.974C182.572 12.17 182.385 12.4313 182.273 12.758H180.397V6.766H186.725V8.488ZM188.595 19.758V19.562C189.537 18.5913 190.261 17.448 190.765 16.132C191.278 14.8067 191.535 13.4347 191.535 12.016C191.535 10.56 191.264 9.146 190.723 7.774C190.191 6.402 189.411 5.226 188.385 4.246V4.064H190.359C191.357 4.96 192.118 6.11267 192.641 7.522C193.163 8.922 193.425 10.42 193.425 12.016C193.425 13.5747 193.173 15.0353 192.669 16.398C192.174 17.7607 191.474 18.8807 190.569 19.758H188.595Z" fill="black"/>
</svg>
