<svg width="190" height="24" viewBox="0 0 190 24" fill="none" xmlns="http://www.w3.org/2000/svg">
<path d="M8.704 14.832C8.704 15.3653 8.57067 15.8667 8.304 16.336C8.048 16.8053 7.664 17.2 7.152 17.52C6.65067 17.84 6.05333 18.032 5.36 18.096V19.392H4.32V18.096C3.31733 18 2.50667 17.6853 1.888 17.152C1.26933 16.6187 0.96 15.9147 0.96 15.04H2.912C2.944 15.456 3.07733 15.8027 3.312 16.08C3.54667 16.3467 3.88267 16.5173 4.32 16.592V13.072C3.60533 12.8907 3.024 12.7093 2.576 12.528C2.128 12.336 1.744 12.0373 1.424 11.632C1.11467 11.2267 0.96 10.672 0.96 9.968C0.96 9.08267 1.26933 8.352 1.888 7.776C2.50667 7.18933 3.31733 6.848 4.32 6.752V5.456H5.36V6.752C6.29867 6.83733 7.05067 7.136 7.616 7.648C8.192 8.14933 8.51733 8.84267 8.592 9.728H6.64C6.608 9.39733 6.48 9.104 6.256 8.848C6.032 8.58133 5.73333 8.4 5.36 8.304V11.76C6.07467 11.9307 6.656 12.112 7.104 12.304C7.552 12.4853 7.93067 12.7787 8.24 13.184C8.54933 13.5787 8.704 14.128 8.704 14.832ZM2.816 9.872C2.816 10.3093 2.944 10.6507 3.2 10.896C3.46667 11.1413 3.84 11.3387 4.32 11.488V8.256C3.86133 8.30933 3.49333 8.47467 3.216 8.752C2.94933 9.02933 2.816 9.40267 2.816 9.872ZM5.36 16.592C5.82933 16.5173 6.19733 16.3307 6.464 16.032C6.73067 15.7227 6.864 15.3547 6.864 14.928C6.864 14.5013 6.73067 14.1707 6.464 13.936C6.208 13.6907 5.84 13.4933 5.36 13.344V16.592ZM13.6383 14.832C13.7449 15.3653 13.9743 15.7707 14.3263 16.048C14.6783 16.3253 15.1529 16.464 15.7503 16.464C16.5076 16.464 17.0623 16.1653 17.4143 15.568C17.7663 14.9707 17.9423 13.952 17.9423 12.512C17.6863 12.8747 17.3236 13.1573 16.8543 13.36C16.3956 13.552 15.8943 13.648 15.3503 13.648C14.6569 13.648 14.0276 13.5093 13.4623 13.232C12.8969 12.944 12.4489 12.5227 12.1183 11.968C11.7983 11.4027 11.6383 10.72 11.6383 9.92C11.6383 8.74667 11.9796 7.81333 12.6623 7.12C13.3556 6.416 14.3049 6.064 15.5103 6.064C16.9609 6.064 17.9903 6.54933 18.5983 7.52C19.2169 8.48 19.5263 9.95733 19.5263 11.952C19.5263 13.328 19.4089 14.4533 19.1743 15.328C18.9503 16.2027 18.5556 16.864 17.9903 17.312C17.4249 17.76 16.6409 17.984 15.6383 17.984C14.4969 17.984 13.6169 17.6853 12.9983 17.088C12.3796 16.4907 12.0329 15.7387 11.9583 14.832H13.6383ZM15.6703 12.112C16.3103 12.112 16.8116 11.9147 17.1743 11.52C17.5476 11.1147 17.7343 10.5813 17.7343 9.92C17.7343 9.184 17.5369 8.61333 17.1423 8.208C16.7583 7.792 16.2303 7.584 15.5583 7.584C14.8863 7.584 14.3529 7.79733 13.9583 8.224C13.5743 8.64 13.3823 9.18933 13.3823 9.872C13.3823 10.5227 13.5689 11.0613 13.9423 11.488C14.3263 11.904 14.9023 12.112 15.6703 12.112ZM27.7945 9.04C27.6772 8.54933 27.4638 8.18133 27.1545 7.936C26.8452 7.69067 26.4132 7.568 25.8585 7.568C25.0158 7.568 24.3865 7.89333 23.9705 8.544C23.5545 9.184 23.3358 10.2507 23.3145 11.744C23.5918 11.2747 23.9972 10.912 24.5305 10.656C25.0638 10.4 25.6398 10.272 26.2585 10.272C26.9625 10.272 27.5812 10.4267 28.1145 10.736C28.6585 11.0347 29.0798 11.472 29.3785 12.048C29.6878 12.624 29.8425 13.312 29.8425 14.112C29.8425 14.8587 29.6932 15.5253 29.3945 16.112C29.1065 16.6987 28.6745 17.1627 28.0985 17.504C27.5225 17.8347 26.8292 18 26.0185 18C24.9198 18 24.0558 17.76 23.4265 17.28C22.8078 16.7893 22.3705 16.1013 22.1145 15.216C21.8692 14.3307 21.7465 13.2267 21.7465 11.904C21.7465 8 23.1225 6.048 25.8745 6.048C26.9412 6.048 27.7785 6.336 28.3865 6.912C29.0052 7.488 29.3678 8.19733 29.4745 9.04H27.7945ZM25.8585 11.808C25.2078 11.808 24.6532 12.0053 24.1945 12.4C23.7465 12.784 23.5225 13.344 23.5225 14.08C23.5225 14.816 23.7305 15.4027 24.1465 15.84C24.5732 16.2667 25.1652 16.48 25.9225 16.48C26.5945 16.48 27.1225 16.272 27.5065 15.856C27.9012 15.44 28.0985 14.8853 28.0985 14.192C28.0985 13.4667 27.9065 12.8907 27.5225 12.464C27.1492 12.0267 26.5945 11.808 25.8585 11.808ZM31.7881 12.016C31.7881 10.1707 32.0975 8.73067 32.7161 7.696C33.3455 6.65067 34.4228 6.128 35.9481 6.128C37.4735 6.128 38.5455 6.65067 39.1641 7.696C39.7935 8.73067 40.1081 10.1707 40.1081 12.016C40.1081 13.8827 39.7935 15.344 39.1641 16.4C38.5455 17.4453 37.4735 17.968 35.9481 17.968C34.4228 17.968 33.3455 17.4453 32.7161 16.4C32.0975 15.344 31.7881 13.8827 31.7881 12.016ZM38.3161 12.016C38.3161 11.152 38.2575 10.4213 38.1401 9.824C38.0335 9.22667 37.8095 8.74133 37.4681 8.368C37.1268 7.984 36.6201 7.792 35.9481 7.792C35.2761 7.792 34.7695 7.984 34.4281 8.368C34.0868 8.74133 33.8575 9.22667 33.7401 9.824C33.6335 10.4213 33.5801 11.152 33.5801 12.016C33.5801 12.912 33.6335 13.664 33.7401 14.272C33.8468 14.88 34.0708 15.3707 34.4121 15.744C34.7641 16.1173 35.2761 16.304 35.9481 16.304C36.6201 16.304 37.1268 16.1173 37.4681 15.744C37.8201 15.3707 38.0495 14.88 38.1561 14.272C38.2628 13.664 38.3161 12.912 38.3161 12.016Z" fill="#DB4444"/>
<path d="M66.673 12.1717C67.7437 11.3618 67.1709 9.65517 65.8284 9.65517H63.3992C62.7853 9.65517 62.243 9.25521 62.0617 8.66868L61.3375 6.32637C60.9309 5.01106 59.0691 5.01106 58.6625 6.32637L57.9383 8.66868C57.757 9.25521 57.2147 9.65517 56.6008 9.65517H54.1296C52.7914 9.65517 52.2159 11.3527 53.2782 12.1665L55.3947 13.7879C55.8588 14.1435 56.0531 14.7501 55.882 15.3092L55.113 17.8207C54.7142 19.1232 56.2217 20.1704 57.303 19.342L59.1486 17.9281C59.651 17.5432 60.349 17.5432 60.8514 17.9281L62.6807 19.3295C63.7636 20.159 65.2725 19.1079 64.8696 17.8046L64.09 15.2827C63.9159 14.7198 64.113 14.1081 64.5829 13.7526L66.673 12.1717Z" fill="#FFAD33"/>
<path d="M86.673 12.1717C87.7437 11.3618 87.1709 9.65517 85.8284 9.65517H83.3992C82.7853 9.65517 82.243 9.25521 82.0617 8.66868L81.3375 6.32637C80.9309 5.01106 79.0691 5.01106 78.6625 6.32637L77.9383 8.66868C77.757 9.25521 77.2147 9.65517 76.6008 9.65517H74.1296C72.7914 9.65517 72.2159 11.3527 73.2782 12.1665L75.3947 13.7879C75.8588 14.1435 76.0531 14.7501 75.882 15.3092L75.113 17.8207C74.7142 19.1232 76.2217 20.1704 77.303 19.342L79.1486 17.9281C79.651 17.5432 80.349 17.5432 80.8514 17.9281L82.6807 19.3295C83.7636 20.159 85.2725 19.1079 84.8696 17.8046L84.09 15.2827C83.9159 14.7198 84.113 14.1081 84.5829 13.7526L86.673 12.1717Z" fill="#FFAD33"/>
<path d="M106.673 12.1717C107.744 11.3618 107.171 9.65517 105.828 9.65517H103.399C102.785 9.65517 102.243 9.25521 102.062 8.66868L101.338 6.32637C100.931 5.01106 99.0691 5.01106 98.6625 6.32637L97.9383 8.66868C97.757 9.25521 97.2147 9.65517 96.6008 9.65517H94.1296C92.7914 9.65517 92.2159 11.3527 93.2782 12.1665L95.3947 13.7879C95.8588 14.1435 96.0531 14.7501 95.882 15.3092L95.113 17.8207C94.7142 19.1232 96.2217 20.1704 97.303 19.342L99.1486 17.9281C99.651 17.5432 100.349 17.5432 100.851 17.9281L102.681 19.3295C103.764 20.159 105.273 19.1079 104.87 17.8046L104.09 15.2827C103.916 14.7198 104.113 14.1081 104.583 13.7526L106.673 12.1717Z" fill="#FFAD33"/>
<path d="M126.673 12.1717C127.744 11.3618 127.171 9.65517 125.828 9.65517H123.399C122.785 9.65517 122.243 9.25521 122.062 8.66868L121.338 6.32637C120.931 5.01106 119.069 5.01106 118.662 6.32637L117.938 8.66868C117.757 9.25521 117.215 9.65517 116.601 9.65517H114.13C112.791 9.65517 112.216 11.3527 113.278 12.1665L115.395 13.7879C115.859 14.1435 116.053 14.7501 115.882 15.3092L115.113 17.8207C114.714 19.1232 116.222 20.1704 117.303 19.342L119.149 17.9281C119.651 17.5432 120.349 17.5432 120.851 17.9281L122.681 19.3295C123.764 20.159 125.273 19.1079 124.87 17.8046L124.09 15.2827C123.916 14.7198 124.113 14.1081 124.583 13.7526L126.673 12.1717Z" fill="#FFAD33"/>
<path d="M146.673 12.1717C147.744 11.3618 147.171 9.65517 145.828 9.65517H143.399C142.785 9.65517 142.243 9.25521 142.062 8.66868L141.338 6.32637C140.931 5.01106 139.069 5.01106 138.662 6.32637L137.938 8.66868C137.757 9.25521 137.215 9.65517 136.601 9.65517H134.13C132.791 9.65517 132.216 11.3527 133.278 12.1665L135.395 13.7879C135.859 14.1435 136.053 14.7501 135.882 15.3092L135.113 17.8207C134.714 19.1232 136.222 20.1704 137.303 19.342L139.149 17.9281C139.651 17.5432 140.349 17.5432 140.851 17.9281L142.681 19.3295C143.764 20.159 145.273 19.1079 144.87 17.8046L144.09 15.2827C143.916 14.7198 144.113 14.1081 144.583 13.7526L146.673 12.1717Z" fill="#FFAD33"/>
<path opacity="0.5" d="M162.354 19.758C161.449 18.8807 160.744 17.7607 160.24 16.398C159.745 15.0353 159.498 13.5747 159.498 12.016C159.498 10.42 159.759 8.922 160.282 7.522C160.805 6.11267 161.565 4.96 162.564 4.064H164.538V4.246C163.511 5.226 162.727 6.402 162.186 7.774C161.654 9.146 161.388 10.56 161.388 12.016C161.388 13.4347 161.64 14.8067 162.144 16.132C162.657 17.448 163.385 18.5913 164.328 19.562V19.758H162.354ZM170.829 9.342C170.736 8.95 170.572 8.656 170.339 8.46C170.115 8.264 169.788 8.166 169.359 8.166C168.715 8.166 168.239 8.42733 167.931 8.95C167.632 9.46333 167.478 10.3033 167.469 11.47C167.693 11.0967 168.02 10.8073 168.449 10.602C168.878 10.3873 169.345 10.28 169.849 10.28C170.456 10.28 170.992 10.4107 171.459 10.672C171.926 10.9333 172.29 11.316 172.551 11.82C172.812 12.3147 172.943 12.912 172.943 13.612C172.943 14.2747 172.808 14.8673 172.537 15.39C172.276 15.9033 171.888 16.3047 171.375 16.594C170.862 16.8833 170.25 17.028 169.541 17.028C168.57 17.028 167.805 16.8133 167.245 16.384C166.694 15.9547 166.307 15.3573 166.083 14.592C165.868 13.8173 165.761 12.8653 165.761 11.736C165.761 10.028 166.055 8.74 166.643 7.872C167.231 6.99467 168.16 6.556 169.429 6.556C170.409 6.556 171.17 6.822 171.711 7.354C172.252 7.886 172.565 8.54867 172.649 9.342H170.829ZM169.401 11.89C168.906 11.89 168.491 12.0347 168.155 12.324C167.819 12.6133 167.651 13.0333 167.651 13.584C167.651 14.1347 167.805 14.5687 168.113 14.886C168.43 15.2033 168.874 15.362 169.443 15.362C169.947 15.362 170.344 15.208 170.633 14.9C170.932 14.592 171.081 14.1767 171.081 13.654C171.081 13.1127 170.936 12.6833 170.647 12.366C170.367 12.0487 169.952 11.89 169.401 11.89ZM181.352 8.488H176.816V10.882C177.012 10.6393 177.292 10.4433 177.656 10.294C178.02 10.1353 178.407 10.056 178.818 10.056C179.565 10.056 180.176 10.2193 180.652 10.546C181.128 10.8727 181.473 11.2927 181.688 11.806C181.903 12.31 182.01 12.8513 182.01 13.43C182.01 14.5033 181.702 15.3667 181.086 16.02C180.479 16.6733 179.611 17 178.482 17C177.418 17 176.569 16.734 175.934 16.202C175.299 15.67 174.94 14.9747 174.856 14.116H176.76C176.844 14.4893 177.031 14.788 177.32 15.012C177.619 15.236 177.997 15.348 178.454 15.348C179.005 15.348 179.42 15.1753 179.7 14.83C179.98 14.4847 180.12 14.0273 180.12 13.458C180.12 12.8793 179.975 12.4407 179.686 12.142C179.406 11.834 178.991 11.68 178.44 11.68C178.048 11.68 177.721 11.778 177.46 11.974C177.199 12.17 177.012 12.4313 176.9 12.758H175.024V6.766H181.352V8.488ZM183.222 19.758V19.562C184.164 18.5913 184.888 17.448 185.392 16.132C185.905 14.8067 186.162 13.4347 186.162 12.016C186.162 10.56 185.891 9.146 185.35 7.774C184.818 6.402 184.038 5.226 183.012 4.246V4.064H184.986C185.984 4.96 186.745 6.11267 187.268 7.522C187.79 8.922 188.052 10.42 188.052 12.016C188.052 13.5747 187.8 15.0353 187.296 16.398C186.801 17.7607 186.101 18.8807 185.196 19.758H183.222Z" fill="black"/>
</svg>
