<svg width="191" height="24" viewBox="0 0 191 24" fill="none" xmlns="http://www.w3.org/2000/svg">
<path d="M8.704 14.832C8.704 15.3653 8.57067 15.8667 8.304 16.336C8.048 16.8053 7.664 17.2 7.152 17.52C6.65067 17.84 6.05333 18.032 5.36 18.096V19.392H4.32V18.096C3.31733 18 2.50667 17.6853 1.888 17.152C1.26933 16.6187 0.96 15.9147 0.96 15.04H2.912C2.944 15.456 3.07733 15.8027 3.312 16.08C3.54667 16.3467 3.88267 16.5173 4.32 16.592V13.072C3.60533 12.8907 3.024 12.7093 2.576 12.528C2.128 12.336 1.744 12.0373 1.424 11.632C1.11467 11.2267 0.96 10.672 0.96 9.968C0.96 9.08267 1.26933 8.352 1.888 7.776C2.50667 7.18933 3.31733 6.848 4.32 6.752V5.456H5.36V6.752C6.29867 6.83733 7.05067 7.136 7.616 7.648C8.192 8.14933 8.51733 8.84267 8.592 9.728H6.64C6.608 9.39733 6.48 9.104 6.256 8.848C6.032 8.58133 5.73333 8.4 5.36 8.304V11.76C6.07467 11.9307 6.656 12.112 7.104 12.304C7.552 12.4853 7.93067 12.7787 8.24 13.184C8.54933 13.5787 8.704 14.128 8.704 14.832ZM2.816 9.872C2.816 10.3093 2.944 10.6507 3.2 10.896C3.46667 11.1413 3.84 11.3387 4.32 11.488V8.256C3.86133 8.30933 3.49333 8.47467 3.216 8.752C2.94933 9.02933 2.816 9.40267 2.816 9.872ZM5.36 16.592C5.82933 16.5173 6.19733 16.3307 6.464 16.032C6.73067 15.7227 6.864 15.3547 6.864 14.928C6.864 14.5013 6.73067 14.1707 6.464 13.936C6.208 13.6907 5.84 13.4933 5.36 13.344V16.592ZM11.1263 8V6.336H14.4543V18H12.6143V8H11.1263ZM16.72 8V6.336H20.048V18H18.208V8H16.72ZM28.8258 9.04C28.7084 8.54933 28.4951 8.18133 28.1858 7.936C27.8764 7.69067 27.4444 7.568 26.8898 7.568C26.0471 7.568 25.4178 7.89333 25.0018 8.544C24.5858 9.184 24.3671 10.2507 24.3458 11.744C24.6231 11.2747 25.0284 10.912 25.5618 10.656C26.0951 10.4 26.6711 10.272 27.2898 10.272C27.9938 10.272 28.6124 10.4267 29.1458 10.736C29.6898 11.0347 30.1111 11.472 30.4097 12.048C30.7191 12.624 30.8738 13.312 30.8738 14.112C30.8738 14.8587 30.7244 15.5253 30.4258 16.112C30.1378 16.6987 29.7058 17.1627 29.1298 17.504C28.5538 17.8347 27.8604 18 27.0498 18C25.9511 18 25.0871 17.76 24.4578 17.28C23.8391 16.7893 23.4018 16.1013 23.1458 15.216C22.9004 14.3307 22.7778 13.2267 22.7778 11.904C22.7778 8 24.1538 6.048 26.9058 6.048C27.9724 6.048 28.8098 6.336 29.4178 6.912C30.0364 7.488 30.3991 8.19733 30.5058 9.04H28.8258ZM26.8898 11.808C26.2391 11.808 25.6844 12.0053 25.2258 12.4C24.7778 12.784 24.5538 13.344 24.5538 14.08C24.5538 14.816 24.7618 15.4027 25.1778 15.84C25.6044 16.2667 26.1964 16.48 26.9538 16.48C27.6258 16.48 28.1538 16.272 28.5378 15.856C28.9324 15.44 29.1298 14.8853 29.1298 14.192C29.1298 13.4667 28.9378 12.8907 28.5538 12.464C28.1804 12.0267 27.6258 11.808 26.8898 11.808ZM32.8194 12.016C32.8194 10.1707 33.1287 8.73067 33.7474 7.696C34.3767 6.65067 35.454 6.128 36.9794 6.128C38.5047 6.128 39.5767 6.65067 40.1954 7.696C40.8247 8.73067 41.1394 10.1707 41.1394 12.016C41.1394 13.8827 40.8247 15.344 40.1954 16.4C39.5767 17.4453 38.5047 17.968 36.9794 17.968C35.454 17.968 34.3767 17.4453 33.7474 16.4C33.1287 15.344 32.8194 13.8827 32.8194 12.016ZM39.3474 12.016C39.3474 11.152 39.2887 10.4213 39.1714 9.824C39.0647 9.22667 38.8407 8.74133 38.4994 8.368C38.158 7.984 37.6514 7.792 36.9794 7.792C36.3074 7.792 35.8007 7.984 35.4594 8.368C35.118 8.74133 34.8887 9.22667 34.7714 9.824C34.6647 10.4213 34.6114 11.152 34.6114 12.016C34.6114 12.912 34.6647 13.664 34.7714 14.272C34.878 14.88 35.102 15.3707 35.4434 15.744C35.7954 16.1173 36.3074 16.304 36.9794 16.304C37.6514 16.304 38.158 16.1173 38.4994 15.744C38.8514 15.3707 39.0807 14.88 39.1874 14.272C39.294 13.664 39.3474 12.912 39.3474 12.016Z" fill="#DB4444"/>
<path d="M67.673 12.1717C68.7437 11.3618 68.1709 9.65517 66.8284 9.65517H64.3992C63.7853 9.65517 63.243 9.25521 63.0617 8.66868L62.3375 6.32637C61.9309 5.01106 60.0691 5.01106 59.6625 6.32637L58.9383 8.66868C58.757 9.25521 58.2147 9.65517 57.6008 9.65517H55.1296C53.7914 9.65517 53.2159 11.3527 54.2782 12.1665L56.3947 13.7879C56.8588 14.1435 57.0531 14.7501 56.882 15.3092L56.113 17.8207C55.7142 19.1232 57.2217 20.1704 58.303 19.342L60.1486 17.9281C60.651 17.5432 61.349 17.5432 61.8514 17.9281L63.6807 19.3295C64.7636 20.159 66.2725 19.1079 65.8696 17.8046L65.09 15.2827C64.9159 14.7198 65.113 14.1081 65.5829 13.7526L67.673 12.1717Z" fill="#FFAD33"/>
<path d="M87.673 12.1717C88.7437 11.3618 88.1709 9.65517 86.8284 9.65517H84.3992C83.7853 9.65517 83.243 9.25521 83.0617 8.66868L82.3375 6.32637C81.9309 5.01106 80.0691 5.01106 79.6625 6.32637L78.9383 8.66868C78.757 9.25521 78.2147 9.65517 77.6008 9.65517H75.1296C73.7914 9.65517 73.2159 11.3527 74.2782 12.1665L76.3947 13.7879C76.8588 14.1435 77.0531 14.7501 76.882 15.3092L76.113 17.8207C75.7142 19.1232 77.2217 20.1704 78.303 19.342L80.1486 17.9281C80.651 17.5432 81.349 17.5432 81.8514 17.9281L83.6807 19.3295C84.7636 20.159 86.2725 19.1079 85.8696 17.8046L85.09 15.2827C84.9159 14.7198 85.113 14.1081 85.5829 13.7526L87.673 12.1717Z" fill="#FFAD33"/>
<path d="M107.673 12.1717C108.744 11.3618 108.171 9.65517 106.828 9.65517H104.399C103.785 9.65517 103.243 9.25521 103.062 8.66868L102.338 6.32637C101.931 5.01106 100.069 5.01106 99.6625 6.32637L98.9383 8.66868C98.757 9.25521 98.2147 9.65517 97.6008 9.65517H95.1296C93.7914 9.65517 93.2159 11.3527 94.2782 12.1665L96.3947 13.7879C96.8588 14.1435 97.0531 14.7501 96.882 15.3092L96.113 17.8207C95.7142 19.1232 97.2217 20.1704 98.303 19.342L100.149 17.9281C100.651 17.5432 101.349 17.5432 101.851 17.9281L103.681 19.3295C104.764 20.159 106.273 19.1079 105.87 17.8046L105.09 15.2827C104.916 14.7198 105.113 14.1081 105.583 13.7526L107.673 12.1717Z" fill="#FFAD33"/>
<path d="M127.673 12.1717C128.744 11.3618 128.171 9.65517 126.828 9.65517H124.399C123.785 9.65517 123.243 9.25521 123.062 8.66868L122.338 6.32637C121.931 5.01106 120.069 5.01106 119.662 6.32637L118.938 8.66868C118.757 9.25521 118.215 9.65517 117.601 9.65517H115.13C113.791 9.65517 113.216 11.3527 114.278 12.1665L116.395 13.7879C116.859 14.1435 117.053 14.7501 116.882 15.3092L116.113 17.8207C115.714 19.1232 117.222 20.1704 118.303 19.342L120.149 17.9281C120.651 17.5432 121.349 17.5432 121.851 17.9281L123.681 19.3295C124.764 20.159 126.273 19.1079 125.87 17.8046L125.09 15.2827C124.916 14.7198 125.113 14.1081 125.583 13.7526L127.673 12.1717Z" fill="#FFAD33"/>
<path d="M147.673 12.1717C148.744 11.3618 148.171 9.65517 146.828 9.65517H144.399C143.785 9.65517 143.243 9.25521 143.062 8.66868L142.338 6.32637C141.931 5.01106 140.069 5.01106 139.662 6.32637L138.938 8.66868C138.757 9.25521 138.215 9.65517 137.601 9.65517H135.13C133.791 9.65517 133.216 11.3527 134.278 12.1665L136.395 13.7879C136.859 14.1435 137.053 14.7501 136.882 15.3092L136.113 17.8207C135.714 19.1232 137.222 20.1704 138.303 19.342L140.149 17.9281C140.651 17.5432 141.349 17.5432 141.851 17.9281L143.681 19.3295C144.764 20.159 146.273 19.1079 145.87 17.8046L145.09 15.2827C144.916 14.7198 145.113 14.1081 145.583 13.7526L147.673 12.1717Z" fill="#FFAD33"/>
<path opacity="0.5" d="M163.354 19.758C162.449 18.8807 161.744 17.7607 161.24 16.398C160.745 15.0353 160.498 13.5747 160.498 12.016C160.498 10.42 160.759 8.922 161.282 7.522C161.805 6.11267 162.565 4.96 163.564 4.064H165.538V4.246C164.511 5.226 163.727 6.402 163.186 7.774C162.654 9.146 162.388 10.56 162.388 12.016C162.388 13.4347 162.64 14.8067 163.144 16.132C163.657 17.448 164.385 18.5913 165.328 19.562V19.758H163.354ZM166.565 9.482C166.612 8.54867 166.938 7.83 167.545 7.326C168.161 6.81267 168.968 6.556 169.967 6.556C170.648 6.556 171.232 6.67733 171.717 6.92C172.202 7.15333 172.566 7.47533 172.809 7.886C173.061 8.28733 173.187 8.74467 173.187 9.258C173.187 9.846 173.033 10.3453 172.725 10.756C172.426 11.1573 172.067 11.428 171.647 11.568V11.624C172.188 11.792 172.608 12.0907 172.907 12.52C173.215 12.9493 173.369 13.5 173.369 14.172C173.369 14.732 173.238 15.2313 172.977 15.67C172.725 16.1087 172.347 16.454 171.843 16.706C171.348 16.9487 170.751 17.07 170.051 17.07C168.996 17.07 168.138 16.804 167.475 16.272C166.812 15.74 166.462 14.956 166.425 13.92H168.329C168.348 14.3773 168.502 14.746 168.791 15.026C169.09 15.2967 169.496 15.432 170.009 15.432C170.485 15.432 170.849 15.3013 171.101 15.04C171.362 14.7693 171.493 14.424 171.493 14.004C171.493 13.444 171.316 13.0427 170.961 12.8C170.606 12.5573 170.056 12.436 169.309 12.436H168.903V10.826H169.309C170.634 10.826 171.297 10.3827 171.297 9.496C171.297 9.09467 171.176 8.782 170.933 8.558C170.7 8.334 170.359 8.222 169.911 8.222C169.472 8.222 169.132 8.34333 168.889 8.586C168.656 8.81933 168.52 9.118 168.483 9.482H166.565ZM181.778 8.488H177.242V10.882C177.438 10.6393 177.718 10.4433 178.082 10.294C178.446 10.1353 178.833 10.056 179.244 10.056C179.99 10.056 180.602 10.2193 181.078 10.546C181.554 10.8727 181.899 11.2927 182.114 11.806C182.328 12.31 182.436 12.8513 182.436 13.43C182.436 14.5033 182.128 15.3667 181.512 16.02C180.905 16.6733 180.037 17 178.908 17C177.844 17 176.994 16.734 176.36 16.202C175.725 15.67 175.366 14.9747 175.282 14.116H177.186C177.27 14.4893 177.456 14.788 177.746 15.012C178.044 15.236 178.422 15.348 178.88 15.348C179.43 15.348 179.846 15.1753 180.126 14.83C180.406 14.4847 180.546 14.0273 180.546 13.458C180.546 12.8793 180.401 12.4407 180.112 12.142C179.832 11.834 179.416 11.68 178.866 11.68C178.474 11.68 178.147 11.778 177.886 11.974C177.624 12.17 177.438 12.4313 177.326 12.758H175.45V6.766H181.778V8.488ZM183.648 19.758V19.562C184.59 18.5913 185.314 17.448 185.818 16.132C186.331 14.8067 186.588 13.4347 186.588 12.016C186.588 10.56 186.317 9.146 185.776 7.774C185.244 6.402 184.464 5.226 183.438 4.246V4.064H185.412C186.41 4.96 187.171 6.11267 187.694 7.522C188.216 8.922 188.478 10.42 188.478 12.016C188.478 13.5747 188.226 15.0353 187.722 16.398C187.227 17.7607 186.527 18.8807 185.622 19.758H183.648Z" fill="black"/>
</svg>
