<svg width="190" height="24" viewBox="0 0 190 24" fill="none" xmlns="http://www.w3.org/2000/svg">
<path d="M8.704 14.832C8.704 15.3653 8.57067 15.8667 8.304 16.336C8.048 16.8053 7.664 17.2 7.152 17.52C6.65067 17.84 6.05333 18.032 5.36 18.096V19.392H4.32V18.096C3.31733 18 2.50667 17.6853 1.888 17.152C1.26933 16.6187 0.96 15.9147 0.96 15.04H2.912C2.944 15.456 3.07733 15.8027 3.312 16.08C3.54667 16.3467 3.88267 16.5173 4.32 16.592V13.072C3.60533 12.8907 3.024 12.7093 2.576 12.528C2.128 12.336 1.744 12.0373 1.424 11.632C1.11467 11.2267 0.96 10.672 0.96 9.968C0.96 9.08267 1.26933 8.352 1.888 7.776C2.50667 7.18933 3.31733 6.848 4.32 6.752V5.456H5.36V6.752C6.29867 6.83733 7.05067 7.136 7.616 7.648C8.192 8.14933 8.51733 8.84267 8.592 9.728H6.64C6.608 9.39733 6.48 9.104 6.256 8.848C6.032 8.58133 5.73333 8.4 5.36 8.304V11.76C6.07467 11.9307 6.656 12.112 7.104 12.304C7.552 12.4853 7.93067 12.7787 8.24 13.184C8.54933 13.5787 8.704 14.128 8.704 14.832ZM2.816 9.872C2.816 10.3093 2.944 10.6507 3.2 10.896C3.46667 11.1413 3.84 11.3387 4.32 11.488V8.256C3.86133 8.30933 3.49333 8.47467 3.216 8.752C2.94933 9.02933 2.816 9.40267 2.816 9.872ZM5.36 16.592C5.82933 16.5173 6.19733 16.3307 6.464 16.032C6.73067 15.7227 6.864 15.3547 6.864 14.928C6.864 14.5013 6.73067 14.1707 6.464 13.936C6.208 13.6907 5.84 13.4933 5.36 13.344V16.592ZM17.6383 9.04C17.5209 8.54933 17.3076 8.18133 16.9983 7.936C16.6889 7.69067 16.2569 7.568 15.7023 7.568C14.8596 7.568 14.2303 7.89333 13.8143 8.544C13.3983 9.184 13.1796 10.2507 13.1583 11.744C13.4356 11.2747 13.8409 10.912 14.3743 10.656C14.9076 10.4 15.4836 10.272 16.1023 10.272C16.8063 10.272 17.4249 10.4267 17.9583 10.736C18.5023 11.0347 18.9236 11.472 19.2222 12.048C19.5316 12.624 19.6863 13.312 19.6863 14.112C19.6863 14.8587 19.5369 15.5253 19.2383 16.112C18.9503 16.6987 18.5183 17.1627 17.9423 17.504C17.3663 17.8347 16.6729 18 15.8623 18C14.7636 18 13.8996 17.76 13.2703 17.28C12.6516 16.7893 12.2143 16.1013 11.9583 15.216C11.7129 14.3307 11.5903 13.2267 11.5903 11.904C11.5903 8 12.9663 6.048 15.7183 6.048C16.7849 6.048 17.6223 6.336 18.2303 6.912C18.8489 7.488 19.2116 8.19733 19.3183 9.04H17.6383ZM15.7023 11.808C15.0516 11.808 14.4969 12.0053 14.0383 12.4C13.5903 12.784 13.3663 13.344 13.3663 14.08C13.3663 14.816 13.5743 15.4027 13.9903 15.84C14.4169 16.2667 15.0089 16.48 15.7663 16.48C16.4383 16.48 16.9663 16.272 17.3503 15.856C17.7449 15.44 17.9423 14.8853 17.9423 14.192C17.9423 13.4667 17.7503 12.8907 17.3663 12.464C16.9929 12.0267 16.4383 11.808 15.7023 11.808ZM27.9039 9.04C27.7865 8.54933 27.5732 8.18133 27.2639 7.936C26.9545 7.69067 26.5225 7.568 25.9679 7.568C25.1252 7.568 24.4959 7.89333 24.0799 8.544C23.6639 9.184 23.4452 10.2507 23.4239 11.744C23.7012 11.2747 24.1065 10.912 24.6399 10.656C25.1732 10.4 25.7492 10.272 26.3679 10.272C27.0719 10.272 27.6905 10.4267 28.2239 10.736C28.7679 11.0347 29.1892 11.472 29.4879 12.048C29.7972 12.624 29.9519 13.312 29.9519 14.112C29.9519 14.8587 29.8025 15.5253 29.5039 16.112C29.2159 16.6987 28.7839 17.1627 28.2079 17.504C27.6319 17.8347 26.9385 18 26.1279 18C25.0292 18 24.1652 17.76 23.5359 17.28C22.9172 16.7893 22.4799 16.1013 22.2239 15.216C21.9785 14.3307 21.8559 13.2267 21.8559 11.904C21.8559 8 23.2319 6.048 25.9839 6.048C27.0505 6.048 27.8879 6.336 28.4959 6.912C29.1145 7.488 29.4772 8.19733 29.5839 9.04H27.9039ZM25.9679 11.808C25.3172 11.808 24.7625 12.0053 24.3039 12.4C23.8559 12.784 23.6319 13.344 23.6319 14.08C23.6319 14.816 23.8399 15.4027 24.2559 15.84C24.6825 16.2667 25.2745 16.48 26.0319 16.48C26.7039 16.48 27.2319 16.272 27.6159 15.856C28.0105 15.44 28.2079 14.8853 28.2079 14.192C28.2079 13.4667 28.0159 12.8907 27.6319 12.464C27.2585 12.0267 26.7039 11.808 25.9679 11.808ZM31.8975 12.016C31.8975 10.1707 32.2068 8.73067 32.8255 7.696C33.4548 6.65067 34.5322 6.128 36.0575 6.128C37.5828 6.128 38.6548 6.65067 39.2735 7.696C39.9028 8.73067 40.2175 10.1707 40.2175 12.016C40.2175 13.8827 39.9028 15.344 39.2735 16.4C38.6548 17.4453 37.5828 17.968 36.0575 17.968C34.5322 17.968 33.4548 17.4453 32.8255 16.4C32.2068 15.344 31.8975 13.8827 31.8975 12.016ZM38.4255 12.016C38.4255 11.152 38.3668 10.4213 38.2495 9.824C38.1428 9.22667 37.9188 8.74133 37.5775 8.368C37.2362 7.984 36.7295 7.792 36.0575 7.792C35.3855 7.792 34.8788 7.984 34.5375 8.368C34.1962 8.74133 33.9668 9.22667 33.8495 9.824C33.7428 10.4213 33.6895 11.152 33.6895 12.016C33.6895 12.912 33.7428 13.664 33.8495 14.272C33.9562 14.88 34.1802 15.3707 34.5215 15.744C34.8735 16.1173 35.3855 16.304 36.0575 16.304C36.7295 16.304 37.2362 16.1173 37.5775 15.744C37.9295 15.3707 38.1588 14.88 38.2655 14.272C38.3722 13.664 38.4255 12.912 38.4255 12.016Z" fill="#DB4444"/>
<path d="M66.673 12.1717C67.7437 11.3618 67.1709 9.65517 65.8284 9.65517H63.3992C62.7853 9.65517 62.243 9.25521 62.0617 8.66868L61.3375 6.32637C60.9309 5.01106 59.0691 5.01106 58.6625 6.32637L57.9383 8.66868C57.757 9.25521 57.2147 9.65517 56.6008 9.65517H54.1296C52.7914 9.65517 52.2159 11.3527 53.2782 12.1665L55.3947 13.7879C55.8588 14.1435 56.0531 14.7501 55.882 15.3092L55.113 17.8207C54.7142 19.1232 56.2217 20.1704 57.303 19.342L59.1486 17.9281C59.651 17.5432 60.349 17.5432 60.8514 17.9281L62.6807 19.3295C63.7636 20.159 65.2725 19.1079 64.8696 17.8046L64.09 15.2827C63.9159 14.7198 64.113 14.1081 64.5829 13.7526L66.673 12.1717Z" fill="#FFAD33"/>
<path d="M86.673 12.1717C87.7437 11.3618 87.1709 9.65517 85.8284 9.65517H83.3992C82.7853 9.65517 82.243 9.25521 82.0617 8.66868L81.3375 6.32637C80.9309 5.01106 79.0691 5.01106 78.6625 6.32637L77.9383 8.66868C77.757 9.25521 77.2147 9.65517 76.6008 9.65517H74.1296C72.7914 9.65517 72.2159 11.3527 73.2782 12.1665L75.3947 13.7879C75.8588 14.1435 76.0531 14.7501 75.882 15.3092L75.113 17.8207C74.7142 19.1232 76.2217 20.1704 77.303 19.342L79.1486 17.9281C79.651 17.5432 80.349 17.5432 80.8514 17.9281L82.6807 19.3295C83.7636 20.159 85.2725 19.1079 84.8696 17.8046L84.09 15.2827C83.9159 14.7198 84.113 14.1081 84.5829 13.7526L86.673 12.1717Z" fill="#FFAD33"/>
<path d="M106.673 12.1717C107.744 11.3618 107.171 9.65517 105.828 9.65517H103.399C102.785 9.65517 102.243 9.25521 102.062 8.66868L101.338 6.32637C100.931 5.01106 99.0691 5.01106 98.6625 6.32637L97.9383 8.66868C97.757 9.25521 97.2147 9.65517 96.6008 9.65517H94.1296C92.7914 9.65517 92.2159 11.3527 93.2782 12.1665L95.3947 13.7879C95.8588 14.1435 96.0531 14.7501 95.882 15.3092L95.113 17.8207C94.7142 19.1232 96.2217 20.1704 97.303 19.342L99.1486 17.9281C99.651 17.5432 100.349 17.5432 100.851 17.9281L102.681 19.3295C103.764 20.159 105.273 19.1079 104.87 17.8046L104.09 15.2827C103.916 14.7198 104.113 14.1081 104.583 13.7526L106.673 12.1717Z" fill="#FFAD33"/>
<path d="M126.673 12.1717C127.744 11.3618 127.171 9.65517 125.828 9.65517H123.399C122.785 9.65517 122.243 9.25521 122.062 8.66868L121.338 6.32637C120.931 5.01106 119.069 5.01106 118.662 6.32637L117.938 8.66868C117.757 9.25521 117.215 9.65517 116.601 9.65517H114.13C112.791 9.65517 112.216 11.3527 113.278 12.1665L115.395 13.7879C115.859 14.1435 116.053 14.7501 115.882 15.3092L115.113 17.8207C114.714 19.1232 116.222 20.1704 117.303 19.342L119.149 17.9281C119.651 17.5432 120.349 17.5432 120.851 17.9281L122.681 19.3295C123.764 20.159 125.273 19.1079 124.87 17.8046L124.09 15.2827C123.916 14.7198 124.113 14.1081 124.583 13.7526L126.673 12.1717Z" fill="#FFAD33"/>
<path d="M140 3.83329C139.751 3.83145 139.506 3.90032 139.295 4.0319C139.083 4.16348 138.913 4.35236 138.805 4.57662L136.953 8.32995L132.81 8.93162C132.563 8.96713 132.332 9.07094 132.141 9.23129C131.951 9.39163 131.809 9.60212 131.732 9.83889C131.655 10.0757 131.646 10.3293 131.706 10.571C131.765 10.8127 131.891 11.0329 132.07 11.2066L135.07 14.1283L134.362 18.255C134.319 18.5001 134.347 18.7521 134.44 18.9825C134.534 19.213 134.69 19.4126 134.891 19.559C135.092 19.7053 135.33 19.7925 135.578 19.8106C135.826 19.8287 136.075 19.7771 136.295 19.6616L140 17.7133V3.83329Z" fill="#FFAD33"/>
<path opacity="0.25" d="M140 3.83595C140.249 3.83404 140.5 4.00001 140.5 4.00001C140.5 4.00001 141.087 4.20807 141.195 4.44195L143.047 8.35634L147.19 8.98383C147.437 9.02086 147.668 9.12912 147.859 9.29635C148.049 9.46358 148.191 9.68309 148.268 9.93003C148.345 10.177 148.354 10.4415 148.294 10.6936C148.235 10.9457 148.109 11.1753 147.93 11.3565L144.93 14.4035L145.638 18.7072C145.681 18.9629 145.653 19.2257 145.56 19.466C145.466 19.7064 145.31 19.9146 145.109 20.0672C144.908 20.2198 144.67 20.3107 144.422 20.3296C144.174 20.3486 143.925 20.2947 143.705 20.1743L140 18.1423V3.83595Z" fill="black"/>
<path opacity="0.5" d="M162.354 19.758C161.449 18.8807 160.744 17.7607 160.24 16.398C159.745 15.0353 159.498 13.5747 159.498 12.016C159.498 10.42 159.759 8.922 160.282 7.522C160.805 6.11267 161.565 4.96 162.564 4.064H164.538V4.246C163.511 5.226 162.727 6.402 162.186 7.774C161.654 9.146 161.388 10.56 161.388 12.016C161.388 13.4347 161.64 14.8067 162.144 16.132C162.657 17.448 163.385 18.5913 164.328 19.562V19.758H162.354ZM172.397 8.488H167.861V10.882C168.057 10.6393 168.337 10.4433 168.701 10.294C169.065 10.1353 169.452 10.056 169.863 10.056C170.61 10.056 171.221 10.2193 171.697 10.546C172.173 10.8727 172.518 11.2927 172.733 11.806C172.948 12.31 173.055 12.8513 173.055 13.43C173.055 14.5033 172.747 15.3667 172.131 16.02C171.524 16.6733 170.656 17 169.527 17C168.463 17 167.614 16.734 166.979 16.202C166.344 15.67 165.985 14.9747 165.901 14.116H167.805C167.889 14.4893 168.076 14.788 168.365 15.012C168.664 15.236 169.042 15.348 169.499 15.348C170.05 15.348 170.465 15.1753 170.745 14.83C171.025 14.4847 171.165 14.0273 171.165 13.458C171.165 12.8793 171.02 12.4407 170.731 12.142C170.451 11.834 170.036 11.68 169.485 11.68C169.093 11.68 168.766 11.778 168.505 11.974C168.244 12.17 168.057 12.4313 167.945 12.758H166.069V6.766H172.397V8.488ZM181.407 8.488H176.871V10.882C177.067 10.6393 177.347 10.4433 177.711 10.294C178.075 10.1353 178.462 10.056 178.873 10.056C179.619 10.056 180.231 10.2193 180.707 10.546C181.183 10.8727 181.528 11.2927 181.743 11.806C181.957 12.31 182.065 12.8513 182.065 13.43C182.065 14.5033 181.757 15.3667 181.141 16.02C180.534 16.6733 179.666 17 178.537 17C177.473 17 176.623 16.734 175.989 16.202C175.354 15.67 174.995 14.9747 174.911 14.116H176.815C176.899 14.4893 177.085 14.788 177.375 15.012C177.673 15.236 178.051 15.348 178.509 15.348C179.059 15.348 179.475 15.1753 179.755 14.83C180.035 14.4847 180.175 14.0273 180.175 13.458C180.175 12.8793 180.03 12.4407 179.741 12.142C179.461 11.834 179.045 11.68 178.495 11.68C178.103 11.68 177.776 11.778 177.515 11.974C177.253 12.17 177.067 12.4313 176.955 12.758H175.079V6.766H181.407V8.488ZM183.276 19.758V19.562C184.219 18.5913 184.942 17.448 185.446 16.132C185.96 14.8067 186.216 13.4347 186.216 12.016C186.216 10.56 185.946 9.146 185.404 7.774C184.872 6.402 184.093 5.226 183.066 4.246V4.064H185.04C186.039 4.96 186.8 6.11267 187.322 7.522C187.845 8.922 188.106 10.42 188.106 12.016C188.106 13.5747 187.854 15.0353 187.35 16.398C186.856 17.7607 186.156 18.8807 185.25 19.758H183.276Z" fill="black"/>
</svg>
