<svg width="185" height="24" viewBox="0 0 185 24" fill="none" xmlns="http://www.w3.org/2000/svg">
<path d="M8.704 14.832C8.704 15.3653 8.57067 15.8667 8.304 16.336C8.048 16.8053 7.664 17.2 7.152 17.52C6.65067 17.84 6.05333 18.032 5.36 18.096V19.392H4.32V18.096C3.31733 18 2.50667 17.6853 1.888 17.152C1.26933 16.6187 0.96 15.9147 0.96 15.04H2.912C2.944 15.456 3.07733 15.8027 3.312 16.08C3.54667 16.3467 3.88267 16.5173 4.32 16.592V13.072C3.60533 12.8907 3.024 12.7093 2.576 12.528C2.128 12.336 1.744 12.0373 1.424 11.632C1.11467 11.2267 0.96 10.672 0.96 9.968C0.96 9.08267 1.26933 8.352 1.888 7.776C2.50667 7.18933 3.31733 6.848 4.32 6.752V5.456H5.36V6.752C6.29867 6.83733 7.05067 7.136 7.616 7.648C8.192 8.14933 8.51733 8.84267 8.592 9.728H6.64C6.608 9.39733 6.48 9.104 6.256 8.848C6.032 8.58133 5.73333 8.4 5.36 8.304V11.76C6.07467 11.9307 6.656 12.112 7.104 12.304C7.552 12.4853 7.93067 12.7787 8.24 13.184C8.54933 13.5787 8.704 14.128 8.704 14.832ZM2.816 9.872C2.816 10.3093 2.944 10.6507 3.2 10.896C3.46667 11.1413 3.84 11.3387 4.32 11.488V8.256C3.86133 8.30933 3.49333 8.47467 3.216 8.752C2.94933 9.02933 2.816 9.40267 2.816 9.872ZM5.36 16.592C5.82933 16.5173 6.19733 16.3307 6.464 16.032C6.73067 15.7227 6.864 15.3547 6.864 14.928C6.864 14.5013 6.73067 14.1707 6.464 13.936C6.208 13.6907 5.84 13.4933 5.36 13.344V16.592ZM11.1263 8V6.336H14.4543V18H12.6143V8H11.1263ZM16.96 12.016C16.96 10.1707 17.2693 8.73067 17.888 7.696C18.5173 6.65067 19.5947 6.128 21.12 6.128C22.6453 6.128 23.7173 6.65067 24.336 7.696C24.9653 8.73067 25.28 10.1707 25.28 12.016C25.28 13.8827 24.9653 15.344 24.336 16.4C23.7173 17.4453 22.6453 17.968 21.12 17.968C19.5947 17.968 18.5173 17.4453 17.888 16.4C17.2693 15.344 16.96 13.8827 16.96 12.016ZM23.488 12.016C23.488 11.152 23.4293 10.4213 23.312 9.824C23.2053 9.22667 22.9813 8.74133 22.64 8.368C22.2987 7.984 21.792 7.792 21.12 7.792C20.448 7.792 19.9413 7.984 19.6 8.368C19.2587 8.74133 19.0293 9.22667 18.912 9.824C18.8053 10.4213 18.752 11.152 18.752 12.016C18.752 12.912 18.8053 13.664 18.912 14.272C19.0187 14.88 19.2427 15.3707 19.584 15.744C19.936 16.1173 20.448 16.304 21.12 16.304C21.792 16.304 22.2987 16.1173 22.64 15.744C22.992 15.3707 23.2213 14.88 23.328 14.272C23.4347 13.664 23.488 12.912 23.488 12.016ZM27.21 12.016C27.21 10.1707 27.5193 8.73067 28.138 7.696C28.7673 6.65067 29.8447 6.128 31.37 6.128C32.8953 6.128 33.9673 6.65067 34.586 7.696C35.2153 8.73067 35.53 10.1707 35.53 12.016C35.53 13.8827 35.2153 15.344 34.586 16.4C33.9673 17.4453 32.8953 17.968 31.37 17.968C29.8447 17.968 28.7673 17.4453 28.138 16.4C27.5193 15.344 27.21 13.8827 27.21 12.016ZM33.738 12.016C33.738 11.152 33.6793 10.4213 33.562 9.824C33.4553 9.22667 33.2313 8.74133 32.89 8.368C32.5487 7.984 32.042 7.792 31.37 7.792C30.698 7.792 30.1913 7.984 29.85 8.368C29.5087 8.74133 29.2793 9.22667 29.162 9.824C29.0553 10.4213 29.002 11.152 29.002 12.016C29.002 12.912 29.0553 13.664 29.162 14.272C29.2687 14.88 29.4927 15.3707 29.834 15.744C30.186 16.1173 30.698 16.304 31.37 16.304C32.042 16.304 32.5487 16.1173 32.89 15.744C33.242 15.3707 33.4713 14.88 33.578 14.272C33.6847 13.664 33.738 12.912 33.738 12.016Z" fill="#DB4444"/>
<path d="M61.673 12.1717C62.7437 11.3618 62.1709 9.65517 60.8284 9.65517H58.3992C57.7853 9.65517 57.243 9.25521 57.0617 8.66868L56.3375 6.32637C55.9309 5.01106 54.0691 5.01106 53.6625 6.32637L52.9383 8.66868C52.757 9.25521 52.2147 9.65517 51.6008 9.65517H49.1296C47.7914 9.65517 47.2159 11.3527 48.2782 12.1665L50.3947 13.7879C50.8588 14.1435 51.0531 14.7501 50.882 15.3092L50.113 17.8207C49.7142 19.1232 51.2217 20.1704 52.303 19.342L54.1486 17.9281C54.651 17.5432 55.349 17.5432 55.8514 17.9281L57.6807 19.3295C58.7636 20.159 60.2725 19.1079 59.8696 17.8046L59.09 15.2827C58.9159 14.7198 59.113 14.1081 59.5829 13.7526L61.673 12.1717Z" fill="#FFAD33"/>
<path d="M81.673 12.1717C82.7437 11.3618 82.1709 9.65517 80.8284 9.65517H78.3992C77.7853 9.65517 77.243 9.25521 77.0617 8.66868L76.3375 6.32637C75.9309 5.01106 74.0691 5.01106 73.6625 6.32637L72.9383 8.66868C72.757 9.25521 72.2147 9.65517 71.6008 9.65517H69.1296C67.7914 9.65517 67.2159 11.3527 68.2782 12.1665L70.3947 13.7879C70.8588 14.1435 71.0531 14.7501 70.882 15.3092L70.113 17.8207C69.7142 19.1232 71.2217 20.1704 72.303 19.342L74.1486 17.9281C74.651 17.5432 75.349 17.5432 75.8514 17.9281L77.6807 19.3295C78.7636 20.159 80.2725 19.1079 79.8696 17.8046L79.09 15.2827C78.9159 14.7198 79.113 14.1081 79.5829 13.7526L81.673 12.1717Z" fill="#FFAD33"/>
<path d="M101.673 12.1717C102.744 11.3618 102.171 9.65517 100.828 9.65517H98.3992C97.7853 9.65517 97.243 9.25521 97.0617 8.66868L96.3375 6.32637C95.9309 5.01106 94.0691 5.01106 93.6625 6.32637L92.9383 8.66868C92.757 9.25521 92.2147 9.65517 91.6008 9.65517H89.1296C87.7914 9.65517 87.2159 11.3527 88.2782 12.1665L90.3947 13.7879C90.8588 14.1435 91.0531 14.7501 90.882 15.3092L90.113 17.8207C89.7142 19.1232 91.2217 20.1704 92.303 19.342L94.1486 17.9281C94.651 17.5432 95.349 17.5432 95.8514 17.9281L97.6807 19.3295C98.7636 20.159 100.273 19.1079 99.8696 17.8046L99.09 15.2827C98.9159 14.7198 99.113 14.1081 99.5829 13.7526L101.673 12.1717Z" fill="#FFAD33"/>
<path opacity="0.25" d="M121.673 12.1717C122.744 11.3618 122.171 9.65517 120.828 9.65517H118.399C117.785 9.65517 117.243 9.25521 117.062 8.66868L116.338 6.32637C115.931 5.01106 114.069 5.01106 113.662 6.32637L112.938 8.66868C112.757 9.25521 112.215 9.65517 111.601 9.65517H109.13C107.791 9.65517 107.216 11.3527 108.278 12.1665L110.395 13.7879C110.859 14.1435 111.053 14.7501 110.882 15.3092L110.113 17.8207C109.714 19.1232 111.222 20.1704 112.303 19.342L114.149 17.9281C114.651 17.5432 115.349 17.5432 115.851 17.9281L117.681 19.3295C118.764 20.159 120.273 19.1079 119.87 17.8046L119.09 15.2827C118.916 14.7198 119.113 14.1081 119.583 13.7526L121.673 12.1717Z" fill="black"/>
<path opacity="0.25" d="M141.673 12.1717C142.744 11.3618 142.171 9.65517 140.828 9.65517H138.399C137.785 9.65517 137.243 9.25521 137.062 8.66868L136.338 6.32637C135.931 5.01106 134.069 5.01106 133.662 6.32637L132.938 8.66868C132.757 9.25521 132.215 9.65517 131.601 9.65517H129.13C127.791 9.65517 127.216 11.3527 128.278 12.1665L130.395 13.7879C130.859 14.1435 131.053 14.7501 130.882 15.3092L130.113 17.8207C129.714 19.1232 131.222 20.1704 132.303 19.342L134.149 17.9281C134.651 17.5432 135.349 17.5432 135.851 17.9281L137.681 19.3295C138.764 20.159 140.273 19.1079 139.87 17.8046L139.09 15.2827C138.916 14.7198 139.113 14.1081 139.583 13.7526L141.673 12.1717Z" fill="black"/>
<path opacity="0.5" d="M157.354 19.758C156.449 18.8807 155.744 17.7607 155.24 16.398C154.745 15.0353 154.498 13.5747 154.498 12.016C154.498 10.42 154.759 8.922 155.282 7.522C155.805 6.11267 156.565 4.96 157.564 4.064H159.538V4.246C158.511 5.226 157.727 6.402 157.186 7.774C156.654 9.146 156.388 10.56 156.388 12.016C156.388 13.4347 156.64 14.8067 157.144 16.132C157.657 17.448 158.385 18.5913 159.328 19.562V19.758H157.354ZM160.565 9.482C160.612 8.54867 160.938 7.83 161.545 7.326C162.161 6.81267 162.968 6.556 163.967 6.556C164.648 6.556 165.232 6.67733 165.717 6.92C166.202 7.15333 166.566 7.47533 166.809 7.886C167.061 8.28733 167.187 8.74467 167.187 9.258C167.187 9.846 167.033 10.3453 166.725 10.756C166.426 11.1573 166.067 11.428 165.647 11.568V11.624C166.188 11.792 166.608 12.0907 166.907 12.52C167.215 12.9493 167.369 13.5 167.369 14.172C167.369 14.732 167.238 15.2313 166.977 15.67C166.725 16.1087 166.347 16.454 165.843 16.706C165.348 16.9487 164.751 17.07 164.051 17.07C162.996 17.07 162.138 16.804 161.475 16.272C160.812 15.74 160.462 14.956 160.425 13.92H162.329C162.348 14.3773 162.502 14.746 162.791 15.026C163.09 15.2967 163.496 15.432 164.009 15.432C164.485 15.432 164.849 15.3013 165.101 15.04C165.362 14.7693 165.493 14.424 165.493 14.004C165.493 13.444 165.316 13.0427 164.961 12.8C164.606 12.5573 164.056 12.436 163.309 12.436H162.903V10.826H163.309C164.634 10.826 165.297 10.3827 165.297 9.496C165.297 9.09467 165.176 8.782 164.933 8.558C164.7 8.334 164.359 8.222 163.911 8.222C163.472 8.222 163.132 8.34333 162.889 8.586C162.656 8.81933 162.52 9.118 162.483 9.482H160.565ZM175.778 8.488H171.242V10.882C171.438 10.6393 171.718 10.4433 172.082 10.294C172.446 10.1353 172.833 10.056 173.244 10.056C173.99 10.056 174.602 10.2193 175.078 10.546C175.554 10.8727 175.899 11.2927 176.114 11.806C176.328 12.31 176.436 12.8513 176.436 13.43C176.436 14.5033 176.128 15.3667 175.512 16.02C174.905 16.6733 174.037 17 172.908 17C171.844 17 170.994 16.734 170.36 16.202C169.725 15.67 169.366 14.9747 169.282 14.116H171.186C171.27 14.4893 171.456 14.788 171.746 15.012C172.044 15.236 172.422 15.348 172.88 15.348C173.43 15.348 173.846 15.1753 174.126 14.83C174.406 14.4847 174.546 14.0273 174.546 13.458C174.546 12.8793 174.401 12.4407 174.112 12.142C173.832 11.834 173.416 11.68 172.866 11.68C172.474 11.68 172.147 11.778 171.886 11.974C171.624 12.17 171.438 12.4313 171.326 12.758H169.45V6.766H175.778V8.488ZM177.648 19.758V19.562C178.59 18.5913 179.314 17.448 179.818 16.132C180.331 14.8067 180.588 13.4347 180.588 12.016C180.588 10.56 180.317 9.146 179.776 7.774C179.244 6.402 178.464 5.226 177.438 4.246V4.064H179.412C180.41 4.96 181.171 6.11267 181.694 7.522C182.216 8.922 182.478 10.42 182.478 12.016C182.478 13.5747 182.226 15.0353 181.722 16.398C181.227 17.7607 180.527 18.8807 179.622 19.758H177.648Z" fill="black"/>
</svg>
