<svg width="189" height="24" viewBox="0 0 189 24" fill="none" xmlns="http://www.w3.org/2000/svg">
<path d="M8.704 14.832C8.704 15.3653 8.57067 15.8667 8.304 16.336C8.048 16.8053 7.664 17.2 7.152 17.52C6.65067 17.84 6.05333 18.032 5.36 18.096V19.392H4.32V18.096C3.31733 18 2.50667 17.6853 1.888 17.152C1.26933 16.6187 0.96 15.9147 0.96 15.04H2.912C2.944 15.456 3.07733 15.8027 3.312 16.08C3.54667 16.3467 3.88267 16.5173 4.32 16.592V13.072C3.60533 12.8907 3.024 12.7093 2.576 12.528C2.128 12.336 1.744 12.0373 1.424 11.632C1.11467 11.2267 0.96 10.672 0.96 9.968C0.96 9.08267 1.26933 8.352 1.888 7.776C2.50667 7.18933 3.31733 6.848 4.32 6.752V5.456H5.36V6.752C6.29867 6.83733 7.05067 7.136 7.616 7.648C8.192 8.14933 8.51733 8.84267 8.592 9.728H6.64C6.608 9.39733 6.48 9.104 6.256 8.848C6.032 8.58133 5.73333 8.4 5.36 8.304V11.76C6.07467 11.9307 6.656 12.112 7.104 12.304C7.552 12.4853 7.93067 12.7787 8.24 13.184C8.54933 13.5787 8.704 14.128 8.704 14.832ZM2.816 9.872C2.816 10.3093 2.944 10.6507 3.2 10.896C3.46667 11.1413 3.84 11.3387 4.32 11.488V8.256C3.86133 8.30933 3.49333 8.47467 3.216 8.752C2.94933 9.02933 2.816 9.40267 2.816 9.872ZM5.36 16.592C5.82933 16.5173 6.19733 16.3307 6.464 16.032C6.73067 15.7227 6.864 15.3547 6.864 14.928C6.864 14.5013 6.73067 14.1707 6.464 13.936C6.208 13.6907 5.84 13.4933 5.36 13.344V16.592ZM11.3343 9.216C11.3983 8.224 11.7769 7.45067 12.4703 6.896C13.1743 6.34133 14.0703 6.064 15.1583 6.064C15.9049 6.064 16.5503 6.19733 17.0943 6.464C17.6383 6.73067 18.0489 7.09333 18.3263 7.552C18.6036 8.01067 18.7423 8.528 18.7423 9.104C18.7423 9.76533 18.5663 10.3307 18.2143 10.8C17.8623 11.2693 17.4409 11.584 16.9503 11.744V11.808C17.5796 12 18.0703 12.352 18.4223 12.864C18.7743 13.3653 18.9503 14.0107 18.9503 14.8C18.9503 15.4293 18.8063 15.9893 18.5183 16.48C18.2303 16.9707 17.8036 17.36 17.2383 17.648C16.6729 17.9253 15.9956 18.064 15.2063 18.064C14.0543 18.064 13.1049 17.7707 12.3583 17.184C11.6223 16.5867 11.2276 15.7333 11.1743 14.624H12.9343C12.9769 15.1893 13.1956 15.6533 13.5903 16.016C13.9849 16.368 14.5183 16.544 15.1903 16.544C15.8409 16.544 16.3423 16.368 16.6943 16.016C17.0463 15.6533 17.2223 15.1893 17.2223 14.624C17.2223 13.8773 16.9823 13.3493 16.5023 13.04C16.0329 12.72 15.3076 12.56 14.3263 12.56H13.9103V11.056H14.3423C15.2063 11.0453 15.8623 10.9013 16.3103 10.624C16.7689 10.3467 16.9983 9.90933 16.9983 9.312C16.9983 8.8 16.8329 8.39467 16.5023 8.096C16.1716 7.78667 15.7023 7.632 15.0943 7.632C14.4969 7.632 14.0329 7.78667 13.7023 8.096C13.3716 8.39467 13.1743 8.768 13.1103 9.216H11.3343ZM27.1383 9.04C27.0209 8.54933 26.8076 8.18133 26.4983 7.936C26.1889 7.69067 25.7569 7.568 25.2023 7.568C24.3596 7.568 23.7303 7.89333 23.3143 8.544C22.8983 9.184 22.6796 10.2507 22.6583 11.744C22.9356 11.2747 23.3409 10.912 23.8743 10.656C24.4076 10.4 24.9836 10.272 25.6023 10.272C26.3063 10.272 26.9249 10.4267 27.4583 10.736C28.0023 11.0347 28.4236 11.472 28.7222 12.048C29.0316 12.624 29.1863 13.312 29.1863 14.112C29.1863 14.8587 29.0369 15.5253 28.7383 16.112C28.4503 16.6987 28.0183 17.1627 27.4423 17.504C26.8663 17.8347 26.1729 18 25.3623 18C24.2636 18 23.3996 17.76 22.7703 17.28C22.1516 16.7893 21.7143 16.1013 21.4583 15.216C21.2129 14.3307 21.0903 13.2267 21.0903 11.904C21.0903 8 22.4663 6.048 25.2183 6.048C26.2849 6.048 27.1223 6.336 27.7303 6.912C28.3489 7.488 28.7116 8.19733 28.8183 9.04H27.1383ZM25.2023 11.808C24.5516 11.808 23.9969 12.0053 23.5383 12.4C23.0903 12.784 22.8663 13.344 22.8663 14.08C22.8663 14.816 23.0743 15.4027 23.4903 15.84C23.9169 16.2667 24.5089 16.48 25.2663 16.48C25.9383 16.48 26.4663 16.272 26.8503 15.856C27.2449 15.44 27.4423 14.8853 27.4423 14.192C27.4423 13.4667 27.2503 12.8907 26.8663 12.464C26.4929 12.0267 25.9383 11.808 25.2023 11.808ZM31.1319 12.016C31.1319 10.1707 31.4412 8.73067 32.0599 7.696C32.6892 6.65067 33.7665 6.128 35.2919 6.128C36.8172 6.128 37.8892 6.65067 38.5079 7.696C39.1372 8.73067 39.4519 10.1707 39.4519 12.016C39.4519 13.8827 39.1372 15.344 38.5079 16.4C37.8892 17.4453 36.8172 17.968 35.2919 17.968C33.7665 17.968 32.6892 17.4453 32.0599 16.4C31.4412 15.344 31.1319 13.8827 31.1319 12.016ZM37.6599 12.016C37.6599 11.152 37.6012 10.4213 37.4839 9.824C37.3772 9.22667 37.1532 8.74133 36.8119 8.368C36.4705 7.984 35.9639 7.792 35.2919 7.792C34.6199 7.792 34.1132 7.984 33.7719 8.368C33.4305 8.74133 33.2012 9.22667 33.0839 9.824C32.9772 10.4213 32.9239 11.152 32.9239 12.016C32.9239 12.912 32.9772 13.664 33.0839 14.272C33.1905 14.88 33.4145 15.3707 33.7559 15.744C34.1079 16.1173 34.6199 16.304 35.2919 16.304C35.9639 16.304 36.4705 16.1173 36.8119 15.744C37.1639 15.3707 37.3932 14.88 37.4999 14.272C37.6065 13.664 37.6599 12.912 37.6599 12.016Z" fill="#DB4444"/>
<path d="M65.673 12.1717C66.7437 11.3618 66.1709 9.65517 64.8284 9.65517H62.3992C61.7853 9.65517 61.243 9.25521 61.0617 8.66868L60.3375 6.32637C59.9309 5.01106 58.0691 5.01106 57.6625 6.32637L56.9383 8.66868C56.757 9.25521 56.2147 9.65517 55.6008 9.65517H53.1296C51.7914 9.65517 51.2159 11.3527 52.2782 12.1665L54.3947 13.7879C54.8588 14.1435 55.0531 14.7501 54.882 15.3092L54.113 17.8207C53.7142 19.1232 55.2217 20.1704 56.303 19.342L58.1486 17.9281C58.651 17.5432 59.349 17.5432 59.8514 17.9281L61.6807 19.3295C62.7636 20.159 64.2725 19.1079 63.8696 17.8046L63.09 15.2827C62.9159 14.7198 63.113 14.1081 63.5829 13.7526L65.673 12.1717Z" fill="#FFAD33"/>
<path d="M85.673 12.1717C86.7437 11.3618 86.1709 9.65517 84.8284 9.65517H82.3992C81.7853 9.65517 81.243 9.25521 81.0617 8.66868L80.3375 6.32637C79.9309 5.01106 78.0691 5.01106 77.6625 6.32637L76.9383 8.66868C76.757 9.25521 76.2147 9.65517 75.6008 9.65517H73.1296C71.7914 9.65517 71.2159 11.3527 72.2782 12.1665L74.3947 13.7879C74.8588 14.1435 75.0531 14.7501 74.882 15.3092L74.113 17.8207C73.7142 19.1232 75.2217 20.1704 76.303 19.342L78.1486 17.9281C78.651 17.5432 79.349 17.5432 79.8514 17.9281L81.6807 19.3295C82.7636 20.159 84.2725 19.1079 83.8696 17.8046L83.09 15.2827C82.9159 14.7198 83.113 14.1081 83.5829 13.7526L85.673 12.1717Z" fill="#FFAD33"/>
<path d="M105.673 12.1717C106.744 11.3618 106.171 9.65517 104.828 9.65517H102.399C101.785 9.65517 101.243 9.25521 101.062 8.66868L100.338 6.32637C99.9309 5.01106 98.0691 5.01106 97.6625 6.32637L96.9383 8.66868C96.757 9.25521 96.2147 9.65517 95.6008 9.65517H93.1296C91.7914 9.65517 91.2159 11.3527 92.2782 12.1665L94.3947 13.7879C94.8588 14.1435 95.0531 14.7501 94.882 15.3092L94.113 17.8207C93.7142 19.1232 95.2217 20.1704 96.303 19.342L98.1486 17.9281C98.651 17.5432 99.349 17.5432 99.8514 17.9281L101.681 19.3295C102.764 20.159 104.273 19.1079 103.87 17.8046L103.09 15.2827C102.916 14.7198 103.113 14.1081 103.583 13.7526L105.673 12.1717Z" fill="#FFAD33"/>
<path d="M125.673 12.1717C126.744 11.3618 126.171 9.65517 124.828 9.65517H122.399C121.785 9.65517 121.243 9.25521 121.062 8.66868L120.338 6.32637C119.931 5.01106 118.069 5.01106 117.662 6.32637L116.938 8.66868C116.757 9.25521 116.215 9.65517 115.601 9.65517H113.13C111.791 9.65517 111.216 11.3527 112.278 12.1665L114.395 13.7879C114.859 14.1435 115.053 14.7501 114.882 15.3092L114.113 17.8207C113.714 19.1232 115.222 20.1704 116.303 19.342L118.149 17.9281C118.651 17.5432 119.349 17.5432 119.851 17.9281L121.681 19.3295C122.764 20.159 124.273 19.1079 123.87 17.8046L123.09 15.2827C122.916 14.7198 123.113 14.1081 123.583 13.7526L125.673 12.1717Z" fill="#FFAD33"/>
<path opacity="0.25" d="M145.673 12.1717C146.744 11.3618 146.171 9.65517 144.828 9.65517H142.399C141.785 9.65517 141.243 9.25521 141.062 8.66868L140.338 6.32637C139.931 5.01106 138.069 5.01106 137.662 6.32637L136.938 8.66868C136.757 9.25521 136.215 9.65517 135.601 9.65517H133.13C131.791 9.65517 131.216 11.3527 132.278 12.1665L134.395 13.7879C134.859 14.1435 135.053 14.7501 134.882 15.3092L134.113 17.8207C133.714 19.1232 135.222 20.1704 136.303 19.342L138.149 17.9281C138.651 17.5432 139.349 17.5432 139.851 17.9281L141.681 19.3295C142.764 20.159 144.273 19.1079 143.87 17.8046L143.09 15.2827C142.916 14.7198 143.113 14.1081 143.583 13.7526L145.673 12.1717Z" fill="black"/>
<path opacity="0.5" d="M161.354 19.758C160.449 18.8807 159.744 17.7607 159.24 16.398C158.745 15.0353 158.498 13.5747 158.498 12.016C158.498 10.42 158.759 8.922 159.282 7.522C159.805 6.11267 160.565 4.96 161.564 4.064H163.538V4.246C162.511 5.226 161.727 6.402 161.186 7.774C160.654 9.146 160.388 10.56 160.388 12.016C160.388 13.4347 160.64 14.8067 161.144 16.132C161.657 17.448 162.385 18.5913 163.328 19.562V19.758H161.354ZM166.805 14.13C166.88 14.5407 167.048 14.858 167.309 15.082C167.58 15.2967 167.939 15.404 168.387 15.404C168.966 15.404 169.386 15.166 169.647 14.69C169.908 14.2047 170.039 13.3927 170.039 12.254C169.824 12.5527 169.521 12.786 169.129 12.954C168.746 13.122 168.331 13.206 167.883 13.206C167.286 13.206 166.744 13.0847 166.259 12.842C165.783 12.59 165.405 12.2213 165.125 11.736C164.845 11.2413 164.705 10.644 164.705 9.944C164.705 8.908 165.013 8.08667 165.629 7.48C166.245 6.864 167.085 6.556 168.149 6.556C169.474 6.556 170.408 6.98067 170.949 7.83C171.5 8.67933 171.775 9.958 171.775 11.666C171.775 12.8793 171.668 13.8733 171.453 14.648C171.248 15.4227 170.888 16.0107 170.375 16.412C169.871 16.8133 169.18 17.014 168.303 17.014C167.612 17.014 167.024 16.8833 166.539 16.622C166.054 16.3513 165.68 16.0013 165.419 15.572C165.167 15.1333 165.022 14.6527 164.985 14.13H166.805ZM168.289 11.61C168.774 11.61 169.157 11.4607 169.437 11.162C169.717 10.8633 169.857 10.462 169.857 9.958C169.857 9.40733 169.708 8.98267 169.409 8.684C169.12 8.376 168.723 8.222 168.219 8.222C167.715 8.222 167.314 8.38067 167.015 8.698C166.726 9.006 166.581 9.41667 166.581 9.93C166.581 10.4247 166.721 10.8307 167.001 11.148C167.29 11.456 167.72 11.61 168.289 11.61ZM180.161 8.488H175.625V10.882C175.821 10.6393 176.101 10.4433 176.465 10.294C176.829 10.1353 177.216 10.056 177.627 10.056C178.373 10.056 178.985 10.2193 179.461 10.546C179.937 10.8727 180.282 11.2927 180.497 11.806C180.711 12.31 180.819 12.8513 180.819 13.43C180.819 14.5033 180.511 15.3667 179.895 16.02C179.288 16.6733 178.42 17 177.291 17C176.227 17 175.377 16.734 174.743 16.202C174.108 15.67 173.749 14.9747 173.665 14.116H175.569C175.653 14.4893 175.839 14.788 176.129 15.012C176.427 15.236 176.805 15.348 177.263 15.348C177.813 15.348 178.229 15.1753 178.509 14.83C178.789 14.4847 178.929 14.0273 178.929 13.458C178.929 12.8793 178.784 12.4407 178.495 12.142C178.215 11.834 177.799 11.68 177.249 11.68C176.857 11.68 176.53 11.778 176.269 11.974C176.007 12.17 175.821 12.4313 175.709 12.758H173.833V6.766H180.161V8.488ZM182.03 19.758V19.562C182.973 18.5913 183.696 17.448 184.2 16.132C184.714 14.8067 184.97 13.4347 184.97 12.016C184.97 10.56 184.7 9.146 184.158 7.774C183.626 6.402 182.847 5.226 181.82 4.246V4.064H183.794C184.793 4.96 185.554 6.11267 186.076 7.522C186.599 8.922 186.86 10.42 186.86 12.016C186.86 13.5747 186.608 15.0353 186.104 16.398C185.61 17.7607 184.91 18.8807 184.004 19.758H182.03Z" fill="black"/>
</svg>
