<svg width="81" height="80" viewBox="0 0 81 80" fill="none" xmlns="http://www.w3.org/2000/svg">
<path opacity="0.3" d="M80.5 40C80.5 62.0914 62.5914 80 40.5 80C18.4086 80 0.5 62.0914 0.5 40C0.5 17.9086 18.4086 0 40.5 0C62.5914 0 80.5 17.9086 80.5 40ZM11.4071 40C11.4071 56.0675 24.4325 69.0929 40.5 69.0929C56.5675 69.0929 69.5929 56.0675 69.5929 40C69.5929 23.9325 56.5675 10.9071 40.5 10.9071C24.4325 10.9071 11.4071 23.9325 11.4071 40Z" fill="#2F2E30"/>
<circle cx="40.5" cy="40" r="29" fill="black"/>
<path d="M40.9852 23H36.9932L37.4932 28C37.4932 28 38.4932 29 39.9932 29C40.7806 29.001 41.5412 28.7144 42.1322 28.194C42.1946 28.1356 42.2412 28.0623 42.2674 27.9809C42.2937 27.8996 42.2987 27.8129 42.2822 27.729L41.5762 23.5C41.5525 23.3603 41.4803 23.2335 41.3721 23.1419C41.2639 23.0504 41.1269 23.0001 40.9852 23V23Z" stroke="white" stroke-width="2"/>
<path d="M36.9932 23L37.4932 28C37.4932 28 36.4932 29 34.9932 29C33.4932 29 32.4932 28 32.4932 28V23H36.9932Z" stroke="#FAFAFA" stroke-width="2"/>
<path d="M32.4932 23V28C32.4932 28 31.4932 29 29.9932 29C28.4932 29 27.4932 28 27.4932 28L27.9932 23H32.4932Z" stroke="#FAFAFA" stroke-width="2"/>
<path d="M27.9928 23H24.0018C23.8598 22.9999 23.7223 23.0503 23.6139 23.142C23.5055 23.2337 23.4332 23.3609 23.4098 23.501L22.7048 27.73C22.6883 27.8139 22.6934 27.9005 22.7197 27.9819C22.7459 28.0632 22.7924 28.1366 22.8548 28.195C23.1828 28.485 23.9158 29.001 24.9928 29.001C26.4928 29.001 27.4928 28.001 27.4928 28.001L27.9928 23.001V23Z" stroke="#FAFAFA" stroke-width="2"/>
<path d="M23.5 29V39C23.5 39.5304 23.7107 40.0391 24.0858 40.4142C24.4609 40.7893 24.9696 41 25.5 41H39.5C40.0304 41 40.5391 40.7893 40.9142 40.4142C41.2893 40.0391 41.5 39.5304 41.5 39V29" stroke="#FAFAFA" stroke-width="2"/>
<path d="M35.333 41V35C35.333 34.4696 35.1223 33.9609 34.7472 33.5858C34.3721 33.2107 33.8634 33 33.333 33H31.333C30.8026 33 30.2939 33.2107 29.9188 33.5858C29.5437 33.9609 29.333 34.4696 29.333 35V41" stroke="#FAFAFA" stroke-width="2" stroke-miterlimit="16"/>
</svg>
