<svg width="135" height="40" viewBox="0 0 135 40" fill="none" xmlns="http://www.w3.org/2000/svg">
<rect width="40" height="40" rx="20" fill="#DB4444"/>
<path d="M18.5542 14.24L15.1712 10.335C14.7812 9.885 14.0662 9.887 13.6132 10.341L10.8312 13.128C10.0032 13.957 9.76623 15.188 10.2452 16.175C13.1069 22.1 17.8853 26.8851 23.8062 29.755C24.7922 30.234 26.0222 29.997 26.8502 29.168L29.6582 26.355C30.1132 25.9 30.1142 25.181 29.6602 24.791L25.7402 21.426C25.3302 21.074 24.6932 21.12 24.2822 21.532L22.9182 22.898C22.8484 22.9712 22.7565 23.0194 22.6566 23.0353C22.5567 23.0512 22.4543 23.0339 22.3652 22.986C20.1357 21.7021 18.2862 19.8502 17.0052 17.619C16.9573 17.5298 16.9399 17.4272 16.9558 17.3272C16.9717 17.2271 17.02 17.135 17.0932 17.065L18.4532 15.704C18.8652 15.29 18.9102 14.65 18.5542 14.239V14.24Z" stroke="white" stroke-width="1.5" stroke-linecap="round" stroke-linejoin="round"/>
<path d="M56.592 20.416C56.592 19.328 56.8427 18.352 57.344 17.488C57.856 16.624 58.544 15.952 59.408 15.472C60.2827 14.9813 61.2373 14.736 62.272 14.736C63.456 14.736 64.5067 15.0293 65.424 15.616C66.352 16.192 67.024 17.0133 67.44 18.08H65.248C64.96 17.4933 64.56 17.056 64.048 16.768C63.536 16.48 62.944 16.336 62.272 16.336C61.536 16.336 60.88 16.5013 60.304 16.832C59.728 17.1627 59.2747 17.6373 58.944 18.256C58.624 18.8747 58.464 19.5947 58.464 20.416C58.464 21.2373 58.624 21.9573 58.944 22.576C59.2747 23.1947 59.728 23.6747 60.304 24.016C60.88 24.3467 61.536 24.512 62.272 24.512C62.944 24.512 63.536 24.368 64.048 24.08C64.56 23.792 64.96 23.3547 65.248 22.768H67.44C67.024 23.8347 66.352 24.656 65.424 25.232C64.5067 25.808 63.456 26.096 62.272 26.096C61.2267 26.096 60.272 25.856 59.408 25.376C58.544 24.8853 57.856 24.208 57.344 23.344C56.8427 22.48 56.592 21.504 56.592 20.416ZM68.967 21.552C68.967 20.6667 69.1483 19.8827 69.511 19.2C69.8843 18.5173 70.3857 17.9893 71.015 17.616C71.655 17.232 72.359 17.04 73.127 17.04C73.8203 17.04 74.423 17.1787 74.935 17.456C75.4577 17.7227 75.8737 18.0587 76.183 18.464V17.184H78.023V26H76.183V24.688C75.8737 25.104 75.4523 25.4507 74.919 25.728C74.3857 26.0053 73.7777 26.144 73.095 26.144C72.3377 26.144 71.6443 25.952 71.015 25.568C70.3857 25.1733 69.8843 24.6293 69.511 23.936C69.1483 23.232 68.967 22.4373 68.967 21.552ZM76.183 21.584C76.183 20.976 76.055 20.448 75.799 20C75.5537 19.552 75.2283 19.2107 74.823 18.976C74.4177 18.7413 73.9803 18.624 73.511 18.624C73.0417 18.624 72.6043 18.7413 72.199 18.976C71.7937 19.2 71.463 19.536 71.207 19.984C70.9617 20.4213 70.839 20.944 70.839 21.552C70.839 22.16 70.9617 22.6933 71.207 23.152C71.463 23.6107 71.7937 23.9627 72.199 24.208C72.615 24.4427 73.0523 24.56 73.511 24.56C73.9803 24.56 74.4177 24.4427 74.823 24.208C75.2283 23.9733 75.5537 23.632 75.799 23.184C76.055 22.7253 76.183 22.192 76.183 21.584ZM82.2428 14.16V26H80.4188V14.16H82.2428ZM86.4615 14.16V26H84.6375V14.16H86.4615ZM100.197 14.88V16.368H97.2365V26H95.4125V16.368H92.4365V14.88H100.197ZM105.868 26.144C105.036 26.144 104.284 25.9573 103.612 25.584C102.94 25.2 102.412 24.6667 102.028 23.984C101.644 23.2907 101.452 22.4907 101.452 21.584C101.452 20.688 101.649 19.8933 102.044 19.2C102.438 18.5067 102.977 17.9733 103.66 17.6C104.342 17.2267 105.105 17.04 105.948 17.04C106.79 17.04 107.553 17.2267 108.236 17.6C108.918 17.9733 109.457 18.5067 109.852 19.2C110.246 19.8933 110.444 20.688 110.444 21.584C110.444 22.48 110.241 23.2747 109.836 23.968C109.43 24.6613 108.876 25.2 108.172 25.584C107.478 25.9573 106.71 26.144 105.868 26.144ZM105.868 24.56C106.337 24.56 106.774 24.448 107.18 24.224C107.596 24 107.932 23.664 108.188 23.216C108.444 22.768 108.572 22.224 108.572 21.584C108.572 20.944 108.449 20.4053 108.204 19.968C107.958 19.52 107.633 19.184 107.228 18.96C106.822 18.736 106.385 18.624 105.916 18.624C105.446 18.624 105.009 18.736 104.604 18.96C104.209 19.184 103.894 19.52 103.66 19.968C103.425 20.4053 103.308 20.944 103.308 21.584C103.308 22.5333 103.548 23.2693 104.028 23.792C104.518 24.304 105.132 24.56 105.868 24.56ZM118.211 14.88V21.968C118.211 22.8107 118.43 23.4453 118.867 23.872C119.315 24.2987 119.934 24.512 120.723 24.512C121.523 24.512 122.142 24.2987 122.579 23.872C123.027 23.4453 123.251 22.8107 123.251 21.968V14.88H125.075V21.936C125.075 22.8427 124.878 23.6107 124.483 24.24C124.088 24.8693 123.56 25.3387 122.899 25.648C122.238 25.9573 121.507 26.112 120.707 26.112C119.907 26.112 119.176 25.9573 118.515 25.648C117.864 25.3387 117.347 24.8693 116.963 24.24C116.579 23.6107 116.387 22.8427 116.387 21.936V14.88H118.211ZM130.65 26.144C129.957 26.144 129.333 26.0213 128.778 25.776C128.234 25.52 127.802 25.1787 127.482 24.752C127.162 24.3147 126.991 23.8293 126.97 23.296H128.858C128.89 23.6693 129.066 23.984 129.386 24.24C129.717 24.4853 130.127 24.608 130.618 24.608C131.13 24.608 131.525 24.512 131.802 24.32C132.09 24.1173 132.234 23.8613 132.234 23.552C132.234 23.2213 132.074 22.976 131.754 22.816C131.445 22.656 130.949 22.48 130.266 22.288C129.605 22.1067 129.066 21.9307 128.65 21.76C128.234 21.5893 127.871 21.328 127.562 20.976C127.263 20.624 127.114 20.16 127.114 19.584C127.114 19.1147 127.253 18.688 127.53 18.304C127.807 17.9093 128.202 17.6 128.714 17.376C129.237 17.152 129.834 17.04 130.506 17.04C131.509 17.04 132.314 17.296 132.922 17.808C133.541 18.3093 133.871 18.9973 133.914 19.872H132.09C132.058 19.4773 131.898 19.1627 131.61 18.928C131.322 18.6933 130.933 18.576 130.442 18.576C129.962 18.576 129.594 18.6667 129.338 18.848C129.082 19.0293 128.954 19.2693 128.954 19.568C128.954 19.8027 129.039 20 129.21 20.16C129.381 20.32 129.589 20.448 129.834 20.544C130.079 20.6293 130.442 20.7413 130.922 20.88C131.562 21.0507 132.085 21.2267 132.49 21.408C132.906 21.5787 133.263 21.8347 133.562 22.176C133.861 22.5173 134.015 22.9707 134.026 23.536C134.026 24.0373 133.887 24.4853 133.61 24.88C133.333 25.2747 132.938 25.584 132.426 25.808C131.925 26.032 131.333 26.144 130.65 26.144Z" fill="black"/>
</svg>
