<svg width="147" height="40" viewBox="0 0 147 40" fill="none" xmlns="http://www.w3.org/2000/svg">
<rect width="40" height="40" rx="20" fill="#DB4444"/>
<path d="M10 13L20 20L30 13M10 27H30V13H10V27Z" stroke="white" stroke-width="1.5" stroke-linecap="round" stroke-linejoin="round"/>
<path d="M71.68 14.88L68.384 26H66.32L63.984 17.584L61.504 26L59.456 26.016L56.304 14.88H58.24L60.544 23.936L63.04 14.88H65.088L67.408 23.888L69.728 14.88H71.68ZM75.0084 18.464C75.275 18.016 75.627 17.6693 76.0644 17.424C76.5124 17.168 77.0404 17.04 77.6484 17.04V18.928H77.1844C76.4697 18.928 75.9257 19.1093 75.5524 19.472C75.1897 19.8347 75.0084 20.464 75.0084 21.36V26H73.1844V17.184H75.0084V18.464ZM80.253 16.016C79.9223 16.016 79.645 15.904 79.421 15.68C79.197 15.456 79.085 15.1787 79.085 14.848C79.085 14.5173 79.197 14.24 79.421 14.016C79.645 13.792 79.9223 13.68 80.253 13.68C80.573 13.68 80.845 13.792 81.069 14.016C81.293 14.24 81.405 14.5173 81.405 14.848C81.405 15.1787 81.293 15.456 81.069 15.68C80.845 15.904 80.573 16.016 80.253 16.016ZM81.149 17.184V26H79.325V17.184H81.149ZM85.6718 18.672V23.552C85.6718 23.8827 85.7464 24.1227 85.8958 24.272C86.0558 24.4107 86.3224 24.48 86.6958 24.48H87.8158V26H86.3758C85.5544 26 84.9251 25.808 84.4878 25.424C84.0504 25.04 83.8318 24.416 83.8318 23.552V18.672H82.7918V17.184H83.8318V14.992H85.6718V17.184H87.8158V18.672H85.6718ZM97.5769 21.376C97.5769 21.7067 97.5555 22.0053 97.5129 22.272H90.7769C90.8302 22.976 91.0915 23.5413 91.5609 23.968C92.0302 24.3947 92.6062 24.608 93.2889 24.608C94.2702 24.608 94.9635 24.1973 95.3689 23.376H97.3369C97.0702 24.1867 96.5849 24.8533 95.8809 25.376C95.1875 25.888 94.3235 26.144 93.2889 26.144C92.4462 26.144 91.6889 25.9573 91.0169 25.584C90.3555 25.2 89.8329 24.6667 89.4489 23.984C89.0755 23.2907 88.8889 22.4907 88.8889 21.584C88.8889 20.6773 89.0702 19.8827 89.4329 19.2C89.8062 18.5067 90.3235 17.9733 90.9849 17.6C91.6569 17.2267 92.4249 17.04 93.2889 17.04C94.1209 17.04 94.8622 17.2213 95.5129 17.584C96.1635 17.9467 96.6702 18.4587 97.0329 19.12C97.3955 19.7707 97.5769 20.5227 97.5769 21.376ZM95.6729 20.8C95.6622 20.128 95.4222 19.5893 94.9529 19.184C94.4835 18.7787 93.9022 18.576 93.2089 18.576C92.5795 18.576 92.0409 18.7787 91.5929 19.184C91.1449 19.5787 90.8782 20.1173 90.7929 20.8H95.6729ZM110.712 14.88V16.368H107.752V26H105.928V16.368H102.952V14.88H110.712ZM116.383 26.144C115.551 26.144 114.799 25.9573 114.127 25.584C113.455 25.2 112.927 24.6667 112.543 23.984C112.159 23.2907 111.967 22.4907 111.967 21.584C111.967 20.688 112.165 19.8933 112.559 19.2C112.954 18.5067 113.493 17.9733 114.175 17.6C114.858 17.2267 115.621 17.04 116.463 17.04C117.306 17.04 118.069 17.2267 118.751 17.6C119.434 17.9733 119.973 18.5067 120.367 19.2C120.762 19.8933 120.959 20.688 120.959 21.584C120.959 22.48 120.757 23.2747 120.351 23.968C119.946 24.6613 119.391 25.2 118.687 25.584C117.994 25.9573 117.226 26.144 116.383 26.144ZM116.383 24.56C116.853 24.56 117.29 24.448 117.695 24.224C118.111 24 118.447 23.664 118.703 23.216C118.959 22.768 119.087 22.224 119.087 21.584C119.087 20.944 118.965 20.4053 118.719 19.968C118.474 19.52 118.149 19.184 117.743 18.96C117.338 18.736 116.901 18.624 116.431 18.624C115.962 18.624 115.525 18.736 115.119 18.96C114.725 19.184 114.41 19.52 114.175 19.968C113.941 20.4053 113.823 20.944 113.823 21.584C113.823 22.5333 114.063 23.2693 114.543 23.792C115.034 24.304 115.647 24.56 116.383 24.56ZM128.727 14.88V21.968C128.727 22.8107 128.945 23.4453 129.383 23.872C129.831 24.2987 130.449 24.512 131.239 24.512C132.039 24.512 132.657 24.2987 133.095 23.872C133.543 23.4453 133.767 22.8107 133.767 21.968V14.88H135.591V21.936C135.591 22.8427 135.393 23.6107 134.999 24.24C134.604 24.8693 134.076 25.3387 133.415 25.648C132.753 25.9573 132.023 26.112 131.223 26.112C130.423 26.112 129.692 25.9573 129.031 25.648C128.38 25.3387 127.863 24.8693 127.479 24.24C127.095 23.6107 126.903 22.8427 126.903 21.936V14.88H128.727ZM141.63 26.112C140.883 26.112 140.211 25.984 139.614 25.728C139.016 25.4613 138.547 25.088 138.206 24.608C137.864 24.128 137.694 23.568 137.694 22.928H139.646C139.688 23.408 139.875 23.8027 140.206 24.112C140.547 24.4213 141.022 24.576 141.63 24.576C142.259 24.576 142.75 24.4267 143.102 24.128C143.454 23.8187 143.63 23.424 143.63 22.944C143.63 22.5707 143.518 22.2667 143.294 22.032C143.08 21.7973 142.808 21.616 142.478 21.488C142.158 21.36 141.71 21.2213 141.134 21.072C140.408 20.88 139.816 20.688 139.358 20.496C138.91 20.2933 138.526 19.984 138.206 19.568C137.886 19.152 137.726 18.5973 137.726 17.904C137.726 17.264 137.886 16.704 138.206 16.224C138.526 15.744 138.974 15.376 139.55 15.12C140.126 14.864 140.792 14.736 141.55 14.736C142.627 14.736 143.507 15.008 144.19 15.552C144.883 16.0853 145.267 16.8213 145.342 17.76H143.326C143.294 17.3547 143.102 17.008 142.75 16.72C142.398 16.432 141.934 16.288 141.358 16.288C140.835 16.288 140.408 16.4213 140.078 16.688C139.747 16.9547 139.582 17.3387 139.582 17.84C139.582 18.1813 139.683 18.464 139.886 18.688C140.099 18.9013 140.366 19.072 140.686 19.2C141.006 19.328 141.443 19.4667 141.998 19.616C142.734 19.8187 143.331 20.0213 143.79 20.224C144.259 20.4267 144.654 20.7413 144.974 21.168C145.304 21.584 145.47 22.144 145.47 22.848C145.47 23.4133 145.315 23.9467 145.006 24.448C144.707 24.9493 144.264 25.3547 143.678 25.664C143.102 25.9627 142.419 26.112 141.63 26.112Z" fill="black"/>
</svg>
