<svg width="32" height="32" viewBox="0 0 32 32" fill="none" xmlns="http://www.w3.org/2000/svg">
<path d="M9.25 28.25C9.66421 28.25 10 27.9142 10 27.5C10 27.0858 9.66421 26.75 9.25 26.75C8.83579 26.75 8.5 27.0858 8.5 27.5C8.5 27.9142 8.83579 28.25 9.25 28.25Z" stroke="black" stroke-width="1.5" stroke-linecap="round" stroke-linejoin="round"/>
<path d="M19.75 28.25C20.1642 28.25 20.5 27.9142 20.5 27.5C20.5 27.0858 20.1642 26.75 19.75 26.75C19.3358 26.75 19 27.0858 19 27.5C19 27.9142 19.3358 28.25 19.75 28.25Z" stroke="black" stroke-width="1.5" stroke-linecap="round" stroke-linejoin="round"/>
<path d="M3.25 11.75H6.25L8.5 24.5H20.5" stroke="black" stroke-width="1.5" stroke-linecap="round" stroke-linejoin="round"/>
<path d="M8.5 20.5H20.1925C20.2792 20.5001 20.3633 20.4701 20.4304 20.4151C20.4975 20.3601 20.5434 20.2836 20.5605 20.1986L21.9105 13.4486C21.9214 13.3942 21.92 13.338 21.9066 13.2841C21.8931 13.2303 21.8679 13.1801 21.8327 13.1372C21.7975 13.0943 21.7532 13.0597 21.703 13.036C21.6528 13.0122 21.598 13 21.5425 13H7" stroke="black" stroke-width="1.5" stroke-linecap="round" stroke-linejoin="round"/>
<circle cx="23" cy="10" r="8" fill="#DB4444"/>
<path d="M20.6608 13.124C21.6768 12.308 22.4728 11.64 23.0488 11.12C23.6248 10.592 24.1088 10.044 24.5008 9.476C24.9008 8.9 25.1008 8.336 25.1008 7.784C25.1008 7.264 24.9728 6.856 24.7168 6.56C24.4688 6.256 24.0648 6.104 23.5048 6.104C22.9608 6.104 22.5368 6.276 22.2328 6.62C21.9368 6.956 21.7768 7.408 21.7528 7.976H20.6968C20.7288 7.08 21.0008 6.388 21.5128 5.9C22.0248 5.412 22.6848 5.168 23.4928 5.168C24.3168 5.168 24.9688 5.396 25.4488 5.852C25.9368 6.308 26.1808 6.936 26.1808 7.736C26.1808 8.4 25.9808 9.048 25.5808 9.68C25.1888 10.304 24.7408 10.856 24.2368 11.336C23.7328 11.808 23.0888 12.36 22.3048 12.992H26.4328V13.904H20.6608V13.124Z" fill="#FAFAFA"/>
</svg>
