<svg width="80" height="80" viewBox="0 0 80 80" fill="none" xmlns="http://www.w3.org/2000/svg">
<path opacity="0.3" d="M80 40C80 62.0914 62.0914 80 40 80C17.9086 80 0 62.0914 0 40C0 17.9086 17.9086 0 40 0C62.0914 0 80 17.9086 80 40ZM10.9071 40C10.9071 56.0675 23.9325 69.0929 40 69.0929C56.0675 69.0929 69.0929 56.0675 69.0929 40C69.0929 23.9325 56.0675 10.9071 40 10.9071C23.9325 10.9071 10.9071 23.9325 10.9071 40Z" fill="#2F2E30"/>
<circle cx="40" cy="40" r="29" fill="black"/>
<path d="M28.0994 50.5992L28.0992 50.5991C27.2265 49.9483 26.4259 48.9206 25.8431 47.759C25.2602 46.5973 24.917 45.3451 24.917 44.2666V31.8666C24.917 29.5074 26.6718 26.9618 28.8915 26.1351L28.8925 26.1348L37.2087 23.0183C37.2088 23.0182 37.2089 23.0182 37.2089 23.0182C37.9624 22.7366 38.9619 22.5874 39.9837 22.5874C41.0054 22.5874 42.0049 22.7366 42.7584 23.0182C42.7585 23.0182 42.7585 23.0182 42.7586 23.0183L51.0749 26.1348L51.0758 26.1351C53.2955 26.9618 55.0503 29.5074 55.0503 31.8666V44.2499C55.0503 45.3371 54.7069 46.5892 54.1244 47.7483C53.5419 48.9073 52.7414 49.9313 51.8681 50.5824L51.8679 50.5826L44.7012 55.9326L44.7012 55.9325L44.695 55.9373C43.4123 56.9264 41.7243 57.4332 40.0003 57.4332C38.2777 57.4332 36.5855 56.927 35.2652 55.9486C35.265 55.9484 35.2649 55.9483 35.2647 55.9482L28.0994 50.5992ZM37.7422 24.4315L37.7415 24.4317L29.4249 27.5484L29.4242 27.5486C28.5966 27.8602 27.8553 28.5225 27.3244 29.2906C26.7933 30.059 26.4337 30.9898 26.4337 31.8832V44.2666C26.4337 45.161 26.7442 46.1892 27.2012 47.101C27.6581 48.0126 28.2936 48.8722 29.0012 49.4005L29.0012 49.4006L36.1676 54.7503C37.2296 55.5445 38.6286 55.9249 40.0024 55.9249C41.3764 55.9249 42.7786 55.5445 43.8481 54.7516L43.8494 54.7506L51.0161 49.4006L51.017 49.3999C51.7317 48.8638 52.3672 48.005 52.8225 47.0943C53.2779 46.1837 53.5837 45.16 53.5837 44.2666V31.8666C53.5837 30.9804 53.2232 30.0538 52.6929 29.2864C52.1624 28.5189 51.4226 27.854 50.5979 27.5338L50.598 27.5338L50.5925 27.5317L42.2758 24.415L42.2758 24.4149L42.2667 24.4117C41.6286 24.1865 40.8005 24.0831 40.001 24.0853C39.2024 24.0875 38.3755 24.1951 37.7422 24.4315Z" fill="#FAFAFA" stroke="#FAFAFA"/>
<path d="M37.4135 41.0536L37.7671 41.4071L38.1206 41.0536L44.4039 34.7703C44.692 34.4822 45.1754 34.4822 45.4635 34.7703C45.7516 35.0583 45.7516 35.5417 45.4635 35.8298L38.2968 42.9965C38.1455 43.1478 37.9583 43.2167 37.7671 43.2167C37.5758 43.2167 37.3886 43.1478 37.2373 42.9965L34.5539 40.3131C34.2659 40.0251 34.2659 39.5417 34.5539 39.2536C34.842 38.9655 35.3254 38.9655 35.6135 39.2536L37.4135 41.0536Z" fill="#FAFAFA" stroke="#FAFAFA"/>
</svg>
