<svg width="303" height="50" viewBox="0 0 303 50" fill="none" xmlns="http://www.w3.org/2000/svg">
<path d="M3.624 4.66C4.512 4.66 5.288 4.832 5.952 5.176C6.624 5.512 7.14 6 7.5 6.64C7.868 7.272 8.052 8.012 8.052 8.86C8.052 9.708 7.868 10.444 7.5 11.068C7.14 11.692 6.624 12.172 5.952 12.508C5.288 12.836 4.512 13 3.624 13H0.9V4.66H3.624ZM3.624 11.884C4.6 11.884 5.348 11.62 5.868 11.092C6.388 10.564 6.648 9.82 6.648 8.86C6.648 7.892 6.388 7.136 5.868 6.592C5.348 6.048 4.6 5.776 3.624 5.776H2.268V11.884H3.624ZM8.95181 9.664C8.95181 9 9.08781 8.412 9.35981 7.9C9.63981 7.388 10.0158 6.992 10.4878 6.712C10.9678 6.424 11.4958 6.28 12.0718 6.28C12.5918 6.28 13.0438 6.384 13.4278 6.592C13.8198 6.792 14.1318 7.044 14.3638 7.348V6.388H15.7438V13H14.3638V12.016C14.1318 12.328 13.8158 12.588 13.4158 12.796C13.0158 13.004 12.5598 13.108 12.0478 13.108C11.4798 13.108 10.9598 12.964 10.4878 12.676C10.0158 12.38 9.63981 11.972 9.35981 11.452C9.08781 10.924 8.95181 10.328 8.95181 9.664ZM14.3638 9.688C14.3638 9.232 14.2678 8.836 14.0758 8.5C13.8918 8.164 13.6478 7.908 13.3438 7.732C13.0398 7.556 12.7118 7.468 12.3598 7.468C12.0078 7.468 11.6798 7.556 11.3758 7.732C11.0718 7.9 10.8238 8.152 10.6318 8.488C10.4478 8.816 10.3558 9.208 10.3558 9.664C10.3558 10.12 10.4478 10.52 10.6318 10.864C10.8238 11.208 11.0718 11.472 11.3758 11.656C11.6878 11.832 12.0158 11.92 12.3598 11.92C12.7118 11.92 13.0398 11.832 13.3438 11.656C13.6478 11.48 13.8918 11.224 14.0758 10.888C14.2678 10.544 14.3638 10.144 14.3638 9.688ZM23.4926 6.388L19.4366 16.108H18.0206L19.3646 12.892L16.7606 6.388H18.2846L20.1446 11.428L22.0766 6.388H23.4926ZM26.925 13.108C26.405 13.108 25.937 13.016 25.521 12.832C25.113 12.64 24.789 12.384 24.549 12.064C24.309 11.736 24.181 11.372 24.165 10.972H25.581C25.605 11.252 25.737 11.488 25.977 11.68C26.225 11.864 26.533 11.956 26.901 11.956C27.285 11.956 27.581 11.884 27.789 11.74C28.005 11.588 28.113 11.396 28.113 11.164C28.113 10.916 27.993 10.732 27.753 10.612C27.521 10.492 27.149 10.36 26.637 10.216C26.141 10.08 25.737 9.948 25.425 9.82C25.113 9.692 24.841 9.496 24.609 9.232C24.385 8.968 24.273 8.62 24.273 8.188C24.273 7.836 24.377 7.516 24.585 7.228C24.793 6.932 25.089 6.7 25.473 6.532C25.865 6.364 26.313 6.28 26.817 6.28C27.569 6.28 28.173 6.472 28.629 6.856C29.093 7.232 29.341 7.748 29.373 8.404H28.005C27.981 8.108 27.861 7.872 27.645 7.696C27.429 7.52 27.137 7.432 26.769 7.432C26.409 7.432 26.133 7.5 25.941 7.636C25.749 7.772 25.653 7.952 25.653 8.176C25.653 8.352 25.717 8.5 25.845 8.62C25.973 8.74 26.129 8.836 26.313 8.908C26.497 8.972 26.769 9.056 27.129 9.16C27.609 9.288 28.001 9.42 28.305 9.556C28.617 9.684 28.885 9.876 29.109 10.132C29.333 10.388 29.449 10.728 29.457 11.152C29.457 11.528 29.353 11.864 29.145 12.16C28.937 12.456 28.641 12.688 28.257 12.856C27.881 13.024 27.437 13.108 26.925 13.108Z" fill="black"/>
<path d="M11.0114 49.5114C9.05682 49.5038 7.375 49.0227 5.96591 48.0682C4.56439 47.1136 3.48485 45.7311 2.72727 43.9205C1.97727 42.1098 1.60606 39.9318 1.61364 37.3864C1.61364 34.8485 1.98864 32.6856 2.73864 30.8977C3.49621 29.1098 4.57576 27.75 5.97727 26.8182C7.38636 25.8788 9.06439 25.4091 11.0114 25.4091C12.9583 25.4091 14.6326 25.8788 16.0341 26.8182C17.4432 27.7576 18.5265 29.1212 19.2841 30.9091C20.0417 32.6894 20.4167 34.8485 20.4091 37.3864C20.4091 39.9394 20.0303 42.1212 19.2727 43.9318C18.5227 45.7424 17.447 47.125 16.0455 48.0795C14.6439 49.0341 12.9659 49.5114 11.0114 49.5114ZM11.0114 45.4318C12.3447 45.4318 13.4091 44.7614 14.2045 43.4205C15 42.0795 15.3939 40.0682 15.3864 37.3864C15.3864 35.6212 15.2045 34.1515 14.8409 32.9773C14.4848 31.803 13.9773 30.9205 13.3182 30.3295C12.6667 29.7386 11.8977 29.4432 11.0114 29.4432C9.68561 29.4432 8.625 30.1061 7.82955 31.4318C7.03409 32.7576 6.63258 34.7424 6.625 37.3864C6.625 39.1742 6.80303 40.6667 7.15909 41.8636C7.52273 43.053 8.03409 43.947 8.69318 44.5455C9.35227 45.1364 10.125 45.4318 11.0114 45.4318ZM33.7999 49.3182C32.1029 49.3182 30.5916 49.0265 29.2658 48.4432C27.9476 47.8523 26.9059 47.0417 26.1408 46.0114C25.3832 44.9735 24.9931 43.7765 24.9703 42.4205H29.9249C29.9552 42.9886 30.1408 43.4886 30.4817 43.9205C30.8302 44.3447 31.2923 44.6742 31.8681 44.9091C32.4438 45.1439 33.0916 45.2614 33.8113 45.2614C34.5613 45.2614 35.2241 45.1288 35.7999 44.8636C36.3756 44.5985 36.8264 44.2311 37.1522 43.7614C37.4779 43.2917 37.6408 42.75 37.6408 42.1364C37.6408 41.5152 37.4666 40.9659 37.1181 40.4886C36.7772 40.0038 36.2847 39.625 35.6408 39.3523C35.0044 39.0795 34.2469 38.9432 33.3681 38.9432H31.1976V35.3295H33.3681C34.1105 35.3295 34.7658 35.2008 35.334 34.9432C35.9097 34.6856 36.3567 34.3295 36.6749 33.875C36.9931 33.4129 37.1522 32.875 37.1522 32.2614C37.1522 31.678 37.012 31.1667 36.7317 30.7273C36.459 30.2803 36.0726 29.9318 35.5726 29.6818C35.0802 29.4318 34.5044 29.3068 33.8453 29.3068C33.1787 29.3068 32.5688 29.428 32.0158 29.6705C31.4628 29.9053 31.0196 30.2424 30.6863 30.6818C30.3529 31.1212 30.1749 31.6364 30.1522 32.2273H25.4363C25.459 30.8864 25.8416 29.7045 26.584 28.6818C27.3264 27.6591 28.3264 26.8598 29.584 26.2841C30.8491 25.7008 32.2772 25.4091 33.8681 25.4091C35.4741 25.4091 36.8794 25.7008 38.084 26.2841C39.2885 26.8674 40.2241 27.6553 40.8908 28.6477C41.565 29.6326 41.8984 30.7386 41.8908 31.9659C41.8984 33.2689 41.4931 34.3561 40.6749 35.2273C39.8643 36.0985 38.8075 36.6515 37.5044 36.8864V37.0682C39.2166 37.2879 40.5196 37.8826 41.4135 38.8523C42.315 39.8144 42.762 41.0189 42.7544 42.4659C42.762 43.7917 42.3794 44.9697 41.6067 46C40.8416 47.0303 39.7847 47.8409 38.4363 48.4318C37.0878 49.0227 35.5423 49.3182 33.7999 49.3182Z" fill="black"/>
<path d="M91.56 4.66V13H90.192V9.352H86.268V13H84.9V4.66H86.268V8.236H90.192V4.66H91.56ZM96.2289 13.108C95.6049 13.108 95.0409 12.968 94.5369 12.688C94.0329 12.4 93.6369 12 93.3489 11.488C93.0609 10.968 92.9169 10.368 92.9169 9.688C92.9169 9.016 93.0649 8.42 93.3609 7.9C93.6569 7.38 94.0609 6.98 94.5729 6.7C95.0849 6.42 95.6569 6.28 96.2889 6.28C96.9209 6.28 97.4929 6.42 98.0049 6.7C98.5169 6.98 98.9209 7.38 99.2169 7.9C99.5129 8.42 99.6609 9.016 99.6609 9.688C99.6609 10.36 99.5089 10.956 99.2049 11.476C98.9009 11.996 98.4849 12.4 97.9569 12.688C97.4369 12.968 96.8609 13.108 96.2289 13.108ZM96.2289 11.92C96.5809 11.92 96.9089 11.836 97.2129 11.668C97.5249 11.5 97.7769 11.248 97.9689 10.912C98.1609 10.576 98.2569 10.168 98.2569 9.688C98.2569 9.208 98.1649 8.804 97.9809 8.476C97.7969 8.14 97.5529 7.888 97.2489 7.72C96.9449 7.552 96.6169 7.468 96.2649 7.468C95.9129 7.468 95.5849 7.552 95.2809 7.72C94.9849 7.888 94.7489 8.14 94.5729 8.476C94.3969 8.804 94.3089 9.208 94.3089 9.688C94.3089 10.4 94.4889 10.952 94.8489 11.344C95.2169 11.728 95.6769 11.92 96.2289 11.92ZM107.001 6.388V13H105.633V12.22C105.417 12.492 105.133 12.708 104.781 12.868C104.437 13.02 104.069 13.096 103.677 13.096C103.157 13.096 102.689 12.988 102.273 12.772C101.865 12.556 101.541 12.236 101.301 11.812C101.069 11.388 100.953 10.876 100.953 10.276V6.388H102.309V10.072C102.309 10.664 102.457 11.12 102.753 11.44C103.049 11.752 103.453 11.908 103.965 11.908C104.477 11.908 104.881 11.752 105.177 11.44C105.481 11.12 105.633 10.664 105.633 10.072V6.388H107.001ZM110.174 7.348C110.374 7.012 110.638 6.752 110.966 6.568C111.302 6.376 111.698 6.28 112.154 6.28V7.696H111.806C111.27 7.696 110.862 7.832 110.582 8.104C110.31 8.376 110.174 8.848 110.174 9.52V13H108.806V6.388H110.174V7.348ZM115.812 13.108C115.292 13.108 114.824 13.016 114.408 12.832C114 12.64 113.676 12.384 113.436 12.064C113.196 11.736 113.068 11.372 113.052 10.972H114.468C114.492 11.252 114.624 11.488 114.864 11.68C115.112 11.864 115.42 11.956 115.788 11.956C116.172 11.956 116.468 11.884 116.676 11.74C116.892 11.588 117 11.396 117 11.164C117 10.916 116.88 10.732 116.64 10.612C116.408 10.492 116.036 10.36 115.524 10.216C115.028 10.08 114.624 9.948 114.312 9.82C114 9.692 113.728 9.496 113.496 9.232C113.272 8.968 113.16 8.62 113.16 8.188C113.16 7.836 113.264 7.516 113.472 7.228C113.68 6.932 113.976 6.7 114.36 6.532C114.752 6.364 115.2 6.28 115.704 6.28C116.456 6.28 117.06 6.472 117.516 6.856C117.98 7.232 118.228 7.748 118.26 8.404H116.892C116.868 8.108 116.748 7.872 116.532 7.696C116.316 7.52 116.024 7.432 115.656 7.432C115.296 7.432 115.02 7.5 114.828 7.636C114.636 7.772 114.54 7.952 114.54 8.176C114.54 8.352 114.604 8.5 114.732 8.62C114.86 8.74 115.016 8.836 115.2 8.908C115.384 8.972 115.656 9.056 116.016 9.16C116.496 9.288 116.888 9.42 117.192 9.556C117.504 9.684 117.772 9.876 117.996 10.132C118.22 10.388 118.336 10.728 118.344 11.152C118.344 11.528 118.24 11.864 118.032 12.16C117.824 12.456 117.528 12.688 117.144 12.856C116.768 13.024 116.324 13.108 115.812 13.108Z" fill="black"/>
<path d="M85.8864 49V45.4545L94.1705 37.7841C94.875 37.1023 95.4659 36.4886 95.9432 35.9432C96.428 35.3977 96.7955 34.8636 97.0455 34.3409C97.2955 33.8106 97.4205 33.2386 97.4205 32.625C97.4205 31.9432 97.2652 31.3561 96.9545 30.8636C96.6439 30.3636 96.2197 29.9811 95.6818 29.7159C95.1439 29.4432 94.5341 29.3068 93.8523 29.3068C93.1402 29.3068 92.5189 29.4508 91.9886 29.7386C91.4583 30.0265 91.0492 30.4394 90.7614 30.9773C90.4735 31.5152 90.3295 32.1553 90.3295 32.8977H85.6591C85.6591 31.375 86.0038 30.053 86.6932 28.9318C87.3826 27.8106 88.3485 26.9432 89.5909 26.3295C90.8333 25.7159 92.2652 25.4091 93.8864 25.4091C95.553 25.4091 97.0038 25.7045 98.2386 26.2955C99.4811 26.8788 100.447 27.6894 101.136 28.7273C101.826 29.7652 102.17 30.9545 102.17 32.2955C102.17 33.1742 101.996 34.0417 101.648 34.8977C101.307 35.7538 100.697 36.7045 99.8182 37.75C98.9394 38.7879 97.7008 40.0341 96.1023 41.4886L92.7045 44.8182V44.9773H102.477V49H85.8864ZM115.925 49.3182C114.228 49.3182 112.717 49.0265 111.391 48.4432C110.073 47.8523 109.031 47.0417 108.266 46.0114C107.508 44.9735 107.118 43.7765 107.095 42.4205H112.05C112.08 42.9886 112.266 43.4886 112.607 43.9205C112.955 44.3447 113.417 44.6742 113.993 44.9091C114.569 45.1439 115.217 45.2614 115.936 45.2614C116.686 45.2614 117.349 45.1288 117.925 44.8636C118.501 44.5985 118.951 44.2311 119.277 43.7614C119.603 43.2917 119.766 42.75 119.766 42.1364C119.766 41.5152 119.592 40.9659 119.243 40.4886C118.902 40.0038 118.41 39.625 117.766 39.3523C117.129 39.0795 116.372 38.9432 115.493 38.9432H113.323V35.3295H115.493C116.235 35.3295 116.891 35.2008 117.459 34.9432C118.035 34.6856 118.482 34.3295 118.8 33.875C119.118 33.4129 119.277 32.875 119.277 32.2614C119.277 31.678 119.137 31.1667 118.857 30.7273C118.584 30.2803 118.198 29.9318 117.698 29.6818C117.205 29.4318 116.629 29.3068 115.97 29.3068C115.304 29.3068 114.694 29.428 114.141 29.6705C113.588 29.9053 113.145 30.2424 112.811 30.6818C112.478 31.1212 112.3 31.6364 112.277 32.2273H107.561C107.584 30.8864 107.967 29.7045 108.709 28.6818C109.451 27.6591 110.451 26.8598 111.709 26.2841C112.974 25.7008 114.402 25.4091 115.993 25.4091C117.599 25.4091 119.004 25.7008 120.209 26.2841C121.414 26.8674 122.349 27.6553 123.016 28.6477C123.69 29.6326 124.023 30.7386 124.016 31.9659C124.023 33.2689 123.618 34.3561 122.8 35.2273C121.989 36.0985 120.932 36.6515 119.629 36.8864V37.0682C121.342 37.2879 122.645 37.8826 123.539 38.8523C124.44 39.8144 124.887 41.0189 124.879 42.4659C124.887 43.7917 124.504 44.9697 123.732 46C122.967 47.0303 121.91 47.8409 120.561 48.4318C119.213 49.0227 117.667 49.3182 115.925 49.3182Z" fill="black"/>
<path d="M173.684 4.66V13H172.316V7.288L169.772 13H168.824L166.268 7.288V13H164.9V4.66H166.376L169.304 11.2L172.22 4.66H173.684ZM176.178 5.512C175.93 5.512 175.722 5.428 175.554 5.26C175.386 5.092 175.302 4.884 175.302 4.636C175.302 4.388 175.386 4.18 175.554 4.012C175.722 3.844 175.93 3.76 176.178 3.76C176.418 3.76 176.622 3.844 176.79 4.012C176.958 4.18 177.042 4.388 177.042 4.636C177.042 4.884 176.958 5.092 176.79 5.26C176.622 5.428 176.418 5.512 176.178 5.512ZM176.85 6.388V13H175.482V6.388H176.85ZM181.982 6.28C182.502 6.28 182.966 6.388 183.374 6.604C183.79 6.82 184.114 7.14 184.346 7.564C184.578 7.988 184.694 8.5 184.694 9.1V13H183.338V9.304C183.338 8.712 183.19 8.26 182.894 7.948C182.598 7.628 182.194 7.468 181.682 7.468C181.17 7.468 180.762 7.628 180.458 7.948C180.162 8.26 180.014 8.712 180.014 9.304V13H178.646V6.388H180.014V7.144C180.238 6.872 180.522 6.66 180.866 6.508C181.218 6.356 181.59 6.28 181.982 6.28ZM192.427 6.388V13H191.059V12.22C190.843 12.492 190.559 12.708 190.207 12.868C189.863 13.02 189.495 13.096 189.103 13.096C188.583 13.096 188.115 12.988 187.699 12.772C187.291 12.556 186.967 12.236 186.727 11.812C186.495 11.388 186.379 10.876 186.379 10.276V6.388H187.735V10.072C187.735 10.664 187.883 11.12 188.179 11.44C188.475 11.752 188.879 11.908 189.391 11.908C189.903 11.908 190.307 11.752 190.603 11.44C190.907 11.12 191.059 10.664 191.059 10.072V6.388H192.427ZM195.828 7.504V11.164C195.828 11.412 195.884 11.592 195.996 11.704C196.116 11.808 196.316 11.86 196.596 11.86H197.436V13H196.356C195.74 13 195.268 12.856 194.94 12.568C194.612 12.28 194.448 11.812 194.448 11.164V7.504H193.668V6.388H194.448V4.744H195.828V6.388H197.436V7.504H195.828ZM204.757 9.532C204.757 9.78 204.741 10.004 204.709 10.204H199.657C199.697 10.732 199.893 11.156 200.245 11.476C200.597 11.796 201.029 11.956 201.541 11.956C202.277 11.956 202.797 11.648 203.101 11.032H204.577C204.377 11.64 204.013 12.14 203.485 12.532C202.965 12.916 202.317 13.108 201.541 13.108C200.909 13.108 200.341 12.968 199.837 12.688C199.341 12.4 198.949 12 198.661 11.488C198.381 10.968 198.241 10.368 198.241 9.688C198.241 9.008 198.377 8.412 198.649 7.9C198.929 7.38 199.317 6.98 199.813 6.7C200.317 6.42 200.893 6.28 201.541 6.28C202.165 6.28 202.721 6.416 203.209 6.688C203.697 6.96 204.077 7.344 204.349 7.84C204.621 8.328 204.757 8.892 204.757 9.532ZM203.329 9.1C203.321 8.596 203.141 8.192 202.789 7.888C202.437 7.584 202.001 7.432 201.481 7.432C201.009 7.432 200.605 7.584 200.269 7.888C199.933 8.184 199.733 8.588 199.669 9.1H203.329ZM208.503 13.108C207.983 13.108 207.515 13.016 207.099 12.832C206.691 12.64 206.367 12.384 206.127 12.064C205.887 11.736 205.759 11.372 205.743 10.972H207.159C207.183 11.252 207.315 11.488 207.555 11.68C207.803 11.864 208.111 11.956 208.479 11.956C208.863 11.956 209.159 11.884 209.367 11.74C209.583 11.588 209.691 11.396 209.691 11.164C209.691 10.916 209.571 10.732 209.331 10.612C209.099 10.492 208.727 10.36 208.215 10.216C207.719 10.08 207.315 9.948 207.003 9.82C206.691 9.692 206.419 9.496 206.187 9.232C205.963 8.968 205.851 8.62 205.851 8.188C205.851 7.836 205.955 7.516 206.163 7.228C206.371 6.932 206.667 6.7 207.051 6.532C207.443 6.364 207.891 6.28 208.395 6.28C209.147 6.28 209.751 6.472 210.207 6.856C210.671 7.232 210.919 7.748 210.951 8.404H209.583C209.559 8.108 209.439 7.872 209.223 7.696C209.007 7.52 208.715 7.432 208.347 7.432C207.987 7.432 207.711 7.5 207.519 7.636C207.327 7.772 207.231 7.952 207.231 8.176C207.231 8.352 207.295 8.5 207.423 8.62C207.551 8.74 207.707 8.836 207.891 8.908C208.075 8.972 208.347 9.056 208.707 9.16C209.187 9.288 209.579 9.42 209.883 9.556C210.195 9.684 210.463 9.876 210.687 10.132C210.911 10.388 211.027 10.728 211.035 11.152C211.035 11.528 210.931 11.864 210.723 12.16C210.515 12.456 210.219 12.688 209.835 12.856C209.459 13.024 209.015 13.108 208.503 13.108Z" fill="black"/>
<path d="M176.011 25.7273V49H171.091V30.3977H170.955L165.625 33.7386V29.375L171.386 25.7273H176.011ZM191.243 25.4091C192.44 25.4091 193.592 25.6098 194.698 26.0114C195.811 26.4129 196.804 27.053 197.675 27.9318C198.554 28.8106 199.247 29.9773 199.754 31.4318C200.27 32.8788 200.531 34.6553 200.539 36.7614C200.539 38.7386 200.315 40.5038 199.868 42.0568C199.429 43.6023 198.796 44.9167 197.97 46C197.145 47.0833 196.148 47.9091 194.982 48.4773C193.815 49.0379 192.512 49.3182 191.073 49.3182C189.52 49.3182 188.148 49.0189 186.959 48.4205C185.77 47.8144 184.811 46.9924 184.084 45.9545C183.364 44.9091 182.929 43.7348 182.777 42.4318H187.629C187.819 43.2803 188.217 43.9394 188.823 44.4091C189.429 44.8712 190.179 45.1023 191.073 45.1023C192.588 45.1023 193.739 44.4432 194.527 43.125C195.315 41.7992 195.713 39.9848 195.72 37.6818H195.561C195.213 38.3636 194.743 38.9508 194.152 39.4432C193.561 39.928 192.883 40.303 192.118 40.5682C191.36 40.8333 190.554 40.9659 189.698 40.9659C188.326 40.9659 187.103 40.6439 186.027 40C184.951 39.3561 184.103 38.4697 183.482 37.3409C182.86 36.2121 182.55 34.9242 182.55 33.4773C182.542 31.9167 182.902 30.5265 183.629 29.3068C184.357 28.0871 185.372 27.1326 186.675 26.4432C187.985 25.7462 189.508 25.4015 191.243 25.4091ZM191.277 29.2727C190.512 29.2727 189.83 29.4545 189.232 29.8182C188.641 30.1818 188.171 30.6705 187.823 31.2841C187.482 31.8977 187.315 32.5833 187.323 33.3409C187.323 34.1061 187.489 34.7955 187.823 35.4091C188.164 36.0152 188.626 36.5 189.209 36.8636C189.8 37.2197 190.474 37.3977 191.232 37.3977C191.8 37.3977 192.326 37.2917 192.811 37.0795C193.296 36.8674 193.717 36.5758 194.073 36.2045C194.436 35.8258 194.72 35.3902 194.925 34.8977C195.129 34.4053 195.232 33.8826 195.232 33.3295C195.224 32.5947 195.05 31.9205 194.709 31.3068C194.368 30.6932 193.898 30.2008 193.3 29.8295C192.701 29.4583 192.027 29.2727 191.277 29.2727Z" fill="black"/>
<path d="M254.648 13.084C254.088 13.084 253.584 12.988 253.136 12.796C252.688 12.596 252.336 12.316 252.08 11.956C251.824 11.596 251.696 11.176 251.696 10.696H253.16C253.192 11.056 253.332 11.352 253.58 11.584C253.836 11.816 254.192 11.932 254.648 11.932C255.12 11.932 255.488 11.82 255.752 11.596C256.016 11.364 256.148 11.068 256.148 10.708C256.148 10.428 256.064 10.2 255.896 10.024C255.736 9.848 255.532 9.712 255.284 9.616C255.044 9.52 254.708 9.416 254.276 9.304C253.732 9.16 253.288 9.016 252.944 8.872C252.608 8.72 252.32 8.488 252.08 8.176C251.84 7.864 251.72 7.448 251.72 6.928C251.72 6.448 251.84 6.028 252.08 5.668C252.32 5.308 252.656 5.032 253.088 4.84C253.52 4.648 254.02 4.552 254.588 4.552C255.396 4.552 256.056 4.756 256.568 5.164C257.088 5.564 257.376 6.116 257.432 6.82H255.92C255.896 6.516 255.752 6.256 255.488 6.04C255.224 5.824 254.876 5.716 254.444 5.716C254.052 5.716 253.732 5.816 253.484 6.016C253.236 6.216 253.112 6.504 253.112 6.88C253.112 7.136 253.188 7.348 253.34 7.516C253.5 7.676 253.7 7.804 253.94 7.9C254.18 7.996 254.508 8.1 254.924 8.212C255.476 8.364 255.924 8.516 256.268 8.668C256.62 8.82 256.916 9.056 257.156 9.376C257.404 9.688 257.528 10.108 257.528 10.636C257.528 11.06 257.412 11.46 257.18 11.836C256.956 12.212 256.624 12.516 256.184 12.748C255.752 12.972 255.24 13.084 254.648 13.084ZM265.202 9.532C265.202 9.78 265.186 10.004 265.154 10.204H260.102C260.142 10.732 260.338 11.156 260.69 11.476C261.042 11.796 261.474 11.956 261.986 11.956C262.722 11.956 263.242 11.648 263.546 11.032H265.022C264.822 11.64 264.458 12.14 263.93 12.532C263.41 12.916 262.762 13.108 261.986 13.108C261.354 13.108 260.786 12.968 260.282 12.688C259.786 12.4 259.394 12 259.106 11.488C258.826 10.968 258.686 10.368 258.686 9.688C258.686 9.008 258.822 8.412 259.094 7.9C259.374 7.38 259.762 6.98 260.258 6.7C260.762 6.42 261.338 6.28 261.986 6.28C262.61 6.28 263.166 6.416 263.654 6.688C264.142 6.96 264.522 7.344 264.794 7.84C265.066 8.328 265.202 8.892 265.202 9.532ZM263.774 9.1C263.766 8.596 263.586 8.192 263.234 7.888C262.882 7.584 262.446 7.432 261.926 7.432C261.454 7.432 261.05 7.584 260.714 7.888C260.378 8.184 260.178 8.588 260.114 9.1H263.774ZM266.092 9.688C266.092 9.008 266.228 8.412 266.5 7.9C266.78 7.38 267.164 6.98 267.652 6.7C268.14 6.42 268.7 6.28 269.332 6.28C270.132 6.28 270.792 6.472 271.312 6.856C271.84 7.232 272.196 7.772 272.38 8.476H270.904C270.784 8.148 270.592 7.892 270.328 7.708C270.064 7.524 269.732 7.432 269.332 7.432C268.772 7.432 268.324 7.632 267.988 8.032C267.66 8.424 267.496 8.976 267.496 9.688C267.496 10.4 267.66 10.956 267.988 11.356C268.324 11.756 268.772 11.956 269.332 11.956C270.124 11.956 270.648 11.608 270.904 10.912H272.38C272.188 11.584 271.828 12.12 271.3 12.52C270.772 12.912 270.116 13.108 269.332 13.108C268.7 13.108 268.14 12.968 267.652 12.688C267.164 12.4 266.78 12 266.5 11.488C266.228 10.968 266.092 10.368 266.092 9.688ZM276.612 13.108C275.988 13.108 275.424 12.968 274.92 12.688C274.416 12.4 274.02 12 273.732 11.488C273.444 10.968 273.3 10.368 273.3 9.688C273.3 9.016 273.448 8.42 273.744 7.9C274.04 7.38 274.444 6.98 274.956 6.7C275.468 6.42 276.04 6.28 276.672 6.28C277.304 6.28 277.876 6.42 278.388 6.7C278.9 6.98 279.304 7.38 279.6 7.9C279.896 8.42 280.044 9.016 280.044 9.688C280.044 10.36 279.892 10.956 279.588 11.476C279.284 11.996 278.868 12.4 278.34 12.688C277.82 12.968 277.244 13.108 276.612 13.108ZM276.612 11.92C276.964 11.92 277.292 11.836 277.596 11.668C277.908 11.5 278.16 11.248 278.352 10.912C278.544 10.576 278.64 10.168 278.64 9.688C278.64 9.208 278.548 8.804 278.364 8.476C278.18 8.14 277.936 7.888 277.632 7.72C277.328 7.552 277 7.468 276.648 7.468C276.296 7.468 275.968 7.552 275.664 7.72C275.368 7.888 275.132 8.14 274.956 8.476C274.78 8.804 274.692 9.208 274.692 9.688C274.692 10.4 274.872 10.952 275.232 11.344C275.6 11.728 276.06 11.92 276.612 11.92ZM284.732 6.28C285.252 6.28 285.716 6.388 286.124 6.604C286.54 6.82 286.864 7.14 287.096 7.564C287.328 7.988 287.444 8.5 287.444 9.1V13H286.088V9.304C286.088 8.712 285.94 8.26 285.644 7.948C285.348 7.628 284.944 7.468 284.432 7.468C283.92 7.468 283.512 7.628 283.208 7.948C282.912 8.26 282.764 8.712 282.764 9.304V13H281.396V6.388H282.764V7.144C282.988 6.872 283.272 6.66 283.616 6.508C283.968 6.356 284.34 6.28 284.732 6.28ZM288.733 9.664C288.733 9 288.869 8.412 289.141 7.9C289.421 7.388 289.797 6.992 290.269 6.712C290.749 6.424 291.281 6.28 291.865 6.28C292.297 6.28 292.721 6.376 293.137 6.568C293.561 6.752 293.897 7 294.145 7.312V4.12H295.525V13H294.145V12.004C293.921 12.324 293.609 12.588 293.209 12.796C292.817 13.004 292.365 13.108 291.853 13.108C291.277 13.108 290.749 12.964 290.269 12.676C289.797 12.38 289.421 11.972 289.141 11.452C288.869 10.924 288.733 10.328 288.733 9.664ZM294.145 9.688C294.145 9.232 294.049 8.836 293.857 8.5C293.673 8.164 293.429 7.908 293.125 7.732C292.821 7.556 292.493 7.468 292.141 7.468C291.789 7.468 291.461 7.556 291.157 7.732C290.853 7.9 290.605 8.152 290.413 8.488C290.229 8.816 290.137 9.208 290.137 9.664C290.137 10.12 290.229 10.52 290.413 10.864C290.605 11.208 290.853 11.472 291.157 11.656C291.469 11.832 291.797 11.92 292.141 11.92C292.493 11.92 292.821 11.832 293.125 11.656C293.429 11.48 293.673 11.224 293.857 10.888C294.049 10.544 294.145 10.144 294.145 9.688ZM299.722 13.108C299.202 13.108 298.734 13.016 298.318 12.832C297.91 12.64 297.586 12.384 297.346 12.064C297.106 11.736 296.978 11.372 296.962 10.972H298.378C298.402 11.252 298.534 11.488 298.774 11.68C299.022 11.864 299.33 11.956 299.698 11.956C300.082 11.956 300.378 11.884 300.586 11.74C300.802 11.588 300.91 11.396 300.91 11.164C300.91 10.916 300.79 10.732 300.55 10.612C300.318 10.492 299.946 10.36 299.434 10.216C298.938 10.08 298.534 9.948 298.222 9.82C297.91 9.692 297.638 9.496 297.406 9.232C297.182 8.968 297.07 8.62 297.07 8.188C297.07 7.836 297.174 7.516 297.382 7.228C297.59 6.932 297.886 6.7 298.27 6.532C298.662 6.364 299.11 6.28 299.614 6.28C300.366 6.28 300.97 6.472 301.426 6.856C301.89 7.232 302.138 7.748 302.17 8.404H300.802C300.778 8.108 300.658 7.872 300.442 7.696C300.226 7.52 299.934 7.432 299.566 7.432C299.206 7.432 298.93 7.5 298.738 7.636C298.546 7.772 298.45 7.952 298.45 8.176C298.45 8.352 298.514 8.5 298.642 8.62C298.77 8.74 298.926 8.836 299.11 8.908C299.294 8.972 299.566 9.056 299.926 9.16C300.406 9.288 300.798 9.42 301.102 9.556C301.414 9.684 301.682 9.876 301.906 10.132C302.13 10.388 302.246 10.728 302.254 11.152C302.254 11.528 302.15 11.864 301.942 12.16C301.734 12.456 301.438 12.688 301.054 12.856C300.678 13.024 300.234 13.108 299.722 13.108Z" fill="black"/>
<path d="M261.386 49.3182C259.78 49.3182 258.348 49.0227 257.091 48.4318C255.841 47.8409 254.848 47.0265 254.114 45.9886C253.379 44.9508 252.996 43.7614 252.966 42.4205H257.739C257.792 43.322 258.17 44.053 258.875 44.6136C259.58 45.1742 260.417 45.4545 261.386 45.4545C262.159 45.4545 262.841 45.2841 263.432 44.9432C264.03 44.5947 264.496 44.1136 264.83 43.5C265.17 42.8788 265.341 42.1667 265.341 41.3636C265.341 40.5455 265.167 39.8258 264.818 39.2045C264.477 38.5833 264.004 38.0985 263.398 37.75C262.792 37.4015 262.098 37.2235 261.318 37.2159C260.636 37.2159 259.973 37.3561 259.33 37.6364C258.693 37.9167 258.197 38.2992 257.841 38.7841L253.466 38L254.568 25.7273H268.795V29.75H258.625L258.023 35.5795H258.159C258.568 35.0038 259.186 34.5265 260.011 34.1477C260.837 33.7689 261.761 33.5795 262.784 33.5795C264.186 33.5795 265.436 33.9091 266.534 34.5682C267.633 35.2273 268.5 36.1326 269.136 37.2841C269.773 38.428 270.087 39.7462 270.08 41.2386C270.087 42.8068 269.723 44.2008 268.989 45.4205C268.261 46.6326 267.242 47.5871 265.932 48.2841C264.629 48.9735 263.114 49.3182 261.386 49.3182ZM283.723 49.3182C282.526 49.3106 281.371 49.1098 280.257 48.7159C279.151 48.322 278.159 47.6818 277.28 46.7955C276.401 45.9091 275.704 44.7348 275.189 43.2727C274.682 41.8106 274.428 40.0152 274.428 37.8864C274.435 35.9318 274.659 34.1856 275.098 32.6477C275.545 31.1023 276.182 29.7917 277.007 28.7159C277.841 27.6402 278.837 26.822 279.996 26.2614C281.155 25.6932 282.454 25.4091 283.894 25.4091C285.447 25.4091 286.818 25.7121 288.007 26.3182C289.197 26.9167 290.151 27.7311 290.871 28.7614C291.598 29.7917 292.038 30.947 292.189 32.2273H287.337C287.147 31.4167 286.75 30.7803 286.144 30.3182C285.538 29.8561 284.788 29.625 283.894 29.625C282.378 29.625 281.227 30.2841 280.439 31.6023C279.659 32.9205 279.261 34.7121 279.246 36.9773H279.405C279.753 36.2879 280.223 35.7008 280.814 35.2159C281.413 34.7235 282.091 34.3485 282.848 34.0909C283.613 33.8258 284.42 33.6932 285.269 33.6932C286.647 33.6932 287.875 34.0189 288.95 34.6705C290.026 35.3144 290.875 36.2008 291.496 37.3295C292.117 38.4583 292.428 39.75 292.428 41.2045C292.428 42.7803 292.06 44.1818 291.325 45.4091C290.598 46.6364 289.579 47.5985 288.269 48.2955C286.966 48.9848 285.45 49.3258 283.723 49.3182ZM283.7 45.4545C284.458 45.4545 285.136 45.2727 285.735 44.9091C286.333 44.5455 286.803 44.053 287.144 43.4318C287.485 42.8106 287.655 42.1136 287.655 41.3409C287.655 40.5682 287.485 39.875 287.144 39.2614C286.81 38.6477 286.348 38.1591 285.757 37.7955C285.166 37.4318 284.492 37.25 283.735 37.25C283.166 37.25 282.64 37.3561 282.155 37.5682C281.678 37.7803 281.257 38.0758 280.894 38.4545C280.538 38.8333 280.257 39.2727 280.053 39.7727C279.848 40.2652 279.746 40.7917 279.746 41.3523C279.746 42.1023 279.916 42.7879 280.257 43.4091C280.606 44.0303 281.075 44.5265 281.666 44.8977C282.265 45.2689 282.943 45.4545 283.7 45.4545Z" fill="black"/>
<circle cx="65" cy="28" r="2" fill="#E07575"/>
<circle cx="65" cy="40" r="2" fill="#E07575"/>
<circle cx="145" cy="28" r="2" fill="#E07575"/>
<circle cx="145" cy="40" r="2" fill="#E07575"/>
<circle cx="232" cy="28" r="2" fill="#E07575"/>
<circle cx="232" cy="40" r="2" fill="#E07575"/>
</svg>
