<svg width="140" height="20" viewBox="0 0 140 20" fill="none" xmlns="http://www.w3.org/2000/svg">
<path d="M16.673 10.1717C17.7437 9.36184 17.1709 7.65517 15.8284 7.65517H13.3992C12.7853 7.65517 12.243 7.25521 12.0617 6.66868L11.3375 4.32637C10.9309 3.01106 9.0691 3.01106 8.66246 4.32637L7.93832 6.66868C7.75699 7.25521 7.21469 7.65517 6.60078 7.65517H4.12961C2.79142 7.65517 2.21592 9.35274 3.27822 10.1665L5.39469 11.7879C5.85885 12.1435 6.05314 12.7501 5.88196 13.3092L5.11296 15.8207C4.71416 17.1232 6.22167 18.1704 7.30301 17.342L9.14861 15.9281C9.65097 15.5432 10.349 15.5432 10.8514 15.9281L12.6807 17.3295C13.7636 18.159 15.2725 17.1079 14.8696 15.8046L14.09 13.2827C13.9159 12.7198 14.113 12.1081 14.5829 11.7526L16.673 10.1717Z" fill="#FFAD33"/>
<path d="M36.673 10.1717C37.7437 9.36184 37.1709 7.65517 35.8284 7.65517H33.3992C32.7853 7.65517 32.243 7.25521 32.0617 6.66868L31.3375 4.32637C30.9309 3.01106 29.0691 3.01106 28.6625 4.32637L27.9383 6.66868C27.757 7.25521 27.2147 7.65517 26.6008 7.65517H24.1296C22.7914 7.65517 22.2159 9.35274 23.2782 10.1665L25.3947 11.7879C25.8588 12.1435 26.0531 12.7501 25.882 13.3092L25.113 15.8207C24.7142 17.1232 26.2217 18.1704 27.303 17.342L29.1486 15.9281C29.651 15.5432 30.349 15.5432 30.8514 15.9281L32.6807 17.3295C33.7636 18.159 35.2725 17.1079 34.8696 15.8046L34.09 13.2827C33.9159 12.7198 34.113 12.1081 34.5829 11.7526L36.673 10.1717Z" fill="#FFAD33"/>
<path d="M56.673 10.1717C57.7437 9.36184 57.1709 7.65517 55.8284 7.65517H53.3992C52.7853 7.65517 52.243 7.25521 52.0617 6.66868L51.3375 4.32637C50.9309 3.01106 49.0691 3.01106 48.6625 4.32637L47.9383 6.66868C47.757 7.25521 47.2147 7.65517 46.6008 7.65517H44.1296C42.7914 7.65517 42.2159 9.35274 43.2782 10.1665L45.3947 11.7879C45.8588 12.1435 46.0531 12.7501 45.882 13.3092L45.113 15.8207C44.7142 17.1232 46.2217 18.1704 47.303 17.342L49.1486 15.9281C49.651 15.5432 50.349 15.5432 50.8514 15.9281L52.6807 17.3295C53.7636 18.159 55.2725 17.1079 54.8696 15.8046L54.09 13.2827C53.9159 12.7198 54.113 12.1081 54.5829 11.7526L56.673 10.1717Z" fill="#FFAD33"/>
<path d="M76.673 10.1717C77.7437 9.36184 77.1709 7.65517 75.8284 7.65517H73.3992C72.7853 7.65517 72.243 7.25521 72.0617 6.66868L71.3375 4.32637C70.9309 3.01106 69.0691 3.01106 68.6625 4.32637L67.9383 6.66868C67.757 7.25521 67.2147 7.65517 66.6008 7.65517H64.1296C62.7914 7.65517 62.2159 9.35274 63.2782 10.1665L65.3947 11.7879C65.8588 12.1435 66.0531 12.7501 65.882 13.3092L65.113 15.8207C64.7142 17.1232 66.2217 18.1704 67.303 17.342L69.1486 15.9281C69.651 15.5432 70.349 15.5432 70.8514 15.9281L72.6807 17.3295C73.7636 18.159 75.2725 17.1079 74.8696 15.8046L74.09 13.2827C73.9159 12.7198 74.113 12.1081 74.5829 11.7526L76.673 10.1717Z" fill="#FFAD33"/>
<path d="M96.673 10.1717C97.7437 9.36184 97.1709 7.65517 95.8284 7.65517H93.3992C92.7853 7.65517 92.243 7.25521 92.0617 6.66868L91.3375 4.32637C90.9309 3.01106 89.0691 3.01106 88.6625 4.32637L87.9383 6.66868C87.757 7.25521 87.2147 7.65517 86.6008 7.65517H84.1296C82.7914 7.65517 82.2159 9.35274 83.2782 10.1665L85.3947 11.7879C85.8588 12.1435 86.0531 12.7501 85.882 13.3092L85.113 15.8207C84.7142 17.1232 86.2217 18.1704 87.303 17.342L89.1486 15.9281C89.651 15.5432 90.349 15.5432 90.8514 15.9281L92.6807 17.3295C93.7636 18.159 95.2725 17.1079 94.8696 15.8046L94.09 13.2827C93.9159 12.7198 94.113 12.1081 94.5829 11.7526L96.673 10.1717Z" fill="#FFAD33"/>
<path opacity="0.5" d="M112.354 17.758C111.449 16.8807 110.744 15.7607 110.24 14.398C109.745 13.0353 109.498 11.5747 109.498 10.016C109.498 8.42 109.759 6.922 110.282 5.522C110.805 4.11267 111.565 2.96 112.564 2.064H114.538V2.246C113.511 3.226 112.727 4.402 112.186 5.774C111.654 7.146 111.388 8.56 111.388 10.016C111.388 11.4347 111.64 12.8067 112.144 14.132C112.657 15.448 113.385 16.5913 114.328 17.562V17.758H112.354ZM117.245 9.596C116.312 9.11067 115.845 8.35933 115.845 7.342C115.845 6.838 115.971 6.38067 116.223 5.97C116.484 5.55 116.872 5.21867 117.385 4.976C117.908 4.724 118.542 4.598 119.289 4.598C120.036 4.598 120.666 4.724 121.179 4.976C121.702 5.21867 122.089 5.55 122.341 5.97C122.602 6.38067 122.733 6.838 122.733 7.342C122.733 7.85533 122.607 8.308 122.355 8.7C122.103 9.08267 121.767 9.38133 121.347 9.596C121.86 9.82 122.262 10.1467 122.551 10.576C122.84 11.0053 122.985 11.514 122.985 12.102C122.985 12.7367 122.822 13.292 122.495 13.768C122.178 14.2347 121.739 14.594 121.179 14.846C120.619 15.098 119.989 15.224 119.289 15.224C118.589 15.224 117.959 15.098 117.399 14.846C116.848 14.594 116.41 14.2347 116.083 13.768C115.766 13.292 115.607 12.7367 115.607 12.102C115.607 11.514 115.752 11.0053 116.041 10.576C116.33 10.1373 116.732 9.81067 117.245 9.596ZM120.829 7.622C120.829 7.16467 120.689 6.81 120.409 6.558C120.138 6.306 119.765 6.18 119.289 6.18C118.822 6.18 118.449 6.306 118.169 6.558C117.898 6.81 117.763 7.16933 117.763 7.636C117.763 8.056 117.903 8.392 118.183 8.644C118.472 8.896 118.841 9.022 119.289 9.022C119.737 9.022 120.106 8.896 120.395 8.644C120.684 8.38267 120.829 8.042 120.829 7.622ZM119.289 10.45C118.757 10.45 118.323 10.5853 117.987 10.856C117.66 11.1267 117.497 11.514 117.497 12.018C117.497 12.4847 117.656 12.8673 117.973 13.166C118.3 13.4553 118.738 13.6 119.289 13.6C119.84 13.6 120.274 13.4507 120.591 13.152C120.908 12.8533 121.067 12.4753 121.067 12.018C121.067 11.5233 120.904 11.1407 120.577 10.87C120.25 10.59 119.821 10.45 119.289 10.45ZM126.241 9.596C125.308 9.11067 124.841 8.35933 124.841 7.342C124.841 6.838 124.967 6.38067 125.219 5.97C125.48 5.55 125.868 5.21867 126.381 4.976C126.904 4.724 127.538 4.598 128.285 4.598C129.032 4.598 129.662 4.724 130.175 4.976C130.698 5.21867 131.085 5.55 131.337 5.97C131.598 6.38067 131.729 6.838 131.729 7.342C131.729 7.85533 131.603 8.308 131.351 8.7C131.099 9.08267 130.763 9.38133 130.343 9.596C130.856 9.82 131.258 10.1467 131.547 10.576C131.836 11.0053 131.981 11.514 131.981 12.102C131.981 12.7367 131.818 13.292 131.491 13.768C131.174 14.2347 130.735 14.594 130.175 14.846C129.615 15.098 128.985 15.224 128.285 15.224C127.585 15.224 126.955 15.098 126.395 14.846C125.844 14.594 125.406 14.2347 125.079 13.768C124.762 13.292 124.603 12.7367 124.603 12.102C124.603 11.514 124.748 11.0053 125.037 10.576C125.326 10.1373 125.728 9.81067 126.241 9.596ZM129.825 7.622C129.825 7.16467 129.685 6.81 129.405 6.558C129.134 6.306 128.761 6.18 128.285 6.18C127.818 6.18 127.445 6.306 127.165 6.558C126.894 6.81 126.759 7.16933 126.759 7.636C126.759 8.056 126.899 8.392 127.179 8.644C127.468 8.896 127.837 9.022 128.285 9.022C128.733 9.022 129.102 8.896 129.391 8.644C129.68 8.38267 129.825 8.042 129.825 7.622ZM128.285 10.45C127.753 10.45 127.319 10.5853 126.983 10.856C126.656 11.1267 126.493 11.514 126.493 12.018C126.493 12.4847 126.652 12.8673 126.969 13.166C127.296 13.4553 127.734 13.6 128.285 13.6C128.836 13.6 129.27 13.4507 129.587 13.152C129.904 12.8533 130.063 12.4753 130.063 12.018C130.063 11.5233 129.9 11.1407 129.573 10.87C129.246 10.59 128.817 10.45 128.285 10.45ZM133.249 17.758V17.562C134.192 16.5913 134.915 15.448 135.419 14.132C135.932 12.8067 136.189 11.4347 136.189 10.016C136.189 8.56 135.918 7.146 135.377 5.774C134.845 4.402 134.066 3.226 133.039 2.246V2.064H135.013C136.012 2.96 136.772 4.11267 137.295 5.522C137.818 6.922 138.079 8.42 138.079 10.016C138.079 11.5747 137.827 13.0353 137.323 14.398C136.828 15.7607 136.128 16.8807 135.223 17.758H133.249Z" fill="black"/>
</svg>
