<svg width="140" height="20" viewBox="0 0 140 20" fill="none" xmlns="http://www.w3.org/2000/svg">
<path d="M16.673 10.1717C17.7437 9.36184 17.1709 7.65517 15.8284 7.65517H13.3992C12.7853 7.65517 12.243 7.25521 12.0617 6.66868L11.3375 4.32637C10.9309 3.01106 9.0691 3.01106 8.66246 4.32637L7.93832 6.66868C7.75699 7.25521 7.21469 7.65517 6.60078 7.65517H4.12961C2.79142 7.65517 2.21592 9.35274 3.27822 10.1665L5.39469 11.7879C5.85885 12.1435 6.05314 12.7501 5.88196 13.3092L5.11296 15.8207C4.71416 17.1232 6.22167 18.1704 7.30301 17.342L9.14861 15.9281C9.65097 15.5432 10.349 15.5432 10.8514 15.9281L12.6807 17.3295C13.7636 18.159 15.2725 17.1079 14.8696 15.8046L14.09 13.2827C13.9159 12.7198 14.113 12.1081 14.5829 11.7526L16.673 10.1717Z" fill="#FFAD33"/>
<path d="M36.673 10.1717C37.7437 9.36184 37.1709 7.65517 35.8284 7.65517H33.3992C32.7853 7.65517 32.243 7.25521 32.0617 6.66868L31.3375 4.32637C30.9309 3.01106 29.0691 3.01106 28.6625 4.32637L27.9383 6.66868C27.757 7.25521 27.2147 7.65517 26.6008 7.65517H24.1296C22.7914 7.65517 22.2159 9.35274 23.2782 10.1665L25.3947 11.7879C25.8588 12.1435 26.0531 12.7501 25.882 13.3092L25.113 15.8207C24.7142 17.1232 26.2217 18.1704 27.303 17.342L29.1486 15.9281C29.651 15.5432 30.349 15.5432 30.8514 15.9281L32.6807 17.3295C33.7636 18.159 35.2725 17.1079 34.8696 15.8046L34.09 13.2827C33.9159 12.7198 34.113 12.1081 34.5829 11.7526L36.673 10.1717Z" fill="#FFAD33"/>
<path d="M56.673 10.1717C57.7437 9.36184 57.1709 7.65517 55.8284 7.65517H53.3992C52.7853 7.65517 52.243 7.25521 52.0617 6.66868L51.3375 4.32637C50.9309 3.01106 49.0691 3.01106 48.6625 4.32637L47.9383 6.66868C47.757 7.25521 47.2147 7.65517 46.6008 7.65517H44.1296C42.7914 7.65517 42.2159 9.35274 43.2782 10.1665L45.3947 11.7879C45.8588 12.1435 46.0531 12.7501 45.882 13.3092L45.113 15.8207C44.7142 17.1232 46.2217 18.1704 47.303 17.342L49.1486 15.9281C49.651 15.5432 50.349 15.5432 50.8514 15.9281L52.6807 17.3295C53.7636 18.159 55.2725 17.1079 54.8696 15.8046L54.09 13.2827C53.9159 12.7198 54.113 12.1081 54.5829 11.7526L56.673 10.1717Z" fill="#FFAD33"/>
<path d="M76.673 10.1717C77.7437 9.36184 77.1709 7.65517 75.8284 7.65517H73.3992C72.7853 7.65517 72.243 7.25521 72.0617 6.66868L71.3375 4.32637C70.9309 3.01106 69.0691 3.01106 68.6625 4.32637L67.9383 6.66868C67.757 7.25521 67.2147 7.65517 66.6008 7.65517H64.1296C62.7914 7.65517 62.2159 9.35274 63.2782 10.1665L65.3947 11.7879C65.8588 12.1435 66.0531 12.7501 65.882 13.3092L65.113 15.8207C64.7142 17.1232 66.2217 18.1704 67.303 17.342L69.1486 15.9281C69.651 15.5432 70.349 15.5432 70.8514 15.9281L72.6807 17.3295C73.7636 18.159 75.2725 17.1079 74.8696 15.8046L74.09 13.2827C73.9159 12.7198 74.113 12.1081 74.5829 11.7526L76.673 10.1717Z" fill="#FFAD33"/>
<path d="M96.673 10.1717C97.7437 9.36184 97.1709 7.65517 95.8284 7.65517H93.3992C92.7853 7.65517 92.243 7.25521 92.0617 6.66868L91.3375 4.32637C90.9309 3.01106 89.0691 3.01106 88.6625 4.32637L87.9383 6.66868C87.757 7.25521 87.2147 7.65517 86.6008 7.65517H84.1296C82.7914 7.65517 82.2159 9.35274 83.2782 10.1665L85.3947 11.7879C85.8588 12.1435 86.0531 12.7501 85.882 13.3092L85.113 15.8207C84.7142 17.1232 86.2217 18.1704 87.303 17.342L89.1486 15.9281C89.651 15.5432 90.349 15.5432 90.8514 15.9281L92.6807 17.3295C93.7636 18.159 95.2725 17.1079 94.8696 15.8046L94.09 13.2827C93.9159 12.7198 94.113 12.1081 94.5829 11.7526L96.673 10.1717Z" fill="#FFAD33"/>
<path opacity="0.5" d="M112.354 17.758C111.449 16.8807 110.744 15.7607 110.24 14.398C109.745 13.0353 109.498 11.5747 109.498 10.016C109.498 8.42 109.759 6.922 110.282 5.522C110.805 4.11267 111.565 2.96 112.564 2.064H114.538V2.246C113.511 3.226 112.727 4.402 112.186 5.774C111.654 7.146 111.388 8.56 111.388 10.016C111.388 11.4347 111.64 12.8067 112.144 14.132C112.657 15.448 113.385 16.5913 114.328 17.562V17.758H112.354ZM117.805 12.13C117.88 12.5407 118.048 12.858 118.309 13.082C118.58 13.2967 118.939 13.404 119.387 13.404C119.966 13.404 120.386 13.166 120.647 12.69C120.908 12.2047 121.039 11.3927 121.039 10.254C120.824 10.5527 120.521 10.786 120.129 10.954C119.746 11.122 119.331 11.206 118.883 11.206C118.286 11.206 117.744 11.0847 117.259 10.842C116.783 10.59 116.405 10.2213 116.125 9.736C115.845 9.24133 115.705 8.644 115.705 7.944C115.705 6.908 116.013 6.08667 116.629 5.48C117.245 4.864 118.085 4.556 119.149 4.556C120.474 4.556 121.408 4.98067 121.949 5.83C122.5 6.67933 122.775 7.958 122.775 9.666C122.775 10.8793 122.668 11.8733 122.453 12.648C122.248 13.4227 121.888 14.0107 121.375 14.412C120.871 14.8133 120.18 15.014 119.303 15.014C118.612 15.014 118.024 14.8833 117.539 14.622C117.054 14.3513 116.68 14.0013 116.419 13.572C116.167 13.1333 116.022 12.6527 115.985 12.13H117.805ZM119.289 9.61C119.774 9.61 120.157 9.46067 120.437 9.162C120.717 8.86333 120.857 8.462 120.857 7.958C120.857 7.40733 120.708 6.98267 120.409 6.684C120.12 6.376 119.723 6.222 119.219 6.222C118.715 6.222 118.314 6.38067 118.015 6.698C117.726 7.006 117.581 7.41667 117.581 7.93C117.581 8.42467 117.721 8.83067 118.001 9.148C118.29 9.456 118.72 9.61 119.289 9.61ZM126.569 12.13C126.643 12.5407 126.811 12.858 127.073 13.082C127.343 13.2967 127.703 13.404 128.151 13.404C128.729 13.404 129.149 13.166 129.411 12.69C129.672 12.2047 129.803 11.3927 129.803 10.254C129.588 10.5527 129.285 10.786 128.893 10.954C128.51 11.122 128.095 11.206 127.647 11.206C127.049 11.206 126.508 11.0847 126.023 10.842C125.547 10.59 125.169 10.2213 124.889 9.736C124.609 9.24133 124.469 8.644 124.469 7.944C124.469 6.908 124.777 6.08667 125.393 5.48C126.009 4.864 126.849 4.556 127.913 4.556C129.238 4.556 130.171 4.98067 130.713 5.83C131.263 6.67933 131.539 7.958 131.539 9.666C131.539 10.8793 131.431 11.8733 131.217 12.648C131.011 13.4227 130.652 14.0107 130.139 14.412C129.635 14.8133 128.944 15.014 128.067 15.014C127.376 15.014 126.788 14.8833 126.303 14.622C125.817 14.3513 125.444 14.0013 125.183 13.572C124.931 13.1333 124.786 12.6527 124.749 12.13H126.569ZM128.053 9.61C128.538 9.61 128.921 9.46067 129.201 9.162C129.481 8.86333 129.621 8.462 129.621 7.958C129.621 7.40733 129.471 6.98267 129.173 6.684C128.883 6.376 128.487 6.222 127.983 6.222C127.479 6.222 127.077 6.38067 126.779 6.698C126.489 7.006 126.345 7.41667 126.345 7.93C126.345 8.42467 126.485 8.83067 126.765 9.148C127.054 9.456 127.483 9.61 128.053 9.61ZM132.784 17.758V17.562C133.727 16.5913 134.45 15.448 134.954 14.132C135.468 12.8067 135.724 11.4347 135.724 10.016C135.724 8.56 135.454 7.146 134.912 5.774C134.38 4.402 133.601 3.226 132.574 2.246V2.064H134.548C135.547 2.96 136.308 4.11267 136.83 5.522C137.353 6.922 137.614 8.42 137.614 10.016C137.614 11.5747 137.362 13.0353 136.858 14.398C136.364 15.7607 135.664 16.8807 134.758 17.758H132.784Z" fill="black"/>
</svg>
