<svg width="320" height="62" viewBox="0 0 320 62" fill="none" xmlns="http://www.w3.org/2000/svg">
<circle cx="31" cy="31" r="31" fill="white"/>
<path d="M23.052 27.472C24.076 26.6187 24.892 25.9093 25.5 25.344C26.108 24.768 26.6147 24.1707 27.02 23.552C27.4253 22.9333 27.628 22.3253 27.628 21.728C27.628 21.184 27.5 20.7573 27.244 20.448C26.988 20.1387 26.5933 19.984 26.06 19.984C25.5267 19.984 25.116 20.1653 24.828 20.528C24.54 20.88 24.3907 21.3653 24.38 21.984H22.204C22.2467 20.704 22.6253 19.7333 23.34 19.072C24.0653 18.4107 24.9827 18.08 26.092 18.08C27.308 18.08 28.2413 18.4053 28.892 19.056C29.5427 19.696 29.868 20.544 29.868 21.6C29.868 22.432 29.644 23.2267 29.196 23.984C28.748 24.7413 28.236 25.4027 27.66 25.968C27.084 26.5227 26.332 27.1947 25.404 27.984H30.124V29.84H22.22V28.176L23.052 27.472ZM31.5675 21.408C31.6208 20.3413 31.9942 19.52 32.6875 18.944C33.3915 18.3573 34.3142 18.064 35.4555 18.064C36.2342 18.064 36.9008 18.2027 37.4555 18.48C38.0102 18.7467 38.4262 19.1147 38.7035 19.584C38.9915 20.0427 39.1355 20.5653 39.1355 21.152C39.1355 21.824 38.9595 22.3947 38.6075 22.864C38.2662 23.3227 37.8555 23.632 37.3755 23.792V23.856C37.9942 24.048 38.4742 24.3893 38.8155 24.88C39.1675 25.3707 39.3435 26 39.3435 26.768C39.3435 27.408 39.1942 27.9787 38.8955 28.48C38.6075 28.9813 38.1755 29.376 37.5995 29.664C37.0342 29.9413 36.3515 30.08 35.5515 30.08C34.3462 30.08 33.3648 29.776 32.6075 29.168C31.8502 28.56 31.4502 27.664 31.4075 26.48H33.5835C33.6048 27.0027 33.7808 27.424 34.1115 27.744C34.4528 28.0533 34.9168 28.208 35.5035 28.208C36.0475 28.208 36.4635 28.0587 36.7515 27.76C37.0502 27.4507 37.1995 27.056 37.1995 26.576C37.1995 25.936 36.9968 25.4773 36.5915 25.2C36.1862 24.9227 35.5568 24.784 34.7035 24.784H34.2395V22.944H34.7035C36.2182 22.944 36.9755 22.4373 36.9755 21.424C36.9755 20.9653 36.8368 20.608 36.5595 20.352C36.2928 20.096 35.9035 19.968 35.3915 19.968C34.8902 19.968 34.5008 20.1067 34.2235 20.384C33.9568 20.6507 33.8022 20.992 33.7595 21.408H31.5675Z" fill="black"/>
<path d="M21.754 35.333V43H20.753V39.524H16.848V43H15.847V35.333H16.848V38.699H20.753V35.333H21.754ZM26.0922 43.099C25.5275 43.099 25.0142 42.9707 24.5522 42.714C24.0975 42.4573 23.7382 42.0943 23.4742 41.625C23.2175 41.1483 23.0892 40.5983 23.0892 39.975C23.0892 39.359 23.2212 38.8163 23.4852 38.347C23.7565 37.8703 24.1232 37.5073 24.5852 37.258C25.0472 37.0013 25.5642 36.873 26.1362 36.873C26.7082 36.873 27.2252 37.0013 27.6872 37.258C28.1492 37.5073 28.5122 37.8667 28.7762 38.336C29.0475 38.8053 29.1832 39.3517 29.1832 39.975C29.1832 40.5983 29.0439 41.1483 28.7652 41.625C28.4939 42.0943 28.1235 42.4573 27.6542 42.714C27.1849 42.9707 26.6642 43.099 26.0922 43.099ZM26.0922 42.219C26.4515 42.219 26.7889 42.1347 27.1042 41.966C27.4195 41.7973 27.6725 41.5443 27.8632 41.207C28.0612 40.8697 28.1602 40.459 28.1602 39.975C28.1602 39.491 28.0649 39.0803 27.8742 38.743C27.6835 38.4057 27.4342 38.1563 27.1262 37.995C26.8182 37.8263 26.4845 37.742 26.1252 37.742C25.7585 37.742 25.4212 37.8263 25.1132 37.995C24.8125 38.1563 24.5705 38.4057 24.3872 38.743C24.2039 39.0803 24.1122 39.491 24.1122 39.975C24.1122 40.4663 24.2002 40.8807 24.3762 41.218C24.5595 41.5553 24.8015 41.8083 25.1022 41.977C25.4029 42.1383 25.7329 42.219 26.0922 42.219ZM35.8453 36.972V43H34.8443V42.109C34.6537 42.417 34.386 42.659 34.0413 42.835C33.704 43.0037 33.33 43.088 32.9193 43.088C32.45 43.088 32.0283 42.9927 31.6543 42.802C31.2803 42.604 30.9833 42.3107 30.7633 41.922C30.5507 41.5333 30.4443 41.0603 30.4443 40.503V36.972H31.4343V40.371C31.4343 40.965 31.5847 41.4233 31.8853 41.746C32.186 42.0613 32.5967 42.219 33.1173 42.219C33.6527 42.219 34.0743 42.054 34.3823 41.724C34.6903 41.394 34.8443 40.9137 34.8443 40.283V36.972H35.8453ZM38.5365 37.951C38.7125 37.6063 38.9618 37.3387 39.2845 37.148C39.6145 36.9573 40.0141 36.862 40.4835 36.862V37.896H40.2195C39.0975 37.896 38.5365 38.5047 38.5365 39.722V43H37.5355V36.972H38.5365V37.951ZM43.773 43.099C43.311 43.099 42.8967 43.022 42.53 42.868C42.1633 42.7067 41.8737 42.4867 41.661 42.208C41.4483 41.922 41.331 41.5957 41.309 41.229H42.343C42.3723 41.5297 42.5117 41.7753 42.761 41.966C43.0177 42.1567 43.3513 42.252 43.762 42.252C44.1433 42.252 44.444 42.1677 44.664 41.999C44.884 41.8303 44.994 41.6177 44.994 41.361C44.994 41.097 44.8767 40.9027 44.642 40.778C44.4073 40.646 44.0443 40.5177 43.553 40.393C43.1057 40.2757 42.739 40.1583 42.453 40.041C42.1743 39.9163 41.9323 39.7367 41.727 39.502C41.529 39.26 41.43 38.9447 41.43 38.556C41.43 38.248 41.5217 37.9657 41.705 37.709C41.8883 37.4523 42.1487 37.2507 42.486 37.104C42.8233 36.95 43.2083 36.873 43.641 36.873C44.3083 36.873 44.8473 37.0417 45.258 37.379C45.6687 37.7163 45.8887 38.1783 45.918 38.765H44.917C44.895 38.4497 44.7667 38.1967 44.532 38.006C44.3047 37.8153 43.9967 37.72 43.608 37.72C43.2487 37.72 42.9627 37.797 42.75 37.951C42.5373 38.105 42.431 38.3067 42.431 38.556C42.431 38.754 42.4933 38.919 42.618 39.051C42.75 39.1757 42.9113 39.2783 43.102 39.359C43.3 39.4323 43.5713 39.5167 43.916 39.612C44.3487 39.7293 44.7007 39.8467 44.972 39.964C45.2433 40.074 45.4743 40.2427 45.665 40.47C45.863 40.6973 45.9657 40.9943 45.973 41.361C45.973 41.691 45.8813 41.988 45.698 42.252C45.5147 42.516 45.2543 42.725 44.917 42.879C44.587 43.0257 44.2057 43.099 43.773 43.099Z" fill="black"/>
<circle cx="117" cy="31" r="31" fill="white"/>
<path d="M107.348 24.016C107.348 22.1707 107.679 20.7253 108.34 19.68C109.012 18.6347 110.121 18.112 111.668 18.112C113.215 18.112 114.319 18.6347 114.98 19.68C115.652 20.7253 115.988 22.1707 115.988 24.016C115.988 25.872 115.652 27.328 114.98 28.384C114.319 29.44 113.215 29.968 111.668 29.968C110.121 29.968 109.012 29.44 108.34 28.384C107.679 27.328 107.348 25.872 107.348 24.016ZM113.78 24.016C113.78 23.2267 113.727 22.5653 113.62 22.032C113.524 21.488 113.321 21.0453 113.012 20.704C112.713 20.3627 112.265 20.192 111.668 20.192C111.071 20.192 110.617 20.3627 110.308 20.704C110.009 21.0453 109.807 21.488 109.7 22.032C109.604 22.5653 109.556 23.2267 109.556 24.016C109.556 24.8267 109.604 25.5093 109.7 26.064C109.796 26.608 109.999 27.0507 110.308 27.392C110.617 27.7227 111.071 27.888 111.668 27.888C112.265 27.888 112.719 27.7227 113.028 27.392C113.337 27.0507 113.54 26.608 113.636 26.064C113.732 25.5093 113.78 24.8267 113.78 24.016ZM125.532 20.272H120.348V23.008C120.572 22.7307 120.892 22.5067 121.308 22.336C121.724 22.1547 122.166 22.064 122.636 22.064C123.489 22.064 124.188 22.2507 124.732 22.624C125.276 22.9973 125.67 23.4773 125.916 24.064C126.161 24.64 126.284 25.2587 126.284 25.92C126.284 27.1467 125.932 28.1333 125.228 28.88C124.534 29.6267 123.542 30 122.252 30C121.036 30 120.065 29.696 119.34 29.088C118.614 28.48 118.204 27.6853 118.108 26.704H120.284C120.38 27.1307 120.593 27.472 120.924 27.728C121.265 27.984 121.697 28.112 122.22 28.112C122.849 28.112 123.324 27.9147 123.644 27.52C123.964 27.1253 124.124 26.6027 124.124 25.952C124.124 25.2907 123.958 24.7893 123.628 24.448C123.308 24.096 122.833 23.92 122.204 23.92C121.756 23.92 121.382 24.032 121.084 24.256C120.785 24.48 120.572 24.7787 120.444 25.152H118.3V18.304H125.532V20.272Z" fill="black"/>
<path d="M106.234 35.333C107.07 35.333 107.792 35.4907 108.401 35.806C109.017 36.114 109.486 36.5577 109.809 37.137C110.139 37.7163 110.304 38.3983 110.304 39.183C110.304 39.9677 110.139 40.6497 109.809 41.229C109.486 41.801 109.017 42.241 108.401 42.549C107.792 42.8497 107.07 43 106.234 43H103.847V35.333H106.234ZM106.234 42.175C107.224 42.175 107.979 41.9147 108.5 41.394C109.021 40.866 109.281 40.129 109.281 39.183C109.281 38.2297 109.017 37.4853 108.489 36.95C107.968 36.4147 107.217 36.147 106.234 36.147H104.848V42.175H106.234ZM111.25 39.964C111.25 39.348 111.375 38.809 111.624 38.347C111.874 37.8777 112.215 37.5147 112.647 37.258C113.087 37.0013 113.575 36.873 114.11 36.873C114.638 36.873 115.097 36.9867 115.485 37.214C115.874 37.4413 116.164 37.7273 116.354 38.072V36.972H117.366V43H116.354V41.878C116.156 42.23 115.859 42.5233 115.463 42.758C115.075 42.9853 114.62 43.099 114.099 43.099C113.564 43.099 113.08 42.967 112.647 42.703C112.215 42.439 111.874 42.0687 111.624 41.592C111.375 41.1153 111.25 40.5727 111.25 39.964ZM116.354 39.975C116.354 39.5203 116.263 39.1243 116.079 38.787C115.896 38.4497 115.647 38.193 115.331 38.017C115.023 37.8337 114.682 37.742 114.308 37.742C113.934 37.742 113.593 37.83 113.285 38.006C112.977 38.182 112.732 38.4387 112.548 38.776C112.365 39.1133 112.273 39.5093 112.273 39.964C112.273 40.426 112.365 40.8293 112.548 41.174C112.732 41.5113 112.977 41.7717 113.285 41.955C113.593 42.131 113.934 42.219 114.308 42.219C114.682 42.219 115.023 42.131 115.331 41.955C115.647 41.7717 115.896 41.5113 116.079 41.174C116.263 40.8293 116.354 40.4297 116.354 39.975ZM124.25 36.972L120.62 45.838H119.586L120.774 42.934L118.343 36.972H119.454L121.346 41.856L123.216 36.972H124.25ZM127.39 43.099C126.928 43.099 126.514 43.022 126.147 42.868C125.781 42.7067 125.491 42.4867 125.278 42.208C125.066 41.922 124.948 41.5957 124.926 41.229H125.96C125.99 41.5297 126.129 41.7753 126.378 41.966C126.635 42.1567 126.969 42.252 127.379 42.252C127.761 42.252 128.061 42.1677 128.281 41.999C128.501 41.8303 128.611 41.6177 128.611 41.361C128.611 41.097 128.494 40.9027 128.259 40.778C128.025 40.646 127.662 40.5177 127.17 40.393C126.723 40.2757 126.356 40.1583 126.07 40.041C125.792 39.9163 125.55 39.7367 125.344 39.502C125.146 39.26 125.047 38.9447 125.047 38.556C125.047 38.248 125.139 37.9657 125.322 37.709C125.506 37.4523 125.766 37.2507 126.103 37.104C126.441 36.95 126.826 36.873 127.258 36.873C127.926 36.873 128.465 37.0417 128.875 37.379C129.286 37.7163 129.506 38.1783 129.535 38.765H128.534C128.512 38.4497 128.384 38.1967 128.149 38.006C127.922 37.8153 127.614 37.72 127.225 37.72C126.866 37.72 126.58 37.797 126.367 37.951C126.155 38.105 126.048 38.3067 126.048 38.556C126.048 38.754 126.111 38.919 126.235 39.051C126.367 39.1757 126.529 39.2783 126.719 39.359C126.917 39.4323 127.189 39.5167 127.533 39.612C127.966 39.7293 128.318 39.8467 128.589 39.964C128.861 40.074 129.092 40.2427 129.282 40.47C129.48 40.6973 129.583 40.9943 129.59 41.361C129.59 41.691 129.499 41.988 129.315 42.252C129.132 42.516 128.872 42.725 128.534 42.879C128.204 43.0257 127.823 43.099 127.39 43.099Z" fill="black"/>
<circle cx="203" cy="31" r="31" fill="white"/>
<path d="M201.188 20.272H196.004V23.008C196.228 22.7307 196.548 22.5067 196.964 22.336C197.38 22.1547 197.823 22.064 198.292 22.064C199.145 22.064 199.844 22.2507 200.388 22.624C200.932 22.9973 201.327 23.4773 201.572 24.064C201.817 24.64 201.94 25.2587 201.94 25.92C201.94 27.1467 201.588 28.1333 200.884 28.88C200.191 29.6267 199.199 30 197.908 30C196.692 30 195.721 29.696 194.996 29.088C194.271 28.48 193.86 27.6853 193.764 26.704H195.94C196.036 27.1307 196.249 27.472 196.58 27.728C196.921 27.984 197.353 28.112 197.876 28.112C198.505 28.112 198.98 27.9147 199.3 27.52C199.62 27.1253 199.78 26.6027 199.78 25.952C199.78 25.2907 199.615 24.7893 199.284 24.448C198.964 24.096 198.489 23.92 197.86 23.92C197.412 23.92 197.039 24.032 196.74 24.256C196.441 24.48 196.228 24.7787 196.1 25.152H193.956V18.304H201.188V20.272ZM206.237 26.72C206.322 27.1893 206.514 27.552 206.813 27.808C207.122 28.0533 207.533 28.176 208.045 28.176C208.706 28.176 209.186 27.904 209.485 27.36C209.784 26.8053 209.933 25.8773 209.933 24.576C209.688 24.9173 209.341 25.184 208.893 25.376C208.456 25.568 207.981 25.664 207.469 25.664C206.786 25.664 206.168 25.5253 205.613 25.248C205.069 24.96 204.637 24.5387 204.317 23.984C203.997 23.4187 203.837 22.736 203.837 21.936C203.837 20.752 204.189 19.8133 204.893 19.12C205.597 18.416 206.557 18.064 207.773 18.064C209.288 18.064 210.354 18.5493 210.973 19.52C211.602 20.4907 211.917 21.952 211.917 23.904C211.917 25.2907 211.794 26.4267 211.549 27.312C211.314 28.1973 210.904 28.8693 210.317 29.328C209.741 29.7867 208.952 30.016 207.949 30.016C207.16 30.016 206.488 29.8667 205.933 29.568C205.378 29.2587 204.952 28.8587 204.653 28.368C204.365 27.8667 204.2 27.3173 204.157 26.72H206.237ZM207.933 23.84C208.488 23.84 208.925 23.6693 209.245 23.328C209.565 22.9867 209.725 22.528 209.725 21.952C209.725 21.3227 209.554 20.8373 209.213 20.496C208.882 20.144 208.429 19.968 207.853 19.968C207.277 19.968 206.818 20.1493 206.477 20.512C206.146 20.864 205.981 21.3333 205.981 21.92C205.981 22.4853 206.141 22.9493 206.461 23.312C206.792 23.664 207.282 23.84 207.933 23.84Z" fill="black"/>
<path d="M190.124 35.388V43H189.123V37.324L186.593 43H185.889L183.348 37.313V43H182.347V35.388H183.425L186.241 41.68L189.057 35.388H190.124ZM192.339 35.993C192.148 35.993 191.987 35.927 191.855 35.795C191.723 35.663 191.657 35.5017 191.657 35.311C191.657 35.1203 191.723 34.959 191.855 34.827C191.987 34.695 192.148 34.629 192.339 34.629C192.522 34.629 192.676 34.695 192.801 34.827C192.933 34.959 192.999 35.1203 192.999 35.311C192.999 35.5017 192.933 35.663 192.801 35.795C192.676 35.927 192.522 35.993 192.339 35.993ZM192.823 36.972V43H191.822V36.972H192.823ZM197.466 36.862C198.199 36.862 198.793 37.0857 199.248 37.533C199.702 37.973 199.93 38.611 199.93 39.447V43H198.94V39.59C198.94 38.9887 198.789 38.5303 198.489 38.215C198.188 37.8923 197.777 37.731 197.257 37.731C196.729 37.731 196.307 37.896 195.992 38.226C195.684 38.556 195.53 39.0363 195.53 39.667V43H194.529V36.972H195.53V37.83C195.728 37.522 195.995 37.2837 196.333 37.115C196.677 36.9463 197.055 36.862 197.466 36.862ZM206.911 36.972V43H205.91V42.109C205.719 42.417 205.451 42.659 205.107 42.835C204.769 43.0037 204.395 43.088 203.985 43.088C203.515 43.088 203.094 42.9927 202.72 42.802C202.346 42.604 202.049 42.3107 201.829 41.922C201.616 41.5333 201.51 41.0603 201.51 40.503V36.972H202.5V40.371C202.5 40.965 202.65 41.4233 202.951 41.746C203.251 42.0613 203.662 42.219 204.183 42.219C204.718 42.219 205.14 42.054 205.448 41.724C205.756 41.394 205.91 40.9137 205.91 40.283V36.972H206.911ZM209.822 37.797V41.35C209.822 41.6433 209.884 41.8523 210.009 41.977C210.134 42.0943 210.35 42.153 210.658 42.153H211.395V43H210.493C209.936 43 209.518 42.8717 209.239 42.615C208.96 42.3583 208.821 41.9367 208.821 41.35V37.797H208.04V36.972H208.821V35.454H209.822V36.972H211.395V37.797H209.822ZM218.108 39.755C218.108 39.9457 218.097 40.1473 218.075 40.36H213.257C213.293 40.954 213.495 41.4197 213.862 41.757C214.236 42.087 214.687 42.252 215.215 42.252C215.647 42.252 216.007 42.153 216.293 41.955C216.586 41.7497 216.791 41.4783 216.909 41.141H217.987C217.825 41.7203 217.503 42.1933 217.019 42.56C216.535 42.9193 215.933 43.099 215.215 43.099C214.643 43.099 214.129 42.9707 213.675 42.714C213.227 42.4573 212.875 42.0943 212.619 41.625C212.362 41.1483 212.234 40.5983 212.234 39.975C212.234 39.3517 212.358 38.8053 212.608 38.336C212.857 37.8667 213.205 37.5073 213.653 37.258C214.107 37.0013 214.628 36.873 215.215 36.873C215.787 36.873 216.293 36.9977 216.733 37.247C217.173 37.4963 217.51 37.841 217.745 38.281C217.987 38.7137 218.108 39.205 218.108 39.755ZM217.074 39.546C217.074 39.1647 216.989 38.8383 216.821 38.567C216.652 38.2883 216.421 38.0793 216.128 37.94C215.842 37.7933 215.523 37.72 215.171 37.72C214.665 37.72 214.232 37.8813 213.873 38.204C213.521 38.5267 213.319 38.974 213.268 39.546H217.074ZM221.563 43.099C221.101 43.099 220.687 43.022 220.32 42.868C219.953 42.7067 219.664 42.4867 219.451 42.208C219.238 41.922 219.121 41.5957 219.099 41.229H220.133C220.162 41.5297 220.302 41.7753 220.551 41.966C220.808 42.1567 221.141 42.252 221.552 42.252C221.933 42.252 222.234 42.1677 222.454 41.999C222.674 41.8303 222.784 41.6177 222.784 41.361C222.784 41.097 222.667 40.9027 222.432 40.778C222.197 40.646 221.834 40.5177 221.343 40.393C220.896 40.2757 220.529 40.1583 220.243 40.041C219.964 39.9163 219.722 39.7367 219.517 39.502C219.319 39.26 219.22 38.9447 219.22 38.556C219.22 38.248 219.312 37.9657 219.495 37.709C219.678 37.4523 219.939 37.2507 220.276 37.104C220.613 36.95 220.998 36.873 221.431 36.873C222.098 36.873 222.637 37.0417 223.048 37.379C223.459 37.7163 223.679 38.1783 223.708 38.765H222.707C222.685 38.4497 222.557 38.1967 222.322 38.006C222.095 37.8153 221.787 37.72 221.398 37.72C221.039 37.72 220.753 37.797 220.54 37.951C220.327 38.105 220.221 38.3067 220.221 38.556C220.221 38.754 220.283 38.919 220.408 39.051C220.54 39.1757 220.701 39.2783 220.892 39.359C221.09 39.4323 221.361 39.5167 221.706 39.612C222.139 39.7293 222.491 39.8467 222.762 39.964C223.033 40.074 223.264 40.2427 223.455 40.47C223.653 40.6973 223.756 40.9943 223.763 41.361C223.763 41.691 223.671 41.988 223.488 42.252C223.305 42.516 223.044 42.725 222.707 42.879C222.377 43.0257 221.996 43.099 221.563 43.099Z" fill="black"/>
<circle cx="289" cy="31" r="31" fill="white"/>
<path d="M279.88 21.408C279.933 20.3413 280.307 19.52 281 18.944C281.704 18.3573 282.627 18.064 283.768 18.064C284.547 18.064 285.213 18.2027 285.768 18.48C286.323 18.7467 286.739 19.1147 287.016 19.584C287.304 20.0427 287.448 20.5653 287.448 21.152C287.448 21.824 287.272 22.3947 286.92 22.864C286.579 23.3227 286.168 23.632 285.688 23.792V23.856C286.307 24.048 286.787 24.3893 287.128 24.88C287.48 25.3707 287.656 26 287.656 26.768C287.656 27.408 287.507 27.9787 287.208 28.48C286.92 28.9813 286.488 29.376 285.912 29.664C285.347 29.9413 284.664 30.08 283.864 30.08C282.659 30.08 281.677 29.776 280.92 29.168C280.163 28.56 279.763 27.664 279.72 26.48H281.896C281.917 27.0027 282.093 27.424 282.424 27.744C282.765 28.0533 283.229 28.208 283.816 28.208C284.36 28.208 284.776 28.0587 285.064 27.76C285.363 27.4507 285.512 27.056 285.512 26.576C285.512 25.936 285.309 25.4773 284.904 25.2C284.499 24.9227 283.869 24.784 283.016 24.784H282.552V22.944H283.016C284.531 22.944 285.288 22.4373 285.288 21.424C285.288 20.9653 285.149 20.608 284.872 20.352C284.605 20.096 284.216 19.968 283.704 19.968C283.203 19.968 282.813 20.1067 282.536 20.384C282.269 20.6507 282.115 20.992 282.072 21.408H279.88ZM297.266 20.272H292.082V23.008C292.306 22.7307 292.626 22.5067 293.042 22.336C293.458 22.1547 293.901 22.064 294.37 22.064C295.223 22.064 295.922 22.2507 296.466 22.624C297.01 22.9973 297.405 23.4773 297.65 24.064C297.895 24.64 298.018 25.2587 298.018 25.92C298.018 27.1467 297.666 28.1333 296.962 28.88C296.269 29.6267 295.277 30 293.986 30C292.77 30 291.799 29.696 291.074 29.088C290.349 28.48 289.938 27.6853 289.842 26.704H292.018C292.114 27.1307 292.327 27.472 292.658 27.728C292.999 27.984 293.431 28.112 293.954 28.112C294.583 28.112 295.058 27.9147 295.378 27.52C295.698 27.1253 295.858 26.6027 295.858 25.952C295.858 25.2907 295.693 24.7893 295.362 24.448C295.042 24.096 294.567 23.92 293.938 23.92C293.49 23.92 293.117 24.032 292.818 24.256C292.519 24.48 292.306 24.7787 292.178 25.152H290.034V18.304H297.266V20.272Z" fill="black"/>
<path d="M268.278 43.077C267.772 43.077 267.317 42.989 266.914 42.813C266.518 42.6297 266.206 42.3803 265.979 42.065C265.752 41.7423 265.634 41.372 265.627 40.954H266.694C266.731 41.3133 266.877 41.6177 267.134 41.867C267.398 42.109 267.779 42.23 268.278 42.23C268.755 42.23 269.129 42.1127 269.4 41.878C269.679 41.636 269.818 41.328 269.818 40.954C269.818 40.6607 269.737 40.4223 269.576 40.239C269.415 40.0557 269.213 39.9163 268.971 39.821C268.729 39.7257 268.403 39.623 267.992 39.513C267.486 39.381 267.079 39.249 266.771 39.117C266.47 38.985 266.21 38.7797 265.99 38.501C265.777 38.215 265.671 37.8337 265.671 37.357C265.671 36.939 265.777 36.5687 265.99 36.246C266.203 35.9233 266.5 35.674 266.881 35.498C267.27 35.322 267.713 35.234 268.212 35.234C268.931 35.234 269.517 35.4137 269.972 35.773C270.434 36.1323 270.694 36.609 270.753 37.203H269.653C269.616 36.9097 269.462 36.653 269.191 36.433C268.92 36.2057 268.56 36.092 268.113 36.092C267.695 36.092 267.354 36.202 267.09 36.422C266.826 36.6347 266.694 36.9353 266.694 37.324C266.694 37.6027 266.771 37.83 266.925 38.006C267.086 38.182 267.281 38.3177 267.508 38.413C267.743 38.501 268.069 38.6037 268.487 38.721C268.993 38.8603 269.4 38.9997 269.708 39.139C270.016 39.271 270.28 39.48 270.5 39.766C270.72 40.0447 270.83 40.426 270.83 40.91C270.83 41.284 270.731 41.636 270.533 41.966C270.335 42.296 270.042 42.5637 269.653 42.769C269.264 42.9743 268.806 43.077 268.278 43.077ZM277.803 39.755C277.803 39.9457 277.792 40.1473 277.77 40.36H272.952C272.989 40.954 273.19 41.4197 273.557 41.757C273.931 42.087 274.382 42.252 274.91 42.252C275.343 42.252 275.702 42.153 275.988 41.955C276.281 41.7497 276.487 41.4783 276.604 41.141H277.682C277.521 41.7203 277.198 42.1933 276.714 42.56C276.23 42.9193 275.629 43.099 274.91 43.099C274.338 43.099 273.825 42.9707 273.37 42.714C272.923 42.4573 272.571 42.0943 272.314 41.625C272.057 41.1483 271.929 40.5983 271.929 39.975C271.929 39.3517 272.054 38.8053 272.303 38.336C272.552 37.8667 272.901 37.5073 273.348 37.258C273.803 37.0013 274.323 36.873 274.91 36.873C275.482 36.873 275.988 36.9977 276.428 37.247C276.868 37.4963 277.205 37.841 277.44 38.281C277.682 38.7137 277.803 39.205 277.803 39.755ZM276.769 39.546C276.769 39.1647 276.685 38.8383 276.516 38.567C276.347 38.2883 276.116 38.0793 275.823 37.94C275.537 37.7933 275.218 37.72 274.866 37.72C274.36 37.72 273.927 37.8813 273.568 38.204C273.216 38.5267 273.014 38.974 272.963 39.546H276.769ZM278.75 39.975C278.75 39.3517 278.875 38.809 279.124 38.347C279.374 37.8777 279.718 37.5147 280.158 37.258C280.606 37.0013 281.115 36.873 281.687 36.873C282.428 36.873 283.037 37.0527 283.513 37.412C283.997 37.7713 284.316 38.27 284.47 38.908H283.392C283.29 38.5413 283.088 38.2517 282.787 38.039C282.494 37.8263 282.127 37.72 281.687 37.72C281.115 37.72 280.653 37.918 280.301 38.314C279.949 38.7027 279.773 39.2563 279.773 39.975C279.773 40.701 279.949 41.262 280.301 41.658C280.653 42.054 281.115 42.252 281.687 42.252C282.127 42.252 282.494 42.1493 282.787 41.944C283.081 41.7387 283.282 41.4453 283.392 41.064H284.47C284.309 41.68 283.986 42.175 283.502 42.549C283.018 42.9157 282.413 43.099 281.687 43.099C281.115 43.099 280.606 42.9707 280.158 42.714C279.718 42.4573 279.374 42.0943 279.124 41.625C278.875 41.1557 278.75 40.6057 278.75 39.975ZM288.435 43.099C287.87 43.099 287.357 42.9707 286.895 42.714C286.44 42.4573 286.081 42.0943 285.817 41.625C285.56 41.1483 285.432 40.5983 285.432 39.975C285.432 39.359 285.564 38.8163 285.828 38.347C286.099 37.8703 286.466 37.5073 286.928 37.258C287.39 37.0013 287.907 36.873 288.479 36.873C289.051 36.873 289.568 37.0013 290.03 37.258C290.492 37.5073 290.855 37.8667 291.119 38.336C291.39 38.8053 291.526 39.3517 291.526 39.975C291.526 40.5983 291.387 41.1483 291.108 41.625C290.837 42.0943 290.466 42.4573 289.997 42.714C289.528 42.9707 289.007 43.099 288.435 43.099ZM288.435 42.219C288.794 42.219 289.132 42.1347 289.447 41.966C289.762 41.7973 290.015 41.5443 290.206 41.207C290.404 40.8697 290.503 40.459 290.503 39.975C290.503 39.491 290.408 39.0803 290.217 38.743C290.026 38.4057 289.777 38.1563 289.469 37.995C289.161 37.8263 288.827 37.742 288.468 37.742C288.101 37.742 287.764 37.8263 287.456 37.995C287.155 38.1563 286.913 38.4057 286.73 38.743C286.547 39.0803 286.455 39.491 286.455 39.975C286.455 40.4663 286.543 40.8807 286.719 41.218C286.902 41.5553 287.144 41.8083 287.445 41.977C287.746 42.1383 288.076 42.219 288.435 42.219ZM295.779 36.862C296.512 36.862 297.106 37.0857 297.561 37.533C298.016 37.973 298.243 38.611 298.243 39.447V43H297.253V39.59C297.253 38.9887 297.103 38.5303 296.802 38.215C296.501 37.8923 296.091 37.731 295.57 37.731C295.042 37.731 294.62 37.896 294.305 38.226C293.997 38.556 293.843 39.0363 293.843 39.667V43H292.842V36.972H293.843V37.83C294.041 37.522 294.309 37.2837 294.646 37.115C294.991 36.9463 295.368 36.862 295.779 36.862ZM299.504 39.964C299.504 39.348 299.629 38.809 299.878 38.347C300.128 37.8777 300.469 37.5147 300.901 37.258C301.341 37.0013 301.833 36.873 302.375 36.873C302.845 36.873 303.281 36.983 303.684 37.203C304.088 37.4157 304.396 37.698 304.608 38.05V34.86H305.62V43H304.608V41.867C304.41 42.2263 304.117 42.5233 303.728 42.758C303.34 42.9853 302.885 43.099 302.364 43.099C301.829 43.099 301.341 42.967 300.901 42.703C300.469 42.439 300.128 42.0687 299.878 41.592C299.629 41.1153 299.504 40.5727 299.504 39.964ZM304.608 39.975C304.608 39.5203 304.517 39.1243 304.333 38.787C304.15 38.4497 303.901 38.193 303.585 38.017C303.277 37.8337 302.936 37.742 302.562 37.742C302.188 37.742 301.847 37.83 301.539 38.006C301.231 38.182 300.986 38.4387 300.802 38.776C300.619 39.1133 300.527 39.5093 300.527 39.964C300.527 40.426 300.619 40.8293 300.802 41.174C300.986 41.5113 301.231 41.7717 301.539 41.955C301.847 42.131 302.188 42.219 302.562 42.219C302.936 42.219 303.277 42.131 303.585 41.955C303.901 41.7717 304.15 41.5113 304.333 41.174C304.517 40.8293 304.608 40.4297 304.608 39.975ZM309.446 43.099C308.984 43.099 308.57 43.022 308.203 42.868C307.836 42.7067 307.547 42.4867 307.334 42.208C307.121 41.922 307.004 41.5957 306.982 41.229H308.016C308.045 41.5297 308.185 41.7753 308.434 41.966C308.691 42.1567 309.024 42.252 309.435 42.252C309.816 42.252 310.117 42.1677 310.337 41.999C310.557 41.8303 310.667 41.6177 310.667 41.361C310.667 41.097 310.55 40.9027 310.315 40.778C310.08 40.646 309.717 40.5177 309.226 40.393C308.779 40.2757 308.412 40.1583 308.126 40.041C307.847 39.9163 307.605 39.7367 307.4 39.502C307.202 39.26 307.103 38.9447 307.103 38.556C307.103 38.248 307.195 37.9657 307.378 37.709C307.561 37.4523 307.822 37.2507 308.159 37.104C308.496 36.95 308.881 36.873 309.314 36.873C309.981 36.873 310.52 37.0417 310.931 37.379C311.342 37.7163 311.562 38.1783 311.591 38.765H310.59C310.568 38.4497 310.44 38.1967 310.205 38.006C309.978 37.8153 309.67 37.72 309.281 37.72C308.922 37.72 308.636 37.797 308.423 37.951C308.21 38.105 308.104 38.3067 308.104 38.556C308.104 38.754 308.166 38.919 308.291 39.051C308.423 39.1757 308.584 39.2783 308.775 39.359C308.973 39.4323 309.244 39.5167 309.589 39.612C310.022 39.7293 310.374 39.8467 310.645 39.964C310.916 40.074 311.147 40.2427 311.338 40.47C311.536 40.6973 311.639 40.9943 311.646 41.361C311.646 41.691 311.554 41.988 311.371 42.252C311.188 42.516 310.927 42.725 310.59 42.879C310.26 43.0257 309.879 43.099 309.446 43.099Z" fill="black"/>
</svg>
