<svg width="168" height="24" viewBox="0 0 168 24" fill="none" xmlns="http://www.w3.org/2000/svg">
<path d="M13 10H17.5L17 12H13V21H11V12H7V10H11V8.128C11 6.345 11.186 5.698 11.534 5.046C11.875 4.40181 12.4018 3.87501 13.046 3.534C13.698 3.186 14.345 3 16.128 3C16.65 3 17.108 3.05 17.5 3.15V5H16.128C14.804 5 14.401 5.078 13.99 5.298C13.686 5.46 13.46 5.686 13.298 5.99C13.078 6.401 13 6.804 13 8.128V10Z" fill="white"/>
<g clip-path="url(#clip0_28756_2857)">
<path d="M60.905 8.84651L60.905 8.84646C60.9194 8.06035 61.2418 7.3113 61.8028 6.76049C62.3639 6.20969 63.1188 5.90116 63.905 5.90129L60.905 8.84651ZM60.905 8.84651L60.877 10.4213M60.905 8.84651L60.877 10.4213M52.7581 7.80857L52.89 7.91846C54.7668 9.48211 56.7178 10.4182 58.7495 10.6952C58.7495 10.6952 58.7495 10.6952 58.7495 10.6952L60.3104 10.9072L52.7581 7.80857ZM52.7581 7.80857L52.7276 7.97751M52.7581 7.80857L52.7276 7.97751M52.7276 7.97751C52.4258 9.64819 52.5683 11.0709 53.1479 12.3018C53.7272 13.532 54.7383 14.5605 56.1558 15.4519L56.1558 15.452M52.7276 7.97751L56.1558 15.452M56.1558 15.452L57.9028 16.55L57.954 16.4685M56.1558 15.452L57.954 16.4685M57.954 16.4685L57.9028 16.55C57.972 16.5934 58.0294 16.6532 58.0702 16.724C58.1109 16.7948 58.1337 16.8745 58.1365 16.9562C58.1392 17.0378 58.122 17.1189 58.0862 17.1924C58.0504 17.2658 57.9972 17.3294 57.9311 17.3775L57.931 17.3775M57.954 16.4685L57.931 17.3775M57.931 17.3775L56.339 18.5405L56.1154 18.7039M57.931 17.3775L56.1154 18.7039M56.1154 18.7039L56.3918 18.7211M56.1154 18.7039L56.3918 18.7211M56.3918 18.7211C57.3449 18.7805 58.2529 18.7385 59.0095 18.5884L59.0096 18.5884M56.3918 18.7211L59.0096 18.5884M59.0096 18.5884C61.3886 18.1134 63.3745 16.9794 64.7652 15.2211M59.0096 18.5884L64.7652 15.2211M60.877 10.4213C60.8757 10.4918 60.8594 10.5612 60.8293 10.625C60.7993 10.6887 60.7561 10.7454 60.7026 10.7912C60.649 10.8371 60.5864 10.8712 60.5188 10.8911C60.4513 10.9111 60.3803 10.9166 60.3105 10.9072L60.877 10.4213ZM64.7652 15.2211C66.1557 13.463 66.945 11.0883 66.945 8.14229M64.7652 15.2211L66.945 8.14229M66.945 8.14229C66.945 7.99668 66.8714 7.78474 66.744 7.55722M66.945 8.14229L66.744 7.55722M66.744 7.55722C66.6142 7.32559 66.4215 7.06508 66.1673 6.82049M66.744 7.55722L66.1673 6.82049M66.1673 6.82049C65.6587 6.33088 64.8999 5.90129 63.905 5.90129L66.1673 6.82049ZM68.4978 5.53842C68.8818 5.48388 69.3285 5.34345 69.916 5.01105C69.6101 6.49526 69.4321 7.16764 68.7642 8.08336L68.745 8.10969V8.14229C68.745 11.9415 67.578 14.7567 65.8258 16.7397C64.0726 18.7238 61.7277 19.8813 59.3624 20.3532C57.7453 20.6759 55.7544 20.5728 53.9964 20.2106C53.1181 20.0296 52.3008 19.7846 51.6198 19.4974C51.0373 19.2517 50.5601 18.9775 50.2296 18.6904C50.6606 18.6482 51.4114 18.5535 52.2437 18.3598C53.2435 18.1272 54.3717 17.7494 55.2031 17.141L55.3192 17.056L55.199 16.9768C55.1572 16.9492 55.1118 16.9196 55.063 16.8879C54.3048 16.3938 52.7465 15.3786 51.7316 13.5166C50.6671 11.5637 50.1926 8.66295 51.9136 4.42592C53.5789 6.34347 55.2726 7.66001 56.995 8.3668L56.995 8.36681C57.5766 8.60536 57.9426 8.72373 58.2318 8.79141C58.4509 8.84265 58.6261 8.86463 58.8117 8.88794C58.8703 8.89529 58.93 8.90278 58.9924 8.91135L59.2872 8.95189L59.1059 8.77077C59.131 7.8414 59.4254 6.93895 59.9539 6.17331C60.4904 5.39606 61.2442 4.79434 62.1211 4.4435C62.9979 4.09265 63.9588 4.00828 64.8833 4.20093C65.8079 4.39359 66.6551 4.85471 67.3189 5.52657L67.3485 5.55658L67.3907 5.55628C67.4934 5.55556 67.5972 5.55908 67.7036 5.56269C67.9483 5.57098 68.2068 5.57974 68.4978 5.53842Z" fill="white" stroke="black" stroke-width="0.2"/>
</g>
<path d="M113 3H103C101.939 3 100.922 3.42143 100.172 4.17157C99.4214 4.92172 99 5.93913 99 7V17C99 18.0609 99.4214 19.0783 100.172 19.8284C100.922 20.5786 101.939 21 103 21H113C114.061 21 115.078 20.5786 115.828 19.8284C116.579 19.0783 117 18.0609 117 17V7C117 5.93913 116.579 4.92172 115.828 4.17157C115.078 3.42143 114.061 3 113 3Z" stroke="white" stroke-width="1.5" stroke-linejoin="round"/>
<path d="M108 16C109.061 16 110.078 15.5786 110.828 14.8284C111.579 14.0783 112 13.0609 112 12C112 10.9391 111.579 9.92172 110.828 9.17157C110.078 8.42143 109.061 8 108 8C106.939 8 105.922 8.42143 105.172 9.17157C104.421 9.92172 104 10.9391 104 12C104 13.0609 104.421 14.0783 105.172 14.8284C105.922 15.5786 106.939 16 108 16V16Z" stroke="white" stroke-width="1.5" stroke-linejoin="round"/>
<path d="M113.5 7.5C113.765 7.5 114.02 7.39464 114.207 7.20711C114.395 7.01957 114.5 6.76522 114.5 6.5C114.5 6.23478 114.395 5.98043 114.207 5.79289C114.02 5.60536 113.765 5.5 113.5 5.5C113.235 5.5 112.98 5.60536 112.793 5.79289C112.605 5.98043 112.5 6.23478 112.5 6.5C112.5 6.76522 112.605 7.01957 112.793 7.20711C112.98 7.39464 113.235 7.5 113.5 7.5Z" fill="white"/>
<path d="M155.5 9.05C156.417 8.113 157.611 7.5 159 7.5C160.459 7.5 161.858 8.07946 162.889 9.11091C163.921 10.1424 164.5 11.5413 164.5 13V20.5H162.5V13C162.5 12.0717 162.131 11.1815 161.475 10.5251C160.818 9.86875 159.928 9.5 159 9.5C158.072 9.5 157.182 9.86875 156.525 10.5251C155.869 11.1815 155.5 12.0717 155.5 13V20.5H153.5V8H155.5V9.05ZM148.5 6C148.102 6 147.721 5.84196 147.439 5.56066C147.158 5.27936 147 4.89782 147 4.5C147 4.10218 147.158 3.72064 147.439 3.43934C147.721 3.15804 148.102 3 148.5 3C148.898 3 149.279 3.15804 149.561 3.43934C149.842 3.72064 150 4.10218 150 4.5C150 4.89782 149.842 5.27936 149.561 5.56066C149.279 5.84196 148.898 6 148.5 6ZM147.5 8H149.5V20.5H147.5V8Z" fill="white"/>
<defs>
<clipPath id="clip0_28756_2857">
<rect width="24" height="24" fill="white" transform="translate(48)"/>
</clipPath>
</defs>
</svg>
