<svg width="140" height="20" viewBox="0 0 140 20" fill="none" xmlns="http://www.w3.org/2000/svg">
<path d="M16.673 10.1717C17.7437 9.36184 17.1709 7.65517 15.8284 7.65517H13.3992C12.7853 7.65517 12.243 7.25521 12.0617 6.66868L11.3375 4.32637C10.9309 3.01106 9.0691 3.01106 8.66246 4.32637L7.93832 6.66868C7.75699 7.25521 7.21469 7.65517 6.60078 7.65517H4.12961C2.79142 7.65517 2.21592 9.35274 3.27822 10.1665L5.39469 11.7879C5.85885 12.1435 6.05314 12.7501 5.88196 13.3092L5.11296 15.8207C4.71416 17.1232 6.22167 18.1704 7.30301 17.342L9.14861 15.9281C9.65097 15.5432 10.349 15.5432 10.8514 15.9281L12.6807 17.3295C13.7636 18.159 15.2725 17.1079 14.8696 15.8046L14.09 13.2827C13.9159 12.7198 14.113 12.1081 14.5829 11.7526L16.673 10.1717Z" fill="#FFAD33"/>
<path d="M36.673 10.1717C37.7437 9.36184 37.1709 7.65517 35.8284 7.65517H33.3992C32.7853 7.65517 32.243 7.25521 32.0617 6.66868L31.3375 4.32637C30.9309 3.01106 29.0691 3.01106 28.6625 4.32637L27.9383 6.66868C27.757 7.25521 27.2147 7.65517 26.6008 7.65517H24.1296C22.7914 7.65517 22.2159 9.35274 23.2782 10.1665L25.3947 11.7879C25.8588 12.1435 26.0531 12.7501 25.882 13.3092L25.113 15.8207C24.7142 17.1232 26.2217 18.1704 27.303 17.342L29.1486 15.9281C29.651 15.5432 30.349 15.5432 30.8514 15.9281L32.6807 17.3295C33.7636 18.159 35.2725 17.1079 34.8696 15.8046L34.09 13.2827C33.9159 12.7198 34.113 12.1081 34.5829 11.7526L36.673 10.1717Z" fill="#FFAD33"/>
<path d="M56.673 10.1717C57.7437 9.36184 57.1709 7.65517 55.8284 7.65517H53.3992C52.7853 7.65517 52.243 7.25521 52.0617 6.66868L51.3375 4.32637C50.9309 3.01106 49.0691 3.01106 48.6625 4.32637L47.9383 6.66868C47.757 7.25521 47.2147 7.65517 46.6008 7.65517H44.1296C42.7914 7.65517 42.2159 9.35274 43.2782 10.1665L45.3947 11.7879C45.8588 12.1435 46.0531 12.7501 45.882 13.3092L45.113 15.8207C44.7142 17.1232 46.2217 18.1704 47.303 17.342L49.1486 15.9281C49.651 15.5432 50.349 15.5432 50.8514 15.9281L52.6807 17.3295C53.7636 18.159 55.2725 17.1079 54.8696 15.8046L54.09 13.2827C53.9159 12.7198 54.113 12.1081 54.5829 11.7526L56.673 10.1717Z" fill="#FFAD33"/>
<path d="M76.673 10.1717C77.7437 9.36184 77.1709 7.65517 75.8284 7.65517H73.3992C72.7853 7.65517 72.243 7.25521 72.0617 6.66868L71.3375 4.32637C70.9309 3.01106 69.0691 3.01106 68.6625 4.32637L67.9383 6.66868C67.757 7.25521 67.2147 7.65517 66.6008 7.65517H64.1296C62.7914 7.65517 62.2159 9.35274 63.2782 10.1665L65.3947 11.7879C65.8588 12.1435 66.0531 12.7501 65.882 13.3092L65.113 15.8207C64.7142 17.1232 66.2217 18.1704 67.303 17.342L69.1486 15.9281C69.651 15.5432 70.349 15.5432 70.8514 15.9281L72.6807 17.3295C73.7636 18.159 75.2725 17.1079 74.8696 15.8046L74.09 13.2827C73.9159 12.7198 74.113 12.1081 74.5829 11.7526L76.673 10.1717Z" fill="#FFAD33"/>
<path d="M96.673 10.1717C97.7437 9.36184 97.1709 7.65517 95.8284 7.65517H93.3992C92.7853 7.65517 92.243 7.25521 92.0617 6.66868L91.3375 4.32637C90.9309 3.01106 89.0691 3.01106 88.6625 4.32637L87.9383 6.66868C87.757 7.25521 87.2147 7.65517 86.6008 7.65517H84.1296C82.7914 7.65517 82.2159 9.35274 83.2782 10.1665L85.3947 11.7879C85.8588 12.1435 86.0531 12.7501 85.882 13.3092L85.113 15.8207C84.7142 17.1232 86.2217 18.1704 87.303 17.342L89.1486 15.9281C89.651 15.5432 90.349 15.5432 90.8514 15.9281L92.6807 17.3295C93.7636 18.159 95.2725 17.1079 94.8696 15.8046L94.09 13.2827C93.9159 12.7198 94.113 12.1081 94.5829 11.7526L96.673 10.1717Z" fill="#FFAD33"/>
<path opacity="0.5" d="M112.354 17.758C111.449 16.8807 110.744 15.7607 110.24 14.398C109.745 13.0353 109.498 11.5747 109.498 10.016C109.498 8.42 109.759 6.922 110.282 5.522C110.805 4.11267 111.565 2.96 112.564 2.064H114.538V2.246C113.511 3.226 112.727 4.402 112.186 5.774C111.654 7.146 111.388 8.56 111.388 10.016C111.388 11.4347 111.64 12.8067 112.144 14.132C112.657 15.448 113.385 16.5913 114.328 17.562V17.758H112.354ZM120.829 7.342C120.736 6.95 120.572 6.656 120.339 6.46C120.115 6.264 119.788 6.166 119.359 6.166C118.715 6.166 118.239 6.42733 117.931 6.95C117.632 7.46333 117.478 8.30333 117.469 9.47C117.693 9.09667 118.02 8.80733 118.449 8.602C118.878 8.38733 119.345 8.28 119.849 8.28C120.456 8.28 120.992 8.41067 121.459 8.672C121.926 8.93333 122.29 9.316 122.551 9.82C122.812 10.3147 122.943 10.912 122.943 11.612C122.943 12.2747 122.808 12.8673 122.537 13.39C122.276 13.9033 121.888 14.3047 121.375 14.594C120.862 14.8833 120.25 15.028 119.541 15.028C118.57 15.028 117.805 14.8133 117.245 14.384C116.694 13.9547 116.307 13.3573 116.083 12.592C115.868 11.8173 115.761 10.8653 115.761 9.736C115.761 8.028 116.055 6.74 116.643 5.872C117.231 4.99467 118.16 4.556 119.429 4.556C120.409 4.556 121.17 4.822 121.711 5.354C122.252 5.886 122.565 6.54867 122.649 7.342H120.829ZM119.401 9.89C118.906 9.89 118.491 10.0347 118.155 10.324C117.819 10.6133 117.651 11.0333 117.651 11.584C117.651 12.1347 117.805 12.5687 118.113 12.886C118.43 13.2033 118.874 13.362 119.443 13.362C119.947 13.362 120.344 13.208 120.633 12.9C120.932 12.592 121.081 12.1767 121.081 11.654C121.081 11.1127 120.936 10.6833 120.647 10.366C120.367 10.0487 119.952 9.89 119.401 9.89ZM131.352 6.488H126.816V8.882C127.012 8.63933 127.292 8.44333 127.656 8.294C128.02 8.13533 128.407 8.056 128.818 8.056C129.565 8.056 130.176 8.21933 130.652 8.546C131.128 8.87267 131.473 9.29267 131.688 9.806C131.903 10.31 132.01 10.8513 132.01 11.43C132.01 12.5033 131.702 13.3667 131.086 14.02C130.479 14.6733 129.611 15 128.482 15C127.418 15 126.569 14.734 125.934 14.202C125.299 13.67 124.94 12.9747 124.856 12.116H126.76C126.844 12.4893 127.031 12.788 127.32 13.012C127.619 13.236 127.997 13.348 128.454 13.348C129.005 13.348 129.42 13.1753 129.7 12.83C129.98 12.4847 130.12 12.0273 130.12 11.458C130.12 10.8793 129.975 10.4407 129.686 10.142C129.406 9.834 128.991 9.68 128.44 9.68C128.048 9.68 127.721 9.778 127.46 9.974C127.199 10.17 127.012 10.4313 126.9 10.758H125.024V4.766H131.352V6.488ZM133.222 17.758V17.562C134.164 16.5913 134.888 15.448 135.392 14.132C135.905 12.8067 136.162 11.4347 136.162 10.016C136.162 8.56 135.891 7.146 135.35 5.774C134.818 4.402 134.038 3.226 133.012 2.246V2.064H134.986C135.984 2.96 136.745 4.11267 137.268 5.522C137.79 6.922 138.052 8.42 138.052 10.016C138.052 11.5747 137.8 13.0353 137.296 14.398C136.801 15.7607 136.101 16.8807 135.196 17.758H133.222Z" fill="black"/>
</svg>
