<svg width="80" height="32" viewBox="0 0 80 32" fill="none" xmlns="http://www.w3.org/2000/svg">
<path d="M11 7C8.239 7 6 9.216 6 11.95C6 14.157 6.875 19.395 15.488 24.69C15.6423 24.7839 15.8194 24.8335 16 24.8335C16.1806 24.8335 16.3577 24.7839 16.512 24.69C25.125 19.395 26 14.157 26 11.95C26 9.216 23.761 7 21 7C18.239 7 16 10 16 10C16 10 13.761 7 11 7Z" stroke="black" stroke-width="1.5" stroke-linecap="round" stroke-linejoin="round"/>
<path d="M59 27C59.5523 27 60 26.5523 60 26C60 25.4477 59.5523 25 59 25C58.4477 25 58 25.4477 58 26C58 26.5523 58.4477 27 59 27Z" stroke="black" stroke-width="1.5" stroke-linecap="round" stroke-linejoin="round"/>
<path d="M73 27C73.5523 27 74 26.5523 74 26C74 25.4477 73.5523 25 73 25C72.4477 25 72 25.4477 72 26C72 26.5523 72.4477 27 73 27Z" stroke="black" stroke-width="1.5" stroke-linecap="round" stroke-linejoin="round"/>
<path d="M51 5H55L58 22H74" stroke="black" stroke-width="1.5" stroke-linecap="round" stroke-linejoin="round"/>
<path d="M58 16.6667H73.59C73.7056 16.6667 73.8177 16.6267 73.9072 16.5535C73.9966 16.4802 74.0579 16.3782 74.0806 16.2648L75.8806 7.26479C75.8951 7.19222 75.8934 7.11733 75.8755 7.04552C75.8575 6.97371 75.8239 6.90678 75.7769 6.84956C75.73 6.79234 75.6709 6.74625 75.604 6.71462C75.5371 6.68299 75.464 6.66661 75.39 6.66666H56" stroke="black" stroke-width="1.5" stroke-linecap="round" stroke-linejoin="round"/>
</svg>
