<svg width="243" height="38" viewBox="0 0 243 38" fill="none" xmlns="http://www.w3.org/2000/svg">
<rect width="243" height="38" rx="4" fill="#F5F5F5"/>
<path opacity="0.5" d="M31.436 14.636L29.012 23H27.788L25.844 16.268L23.828 23L22.616 23.012L20.276 14.636H21.44L23.264 21.728L25.28 14.636H26.504L28.424 21.704L30.26 14.636H31.436ZM35.895 16.304C36.391 16.304 36.839 16.412 37.239 16.628C37.639 16.836 37.951 17.152 38.175 17.576C38.407 18 38.523 18.516 38.523 19.124V23H37.443V19.28C37.443 18.624 37.279 18.124 36.951 17.78C36.623 17.428 36.175 17.252 35.607 17.252C35.031 17.252 34.571 17.432 34.227 17.792C33.891 18.152 33.723 18.676 33.723 19.364V23H32.631V14.12H33.723V17.36C33.939 17.024 34.235 16.764 34.611 16.58C34.995 16.396 35.423 16.304 35.895 16.304ZM39.8988 19.688C39.8988 19.016 40.0348 18.428 40.3068 17.924C40.5788 17.412 40.9508 17.016 41.4228 16.736C41.9028 16.456 42.4348 16.316 43.0188 16.316C43.5948 16.316 44.0948 16.44 44.5188 16.688C44.9428 16.936 45.2588 17.248 45.4668 17.624V16.424H46.5708V23H45.4668V21.776C45.2508 22.16 44.9268 22.48 44.4948 22.736C44.0708 22.984 43.5748 23.108 43.0068 23.108C42.4228 23.108 41.8948 22.964 41.4228 22.676C40.9508 22.388 40.5788 21.984 40.3068 21.464C40.0348 20.944 39.8988 20.352 39.8988 19.688ZM45.4668 19.7C45.4668 19.204 45.3668 18.772 45.1668 18.404C44.9668 18.036 44.6948 17.756 44.3508 17.564C44.0148 17.364 43.6428 17.264 43.2348 17.264C42.8268 17.264 42.4548 17.36 42.1188 17.552C41.7828 17.744 41.5148 18.024 41.3148 18.392C41.1148 18.76 41.0148 19.192 41.0148 19.688C41.0148 20.192 41.1148 20.632 41.3148 21.008C41.5148 21.376 41.7828 21.66 42.1188 21.86C42.4548 22.052 42.8268 22.148 43.2348 22.148C43.6428 22.148 44.0148 22.052 44.3508 21.86C44.6948 21.66 44.9668 21.376 45.1668 21.008C45.3668 20.632 45.4668 20.196 45.4668 19.7ZM49.7482 17.324V21.2C49.7482 21.52 49.8162 21.748 49.9522 21.884C50.0882 22.012 50.3242 22.076 50.6602 22.076H51.4642V23H50.4802C49.8722 23 49.4162 22.86 49.1122 22.58C48.8082 22.3 48.6562 21.84 48.6562 21.2V17.324H47.8042V16.424H48.6562V14.768H49.7482V16.424H51.4642V17.324H49.7482ZM55.5785 19.688C55.5785 19.016 55.7145 18.428 55.9865 17.924C56.2585 17.412 56.6305 17.016 57.1025 16.736C57.5825 16.456 58.1145 16.316 58.6985 16.316C59.2745 16.316 59.7745 16.44 60.1985 16.688C60.6225 16.936 60.9385 17.248 61.1465 17.624V16.424H62.2505V23H61.1465V21.776C60.9305 22.16 60.6065 22.48 60.1745 22.736C59.7505 22.984 59.2545 23.108 58.6865 23.108C58.1025 23.108 57.5745 22.964 57.1025 22.676C56.6305 22.388 56.2585 21.984 55.9865 21.464C55.7145 20.944 55.5785 20.352 55.5785 19.688ZM61.1465 19.7C61.1465 19.204 61.0465 18.772 60.8465 18.404C60.6465 18.036 60.3745 17.756 60.0305 17.564C59.6945 17.364 59.3225 17.264 58.9145 17.264C58.5065 17.264 58.1345 17.36 57.7985 17.552C57.4625 17.744 57.1945 18.024 56.9945 18.392C56.7945 18.76 56.6945 19.192 56.6945 19.688C56.6945 20.192 56.7945 20.632 56.9945 21.008C57.1945 21.376 57.4625 21.66 57.7985 21.86C58.1345 22.052 58.5065 22.148 58.9145 22.148C59.3225 22.148 59.6945 22.052 60.0305 21.86C60.3745 21.66 60.6465 21.376 60.8465 21.008C61.0465 20.632 61.1465 20.196 61.1465 19.7ZM65.1879 17.492C65.3799 17.116 65.6519 16.824 66.0039 16.616C66.3639 16.408 66.7999 16.304 67.3119 16.304V17.432H67.0239C65.7999 17.432 65.1879 18.096 65.1879 19.424V23H64.0959V16.424H65.1879V17.492ZM74.5724 19.46C74.5724 19.668 74.5604 19.888 74.5364 20.12H69.2804C69.3204 20.768 69.5404 21.276 69.9404 21.644C70.3484 22.004 70.8404 22.184 71.4164 22.184C71.8884 22.184 72.2804 22.076 72.5924 21.86C72.9124 21.636 73.1364 21.34 73.2644 20.972H74.4404C74.2644 21.604 73.9124 22.12 73.3844 22.52C72.8564 22.912 72.2004 23.108 71.4164 23.108C70.7924 23.108 70.2324 22.968 69.7364 22.688C69.2484 22.408 68.8644 22.012 68.5844 21.5C68.3044 20.98 68.1644 20.38 68.1644 19.7C68.1644 19.02 68.3004 18.424 68.5724 17.912C68.8444 17.4 69.2244 17.008 69.7124 16.736C70.2084 16.456 70.7764 16.316 71.4164 16.316C72.0404 16.316 72.5924 16.452 73.0724 16.724C73.5524 16.996 73.9204 17.372 74.1764 17.852C74.4404 18.324 74.5724 18.86 74.5724 19.46ZM73.4444 19.232C73.4444 18.816 73.3524 18.46 73.1684 18.164C72.9844 17.86 72.7324 17.632 72.4124 17.48C72.1004 17.32 71.7524 17.24 71.3684 17.24C70.8164 17.24 70.3444 17.416 69.9524 17.768C69.5684 18.12 69.3484 18.608 69.2924 19.232H73.4444ZM84.8771 16.424L80.9171 26.096H79.7891L81.0851 22.928L78.4331 16.424H79.6451L81.7091 21.752L83.7491 16.424H84.8771ZM88.8428 23.108C88.2268 23.108 87.6668 22.968 87.1628 22.688C86.6668 22.408 86.2748 22.012 85.9868 21.5C85.7068 20.98 85.5668 20.38 85.5668 19.7C85.5668 19.028 85.7108 18.436 85.9988 17.924C86.2948 17.404 86.6948 17.008 87.1988 16.736C87.7028 16.456 88.2668 16.316 88.8908 16.316C89.5148 16.316 90.0788 16.456 90.5828 16.736C91.0868 17.008 91.4828 17.4 91.7708 17.912C92.0668 18.424 92.2148 19.02 92.2148 19.7C92.2148 20.38 92.0628 20.98 91.7588 21.5C91.4628 22.012 91.0588 22.408 90.5468 22.688C90.0348 22.968 89.4668 23.108 88.8428 23.108ZM88.8428 22.148C89.2348 22.148 89.6028 22.056 89.9468 21.872C90.2908 21.688 90.5668 21.412 90.7748 21.044C90.9908 20.676 91.0988 20.228 91.0988 19.7C91.0988 19.172 90.9948 18.724 90.7868 18.356C90.5788 17.988 90.3068 17.716 89.9708 17.54C89.6348 17.356 89.2708 17.264 88.8788 17.264C88.4788 17.264 88.1108 17.356 87.7748 17.54C87.4468 17.716 87.1828 17.988 86.9828 18.356C86.7828 18.724 86.6828 19.172 86.6828 19.7C86.6828 20.236 86.7788 20.688 86.9708 21.056C87.1708 21.424 87.4348 21.7 87.7628 21.884C88.0908 22.06 88.4508 22.148 88.8428 22.148ZM99.4826 16.424V23H98.3906V22.028C98.1826 22.364 97.8906 22.628 97.5146 22.82C97.1466 23.004 96.7386 23.096 96.2906 23.096C95.7786 23.096 95.3186 22.992 94.9106 22.784C94.5026 22.568 94.1786 22.248 93.9386 21.824C93.7066 21.4 93.5906 20.884 93.5906 20.276V16.424H94.6706V20.132C94.6706 20.78 94.8346 21.28 95.1626 21.632C95.4906 21.976 95.9386 22.148 96.5066 22.148C97.0906 22.148 97.5506 21.968 97.8866 21.608C98.2226 21.248 98.3906 20.724 98.3906 20.036V16.424H99.4826ZM105.618 14.12V23H104.526V14.12H105.618ZM110.347 23.108C109.731 23.108 109.171 22.968 108.667 22.688C108.171 22.408 107.779 22.012 107.491 21.5C107.211 20.98 107.071 20.38 107.071 19.7C107.071 19.028 107.215 18.436 107.503 17.924C107.799 17.404 108.199 17.008 108.703 16.736C109.207 16.456 109.771 16.316 110.395 16.316C111.019 16.316 111.583 16.456 112.087 16.736C112.591 17.008 112.987 17.4 113.275 17.912C113.571 18.424 113.719 19.02 113.719 19.7C113.719 20.38 113.567 20.98 113.263 21.5C112.967 22.012 112.563 22.408 112.051 22.688C111.539 22.968 110.971 23.108 110.347 23.108ZM110.347 22.148C110.739 22.148 111.107 22.056 111.451 21.872C111.795 21.688 112.071 21.412 112.279 21.044C112.495 20.676 112.603 20.228 112.603 19.7C112.603 19.172 112.499 18.724 112.291 18.356C112.083 17.988 111.811 17.716 111.475 17.54C111.139 17.356 110.775 17.264 110.383 17.264C109.983 17.264 109.615 17.356 109.279 17.54C108.951 17.716 108.687 17.988 108.487 18.356C108.287 18.724 108.187 19.172 108.187 19.7C108.187 20.236 108.283 20.688 108.475 21.056C108.675 21.424 108.939 21.7 109.267 21.884C109.595 22.06 109.955 22.148 110.347 22.148ZM118.022 23.108C117.406 23.108 116.846 22.968 116.342 22.688C115.846 22.408 115.454 22.012 115.166 21.5C114.886 20.98 114.746 20.38 114.746 19.7C114.746 19.028 114.89 18.436 115.178 17.924C115.474 17.404 115.874 17.008 116.378 16.736C116.882 16.456 117.446 16.316 118.07 16.316C118.694 16.316 119.258 16.456 119.762 16.736C120.266 17.008 120.662 17.4 120.95 17.912C121.246 18.424 121.394 19.02 121.394 19.7C121.394 20.38 121.242 20.98 120.938 21.5C120.642 22.012 120.238 22.408 119.726 22.688C119.214 22.968 118.646 23.108 118.022 23.108ZM118.022 22.148C118.414 22.148 118.782 22.056 119.126 21.872C119.47 21.688 119.746 21.412 119.954 21.044C120.17 20.676 120.278 20.228 120.278 19.7C120.278 19.172 120.174 18.724 119.966 18.356C119.758 17.988 119.486 17.716 119.15 17.54C118.814 17.356 118.45 17.264 118.058 17.264C117.658 17.264 117.29 17.356 116.954 17.54C116.626 17.716 116.362 17.988 116.162 18.356C115.962 18.724 115.862 19.172 115.862 19.7C115.862 20.236 115.958 20.688 116.15 21.056C116.35 21.424 116.614 21.7 116.942 21.884C117.27 22.06 117.63 22.148 118.022 22.148ZM126.502 23L123.922 20.096V23H122.83V14.12H123.922V19.34L126.454 16.424H127.978L124.882 19.7L127.99 23H126.502ZM129.57 15.356C129.362 15.356 129.186 15.284 129.042 15.14C128.898 14.996 128.826 14.82 128.826 14.612C128.826 14.404 128.898 14.228 129.042 14.084C129.186 13.94 129.362 13.868 129.57 13.868C129.77 13.868 129.938 13.94 130.074 14.084C130.218 14.228 130.29 14.404 130.29 14.612C130.29 14.82 130.218 14.996 130.074 15.14C129.938 15.284 129.77 15.356 129.57 15.356ZM130.098 16.424V23H129.006V16.424H130.098ZM135.163 16.304C135.963 16.304 136.611 16.548 137.107 17.036C137.603 17.516 137.851 18.212 137.851 19.124V23H136.771V19.28C136.771 18.624 136.607 18.124 136.279 17.78C135.951 17.428 135.503 17.252 134.935 17.252C134.359 17.252 133.899 17.432 133.555 17.792C133.219 18.152 133.051 18.676 133.051 19.364V23H131.959V16.424H133.051V17.36C133.267 17.024 133.559 16.764 133.927 16.58C134.303 16.396 134.715 16.304 135.163 16.304ZM142.347 16.316C142.915 16.316 143.411 16.44 143.835 16.688C144.267 16.936 144.587 17.248 144.795 17.624V16.424H145.899V23.144C145.899 23.744 145.771 24.276 145.515 24.74C145.259 25.212 144.891 25.58 144.411 25.844C143.939 26.108 143.387 26.24 142.755 26.24C141.891 26.24 141.171 26.036 140.595 25.628C140.019 25.22 139.679 24.664 139.575 23.96H140.655C140.775 24.36 141.023 24.68 141.399 24.92C141.775 25.168 142.227 25.292 142.755 25.292C143.355 25.292 143.843 25.104 144.219 24.728C144.603 24.352 144.795 23.824 144.795 23.144V21.764C144.579 22.148 144.259 22.468 143.835 22.724C143.411 22.98 142.915 23.108 142.347 23.108C141.763 23.108 141.231 22.964 140.751 22.676C140.279 22.388 139.907 21.984 139.635 21.464C139.363 20.944 139.227 20.352 139.227 19.688C139.227 19.016 139.363 18.428 139.635 17.924C139.907 17.412 140.279 17.016 140.751 16.736C141.231 16.456 141.763 16.316 142.347 16.316ZM144.795 19.7C144.795 19.204 144.695 18.772 144.495 18.404C144.295 18.036 144.023 17.756 143.679 17.564C143.343 17.364 142.971 17.264 142.563 17.264C142.155 17.264 141.783 17.36 141.447 17.552C141.111 17.744 140.843 18.024 140.643 18.392C140.443 18.76 140.343 19.192 140.343 19.688C140.343 20.192 140.443 20.632 140.643 21.008C140.843 21.376 141.111 21.66 141.447 21.86C141.783 22.052 142.155 22.148 142.563 22.148C142.971 22.148 143.343 22.052 143.679 21.86C144.023 21.66 144.295 21.376 144.495 21.008C144.695 20.632 144.795 20.196 144.795 19.7ZM153.62 17.324H152.24V23H151.148V17.324H150.296V16.424H151.148V15.956C151.148 15.22 151.336 14.684 151.712 14.348C152.096 14.004 152.708 13.832 153.548 13.832V14.744C153.068 14.744 152.728 14.84 152.528 15.032C152.336 15.216 152.24 15.524 152.24 15.956V16.424H153.62V17.324ZM157.761 23.108C157.145 23.108 156.585 22.968 156.081 22.688C155.585 22.408 155.193 22.012 154.905 21.5C154.625 20.98 154.485 20.38 154.485 19.7C154.485 19.028 154.629 18.436 154.917 17.924C155.213 17.404 155.613 17.008 156.117 16.736C156.621 16.456 157.185 16.316 157.809 16.316C158.433 16.316 158.997 16.456 159.501 16.736C160.005 17.008 160.401 17.4 160.689 17.912C160.985 18.424 161.133 19.02 161.133 19.7C161.133 20.38 160.981 20.98 160.677 21.5C160.381 22.012 159.977 22.408 159.465 22.688C158.953 22.968 158.385 23.108 157.761 23.108ZM157.761 22.148C158.153 22.148 158.521 22.056 158.865 21.872C159.209 21.688 159.485 21.412 159.693 21.044C159.909 20.676 160.017 20.228 160.017 19.7C160.017 19.172 159.913 18.724 159.705 18.356C159.497 17.988 159.225 17.716 158.889 17.54C158.553 17.356 158.189 17.264 157.797 17.264C157.397 17.264 157.029 17.356 156.693 17.54C156.365 17.716 156.101 17.988 155.901 18.356C155.701 18.724 155.601 19.172 155.601 19.7C155.601 20.236 155.697 20.688 155.889 21.056C156.089 21.424 156.353 21.7 156.681 21.884C157.009 22.06 157.369 22.148 157.761 22.148ZM163.661 17.492C163.853 17.116 164.125 16.824 164.477 16.616C164.837 16.408 165.273 16.304 165.785 16.304V17.432H165.497C164.273 17.432 163.661 18.096 163.661 19.424V23H162.569V16.424H163.661V17.492ZM169.181 14.528C169.973 14.528 170.613 14.752 171.101 15.2C171.589 15.648 171.833 16.248 171.833 17C171.833 17.84 171.573 18.464 171.053 18.872C170.533 19.272 169.829 19.472 168.941 19.472L168.905 20.612H167.957L167.909 18.716H168.257C169.049 18.716 169.669 18.596 170.117 18.356C170.565 18.116 170.789 17.664 170.789 17C170.789 16.52 170.645 16.14 170.357 15.86C170.069 15.58 169.681 15.44 169.193 15.44C168.697 15.44 168.305 15.576 168.017 15.848C167.737 16.112 167.597 16.476 167.597 16.94H166.565C166.565 16.46 166.673 16.04 166.889 15.68C167.105 15.312 167.409 15.028 167.801 14.828C168.201 14.628 168.661 14.528 169.181 14.528ZM168.425 23.072C168.217 23.072 168.041 23 167.897 22.856C167.753 22.712 167.681 22.536 167.681 22.328C167.681 22.12 167.753 21.944 167.897 21.8C168.041 21.656 168.217 21.584 168.425 21.584C168.625 21.584 168.793 21.656 168.929 21.8C169.073 21.944 169.145 22.12 169.145 22.328C169.145 22.536 169.073 22.712 168.929 22.856C168.793 23 168.625 23.072 168.425 23.072Z" fill="black"/>
<path d="M227 27L223.222 23.2156M225.316 18.1579C225.316 20.0563 224.562 21.8769 223.219 23.2193C221.877 24.5617 220.056 25.3158 218.158 25.3158C216.26 25.3158 214.439 24.5617 213.096 23.2193C211.754 21.8769 211 20.0563 211 18.1579C211 16.2595 211.754 14.4389 213.096 13.0965C214.439 11.7541 216.26 11 218.158 11C220.056 11 221.877 11.7541 223.219 13.0965C224.562 14.4389 225.316 16.2595 225.316 18.1579V18.1579Z" stroke="black" stroke-width="1.5" stroke-linecap="round"/>
</svg>
