<svg width="15" height="15" viewBox="0 0 15 15" fill="none" xmlns="http://www.w3.org/2000/svg">
<path d="M0.000366211 0.5C0.000366211 0.367392 0.0530446 0.240215 0.146813 0.146447C0.240581 0.0526784 0.367758 0 0.500366 0H2.00037C2.1119 3.08115e-05 2.22022 0.0373507 2.3081 0.106025C2.39598 0.174699 2.45838 0.270784 2.48537 0.379L2.89037 2H14.5004C14.5738 2.00007 14.6463 2.0163 14.7127 2.04755C14.7792 2.0788 14.8379 2.12429 14.8848 2.1808C14.9316 2.23731 14.9655 2.30345 14.9839 2.37452C15.0023 2.44558 15.0049 2.51984 14.9914 2.592L13.4914 10.592C13.4699 10.7066 13.4091 10.8101 13.3195 10.8846C13.2298 10.9591 13.1169 10.9999 13.0004 11H4.00037C3.8838 10.9999 3.77093 10.9591 3.68128 10.8846C3.59162 10.8101 3.53081 10.7066 3.50937 10.592L2.01037 2.607L1.61037 1H0.500366C0.367758 1 0.240581 0.947322 0.146813 0.853553C0.0530446 0.759785 0.000366211 0.632608 0.000366211 0.5ZM3.10237 3L4.41537 10H12.5854L13.8984 3H3.10237ZM5.00037 11C4.46993 11 3.96123 11.2107 3.58615 11.5858C3.21108 11.9609 3.00037 12.4696 3.00037 13C3.00037 13.5304 3.21108 14.0391 3.58615 14.4142C3.96123 14.7893 4.46993 15 5.00037 15C5.5308 15 6.03951 14.7893 6.41458 14.4142C6.78965 14.0391 7.00037 13.5304 7.00037 13C7.00037 12.4696 6.78965 11.9609 6.41458 11.5858C6.03951 11.2107 5.5308 11 5.00037 11ZM12.0004 11C11.4699 11 10.9612 11.2107 10.5862 11.5858C10.2111 11.9609 10.0004 12.4696 10.0004 13C10.0004 13.5304 10.2111 14.0391 10.5862 14.4142C10.9612 14.7893 11.4699 15 12.0004 15C12.5308 15 13.0395 14.7893 13.4146 14.4142C13.7897 14.0391 14.0004 13.5304 14.0004 13C14.0004 12.4696 13.7897 11.9609 13.4146 11.5858C13.0395 11.2107 12.5308 11 12.0004 11ZM5.00037 12C5.26558 12 5.51994 12.1054 5.70747 12.2929C5.89501 12.4804 6.00037 12.7348 6.00037 13C6.00037 13.2652 5.89501 13.5196 5.70747 13.7071C5.51994 13.8946 5.26558 14 5.00037 14C4.73515 14 4.4808 13.8946 4.29326 13.7071C4.10572 13.5196 4.00037 13.2652 4.00037 13C4.00037 12.7348 4.10572 12.4804 4.29326 12.2929C4.4808 12.1054 4.73515 12 5.00037 12ZM12.0004 12C12.2656 12 12.5199 12.1054 12.7075 12.2929C12.895 12.4804 13.0004 12.7348 13.0004 13C13.0004 13.2652 12.895 13.5196 12.7075 13.7071C12.5199 13.8946 12.2656 14 12.0004 14C11.7351 14 11.4808 13.8946 11.2933 13.7071C11.1057 13.5196 11.0004 13.2652 11.0004 13C11.0004 12.7348 11.1057 12.4804 11.2933 12.2929C11.4808 12.1054 11.7351 12 12.0004 12Z" fill="#23A6F0"/>
</svg>
