<svg width="214" height="52" viewBox="0 0 214 52" fill="none" xmlns="http://www.w3.org/2000/svg">
<g clip-path="url(#clip0_232_235)">
<rect width="214" height="52" rx="5" fill="#23A6F0"/>
<path d="M30.488 31H26.204V21.214H30.012C30.6747 21.214 31.244 21.2933 31.72 21.452C32.2053 21.6107 32.5693 21.8253 32.812 22.096C33.2507 22.6 33.47 23.1693 33.47 23.804C33.47 24.5693 33.2227 25.1387 32.728 25.512C32.56 25.6427 32.4433 25.7267 32.378 25.764C32.3127 25.792 32.196 25.8433 32.028 25.918C32.6347 26.0487 33.1153 26.324 33.47 26.744C33.834 27.1547 34.016 27.668 34.016 28.284C34.016 28.9653 33.7827 29.5673 33.316 30.09C32.7747 30.6967 31.832 31 30.488 31ZM28.388 25.176H29.424C30.0307 25.176 30.4787 25.1107 30.768 24.98C31.0667 24.8493 31.216 24.5693 31.216 24.14C31.216 23.7013 31.0807 23.412 30.81 23.272C30.5393 23.132 30.082 23.062 29.438 23.062H28.388V25.176ZM28.388 29.152H29.886C30.5113 29.152 30.978 29.0773 31.286 28.928C31.6033 28.7693 31.762 28.466 31.762 28.018C31.762 27.5607 31.594 27.262 31.258 27.122C30.9313 26.9727 30.404 26.898 29.676 26.898H28.388V29.152ZM42.3703 29.908C41.521 30.7107 40.5223 31.112 39.3743 31.112C38.2357 31.112 37.293 30.762 36.5463 30.062C35.7997 29.3527 35.4263 28.4053 35.4263 27.22C35.4263 26.0347 35.8043 25.092 36.5603 24.392C37.3257 23.692 38.2263 23.342 39.2623 23.342C40.2983 23.342 41.1757 23.6547 41.8943 24.28C42.6223 24.9053 42.9863 25.764 42.9863 26.856V27.976H37.4983C37.5637 28.3867 37.7783 28.7227 38.1423 28.984C38.5063 29.2453 38.917 29.376 39.3743 29.376C40.1117 29.376 40.7183 29.1287 41.1943 28.634L42.3703 29.908ZM40.8583 26.478C40.8117 26.03 40.6437 25.6847 40.3543 25.442C40.065 25.1993 39.7103 25.078 39.2903 25.078C38.8797 25.078 38.5017 25.204 38.1563 25.456C37.811 25.708 37.6103 26.0487 37.5543 26.478H40.8583ZM48.3126 29.25C49.0126 29.25 49.6426 28.9 50.2026 28.2L51.4486 29.6C50.478 30.608 49.428 31.112 48.2986 31.112C47.1693 31.112 46.2126 30.7573 45.4286 30.048C44.654 29.3293 44.2666 28.396 44.2666 27.248C44.2666 26.0907 44.6586 25.1527 45.4426 24.434C46.236 23.706 47.174 23.342 48.2566 23.342C48.798 23.342 49.344 23.454 49.8946 23.678C50.4546 23.902 50.9446 24.2333 51.3646 24.672L50.2726 26.1C50.03 25.8107 49.7313 25.5867 49.3766 25.428C49.0313 25.2693 48.686 25.19 48.3406 25.19C47.79 25.19 47.314 25.372 46.9126 25.736C46.5206 26.0907 46.3246 26.59 46.3246 27.234C46.3246 27.8687 46.5206 28.3633 46.9126 28.718C47.314 29.0727 47.7806 29.25 48.3126 29.25ZM54.606 27.234C54.606 27.85 54.7787 28.354 55.124 28.746C55.4787 29.1287 55.9267 29.32 56.468 29.32C57.0187 29.32 57.4667 29.1287 57.812 28.746C58.1667 28.354 58.344 27.85 58.344 27.234C58.344 26.618 58.1667 26.114 57.812 25.722C57.4667 25.33 57.0187 25.134 56.468 25.134C55.9267 25.134 55.4787 25.33 55.124 25.722C54.7787 26.114 54.606 26.618 54.606 27.234ZM60.458 27.234C60.458 28.326 60.08 29.2453 59.324 29.992C58.568 30.7387 57.616 31.112 56.468 31.112C55.3294 31.112 54.382 30.7387 53.626 29.992C52.87 29.2453 52.492 28.326 52.492 27.234C52.492 26.142 52.87 25.2227 53.626 24.476C54.382 23.72 55.3294 23.342 56.468 23.342C57.616 23.342 58.568 23.72 59.324 24.476C60.08 25.2227 60.458 26.142 60.458 27.234ZM69.1338 26.94V31H67.0198V26.884C67.0198 26.2867 66.9265 25.848 66.7398 25.568C66.5625 25.288 66.2685 25.148 65.8578 25.148C65.4565 25.148 65.0972 25.302 64.7798 25.61C64.4718 25.9087 64.3178 26.352 64.3178 26.94V31H62.2178V23.468H64.3178V24.322C64.8965 23.6687 65.5592 23.342 66.3058 23.342C66.7818 23.342 67.2112 23.482 67.5938 23.762C67.9858 24.042 68.2798 24.3827 68.4758 24.784C68.7652 24.3267 69.1525 23.972 69.6378 23.72C70.1325 23.468 70.6272 23.342 71.1218 23.342C72.0085 23.342 72.7225 23.608 73.2638 24.14C73.8052 24.6627 74.0758 25.4233 74.0758 26.422V31H71.9618V26.884C71.9618 25.7267 71.5372 25.148 70.6878 25.148C70.2678 25.148 69.9038 25.302 69.5958 25.61C69.2878 25.9087 69.1338 26.352 69.1338 26.94ZM82.7094 29.908C81.8601 30.7107 80.8614 31.112 79.7134 31.112C78.5747 31.112 77.6321 30.762 76.8854 30.062C76.1387 29.3527 75.7654 28.4053 75.7654 27.22C75.7654 26.0347 76.1434 25.092 76.8994 24.392C77.6647 23.692 78.5654 23.342 79.6014 23.342C80.6374 23.342 81.5147 23.6547 82.2334 24.28C82.9614 24.9053 83.3254 25.764 83.3254 26.856V27.976H77.8374C77.9027 28.3867 78.1174 28.7227 78.4814 28.984C78.8454 29.2453 79.2561 29.376 79.7134 29.376C80.4507 29.376 81.0574 29.1287 81.5334 28.634L82.7094 29.908ZM81.1974 26.478C81.1507 26.03 80.9827 25.6847 80.6934 25.442C80.4041 25.1993 80.0494 25.078 79.6294 25.078C79.2187 25.078 78.8407 25.204 78.4954 25.456C78.1501 25.708 77.9494 26.0487 77.8934 26.478H81.1974ZM95.3291 31H93.3551V30.09C92.8138 30.7713 92.1418 31.112 91.3391 31.112C90.5458 31.112 89.8784 30.8833 89.3371 30.426C88.7958 29.9593 88.5251 29.3433 88.5251 28.578C88.5251 27.8033 88.8051 27.2247 89.3651 26.842C89.9251 26.4593 90.6904 26.268 91.6611 26.268H93.2291V26.226C93.2291 25.4233 92.8044 25.022 91.9551 25.022C91.5911 25.022 91.2038 25.0967 90.7931 25.246C90.3918 25.386 90.0511 25.5633 89.7711 25.778L88.8331 24.42C89.8224 23.7013 90.9518 23.342 92.2211 23.342C93.1358 23.342 93.8824 23.5707 94.4611 24.028C95.0398 24.4853 95.3291 25.2087 95.3291 26.198V31ZM93.2151 28.13V27.766H91.8991C91.0591 27.766 90.6391 28.0273 90.6391 28.55C90.6391 28.8207 90.7371 29.0307 90.9331 29.18C91.1384 29.32 91.4278 29.39 91.8011 29.39C92.1744 29.39 92.5011 29.278 92.7811 29.054C93.0704 28.8207 93.2151 28.5127 93.2151 28.13ZM108.251 26.94V31H106.137V26.884C106.137 26.2867 106.044 25.848 105.857 25.568C105.68 25.288 105.386 25.148 104.975 25.148C104.574 25.148 104.214 25.302 103.897 25.61C103.589 25.9087 103.435 26.352 103.435 26.94V31H101.335V23.468H103.435V24.322C104.014 23.6687 104.676 23.342 105.423 23.342C105.899 23.342 106.328 23.482 106.711 23.762C107.103 24.042 107.397 24.3827 107.593 24.784C107.882 24.3267 108.27 23.972 108.755 23.72C109.25 23.468 109.744 23.342 110.239 23.342C111.126 23.342 111.84 23.608 112.381 24.14C112.922 24.6627 113.193 25.4233 113.193 26.422V31H111.079V26.884C111.079 25.7267 110.654 25.148 109.805 25.148C109.385 25.148 109.021 25.302 108.713 25.61C108.405 25.9087 108.251 26.352 108.251 26.94ZM121.827 29.908C120.977 30.7107 119.979 31.112 118.831 31.112C117.692 31.112 116.749 30.762 116.003 30.062C115.256 29.3527 114.883 28.4053 114.883 27.22C114.883 26.0347 115.261 25.092 116.017 24.392C116.782 23.692 117.683 23.342 118.719 23.342C119.755 23.342 120.632 23.6547 121.351 24.28C122.079 24.9053 122.443 25.764 122.443 26.856V27.976H116.955C117.02 28.3867 117.235 28.7227 117.599 28.984C117.963 29.2453 118.373 29.376 118.831 29.376C119.568 29.376 120.175 29.1287 120.651 28.634L121.827 29.908ZM120.315 26.478C120.268 26.03 120.1 25.6847 119.811 25.442C119.521 25.1993 119.167 25.078 118.747 25.078C118.336 25.078 117.958 25.204 117.613 25.456C117.267 25.708 117.067 26.0487 117.011 26.478H120.315ZM131.073 26.94V31H128.959V26.884C128.959 26.2867 128.866 25.848 128.679 25.568C128.502 25.288 128.208 25.148 127.797 25.148C127.396 25.148 127.036 25.302 126.719 25.61C126.411 25.9087 126.257 26.352 126.257 26.94V31H124.157V23.468H126.257V24.322C126.836 23.6687 127.498 23.342 128.245 23.342C128.721 23.342 129.15 23.482 129.533 23.762C129.925 24.042 130.219 24.3827 130.415 24.784C130.704 24.3267 131.092 23.972 131.577 23.72C132.072 23.468 132.566 23.342 133.061 23.342C133.948 23.342 134.662 23.608 135.203 24.14C135.744 24.6627 136.015 25.4233 136.015 26.422V31H133.901V26.884C133.901 25.7267 133.476 25.148 132.627 25.148C132.207 25.148 131.843 25.302 131.535 25.61C131.227 25.9087 131.073 26.352 131.073 26.94ZM142.464 23.342C143.379 23.342 144.177 23.7013 144.858 24.42C145.54 25.1293 145.88 26.044 145.88 27.164C145.88 28.284 145.53 29.222 144.83 29.978C144.13 30.734 143.332 31.112 142.436 31.112C141.55 31.112 140.812 30.7433 140.224 30.006V31H138.124V20.612H140.224V24.308C140.803 23.664 141.55 23.342 142.464 23.342ZM140.196 27.248C140.196 27.8547 140.364 28.354 140.7 28.746C141.046 29.1287 141.461 29.32 141.946 29.32C142.432 29.32 142.856 29.1287 143.22 28.746C143.584 28.354 143.766 27.8547 143.766 27.248C143.766 26.6413 143.589 26.1327 143.234 25.722C142.88 25.3113 142.455 25.106 141.96 25.106C141.466 25.106 141.046 25.3113 140.7 25.722C140.364 26.1233 140.196 26.632 140.196 27.248ZM154.173 29.908C153.323 30.7107 152.325 31.112 151.177 31.112C150.038 31.112 149.095 30.762 148.349 30.062C147.602 29.3527 147.229 28.4053 147.229 27.22C147.229 26.0347 147.607 25.092 148.363 24.392C149.128 23.692 150.029 23.342 151.065 23.342C152.101 23.342 152.978 23.6547 153.697 24.28C154.425 24.9053 154.789 25.764 154.789 26.856V27.976H149.301C149.366 28.3867 149.581 28.7227 149.945 28.984C150.309 29.2453 150.719 29.376 151.177 29.376C151.914 29.376 152.521 29.1287 152.997 28.634L154.173 29.908ZM152.661 26.478C152.614 26.03 152.446 25.6847 152.157 25.442C151.867 25.1993 151.513 25.078 151.093 25.078C150.682 25.078 150.304 25.204 149.959 25.456C149.613 25.708 149.413 26.0487 149.357 26.478H152.661ZM160.465 25.316C159.84 25.316 159.373 25.54 159.065 25.988C158.757 26.4267 158.603 27.01 158.603 27.738V31H156.503V23.468H158.603V24.462C158.874 24.154 159.21 23.8927 159.611 23.678C160.022 23.4633 160.437 23.3513 160.857 23.342L160.871 25.316H160.465Z" fill="white"/>
<g clip-path="url(#clip1_232_235)">
<path fill-rule="evenodd" clip-rule="evenodd" d="M177 26C177 25.8106 177.079 25.6289 177.22 25.495C177.36 25.3611 177.551 25.2858 177.75 25.2858H186.438L183.218 22.2207C183.077 22.0866 182.998 21.9047 182.998 21.7151C182.998 21.5254 183.077 21.3435 183.218 21.2094C183.359 21.0753 183.55 21 183.749 21C183.948 21 184.139 21.0753 184.28 21.2094L188.78 25.4944C188.85 25.5607 188.905 25.6395 188.943 25.7263C188.981 25.8131 189 25.9061 189 26C189 26.0939 188.981 26.1869 188.943 26.2737C188.905 26.3605 188.85 26.4393 188.78 26.5056L184.28 30.7906C184.139 30.9247 183.948 31 183.749 31C183.55 31 183.359 30.9247 183.218 30.7906C183.077 30.6565 182.998 30.4746 182.998 30.2849C182.998 30.0953 183.077 29.9134 183.218 29.7793L186.438 26.7142H177.75C177.551 26.7142 177.36 26.6389 177.22 26.505C177.079 26.3711 177 26.1894 177 26Z" fill="white"/>
</g>
</g>
<defs>
<clipPath id="clip0_232_235">
<rect width="214" height="52" fill="white"/>
</clipPath>
<clipPath id="clip1_232_235">
<rect width="12" height="10" fill="white" transform="translate(177 21)"/>
</clipPath>
</defs>
</svg>
