<svg width="109" height="34" viewBox="0 0 109 34" fill="none" xmlns="http://www.w3.org/2000/svg">
<path d="M8.08563 24.104V22.936C6.73096 22.7227 5.48296 22.1093 4.34163 21.096L5.82963 19.288C6.66163 20.0133 7.41363 20.4773 8.08563 20.68V18.296C6.96563 18.008 6.14429 17.624 5.62163 17.144C5.09896 16.6533 4.83763 15.9547 4.83763 15.048C4.83763 14.1307 5.13629 13.3787 5.73363 12.792C6.33096 12.1947 7.11496 11.8373 8.08563 11.72V10.936H9.78163V11.752C10.8483 11.9013 11.9096 12.344 12.9656 13.08L11.6536 14.968C10.9816 14.488 10.3576 14.168 9.78163 14.008V16.312C10.9336 16.6107 11.7816 17.0107 12.3256 17.512C12.8803 18.0133 13.1576 18.7227 13.1576 19.64C13.1576 20.5573 12.8483 21.3147 12.2296 21.912C11.6216 22.5093 10.8056 22.8667 9.78163 22.984V24.104H8.08563ZM10.5976 19.768C10.5976 19.544 10.539 19.3573 10.4216 19.208C10.3043 19.0587 10.091 18.92 9.78163 18.792V20.76C10.3256 20.5893 10.5976 20.2587 10.5976 19.768ZM8.08563 13.944C7.62696 14.104 7.39763 14.3973 7.39763 14.824C7.39763 15.2507 7.62696 15.576 8.08563 15.8V13.944ZM14.5179 11.816H19.0459V23H16.6459V13.944H14.5179V11.816ZM26.239 13.704C25.5457 13.704 25.007 13.9387 24.623 14.408C24.2497 14.8667 24.0203 15.496 23.935 16.296C24.6283 15.848 25.3643 15.624 26.143 15.624C27.1883 15.624 28.0577 15.9653 28.751 16.648C29.455 17.3307 29.807 18.2427 29.807 19.384C29.807 20.5147 29.4283 21.4213 28.671 22.104C27.9243 22.7867 26.9803 23.128 25.839 23.128C25.0497 23.128 24.3617 22.9787 23.775 22.68C23.199 22.3707 22.751 21.944 22.431 21.4C21.791 20.344 21.471 19.0213 21.471 17.432C21.471 16.408 21.5937 15.512 21.839 14.744C22.095 13.9653 22.4417 13.352 22.879 12.904C23.7323 12.008 24.7883 11.56 26.047 11.56C26.5697 11.56 27.0657 11.64 27.535 11.8C28.015 11.9493 28.383 12.104 28.639 12.264C28.895 12.424 29.1777 12.6267 29.487 12.872L28.303 14.632C28.239 14.568 28.143 14.4827 28.015 14.376C27.8977 14.2693 27.6577 14.1307 27.295 13.96C26.9323 13.7893 26.5803 13.704 26.239 13.704ZM25.903 17.736C25.4123 17.736 24.9963 17.8853 24.655 18.184C24.3243 18.472 24.159 18.8507 24.159 19.32C24.159 19.7893 24.319 20.1947 24.639 20.536C24.959 20.8667 25.359 21.032 25.839 21.032C26.319 21.032 26.719 20.8827 27.039 20.584C27.359 20.2853 27.519 19.9013 27.519 19.432C27.519 18.952 27.375 18.552 27.087 18.232C26.799 17.9013 26.4043 17.736 25.903 17.736ZM32.0491 22.728C31.7825 22.4507 31.6491 22.1147 31.6491 21.72C31.6491 21.3253 31.7825 20.9947 32.0491 20.728C32.3265 20.4507 32.6625 20.312 33.0571 20.312C33.4518 20.312 33.7825 20.4507 34.0491 20.728C34.3265 20.9947 34.4651 21.3253 34.4651 21.72C34.4651 22.1147 34.3265 22.4507 34.0491 22.728C33.7825 22.9947 33.4518 23.128 33.0571 23.128C32.6625 23.128 32.3265 22.9947 32.0491 22.728ZM40.5345 18.168V16.216H42.9345V18.168H44.1985V20.328H42.9345V23H40.5345V20.328H36.0385V18.424L40.0225 11.816H42.7425L38.9505 18.168H40.5345ZM47.3207 12.44C48.0674 11.8533 48.9954 11.56 50.1048 11.56C51.2141 11.56 52.1368 11.8533 52.8728 12.44C53.6088 13.0267 53.9768 13.752 53.9768 14.616C53.9768 15.4693 53.6461 16.2053 52.9848 16.824C53.9128 17.5387 54.3767 18.4773 54.3767 19.64C54.3767 20.6213 53.9821 21.448 53.1927 22.12C52.4034 22.792 51.3741 23.128 50.1048 23.128C48.8354 23.128 47.8061 22.792 47.0168 22.12C46.2274 21.448 45.8328 20.6213 45.8328 19.64C45.8328 18.4773 46.2968 17.5387 47.2248 16.824C46.5528 16.1947 46.2168 15.4533 46.2168 14.6C46.2168 13.7467 46.5848 13.0267 47.3207 12.44ZM48.8888 20.68C49.2621 20.9253 49.6674 21.048 50.1048 21.048C50.5421 21.048 50.9474 20.9253 51.3208 20.68C51.6941 20.424 51.8808 20.056 51.8808 19.576C51.8808 19.096 51.6994 18.728 51.3368 18.472C50.9741 18.216 50.5634 18.088 50.1048 18.088C49.6461 18.088 49.2354 18.216 48.8728 18.472C48.5101 18.728 48.3288 19.096 48.3288 19.576C48.3288 20.056 48.5154 20.424 48.8888 20.68ZM49.0328 15.784C49.3421 16.04 49.6994 16.168 50.1048 16.168C50.5101 16.168 50.8621 16.04 51.1608 15.784C51.4701 15.528 51.6248 15.2133 51.6248 14.84C51.6248 14.456 51.4754 14.136 51.1768 13.88C50.8781 13.624 50.5208 13.496 50.1048 13.496C49.6888 13.496 49.3314 13.624 49.0328 13.88C48.7341 14.136 48.5848 14.456 48.5848 14.84C48.5848 15.2133 48.7341 15.528 49.0328 15.784Z" fill="#BDBDBD"/>
<path d="M64.8622 24.104V22.936C63.5075 22.7227 62.2595 22.1093 61.1182 21.096L62.6062 19.288C63.4382 20.0133 64.1902 20.4773 64.8622 20.68V18.296C63.7422 18.008 62.9209 17.624 62.3982 17.144C61.8755 16.6533 61.6142 15.9547 61.6142 15.048C61.6142 14.1307 61.9129 13.3787 62.5102 12.792C63.1075 12.1947 63.8915 11.8373 64.8622 11.72V10.936H66.5582V11.752C67.6249 11.9013 68.6862 12.344 69.7422 13.08L68.4302 14.968C67.7582 14.488 67.1342 14.168 66.5582 14.008V16.312C67.7102 16.6107 68.5582 17.0107 69.1022 17.512C69.6569 18.0133 69.9342 18.7227 69.9342 19.64C69.9342 20.5573 69.6249 21.3147 69.0062 21.912C68.3982 22.5093 67.5822 22.8667 66.5582 22.984V24.104H64.8622ZM67.3742 19.768C67.3742 19.544 67.3155 19.3573 67.1982 19.208C67.0809 19.0587 66.8675 18.92 66.5582 18.792V20.76C67.1022 20.5893 67.3742 20.2587 67.3742 19.768ZM64.8622 13.944C64.4035 14.104 64.1742 14.3973 64.1742 14.824C64.1742 15.2507 64.4035 15.576 64.8622 15.8V13.944ZM76.4624 13.704C75.7691 13.704 75.2304 13.9387 74.8464 14.408C74.4731 14.8667 74.2438 15.496 74.1584 16.296C74.8518 15.848 75.5878 15.624 76.3664 15.624C77.4118 15.624 78.2811 15.9653 78.9744 16.648C79.6784 17.3307 80.0304 18.2427 80.0304 19.384C80.0304 20.5147 79.6518 21.4213 78.8944 22.104C78.1478 22.7867 77.2038 23.128 76.0624 23.128C75.2731 23.128 74.5851 22.9787 73.9984 22.68C73.4224 22.3707 72.9744 21.944 72.6544 21.4C72.0144 20.344 71.6944 19.0213 71.6944 17.432C71.6944 16.408 71.8171 15.512 72.0624 14.744C72.3184 13.9653 72.6651 13.352 73.1024 12.904C73.9558 12.008 75.0118 11.56 76.2704 11.56C76.7931 11.56 77.2891 11.64 77.7584 11.8C78.2384 11.9493 78.6064 12.104 78.8624 12.264C79.1184 12.424 79.4011 12.6267 79.7104 12.872L78.5264 14.632C78.4624 14.568 78.3664 14.4827 78.2384 14.376C78.1211 14.2693 77.8811 14.1307 77.5184 13.96C77.1558 13.7893 76.8038 13.704 76.4624 13.704ZM76.1264 17.736C75.6358 17.736 75.2198 17.8853 74.8784 18.184C74.5478 18.472 74.3824 18.8507 74.3824 19.32C74.3824 19.7893 74.5424 20.1947 74.8624 20.536C75.1824 20.8667 75.5824 21.032 76.0624 21.032C76.5424 21.032 76.9424 20.8827 77.2624 20.584C77.5824 20.2853 77.7424 19.9013 77.7424 19.432C77.7424 18.952 77.5984 18.552 77.3104 18.232C77.0224 17.9013 76.6278 17.736 76.1264 17.736ZM82.2726 22.728C82.0059 22.4507 81.8726 22.1147 81.8726 21.72C81.8726 21.3253 82.0059 20.9947 82.2726 20.728C82.5499 20.4507 82.8859 20.312 83.2806 20.312C83.6752 20.312 84.0059 20.4507 84.2726 20.728C84.5499 20.9947 84.6886 21.3253 84.6886 21.72C84.6886 22.1147 84.5499 22.4507 84.2726 22.728C84.0059 22.9947 83.6752 23.128 83.2806 23.128C82.8859 23.128 82.5499 22.9947 82.2726 22.728ZM90.7579 18.168V16.216H93.1579V18.168H94.4219V20.328H93.1579V23H90.7579V20.328H86.2619V18.424L90.2459 11.816H92.9659L89.1739 18.168H90.7579ZM97.5442 12.44C98.2909 11.8533 99.2189 11.56 100.328 11.56C101.438 11.56 102.36 11.8533 103.096 12.44C103.832 13.0267 104.2 13.752 104.2 14.616C104.2 15.4693 103.87 16.2053 103.208 16.824C104.136 17.5387 104.6 18.4773 104.6 19.64C104.6 20.6213 104.206 21.448 103.416 22.12C102.627 22.792 101.598 23.128 100.328 23.128C99.0589 23.128 98.0295 22.792 97.2402 22.12C96.4509 21.448 96.0562 20.6213 96.0562 19.64C96.0562 18.4773 96.5202 17.5387 97.4482 16.824C96.7762 16.1947 96.4402 15.4533 96.4402 14.6C96.4402 13.7467 96.8082 13.0267 97.5442 12.44ZM99.1122 20.68C99.4855 20.9253 99.8909 21.048 100.328 21.048C100.766 21.048 101.171 20.9253 101.544 20.68C101.918 20.424 102.104 20.056 102.104 19.576C102.104 19.096 101.923 18.728 101.56 18.472C101.198 18.216 100.787 18.088 100.328 18.088C99.8695 18.088 99.4589 18.216 99.0962 18.472C98.7335 18.728 98.5522 19.096 98.5522 19.576C98.5522 20.056 98.7389 20.424 99.1122 20.68ZM99.2562 15.784C99.5655 16.04 99.9229 16.168 100.328 16.168C100.734 16.168 101.086 16.04 101.384 15.784C101.694 15.528 101.848 15.2133 101.848 14.84C101.848 14.456 101.699 14.136 101.4 13.88C101.102 13.624 100.744 13.496 100.328 13.496C99.9122 13.496 99.5549 13.624 99.2562 13.88C98.9575 14.136 98.8082 14.456 98.8082 14.84C98.8082 15.2133 98.9575 15.528 99.2562 15.784Z" fill="#23856D"/>
</svg>
