<svg width="16" height="15" viewBox="0 0 16 15" fill="none" xmlns="http://www.w3.org/2000/svg">
<path d="M8.00026 2.74805L7.28326 2.01105C5.60026 0.281049 2.51426 0.878049 1.40026 3.05305C0.877261 4.07605 0.759261 5.55305 1.71426 7.43805C2.63426 9.25305 4.54826 11.427 8.00026 13.795C11.4523 11.427 13.3653 9.25305 14.2863 7.43805C15.2413 5.55205 15.1243 4.07605 14.6003 3.05305C13.4863 0.878049 10.4003 0.280049 8.71726 2.01005L8.00026 2.74805ZM8.00026 15C-7.33274 4.86805 3.27926 -3.03995 7.82426 1.14305C7.88426 1.19805 7.94326 1.25505 8.00026 1.31405C8.05668 1.2551 8.11539 1.19839 8.17626 1.14405C12.7203 -3.04195 23.3333 4.86705 8.00026 15Z" fill="#23A6F0"/>
</svg>
