<svg width="55" height="46" viewBox="0 0 55 46" fill="none" xmlns="http://www.w3.org/2000/svg">
<g clip-path="url(#clip0_1_5041)">
<g clip-path="url(#clip1_1_5041)">
<g clip-path="url(#clip2_1_5041)">
<path d="M23.0003 17.748L22.2833 17.011C20.6003 15.281 17.5143 15.878 16.4003 18.053C15.8773 19.076 15.7593 20.553 16.7143 22.438C17.6343 24.253 19.5483 26.427 23.0003 28.795C26.4523 26.427 28.3653 24.253 29.2863 22.438C30.2413 20.552 30.1243 19.076 29.6003 18.053C28.4863 15.878 25.4003 15.28 23.7173 17.01L23.0003 17.748ZM23.0003 30C7.66726 19.868 18.2793 11.96 22.8243 16.143C22.8843 16.198 22.9433 16.255 23.0003 16.314C23.0567 16.2551 23.1154 16.1984 23.1763 16.144C27.7203 11.958 38.3333 19.867 23.0003 30Z" fill="#23A6F0"/>
</g>
<path d="M36.5632 18.612H39.6112V27H38.2672V19.872H36.5632V18.612Z" fill="#23A6F0"/>
</g>
</g>
<defs>
<clipPath id="clip0_1_5041">
<rect width="56" height="46" fill="white" transform="translate(0.000366211)"/>
</clipPath>
<clipPath id="clip1_1_5041">
<rect width="56" height="46" fill="white" transform="translate(0.000366211)"/>
</clipPath>
<clipPath id="clip2_1_5041">
<rect width="16" height="16" fill="white" transform="translate(15.0004 15)"/>
</clipPath>
</defs>
</svg>
