<svg width="322" height="82" viewBox="0 0 322 82" fill="none" xmlns="http://www.w3.org/2000/svg">
<g filter="url(#filter0_d_1_7189)">
<g clip-path="url(#clip0_1_7189)">
<rect x="4.5" y="2" width="313" height="74" rx="6.72761" fill="white"/>
<rect x="5" y="2.5" width="83" height="73" fill="#F3F3F3"/>
<rect x="5" y="2.5" width="83" height="73" stroke="#BDBDBD"/>
<path d="M33.0104 38.61H37.7144V40.43H33.0104V38.61ZM33.1784 44H30.9104V34.2H38.3164V36.02H33.1784V44ZM39.8978 44V36.468H42.0818V44H39.8978ZM40.9898 35.418C40.5885 35.418 40.2618 35.3013 40.0098 35.068C39.7578 34.8347 39.6318 34.5453 39.6318 34.2C39.6318 33.8547 39.7578 33.5653 40.0098 33.332C40.2618 33.0987 40.5885 32.982 40.9898 32.982C41.3912 32.982 41.7178 33.094 41.9698 33.318C42.2218 33.5327 42.3478 33.8127 42.3478 34.158C42.3478 34.522 42.2218 34.8253 41.9698 35.068C41.7272 35.3013 41.4005 35.418 40.9898 35.418ZM44.3088 44V36.468H46.3948V38.596L46.1008 37.98C46.3248 37.448 46.6841 37.0467 47.1788 36.776C47.6734 36.496 48.2754 36.356 48.9848 36.356V38.372C48.8914 38.3627 48.8074 38.358 48.7328 38.358C48.6581 38.3487 48.5788 38.344 48.4948 38.344C47.8974 38.344 47.4121 38.5167 47.0388 38.862C46.6748 39.198 46.4928 39.7253 46.4928 40.444V44H44.3088ZM53.0721 44.112C52.4281 44.112 51.8074 44.0373 51.2101 43.888C50.6221 43.7293 50.1554 43.5333 49.8101 43.3L50.5381 41.732C50.8834 41.9467 51.2894 42.124 51.7561 42.264C52.2321 42.3947 52.6987 42.46 53.1561 42.46C53.6601 42.46 54.0147 42.3993 54.2201 42.278C54.4347 42.1567 54.5421 41.9887 54.5421 41.774C54.5421 41.5967 54.4581 41.466 54.2901 41.382C54.1314 41.2887 53.9167 41.2187 53.6461 41.172C53.3754 41.1253 53.0767 41.0787 52.7501 41.032C52.4327 40.9853 52.1107 40.9247 51.7841 40.85C51.4574 40.766 51.1587 40.6447 50.8881 40.486C50.6174 40.3273 50.3981 40.1127 50.2301 39.842C50.0714 39.5713 49.9921 39.2213 49.9921 38.792C49.9921 38.316 50.1274 37.896 50.3981 37.532C50.6781 37.168 51.0794 36.8833 51.6021 36.678C52.1247 36.4633 52.7501 36.356 53.4781 36.356C53.9914 36.356 54.5141 36.412 55.0461 36.524C55.5781 36.636 56.0214 36.7993 56.3761 37.014L55.6481 38.568C55.2841 38.3533 54.9154 38.2087 54.5421 38.134C54.1781 38.05 53.8234 38.008 53.4781 38.008C52.9927 38.008 52.6381 38.0733 52.4141 38.204C52.1901 38.3347 52.0781 38.5027 52.0781 38.708C52.0781 38.8947 52.1574 39.0347 52.3161 39.128C52.4841 39.2213 52.7034 39.296 52.9741 39.352C53.2447 39.408 53.5387 39.4593 53.8561 39.506C54.1827 39.5433 54.5094 39.604 54.8361 39.688C55.1627 39.772 55.4567 39.8933 55.7181 40.052C55.9887 40.2013 56.2081 40.4113 56.3761 40.682C56.5441 40.9433 56.6281 41.2887 56.6281 41.718C56.6281 42.1847 56.4881 42.6 56.2081 42.964C55.9281 43.3187 55.5221 43.5987 54.9901 43.804C54.4674 44.0093 53.8281 44.112 53.0721 44.112ZM61.2556 44.112C60.3689 44.112 59.6782 43.888 59.1836 43.44C58.6889 42.9827 58.4416 42.306 58.4416 41.41V34.802H60.6256V41.382C60.6256 41.6993 60.7096 41.9467 60.8776 42.124C61.0456 42.292 61.2742 42.376 61.5636 42.376C61.9089 42.376 62.2029 42.2827 62.4456 42.096L63.0336 43.636C62.8096 43.7947 62.5389 43.916 62.2216 44C61.9136 44.0747 61.5916 44.112 61.2556 44.112ZM57.2796 38.316V36.636H62.5016V38.316H57.2796Z" fill="#BDBDBD"/>
<rect x="89" y="2.5" width="45" height="73" fill="white"/>
<rect x="89" y="2.5" width="45" height="73" stroke="#E9E9E9"/>
<path d="M110.817 44V35.04L111.797 36.02H108.857V34.2H113.085V44H110.817Z" fill="#23A6F0"/>
<rect x="135" y="2.5" width="48" height="73" fill="#23A6F0"/>
<rect x="135" y="2.5" width="48" height="73" stroke="#E9E9E9"/>
<path d="M155.333 44V42.53L159.113 38.96C159.412 38.6893 159.631 38.4467 159.771 38.232C159.911 38.0173 160.004 37.8213 160.051 37.644C160.107 37.4667 160.135 37.3033 160.135 37.154C160.135 36.762 160 36.4633 159.729 36.258C159.468 36.0433 159.08 35.936 158.567 35.936C158.156 35.936 157.774 36.0153 157.419 36.174C157.074 36.3327 156.78 36.58 156.537 36.916L154.885 35.852C155.258 35.292 155.781 34.8487 156.453 34.522C157.125 34.1953 157.9 34.032 158.777 34.032C159.505 34.032 160.14 34.1533 160.681 34.396C161.232 34.6293 161.656 34.9607 161.955 35.39C162.263 35.8193 162.417 36.3327 162.417 36.93C162.417 37.2473 162.375 37.5647 162.291 37.882C162.216 38.19 162.058 38.5167 161.815 38.862C161.582 39.2073 161.236 39.5947 160.779 40.024L157.643 42.978L157.209 42.152H162.739V44H155.333Z" fill="white"/>
<rect x="184" y="2.5" width="48" height="73" fill="white"/>
<rect x="184" y="2.5" width="48" height="73" stroke="#E9E9E9"/>
<path d="M207.581 44.168C206.9 44.168 206.223 44.0793 205.551 43.902C204.879 43.7153 204.31 43.454 203.843 43.118L204.725 41.382C205.099 41.6527 205.533 41.8673 206.027 42.026C206.522 42.1847 207.021 42.264 207.525 42.264C208.095 42.264 208.543 42.152 208.869 41.928C209.196 41.704 209.359 41.396 209.359 41.004C209.359 40.6307 209.215 40.3367 208.925 40.122C208.636 39.9073 208.169 39.8 207.525 39.8H206.489V38.302L209.219 35.208L209.471 36.02H204.333V34.2H211.193V35.67L208.477 38.764L207.329 38.106H207.987C209.191 38.106 210.101 38.3767 210.717 38.918C211.333 39.4593 211.641 40.1547 211.641 41.004C211.641 41.5547 211.497 42.0727 211.207 42.558C210.918 43.034 210.475 43.4213 209.877 43.72C209.28 44.0187 208.515 44.168 207.581 44.168Z" fill="#23A6F0"/>
<rect x="233" y="2.5" width="84" height="73" fill="white"/>
<rect x="233" y="2.5" width="84" height="73" stroke="#E8E8E8"/>
<path d="M258.69 44V34.2H260.566L266.348 41.256H265.438V34.2H267.678V44H265.816L260.02 36.944H260.93V44H258.69ZM273.781 44.112C272.922 44.112 272.166 43.944 271.513 43.608C270.869 43.272 270.369 42.8147 270.015 42.236C269.66 41.648 269.483 40.9807 269.483 40.234C269.483 39.478 269.655 38.8107 270.001 38.232C270.355 37.644 270.836 37.1867 271.443 36.86C272.049 36.524 272.735 36.356 273.501 36.356C274.238 36.356 274.901 36.5147 275.489 36.832C276.086 37.14 276.557 37.588 276.903 38.176C277.248 38.7547 277.421 39.45 277.421 40.262C277.421 40.346 277.416 40.444 277.407 40.556C277.397 40.6587 277.388 40.7567 277.379 40.85H271.261V39.576H276.231L275.391 39.954C275.391 39.562 275.311 39.2213 275.153 38.932C274.994 38.6427 274.775 38.4187 274.495 38.26C274.215 38.092 273.888 38.008 273.515 38.008C273.141 38.008 272.81 38.092 272.521 38.26C272.241 38.4187 272.021 38.6473 271.863 38.946C271.704 39.2353 271.625 39.5807 271.625 39.982V40.318C271.625 40.7287 271.713 41.0927 271.891 41.41C272.077 41.718 272.334 41.956 272.661 42.124C272.997 42.2827 273.389 42.362 273.837 42.362C274.238 42.362 274.588 42.3013 274.887 42.18C275.195 42.0587 275.475 41.8767 275.727 41.634L276.889 42.894C276.543 43.286 276.109 43.5893 275.587 43.804C275.064 44.0093 274.462 44.112 273.781 44.112ZM277.918 44L281.292 39.576L281.25 40.78L278.016 36.468H280.466L282.51 39.282L281.586 39.31L283.7 36.468H286.024L282.776 40.738V39.562L286.136 44H283.658L281.516 41.004L282.426 41.13L280.298 44H277.918ZM290.476 44.112C289.589 44.112 288.899 43.888 288.404 43.44C287.909 42.9827 287.662 42.306 287.662 41.41V34.802H289.846V41.382C289.846 41.6993 289.93 41.9467 290.098 42.124C290.266 42.292 290.495 42.376 290.784 42.376C291.129 42.376 291.423 42.2827 291.666 42.096L292.254 43.636C292.03 43.7947 291.759 43.916 291.442 44C291.134 44.0747 290.812 44.112 290.476 44.112ZM286.5 38.316V36.636H291.722V38.316H286.5Z" fill="#23A6F0"/>
</g>
<rect x="5.17276" y="2.67276" width="311.654" height="72.6545" rx="6.05484" stroke="#BDBDBD" stroke-width="1.34552"/>
</g>
<defs>
<filter id="filter0_d_1_7189" x="0.5" y="0" width="321" height="82" filterUnits="userSpaceOnUse" color-interpolation-filters="sRGB">
<feFlood flood-opacity="0" result="BackgroundImageFix"/>
<feColorMatrix in="SourceAlpha" type="matrix" values="0 0 0 0 0 0 0 0 0 0 0 0 0 0 0 0 0 0 127 0" result="hardAlpha"/>
<feOffset dy="2"/>
<feGaussianBlur stdDeviation="2"/>
<feColorMatrix type="matrix" values="0 0 0 0 0 0 0 0 0 0 0 0 0 0 0 0 0 0 0.1 0"/>
<feBlend mode="normal" in2="BackgroundImageFix" result="effect1_dropShadow_1_7189"/>
<feBlend mode="normal" in="SourceGraphic" in2="effect1_dropShadow_1_7189" result="shape"/>
</filter>
<clipPath id="clip0_1_7189">
<rect x="4.5" y="2" width="313" height="74" rx="6.72761" fill="white"/>
</clipPath>
</defs>
</svg>
