<svg width="113" height="24" viewBox="0 0 113 24" fill="none" xmlns="http://www.w3.org/2000/svg">
<g clip-path="url(#clip0_1_5292)">
<g clip-path="url(#clip1_1_5292)">
<path fill-rule="evenodd" clip-rule="evenodd" d="M24 11.5704C24 5.1801 18.8515 0 12.5014 0C6.14848 0.00143732 1 5.1801 1 11.5719C1 17.3456 5.2056 22.1319 10.7019 23V14.9151H7.78415V11.5719H10.7048V9.02062C10.7048 6.12155 12.4224 4.52037 15.0484 4.52037C16.3075 4.52037 17.6226 4.74603 17.6226 4.74603V7.59193H16.1724C14.7451 7.59193 14.2995 8.4845 14.2995 9.40008V11.5704H17.4875L16.9787 14.9136H14.2981V22.9986C19.7944 22.1304 24 17.3441 24 11.5704Z" fill="#23A6F0"/>
</g>
<g clip-path="url(#clip2_1_5292)">
<path d="M57 1C54.0149 1 53.6395 1.01375 52.4666 1.066C51.2938 1.121 50.4949 1.30525 49.795 1.5775C49.0609 1.85363 48.3959 2.28676 47.8466 2.84663C47.2871 3.39621 46.854 4.06108 46.5775 4.795C46.3052 5.4935 46.1196 6.29375 46.066 7.4625C46.0138 8.63812 46 9.01213 46 12.0014C46 14.9879 46.0138 15.3619 46.066 16.5347C46.121 17.7063 46.3052 18.5051 46.5775 19.205C46.8594 19.9282 47.2348 20.5415 47.8466 21.1534C48.4571 21.7652 49.0704 22.142 49.7936 22.4225C50.4949 22.6947 51.2924 22.8804 52.4639 22.934C53.6381 22.9862 54.0121 23 57 23C59.9879 23 60.3605 22.9862 61.5347 22.934C62.7049 22.879 63.5065 22.6947 64.2064 22.4225C64.94 22.1462 65.6045 21.7131 66.1534 21.1534C66.7652 20.5415 67.1406 19.9282 67.4225 19.205C67.6934 18.5051 67.879 17.7063 67.934 16.5347C67.9862 15.3619 68 14.9879 68 12C68 9.01213 67.9862 8.63813 67.934 7.46388C67.879 6.29375 67.6934 5.4935 67.4225 4.795C67.146 4.06106 66.7129 3.39618 66.1534 2.84663C65.6042 2.28655 64.9392 1.85339 64.205 1.5775C63.5037 1.30525 62.7035 1.11963 61.5334 1.066C60.3591 1.01375 59.9865 1 56.9973 1H57.0014H57ZM56.0141 2.98275H57.0014C59.9384 2.98275 60.2863 2.99238 61.4454 3.046C62.5179 3.09413 63.1009 3.27425 63.4886 3.42412C64.0015 3.6235 64.3686 3.86275 64.7536 4.24775C65.1386 4.63275 65.3765 4.9985 65.5759 5.51275C65.7271 5.89913 65.9059 6.48213 65.954 7.55463C66.0076 8.71375 66.0186 9.06163 66.0186 11.9973C66.0186 14.9329 66.0076 15.2821 65.954 16.4412C65.9059 17.5138 65.7257 18.0954 65.5759 18.4831C65.3995 18.9607 65.118 19.3926 64.7522 19.7467C64.3672 20.1318 64.0015 20.3696 63.4873 20.569C63.1023 20.7203 62.5192 20.899 61.4454 20.9485C60.2863 21.0007 59.9384 21.0131 57.0014 21.0131C54.0644 21.0131 53.7151 21.0007 52.556 20.9485C51.4835 20.899 50.9019 20.7203 50.5141 20.569C50.0363 20.3929 49.604 20.1119 49.2491 19.7467C48.883 19.392 48.6011 18.9598 48.4241 18.4818C48.2743 18.0954 48.0941 17.5124 48.046 16.4399C47.9938 15.2808 47.9828 14.9329 47.9828 11.9945C47.9828 9.0575 47.9938 8.711 48.046 7.55187C48.0955 6.47937 48.2743 5.89638 48.4255 5.50863C48.6249 4.99575 48.8641 4.62862 49.2491 4.24362C49.6341 3.85862 49.9999 3.62075 50.5141 3.42138C50.9019 3.27013 51.4835 3.09138 52.556 3.04188C53.5708 2.99513 53.964 2.98138 56.0141 2.98V2.98275ZM62.8726 4.80875C62.6993 4.80875 62.5276 4.84289 62.3675 4.90923C62.2073 4.97557 62.0618 5.0728 61.9392 5.19537C61.8167 5.31794 61.7194 5.46346 61.6531 5.62361C61.5868 5.78376 61.5526 5.95541 61.5526 6.12875C61.5526 6.30209 61.5868 6.47374 61.6531 6.63389C61.7194 6.79404 61.8167 6.93956 61.9392 7.06213C62.0618 7.1847 62.2073 7.28193 62.3675 7.34827C62.5276 7.41461 62.6993 7.44875 62.8726 7.44875C63.2227 7.44875 63.5585 7.30968 63.806 7.06213C64.0536 6.81458 64.1926 6.47884 64.1926 6.12875C64.1926 5.77866 64.0536 5.44292 63.806 5.19537C63.5585 4.94782 63.2227 4.80875 62.8726 4.80875ZM57.0014 6.3515C56.2521 6.33981 55.508 6.47729 54.8123 6.75594C54.1167 7.0346 53.4835 7.44885 52.9495 7.97458C52.4155 8.50032 51.9914 9.12703 51.7019 9.81823C51.4124 10.5094 51.2634 11.2513 51.2634 12.0007C51.2634 12.7501 51.4124 13.4919 51.7019 14.1831C51.9914 14.8743 52.4155 15.5011 52.9495 16.0268C53.4835 16.5525 54.1167 16.9668 54.8123 17.2454C55.508 17.5241 56.2521 17.6616 57.0014 17.6499C58.4844 17.6267 59.8988 17.0214 60.9393 15.9645C61.9799 14.9076 62.5631 13.4839 62.5631 12.0007C62.5631 10.5175 61.9799 9.09382 60.9393 8.03691C59.8988 6.97999 58.4844 6.37464 57.0014 6.3515ZM57.0014 8.33288C57.974 8.33288 58.9067 8.71923 59.5944 9.40695C60.2821 10.0947 60.6685 11.0274 60.6685 12C60.6685 12.9726 60.2821 13.9053 59.5944 14.593C58.9067 15.2808 57.974 15.6671 57.0014 15.6671C56.0288 15.6671 55.096 15.2808 54.4083 14.593C53.7206 13.9053 53.3342 12.9726 53.3342 12C53.3342 11.0274 53.7206 10.0947 54.4083 9.40695C55.096 8.71923 56.0288 8.33288 57.0014 8.33288Z" fill="#23A6F0"/>
</g>
<g clip-path="url(#clip3_1_5292)">
<path d="M96.9107 21C105.213 21 109.755 14.0731 109.755 8.07669C109.755 7.88285 109.755 7.68625 109.746 7.49241C110.631 6.84789 111.394 6.04993 112 5.13592C111.174 5.50262 110.299 5.7443 109.403 5.85312C110.347 5.28495 111.054 4.391 111.392 3.3374C110.505 3.86647 109.535 4.23787 108.523 4.43534C107.842 3.70572 106.942 3.22237 105.961 3.06016C104.98 2.89795 103.974 3.06592 103.097 3.53807C102.221 4.01023 101.524 4.7602 101.113 5.67182C100.703 6.58345 100.603 7.60585 100.828 8.58066C99.0334 8.49005 97.2776 8.02057 95.6747 7.20269C94.0717 6.3848 92.6574 5.23678 91.5235 3.83307C90.9478 4.83421 90.7722 6.01843 91.0321 7.14526C91.2921 8.27209 91.9683 9.25705 92.9232 9.90013C92.2076 9.87565 91.5077 9.68215 90.88 9.33524V9.39754C90.8812 10.4463 91.242 11.4625 91.9015 12.2743C92.5609 13.0861 93.4784 13.6438 94.499 13.853C94.1116 13.9605 93.7114 14.014 93.3096 14.0122C93.0264 14.0131 92.7436 13.9867 92.4654 13.9333C92.7538 14.8361 93.3155 15.6254 94.0717 16.1908C94.8279 16.7561 95.7408 17.0691 96.6825 17.0859C95.0828 18.3511 93.1067 19.0373 91.0725 19.034C90.7141 19.0355 90.3559 19.0147 90 18.9716C92.0646 20.297 94.4623 21.0008 96.9107 21Z" fill="#23A6F0"/>
</g>
</g>
<defs>
<clipPath id="clip0_1_5292">
<rect width="112" height="24" fill="white" transform="translate(0.5)"/>
</clipPath>
<clipPath id="clip1_1_5292">
<rect width="24" height="24" fill="white" transform="translate(0.5)"/>
</clipPath>
<clipPath id="clip2_1_5292">
<rect width="24" height="24" fill="white" transform="translate(44.5)"/>
</clipPath>
<clipPath id="clip3_1_5292">
<rect width="24" height="19.7647" fill="white" transform="translate(88.5 2.11768)"/>
</clipPath>
</defs>
</svg>
