<svg width="242" height="50" viewBox="0 0 242 50" fill="none" xmlns="http://www.w3.org/2000/svg">
<g clip-path="url(#clip0_232_715)">
<path d="M40 12.9828C38.8766 13.4804 37.685 13.8071 36.4649 13.9519C37.7358 13.1902 38.7116 11.984 39.1711 10.5468C37.963 11.2637 36.6412 11.7689 35.2628 12.0404C34.14 10.8442 32.5405 10.0967 30.7702 10.0967C27.3711 10.0967 24.6152 12.8525 24.6152 16.2514C24.6152 16.7338 24.6696 17.2035 24.7745 17.6541C19.6593 17.3973 15.1241 14.9471 12.0884 11.2233C11.5587 12.1323 11.2552 13.1897 11.2552 14.3175C11.2552 16.4529 12.3419 18.3367 13.9933 19.4405C13.0159 19.4099 12.06 19.1459 11.2054 18.6706C11.205 18.6964 11.205 18.7221 11.205 18.748C11.205 21.7301 13.3266 24.2178 16.1421 24.7832C15.2358 25.0297 14.2851 25.0658 13.3627 24.8887C14.1459 27.3339 16.4189 29.1133 19.1121 29.1631C17.0057 30.8138 14.3518 31.7978 11.4682 31.7978C10.9714 31.7978 10.4815 31.7686 10 31.7118C12.7238 33.4581 15.959 34.4771 19.4348 34.4771C30.7559 34.4771 36.9466 25.0984 36.9466 16.9652C36.9466 16.6982 36.9407 16.4328 36.9288 16.1689C38.1337 15.2978 39.1737 14.2189 40 12.9828Z" fill="#252B42"/>
</g>
<g clip-path="url(#clip1_232_715)">
<path d="M102.344 40.0001C103.259 40.0001 104 39.2588 104 38.3444V11.6557C104 10.7412 103.259 10 102.344 10H75.6557C74.7411 10 74 10.7412 74 11.6557V38.3444C74 39.2588 74.7411 40.0001 75.6557 40.0001H102.344Z" fill="#252B42"/>
<path d="M94.6993 40.0003V28.3827H98.5989L99.1828 23.8552H94.6993V20.9644C94.6993 19.6535 95.0634 18.7602 96.9432 18.7602L99.3407 18.7591V14.7097C98.9259 14.6545 97.5028 14.5312 95.8471 14.5312C92.3903 14.5312 90.0239 16.6412 90.0239 20.5161V23.8552H86.1143V28.3827H90.0239V40.0003H94.6993Z" fill="white"/>
</g>
<g clip-path="url(#clip2_232_715)">
<path d="M153 17.3084C148.744 17.3084 145.309 20.7434 145.309 24.9996C145.309 29.2559 148.744 32.6909 153 32.6909C157.256 32.6909 160.691 29.2559 160.691 24.9996C160.691 20.7434 157.256 17.3084 153 17.3084ZM153 29.9984C150.247 29.9984 148.001 27.7521 148.001 24.9996C148.001 22.2471 150.247 20.0009 153 20.0009C155.752 20.0009 157.999 22.2471 157.999 24.9996C157.999 27.7521 155.752 29.9984 153 29.9984ZM161.006 15.2009C160.012 15.2009 159.21 16.0034 159.21 16.9971C159.21 17.9909 160.012 18.7934 161.006 18.7934C162 18.7934 162.802 17.9946 162.802 16.9971C162.803 16.7612 162.756 16.5275 162.666 16.3094C162.576 16.0913 162.444 15.8932 162.277 15.7263C162.11 15.5595 161.912 15.4272 161.694 15.337C161.476 15.2468 161.242 15.2006 161.006 15.2009ZM167.992 24.9996C167.992 22.9296 168.011 20.8784 167.895 18.8121C167.779 16.4121 167.231 14.2821 165.476 12.5271C163.717 10.7684 161.591 10.2246 159.191 10.1084C157.121 9.99213 155.07 10.0109 153.004 10.0109C150.934 10.0109 148.882 9.99213 146.816 10.1084C144.416 10.2246 142.286 10.7721 140.531 12.5271C138.772 14.2859 138.229 16.4121 138.112 18.8121C137.996 20.8821 138.015 22.9334 138.015 24.9996C138.015 27.0659 137.996 29.1209 138.112 31.1871C138.229 33.5871 138.776 35.7171 140.531 37.4721C142.29 39.2309 144.416 39.7746 146.816 39.8909C148.886 40.0071 150.937 39.9884 153.004 39.9884C155.074 39.9884 157.125 40.0071 159.191 39.8909C161.591 39.7746 163.721 39.2271 165.476 37.4721C167.235 35.7134 167.779 33.5871 167.895 31.1871C168.015 29.1209 167.992 27.0696 167.992 24.9996ZM164.692 33.8421C164.419 34.5246 164.089 35.0346 163.56 35.5596C163.031 36.0884 162.525 36.4184 161.842 36.6921C159.87 37.4759 155.186 37.2996 153 37.2996C150.814 37.2996 146.126 37.4759 144.154 36.6959C143.471 36.4221 142.961 36.0921 142.436 35.5634C141.907 35.0346 141.577 34.5284 141.304 33.8459C140.524 31.8696 140.7 27.1859 140.7 24.9996C140.7 22.8134 140.524 18.1259 141.304 16.1534C141.577 15.4709 141.907 14.9609 142.436 14.4359C142.965 13.9109 143.471 13.5771 144.154 13.3034C146.126 12.5234 150.814 12.6996 153 12.6996C155.186 12.6996 159.874 12.5234 161.846 13.3034C162.529 13.5771 163.039 13.9071 163.564 14.4359C164.092 14.9646 164.422 15.4709 164.696 16.1534C165.476 18.1259 165.3 22.8134 165.3 24.9996C165.3 27.1859 165.476 31.8696 164.692 33.8421Z" fill="#252B42"/>
</g>
<g clip-path="url(#clip3_232_715)">
<path d="M227.578 35.4624H223.15V28.5282C223.15 26.8747 223.121 24.7461 220.848 24.7461C218.541 24.7461 218.189 26.5477 218.189 28.4078V35.4619H213.761V21.2024H218.011V23.1512H218.071C218.496 22.4238 219.111 21.8254 219.85 21.4198C220.588 21.0142 221.423 20.8165 222.265 20.8477C226.753 20.8477 227.58 23.7996 227.58 27.6398L227.578 35.4624ZM208.765 19.2534C207.346 19.2536 206.195 18.1033 206.195 16.6842C206.195 15.2651 207.345 14.1145 208.764 14.1143C210.183 14.1139 211.334 15.2642 211.334 16.6833C211.334 17.3648 211.063 18.0184 210.582 18.5004C210.1 18.9824 209.446 19.2532 208.765 19.2534ZM210.979 35.4625H206.546V21.2024H210.979V35.4624L210.979 35.4625ZM229.786 10.0022H204.321C203.118 9.98863 202.131 10.9527 202.116 12.1562V37.7266C202.13 38.9307 203.117 39.8957 204.321 39.8831H229.786C230.992 39.898 231.983 38.933 231.999 37.7266V12.1542C231.982 10.9484 230.992 9.98443 229.786 10.0002" fill="#252B42"/>
</g>
<defs>
<clipPath id="clip0_232_715">
<rect width="30" height="24.4922" fill="white" transform="translate(10 10)"/>
</clipPath>
<clipPath id="clip1_232_715">
<rect width="30" height="30.0001" fill="white" transform="translate(74 10)"/>
</clipPath>
<clipPath id="clip2_232_715">
<rect width="30" height="30" fill="white" transform="translate(138 10)"/>
</clipPath>
<clipPath id="clip3_232_715">
<rect width="30" height="29.8833" fill="white" transform="translate(202 10)"/>
</clipPath>
</defs>
</svg>
