<svg width="233" height="46" viewBox="0 0 233 46" fill="none" xmlns="http://www.w3.org/2000/svg">
<path d="M17.924 17.214V19.132H13.388V21.246H17.7V23.164H13.388V27H11.204V17.214H17.924ZM21.2959 23.234C21.2959 23.85 21.4685 24.354 21.8139 24.746C22.1685 25.1287 22.6165 25.32 23.1579 25.32C23.7085 25.32 24.1565 25.1287 24.5019 24.746C24.8565 24.354 25.0339 23.85 25.0339 23.234C25.0339 22.618 24.8565 22.114 24.5019 21.722C24.1565 21.33 23.7085 21.134 23.1579 21.134C22.6165 21.134 22.1685 21.33 21.8139 21.722C21.4685 22.114 21.2959 22.618 21.2959 23.234ZM27.1479 23.234C27.1479 24.326 26.7699 25.2453 26.0139 25.992C25.2579 26.7387 24.3059 27.112 23.1579 27.112C22.0192 27.112 21.0719 26.7387 20.3159 25.992C19.5599 25.2453 19.1819 24.326 19.1819 23.234C19.1819 22.142 19.5599 21.2227 20.3159 20.476C21.0719 19.72 22.0192 19.342 23.1579 19.342C24.3059 19.342 25.2579 19.72 26.0139 20.476C26.7699 21.2227 27.1479 22.142 27.1479 23.234ZM31.0077 27H28.9077V16.612H31.0077V27ZM35.2956 27H33.1956V16.612H35.2956V27ZM39.1635 23.234C39.1635 23.85 39.3361 24.354 39.6815 24.746C40.0361 25.1287 40.4841 25.32 41.0255 25.32C41.5761 25.32 42.0241 25.1287 42.3695 24.746C42.7241 24.354 42.9015 23.85 42.9015 23.234C42.9015 22.618 42.7241 22.114 42.3695 21.722C42.0241 21.33 41.5761 21.134 41.0255 21.134C40.4841 21.134 40.0361 21.33 39.6815 21.722C39.3361 22.114 39.1635 22.618 39.1635 23.234ZM45.0155 23.234C45.0155 24.326 44.6375 25.2453 43.8815 25.992C43.1255 26.7387 42.1735 27.112 41.0255 27.112C39.8868 27.112 38.9395 26.7387 38.1835 25.992C37.4275 25.2453 37.0495 24.326 37.0495 23.234C37.0495 22.142 37.4275 21.2227 38.1835 20.476C38.9395 19.72 39.8868 19.342 41.0255 19.342C42.1735 19.342 43.1255 19.72 43.8815 20.476C44.6375 21.2227 45.0155 22.142 45.0155 23.234ZM50.5585 27H48.3885L45.8265 19.468H47.9965L49.4665 24.018L50.9365 19.468H52.9665L54.4365 24.018L55.9065 19.468H58.0905L55.5285 27H53.3445L51.9585 22.898L50.5585 27ZM66.1628 24.48C66.5268 24.928 67.0168 25.152 67.6328 25.152C68.2488 25.152 68.7341 24.928 69.0888 24.48C69.4528 24.0227 69.6348 23.402 69.6348 22.618V17.214H71.8188V22.688C71.8188 24.1067 71.4268 25.1987 70.6428 25.964C69.8588 26.72 68.8554 27.098 67.6328 27.098C66.4101 27.098 65.4021 26.7153 64.6088 25.95C63.8248 25.1847 63.4328 24.0973 63.4328 22.688V17.214H65.6168V22.618C65.6168 23.402 65.7988 24.0227 66.1628 24.48ZM79.555 24.662C79.555 25.3993 79.2797 25.992 78.729 26.44C78.1877 26.888 77.497 27.112 76.657 27.112C76.097 27.112 75.5137 27.014 74.907 26.818C74.3003 26.6127 73.7543 26.314 73.269 25.922L74.193 24.606C74.977 25.2127 75.8123 25.516 76.699 25.516C76.9697 25.516 77.1843 25.4647 77.343 25.362C77.5017 25.25 77.581 25.1053 77.581 24.928C77.581 24.7507 77.469 24.5873 77.245 24.438C77.0303 24.2887 76.713 24.1487 76.293 24.018C75.8823 23.8873 75.565 23.7753 75.341 23.682C75.1263 23.5887 74.879 23.4533 74.599 23.276C74.0297 22.9213 73.745 22.3987 73.745 21.708C73.745 21.008 74.025 20.4387 74.585 20C75.145 19.5613 75.8683 19.342 76.755 19.342C77.6417 19.342 78.5283 19.6407 79.415 20.238L78.631 21.638C77.9777 21.19 77.3243 20.966 76.671 20.966C76.027 20.966 75.705 21.1433 75.705 21.498C75.705 21.694 75.8077 21.848 76.013 21.96C76.2183 22.072 76.559 22.2027 77.035 22.352C77.511 22.5013 77.847 22.618 78.043 22.702C78.2483 22.7767 78.491 22.898 78.771 23.066C79.2937 23.3833 79.555 23.9153 79.555 24.662ZM89.4353 26.762C89.2019 26.5193 89.0853 26.2253 89.0853 25.88C89.0853 25.5347 89.2019 25.2453 89.4353 25.012C89.6779 24.7693 89.9719 24.648 90.3173 24.648C90.6626 24.648 90.9519 24.7693 91.1853 25.012C91.4279 25.2453 91.5493 25.5347 91.5493 25.88C91.5493 26.2253 91.4279 26.5193 91.1853 26.762C90.9519 26.9953 90.6626 27.112 90.3173 27.112C89.9719 27.112 89.6779 26.9953 89.4353 26.762ZM89.4353 23.08C89.2019 22.8373 89.0853 22.5433 89.0853 22.198C89.0853 21.8527 89.2019 21.5633 89.4353 21.33C89.6779 21.0873 89.9719 20.966 90.3173 20.966C90.6626 20.966 90.9519 21.0873 91.1853 21.33C91.4279 21.5633 91.5493 21.8527 91.5493 22.198C91.5493 22.5433 91.4279 22.8373 91.1853 23.08C90.9519 23.3133 90.6626 23.43 90.3173 23.43C89.9719 23.43 89.6779 23.3133 89.4353 23.08Z" fill="white"/>
<g clip-path="url(#clip0_1_4941)">
<path d="M116 15C113.829 15 113.556 15.01 112.703 15.048C111.85 15.088 111.269 15.222 110.76 15.42C110.226 15.6208 109.742 15.9358 109.343 16.343C108.936 16.7427 108.621 17.2262 108.42 17.76C108.222 18.268 108.087 18.85 108.048 19.7C108.01 20.555 108 20.827 108 23.001C108 25.173 108.01 25.445 108.048 26.298C108.088 27.15 108.222 27.731 108.42 28.24C108.625 28.766 108.898 29.212 109.343 29.657C109.787 30.102 110.233 30.376 110.759 30.58C111.269 30.778 111.849 30.913 112.701 30.952C113.555 30.99 113.827 31 116 31C118.173 31 118.444 30.99 119.298 30.952C120.149 30.912 120.732 30.778 121.241 30.58C121.775 30.3791 122.258 30.0641 122.657 29.657C123.102 29.212 123.375 28.766 123.58 28.24C123.777 27.731 123.912 27.15 123.952 26.298C123.99 25.445 124 25.173 124 23C124 20.827 123.99 20.555 123.952 19.701C123.912 18.85 123.777 18.268 123.58 17.76C123.379 17.2262 123.064 16.7427 122.657 16.343C122.258 15.9357 121.774 15.6206 121.24 15.42C120.73 15.222 120.148 15.087 119.297 15.048C118.443 15.01 118.172 15 115.998 15H116.001H116ZM115.283 16.442H116.001C118.137 16.442 118.39 16.449 119.233 16.488C120.013 16.523 120.437 16.654 120.719 16.763C121.092 16.908 121.359 17.082 121.639 17.362C121.919 17.642 122.092 17.908 122.237 18.282C122.347 18.563 122.477 18.987 122.512 19.767C122.551 20.61 122.559 20.863 122.559 22.998C122.559 25.133 122.551 25.387 122.512 26.23C122.477 27.01 122.346 27.433 122.237 27.715C122.109 28.0624 121.904 28.3764 121.638 28.634C121.358 28.914 121.092 29.087 120.718 29.232C120.438 29.342 120.014 29.472 119.233 29.508C118.39 29.546 118.137 29.555 116.001 29.555C113.865 29.555 113.611 29.546 112.768 29.508C111.988 29.472 111.565 29.342 111.283 29.232C110.935 29.1039 110.621 28.8996 110.363 28.634C110.097 28.376 109.892 28.0617 109.763 27.714C109.654 27.433 109.523 27.009 109.488 26.229C109.45 25.386 109.442 25.133 109.442 22.996C109.442 20.86 109.45 20.608 109.488 19.765C109.524 18.985 109.654 18.561 109.764 18.279C109.909 17.906 110.083 17.639 110.363 17.359C110.643 17.079 110.909 16.906 111.283 16.761C111.565 16.651 111.988 16.521 112.768 16.485C113.506 16.451 113.792 16.441 115.283 16.44V16.442ZM120.271 17.77C120.145 17.77 120.02 17.7948 119.904 17.8431C119.787 17.8913 119.681 17.962 119.592 18.0512C119.503 18.1403 119.432 18.2462 119.384 18.3626C119.336 18.4791 119.311 18.6039 119.311 18.73C119.311 18.8561 119.336 18.9809 119.384 19.0974C119.432 19.2138 119.503 19.3197 119.592 19.4088C119.681 19.498 119.787 19.5687 119.904 19.6169C120.02 19.6652 120.145 19.69 120.271 19.69C120.526 19.69 120.77 19.5889 120.95 19.4088C121.13 19.2288 121.231 18.9846 121.231 18.73C121.231 18.4754 121.13 18.2312 120.95 18.0512C120.77 17.8711 120.526 17.77 120.271 17.77ZM116.001 18.892C115.456 18.8835 114.915 18.9835 114.409 19.1861C113.903 19.3888 113.443 19.6901 113.054 20.0724C112.666 20.4548 112.357 20.9106 112.147 21.4133C111.936 21.916 111.828 22.4555 111.828 23.0005C111.828 23.5455 111.936 24.085 112.147 24.5877C112.357 25.0904 112.666 25.5462 113.054 25.9286C113.443 26.3109 113.903 26.6122 114.409 26.8149C114.915 27.0175 115.456 27.1175 116.001 27.109C117.08 27.0922 118.108 26.6519 118.865 25.8833C119.622 25.1146 120.046 24.0792 120.046 23.0005C120.046 21.9218 119.622 20.8864 118.865 20.1177C118.108 19.3491 117.08 18.9088 116.001 18.892ZM116.001 20.333C116.708 20.333 117.387 20.614 117.887 21.1141C118.387 21.6143 118.668 22.2927 118.668 23C118.668 23.7073 118.387 24.3857 117.887 24.8859C117.387 25.386 116.708 25.667 116.001 25.667C115.294 25.667 114.615 25.386 114.115 24.8859C113.615 24.3857 113.334 23.7073 113.334 23C113.334 22.2927 113.615 21.6143 114.115 21.1141C114.615 20.614 115.294 20.333 116.001 20.333Z" fill="white"/>
<g clip-path="url(#clip1_1_4941)">
<path d="M148.051 16.999H148.14C148.962 17.002 153.127 17.032 154.25 17.334C154.589 17.4262 154.899 17.6058 155.147 17.855C155.395 18.1042 155.574 18.4142 155.665 18.754C155.766 19.134 155.837 19.637 155.885 20.156L155.895 20.26L155.917 20.52L155.925 20.624C155.99 21.538 155.998 22.394 155.999 22.581V22.656C155.998 22.85 155.989 23.764 155.917 24.716L155.909 24.821L155.9 24.925C155.85 25.497 155.776 26.065 155.665 26.483C155.574 26.823 155.396 27.1331 155.147 27.3823C154.899 27.6316 154.59 27.8111 154.25 27.903C153.09 28.215 148.681 28.237 148.07 28.238H147.928C147.619 28.238 146.341 28.232 145.001 28.186L144.831 28.18L144.744 28.176L144.573 28.169L144.402 28.162C143.292 28.113 142.235 28.034 141.748 27.902C141.408 27.8102 141.099 27.6308 140.851 27.3818C140.602 27.1327 140.424 26.8228 140.333 26.483C140.222 26.066 140.148 25.497 140.098 24.925L140.09 24.82L140.082 24.716C140.033 24.0384 140.005 23.3594 140 22.68V22.557C140.002 22.342 140.01 21.599 140.064 20.779L140.071 20.676L140.074 20.624L140.082 20.52L140.104 20.26L140.114 20.156C140.162 19.637 140.233 19.133 140.334 18.754C140.425 18.4141 140.603 18.1039 140.852 17.8547C141.1 17.6055 141.409 17.4259 141.749 17.334C142.236 17.204 143.293 17.124 144.403 17.074L144.573 17.067L144.745 17.061L144.831 17.058L145.002 17.051C145.954 17.0204 146.906 17.0034 147.858 17H148.051V16.999ZM146.4 20.209V25.027L150.557 22.619L146.4 20.209Z" fill="white"/>
</g>
<g clip-path="url(#clip2_1_4941)">
<path d="M185.002 23.05C185.002 18.604 181.42 15 177.002 15C172.582 15.001 169 18.604 169 23.051C169 27.068 171.926 30.398 175.75 31.002V25.377H173.72V23.051H175.752V21.276C175.752 19.259 176.947 18.145 178.774 18.145C179.65 18.145 180.565 18.302 180.565 18.302V20.282H179.556C178.563 20.282 178.253 20.903 178.253 21.54V23.05H180.471L180.117 25.376H178.252V31.001C182.076 30.397 185.002 27.067 185.002 23.05Z" fill="white"/>
</g>
<g clip-path="url(#clip3_1_4941)">
<path d="M206.026 29.0007C212.064 29.0007 215.367 23.9977 215.367 19.6667C215.367 19.5267 215.367 19.3847 215.361 19.2447C216.004 18.7792 216.559 18.2028 217 17.5427C216.399 17.8075 215.763 17.9821 215.111 18.0607C215.798 17.6503 216.312 17.0047 216.558 16.2437C215.913 16.6258 215.207 16.8941 214.471 17.0367C213.976 16.5097 213.321 16.1606 212.608 16.0435C211.895 15.9263 211.163 16.0476 210.525 16.3886C209.888 16.7296 209.381 17.2713 209.082 17.9298C208.784 18.5882 208.711 19.3266 208.875 20.0307C207.57 19.9652 206.293 19.6262 205.127 19.0354C203.961 18.4447 202.933 17.6155 202.108 16.6017C201.689 17.3248 201.562 18.1801 201.751 18.994C201.94 19.8078 202.431 20.5192 203.126 20.9837C202.606 20.966 202.097 20.8263 201.64 20.5757V20.6207C201.641 21.3782 201.903 22.1121 202.383 22.6985C202.862 23.2848 203.53 23.6876 204.272 23.8387C203.99 23.9163 203.699 23.955 203.407 23.9537C203.201 23.9543 202.995 23.9352 202.793 23.8967C203.003 24.5487 203.411 25.1189 203.961 25.5272C204.511 25.9355 205.175 26.1615 205.86 26.1737C204.697 27.0875 203.259 27.5831 201.78 27.5807C201.519 27.5818 201.259 27.5668 201 27.5357C202.502 28.493 204.245 29.0012 206.026 29.0007Z" fill="white"/>
</g>
</g>
<defs>
<clipPath id="clip0_1_4941">
<rect width="120" height="26.0003" fill="white" transform="translate(103 10)"/>
</clipPath>
<clipPath id="clip1_1_4941">
<rect width="16" height="16" fill="white" transform="translate(139.5 15)"/>
</clipPath>
<clipPath id="clip2_1_4941">
<rect width="16" height="16" fill="white" transform="translate(169.5 15)"/>
</clipPath>
<clipPath id="clip3_1_4941">
<rect width="16" height="16" fill="white" transform="translate(201.5 15)"/>
</clipPath>
</defs>
</svg>
