<svg width="321" height="58" viewBox="0 0 321 58" fill="none" xmlns="http://www.w3.org/2000/svg">
<g clip-path="url(#clip0_1_5337)">
<rect x="0.5" y="0.5" width="320" height="57" rx="4.5" fill="#F9F9F9"/>
<rect x="0.5" y="0.5" width="320" height="57" rx="4.5" stroke="#E6E6E6"/>
<path d="M25.208 34H23.528V30.136L19.888 24.214H21.694L24.368 28.666L27.042 24.214H28.848L25.208 30.136V34ZM30.9723 32.04C31.4203 32.488 31.985 32.712 32.6663 32.712C33.3477 32.712 33.9077 32.488 34.3463 32.04C34.7943 31.5827 35.0183 30.9947 35.0183 30.276C35.0183 29.5573 34.7943 28.974 34.3463 28.526C33.9077 28.0687 33.3477 27.84 32.6663 27.84C31.985 27.84 31.4203 28.0687 30.9723 28.526C30.5337 28.974 30.3143 29.5573 30.3143 30.276C30.3143 30.9947 30.5337 31.5827 30.9723 32.04ZM35.4663 33.006C34.7197 33.7433 33.7863 34.112 32.6663 34.112C31.5463 34.112 30.613 33.7433 29.8663 33.006C29.1197 32.2593 28.7463 31.3493 28.7463 30.276C28.7463 29.2027 29.1197 28.2973 29.8663 27.56C30.613 26.8133 31.5463 26.44 32.6663 26.44C33.7863 26.44 34.7197 26.8133 35.4663 27.56C36.213 28.2973 36.5863 29.2027 36.5863 30.276C36.5863 31.3493 36.213 32.2593 35.4663 33.006ZM43.7772 30.584V26.552H45.3452V34H43.7772V32.642C43.5252 33.0993 43.1752 33.4587 42.7272 33.72C42.2885 33.9813 41.8125 34.112 41.2992 34.112C40.4592 34.112 39.7778 33.8553 39.2552 33.342C38.7418 32.8287 38.4852 32.0867 38.4852 31.116V26.552H40.0532V30.64C40.0532 32.012 40.6225 32.698 41.7612 32.698C42.3025 32.698 42.7738 32.5207 43.1752 32.166C43.5765 31.802 43.7772 31.2747 43.7772 30.584ZM51.7259 28.022C50.9513 28.022 50.3679 28.274 49.9759 28.778C49.5839 29.282 49.3879 29.9587 49.3879 30.808V34H47.8199V26.552H49.3879V28.05C49.6399 27.5833 49.9806 27.2007 50.4099 26.902C50.8486 26.6033 51.3106 26.4493 51.7959 26.44L51.8099 28.022C51.7819 28.022 51.7539 28.022 51.7259 28.022ZM64.7242 24.214V25.768H59.5022V28.358H64.1922V29.828H59.5022V32.446H64.8922V34H57.8502V24.214H64.7242ZM68.5543 29.968V34H66.9863V26.552H68.5543V27.91C68.7783 27.4527 69.1143 27.0933 69.5623 26.832C70.0197 26.5707 70.5097 26.44 71.0323 26.44C72.2083 26.44 73.0063 26.9253 73.4263 27.896C74.1637 26.9253 75.083 26.44 76.1843 26.44C77.0243 26.44 77.701 26.6967 78.2143 27.21C78.737 27.7233 78.9983 28.4653 78.9983 29.436V34H77.4303V29.912C77.4303 28.54 76.861 27.854 75.7223 27.854C75.1903 27.854 74.7237 28.0267 74.3223 28.372C73.9303 28.708 73.725 29.2027 73.7063 29.856V34H72.1383V29.912C72.1383 29.2027 72.0123 28.6847 71.7603 28.358C71.5083 28.022 71.1117 27.854 70.5703 27.854C70.029 27.854 69.5577 28.036 69.1563 28.4C68.755 28.7547 68.5543 29.2773 68.5543 29.968ZM87.4118 34H85.9838V33.006C85.3678 33.7433 84.5418 34.112 83.5058 34.112C82.7311 34.112 82.0871 33.8927 81.5738 33.454C81.0698 33.0153 80.8178 32.432 80.8178 31.704C80.8178 30.9667 81.0884 30.416 81.6298 30.052C82.1711 29.688 82.9038 29.506 83.8278 29.506H85.8578V29.226C85.8578 28.2367 85.3071 27.742 84.2058 27.742C83.5151 27.742 82.7964 27.994 82.0498 28.498L81.3498 27.518C82.2551 26.7993 83.2818 26.44 84.4298 26.44C85.3071 26.44 86.0211 26.664 86.5718 27.112C87.1318 27.5507 87.4118 28.246 87.4118 29.198V34ZM85.8438 31.228V30.598H84.0798C82.9504 30.598 82.3858 30.9527 82.3858 31.662C82.3858 32.026 82.5258 32.306 82.8058 32.502C83.0858 32.6887 83.4731 32.782 83.9678 32.782C84.4718 32.782 84.9104 32.642 85.2838 32.362C85.6571 32.082 85.8438 31.704 85.8438 31.228ZM91.3625 34H89.7945V26.552H91.3625V34ZM89.8925 25.068C89.6965 24.872 89.5985 24.6387 89.5985 24.368C89.5985 24.0973 89.6965 23.864 89.8925 23.668C90.0885 23.472 90.3219 23.374 90.5925 23.374C90.8632 23.374 91.0965 23.472 91.2925 23.668C91.4885 23.864 91.5865 24.0973 91.5865 24.368C91.5865 24.6387 91.4885 24.872 91.2925 25.068C91.0965 25.264 90.8632 25.362 90.5925 25.362C90.3219 25.362 90.0885 25.264 89.8925 25.068ZM95.4043 34H93.8363V23.612H95.4043V34Z" fill="#737373"/>
<g clip-path="url(#clip1_1_5337)">
<path d="M204.5 0.5H316C318.485 0.5 320.5 2.51472 320.5 5V53C320.5 55.4853 318.485 57.5 316 57.5H204.5V0.5Z" fill="#23A6F0"/>
<path d="M204.5 0.5H316C318.485 0.5 320.5 2.51472 320.5 5V53C320.5 55.4853 318.485 57.5 316 57.5H204.5V0.5Z" stroke="#E6E6E6"/>
<path d="M231.108 25.502C230.632 25.502 230.24 25.6 229.932 25.796C229.624 25.992 229.47 26.2907 229.47 26.692C229.47 27.084 229.624 27.3873 229.932 27.602C230.24 27.8073 230.893 28.0313 231.892 28.274C232.9 28.5167 233.656 28.8573 234.16 29.296C234.673 29.7347 234.93 30.3833 234.93 31.242C234.93 32.0913 234.608 32.782 233.964 33.314C233.32 33.846 232.475 34.112 231.43 34.112C229.899 34.112 228.541 33.5847 227.356 32.53L228.392 31.284C229.381 32.1427 230.408 32.572 231.472 32.572C232.004 32.572 232.424 32.46 232.732 32.236C233.049 32.0027 233.208 31.6993 233.208 31.326C233.208 30.9433 233.058 30.6493 232.76 30.444C232.47 30.2293 231.966 30.038 231.248 29.87C230.529 29.6927 229.983 29.534 229.61 29.394C229.236 29.2447 228.905 29.0533 228.616 28.82C228.037 28.3813 227.748 27.7093 227.748 26.804C227.748 25.8987 228.074 25.2033 228.728 24.718C229.39 24.2233 230.207 23.976 231.178 23.976C231.803 23.976 232.424 24.0787 233.04 24.284C233.656 24.4893 234.188 24.7787 234.636 25.152L233.754 26.398C233.464 26.1367 233.072 25.922 232.578 25.754C232.083 25.586 231.593 25.502 231.108 25.502ZM242.074 30.584V26.552H243.642V34H242.074V32.642C241.822 33.0993 241.472 33.4587 241.024 33.72C240.585 33.9813 240.109 34.112 239.596 34.112C238.756 34.112 238.075 33.8553 237.552 33.342C237.039 32.8287 236.782 32.0867 236.782 31.116V26.552H238.35V30.64C238.35 32.012 238.919 32.698 240.058 32.698C240.599 32.698 241.071 32.5207 241.472 32.166C241.873 31.802 242.074 31.2747 242.074 30.584ZM250.107 26.44C251.105 26.44 251.959 26.7853 252.669 27.476C253.378 28.1667 253.733 29.086 253.733 30.234C253.733 31.382 253.378 32.3153 252.669 33.034C251.969 33.7527 251.147 34.112 250.205 34.112C249.271 34.112 248.431 33.7013 247.685 32.88V34H246.117V23.612H247.685V27.854C248.301 26.9113 249.108 26.44 250.107 26.44ZM247.657 30.29C247.657 30.9993 247.871 31.5827 248.301 32.04C248.73 32.488 249.253 32.712 249.869 32.712C250.485 32.712 251.021 32.488 251.479 32.04C251.936 31.592 252.165 31.0133 252.165 30.304C252.165 29.5853 251.941 28.9927 251.493 28.526C251.045 28.05 250.508 27.812 249.883 27.812C249.257 27.812 248.73 28.05 248.301 28.526C247.871 28.9927 247.657 29.5807 247.657 30.29ZM261.029 31.774C261.029 32.4833 260.772 33.0527 260.259 33.482C259.746 33.902 259.088 34.112 258.285 34.112C257.744 34.112 257.179 34.014 256.591 33.818C256.012 33.622 255.499 33.3467 255.051 32.992L255.807 31.774C256.675 32.4273 257.515 32.754 258.327 32.754C258.682 32.754 258.962 32.6747 259.167 32.516C259.372 32.348 259.475 32.138 259.475 31.886C259.475 31.5127 258.98 31.1767 257.991 30.878C257.916 30.85 257.86 30.8313 257.823 30.822C256.274 30.402 255.499 29.702 255.499 28.722C255.499 28.0313 255.765 27.4807 256.297 27.07C256.838 26.65 257.538 26.44 258.397 26.44C259.256 26.44 260.068 26.692 260.833 27.196L260.245 28.358C259.638 27.9567 258.98 27.756 258.271 27.756C257.898 27.756 257.594 27.826 257.361 27.966C257.128 28.0967 257.011 28.2973 257.011 28.568C257.011 28.8107 257.132 28.988 257.375 29.1C257.543 29.184 257.776 29.2633 258.075 29.338C258.383 29.4127 258.654 29.4873 258.887 29.562C259.12 29.6367 259.344 29.7207 259.559 29.814C259.783 29.9073 260.021 30.038 260.273 30.206C260.777 30.542 261.029 31.0647 261.029 31.774ZM266.309 34.112C265.273 34.112 264.382 33.762 263.635 33.062C262.888 32.3527 262.515 31.4287 262.515 30.29C262.515 29.1513 262.902 28.2273 263.677 27.518C264.461 26.7993 265.413 26.44 266.533 26.44C267.653 26.44 268.6 26.8273 269.375 27.602L268.451 28.736C267.807 28.176 267.158 27.896 266.505 27.896C265.852 27.896 265.282 28.1153 264.797 28.554C264.321 28.9833 264.083 29.5433 264.083 30.234C264.083 30.9153 264.321 31.494 264.797 31.97C265.273 32.446 265.856 32.684 266.547 32.684C267.247 32.684 267.905 32.3667 268.521 31.732L269.445 32.74C268.54 33.6547 267.494 34.112 266.309 34.112ZM275.178 28.022C274.403 28.022 273.82 28.274 273.428 28.778C273.036 29.282 272.84 29.9587 272.84 30.808V34H271.272V26.552H272.84V28.05C273.092 27.5833 273.432 27.2007 273.862 26.902C274.3 26.6033 274.762 26.4493 275.248 26.44L275.262 28.022C275.234 28.022 275.206 28.022 275.178 28.022ZM278.604 34H277.036V26.552H278.604V34ZM277.134 25.068C276.938 24.872 276.84 24.6387 276.84 24.368C276.84 24.0973 276.938 23.864 277.134 23.668C277.33 23.472 277.563 23.374 277.834 23.374C278.105 23.374 278.338 23.472 278.534 23.668C278.73 23.864 278.828 24.0973 278.828 24.368C278.828 24.6387 278.73 24.872 278.534 25.068C278.338 25.264 278.105 25.362 277.834 25.362C277.563 25.362 277.33 25.264 277.134 25.068ZM285.068 26.44C286.066 26.44 286.92 26.7853 287.63 27.476C288.339 28.1667 288.694 29.086 288.694 30.234C288.694 31.382 288.339 32.3153 287.63 33.034C286.93 33.7527 286.108 34.112 285.166 34.112C284.232 34.112 283.392 33.7013 282.646 32.88V34H281.078V23.612H282.646V27.854C283.262 26.9113 284.069 26.44 285.068 26.44ZM282.618 30.29C282.618 30.9993 282.832 31.5827 283.262 32.04C283.691 32.488 284.214 32.712 284.83 32.712C285.446 32.712 285.982 32.488 286.44 32.04C286.897 31.592 287.126 31.0133 287.126 30.304C287.126 29.5853 286.902 28.9927 286.454 28.526C286.006 28.05 285.469 27.812 284.844 27.812C284.218 27.812 283.691 28.05 283.262 28.526C282.832 28.9927 282.618 29.5807 282.618 30.29ZM297.614 30.962H291.776C291.813 31.5033 292.061 31.942 292.518 32.278C292.975 32.6047 293.498 32.768 294.086 32.768C295.019 32.768 295.729 32.474 296.214 31.886L297.11 32.866C296.307 33.6967 295.262 34.112 293.974 34.112C292.929 34.112 292.037 33.7667 291.3 33.076C290.572 32.376 290.208 31.4427 290.208 30.276C290.208 29.1 290.581 28.1667 291.328 27.476C292.075 26.7853 292.952 26.44 293.96 26.44C294.977 26.44 295.841 26.748 296.55 27.364C297.259 27.9707 297.614 28.8107 297.614 29.884V30.962ZM291.776 29.73H296.046C296.046 29.1047 295.85 28.624 295.458 28.288C295.066 27.952 294.581 27.784 294.002 27.784C293.433 27.784 292.919 27.9613 292.462 28.316C292.005 28.6613 291.776 29.1327 291.776 29.73Z" fill="white"/>
</g>
</g>
<defs>
<clipPath id="clip0_1_5337">
<rect width="321" height="58" fill="white"/>
</clipPath>
<clipPath id="clip1_1_5337">
<rect width="117" height="58" fill="white" transform="translate(204)"/>
</clipPath>
</defs>
</svg>
