<svg width="330" height="403" viewBox="0 0 330 403" fill="none" xmlns="http://www.w3.org/2000/svg">
<rect width="328" height="403" transform="translate(0.5)" fill="#252B42"/>
<path d="M164.5 83C150.417 83 139 94.3074 139 108.256C139 112.921 139.922 117.738 142.567 121.211L164.5 150L186.433 121.211C188.836 118.057 190 112.481 190 108.256C190 94.3074 178.583 83 164.5 83ZM164.5 97.6276C170.426 97.6276 175.231 102.387 175.231 108.256C175.231 114.125 170.426 118.884 164.5 118.884C158.574 118.884 153.769 114.125 153.769 108.256C153.769 102.387 158.574 97.6276 164.5 97.6276Z" fill="#23A6F0"/>
<g clip-path="url(#clip0_232_743)">
<path d="M63.0849 180.08C63.0849 179.473 62.9169 178.997 62.5809 178.652C62.2449 178.307 61.8296 178.134 61.3349 178.134C60.8402 178.134 60.4109 178.307 60.0469 178.652C59.6922 178.997 59.5149 179.469 59.5149 180.066C59.5149 180.663 59.6876 181.149 60.0329 181.522C60.3876 181.886 60.8169 182.068 61.3209 182.068C61.8249 182.068 62.2449 181.886 62.5809 181.522C62.9169 181.158 63.0849 180.677 63.0849 180.08ZM63.3789 182.726C62.7162 183.463 61.8902 183.832 60.9009 183.832C59.9209 183.832 59.0902 183.501 58.4089 182.838C57.7369 182.166 57.4009 181.275 57.4009 180.164C57.4009 179.044 57.7462 178.129 58.4369 177.42C59.1369 176.701 59.9349 176.342 60.8309 176.342C61.7269 176.342 62.4689 176.711 63.0569 177.448V176.454H65.1569V183.02C65.1569 183.692 65.0402 184.289 64.8069 184.812C64.5736 185.335 64.2609 185.745 63.8689 186.044C63.0942 186.66 62.1796 186.968 61.1249 186.968C60.5649 186.968 59.9909 186.875 59.4029 186.688C58.8242 186.511 58.3156 186.254 57.8769 185.918L58.6889 184.336C59.3796 184.859 60.1076 185.12 60.8729 185.12C61.6476 185.12 62.2589 184.929 62.7069 184.546C63.1549 184.163 63.3789 183.557 63.3789 182.726ZM73.8688 182.908C73.0194 183.711 72.0208 184.112 70.8728 184.112C69.7341 184.112 68.7914 183.762 68.0448 183.062C67.2981 182.353 66.9248 181.405 66.9248 180.22C66.9248 179.035 67.3028 178.092 68.0588 177.392C68.8241 176.692 69.7248 176.342 70.7608 176.342C71.7968 176.342 72.6741 176.655 73.3928 177.28C74.1208 177.905 74.4848 178.764 74.4848 179.856V180.976H68.9968C69.0621 181.387 69.2768 181.723 69.6408 181.984C70.0048 182.245 70.4154 182.376 70.8728 182.376C71.6101 182.376 72.2168 182.129 72.6928 181.634L73.8688 182.908ZM72.3568 179.478C72.3101 179.03 72.1421 178.685 71.8528 178.442C71.5634 178.199 71.2088 178.078 70.7888 178.078C70.3781 178.078 70.0001 178.204 69.6548 178.456C69.3094 178.708 69.1088 179.049 69.0528 179.478H72.3568ZM77.8791 180.234C77.8791 180.85 78.0517 181.354 78.3971 181.746C78.7517 182.129 79.1997 182.32 79.7411 182.32C80.2917 182.32 80.7397 182.129 81.0851 181.746C81.4397 181.354 81.6171 180.85 81.6171 180.234C81.6171 179.618 81.4397 179.114 81.0851 178.722C80.7397 178.33 80.2917 178.134 79.7411 178.134C79.1997 178.134 78.7517 178.33 78.3971 178.722C78.0517 179.114 77.8791 179.618 77.8791 180.234ZM83.7311 180.234C83.7311 181.326 83.3531 182.245 82.5971 182.992C81.8411 183.739 80.8891 184.112 79.7411 184.112C78.6024 184.112 77.6551 183.739 76.8991 182.992C76.1431 182.245 75.7651 181.326 75.7651 180.234C75.7651 179.142 76.1431 178.223 76.8991 177.476C77.6551 176.72 78.6024 176.342 79.7411 176.342C80.8891 176.342 81.8411 176.72 82.5971 177.476C83.3531 178.223 83.7311 179.142 83.7311 180.234ZM89.4529 178.316C88.8275 178.316 88.3609 178.54 88.0529 178.988C87.7449 179.427 87.5909 180.01 87.5909 180.738V184H85.4909V176.468H87.5909V177.462C87.8615 177.154 88.1975 176.893 88.5989 176.678C89.0095 176.463 89.4249 176.351 89.8449 176.342L89.8589 178.316H89.4529ZM96.7247 180.08C96.7247 179.473 96.5567 178.997 96.2207 178.652C95.8847 178.307 95.4694 178.134 94.9747 178.134C94.4801 178.134 94.0507 178.307 93.6867 178.652C93.3321 178.997 93.1547 179.469 93.1547 180.066C93.1547 180.663 93.3274 181.149 93.6727 181.522C94.0274 181.886 94.4567 182.068 94.9607 182.068C95.4647 182.068 95.8847 181.886 96.2207 181.522C96.5567 181.158 96.7247 180.677 96.7247 180.08ZM97.0187 182.726C96.3561 183.463 95.5301 183.832 94.5407 183.832C93.5607 183.832 92.7301 183.501 92.0487 182.838C91.3767 182.166 91.0407 181.275 91.0407 180.164C91.0407 179.044 91.3861 178.129 92.0767 177.42C92.7767 176.701 93.5747 176.342 94.4707 176.342C95.3667 176.342 96.1087 176.711 96.6967 177.448V176.454H98.7967V183.02C98.7967 183.692 98.6801 184.289 98.4467 184.812C98.2134 185.335 97.9007 185.745 97.5087 186.044C96.7341 186.66 95.8194 186.968 94.7647 186.968C94.2047 186.968 93.6307 186.875 93.0427 186.688C92.4641 186.511 91.9554 186.254 91.5167 185.918L92.3287 184.336C93.0194 184.859 93.7474 185.12 94.5127 185.12C95.2874 185.12 95.8987 184.929 96.3467 184.546C96.7947 184.163 97.0187 183.557 97.0187 182.726ZM103.085 184H100.985V176.468H103.085V184ZM101.153 175.516C100.919 175.273 100.803 174.979 100.803 174.634C100.803 174.289 100.919 173.999 101.153 173.766C101.395 173.523 101.689 173.402 102.035 173.402C102.38 173.402 102.669 173.523 102.903 173.766C103.145 173.999 103.267 174.289 103.267 174.634C103.267 174.979 103.145 175.273 102.903 175.516C102.669 175.749 102.38 175.866 102.035 175.866C101.689 175.866 101.395 175.749 101.153 175.516ZM111.671 184H109.697V183.09C109.155 183.771 108.483 184.112 107.681 184.112C106.887 184.112 106.22 183.883 105.679 183.426C105.137 182.959 104.867 182.343 104.867 181.578C104.867 180.803 105.147 180.225 105.707 179.842C106.267 179.459 107.032 179.268 108.003 179.268H109.571V179.226C109.571 178.423 109.146 178.022 108.297 178.022C107.933 178.022 107.545 178.097 107.135 178.246C106.733 178.386 106.393 178.563 106.113 178.778L105.175 177.42C106.164 176.701 107.293 176.342 108.563 176.342C109.477 176.342 110.224 176.571 110.803 177.028C111.381 177.485 111.671 178.209 111.671 179.198V184ZM109.557 181.13V180.766H108.241C107.401 180.766 106.981 181.027 106.981 181.55C106.981 181.821 107.079 182.031 107.275 182.18C107.48 182.32 107.769 182.39 108.143 182.39C108.516 182.39 108.843 182.278 109.123 182.054C109.412 181.821 109.557 181.513 109.557 181.13ZM113.925 183.762C113.692 183.519 113.575 183.225 113.575 182.88C113.575 182.535 113.692 182.245 113.925 182.012C114.168 181.769 114.462 181.648 114.807 181.648C115.152 181.648 115.442 181.769 115.675 182.012C115.918 182.245 116.039 182.535 116.039 182.88C116.039 183.225 115.918 183.519 115.675 183.762C115.442 183.995 115.152 184.112 114.807 184.112C114.462 184.112 114.168 183.995 113.925 183.762ZM118.842 186.968C118.104 186.968 117.409 186.669 116.756 186.072L117.708 184.518C118.062 184.863 118.426 185.036 118.8 185.036C118.996 185.036 119.164 184.938 119.304 184.742C119.444 184.555 119.514 184.355 119.514 184.14C119.514 183.925 118.543 181.368 116.602 176.468H118.842L120.676 181.158L122.51 176.468H124.75L121.25 185.344C121.044 185.857 120.722 186.254 120.284 186.534C119.854 186.823 119.374 186.968 118.842 186.968ZM127.5 180.234C127.5 180.85 127.672 181.354 128.018 181.746C128.372 182.129 128.82 182.32 129.362 182.32C129.912 182.32 130.36 182.129 130.706 181.746C131.06 181.354 131.238 180.85 131.238 180.234C131.238 179.618 131.06 179.114 130.706 178.722C130.36 178.33 129.912 178.134 129.362 178.134C128.82 178.134 128.372 178.33 128.018 178.722C127.672 179.114 127.5 179.618 127.5 180.234ZM133.352 180.234C133.352 181.326 132.974 182.245 132.218 182.992C131.462 183.739 130.51 184.112 129.362 184.112C128.223 184.112 127.276 183.739 126.52 182.992C125.764 182.245 125.386 181.326 125.386 180.234C125.386 179.142 125.764 178.223 126.52 177.476C127.276 176.72 128.223 176.342 129.362 176.342C130.51 176.342 131.462 176.72 132.218 177.476C132.974 178.223 133.352 179.142 133.352 180.234ZM139.97 180.528V176.468H142.084V184H139.97V183.006C139.447 183.743 138.77 184.112 137.94 184.112C137.118 184.112 136.428 183.855 135.868 183.342C135.308 182.819 135.028 182.049 135.028 181.032V176.468H137.142V180.57C137.142 181.727 137.566 182.306 138.416 182.306C138.836 182.306 139.2 182.157 139.508 181.858C139.816 181.55 139.97 181.107 139.97 180.528ZM146.367 179.8V184H144.267V176.468H146.367V177.308C147.001 176.664 147.715 176.342 148.509 176.342C149.302 176.342 149.965 176.622 150.497 177.182C151.038 177.742 151.309 178.489 151.309 179.422V184H149.209V179.744C149.209 178.587 148.784 178.008 147.935 178.008C147.515 178.008 147.146 178.162 146.829 178.47C146.521 178.769 146.367 179.212 146.367 179.8ZM158.686 180.08C158.686 179.473 158.518 178.997 158.182 178.652C157.846 178.307 157.431 178.134 156.936 178.134C156.441 178.134 156.012 178.307 155.648 178.652C155.293 178.997 155.116 179.469 155.116 180.066C155.116 180.663 155.289 181.149 155.634 181.522C155.989 181.886 156.418 182.068 156.922 182.068C157.426 182.068 157.846 181.886 158.182 181.522C158.518 181.158 158.686 180.677 158.686 180.08ZM158.98 182.726C158.317 183.463 157.491 183.832 156.502 183.832C155.522 183.832 154.691 183.501 154.01 182.838C153.338 182.166 153.002 181.275 153.002 180.164C153.002 179.044 153.347 178.129 154.038 177.42C154.738 176.701 155.536 176.342 156.432 176.342C157.328 176.342 158.07 176.711 158.658 177.448V176.454H160.758V183.02C160.758 183.692 160.641 184.289 160.408 184.812C160.175 185.335 159.862 185.745 159.47 186.044C158.695 186.66 157.781 186.968 156.726 186.968C156.166 186.968 155.592 186.875 155.004 186.688C154.425 186.511 153.917 186.254 153.478 185.918L154.29 184.336C154.981 184.859 155.709 185.12 156.474 185.12C157.249 185.12 157.86 184.929 158.308 184.546C158.756 184.163 158.98 183.557 158.98 182.726ZM171.584 182.292C171.836 182.292 172.055 182.091 172.242 181.69C172.438 181.289 172.536 180.785 172.536 180.178C172.536 178.862 172.158 177.775 171.402 176.916C170.646 176.048 169.633 175.614 168.364 175.614C167.095 175.614 166.026 176.067 165.158 176.972C164.29 177.877 163.856 178.965 163.856 180.234C163.856 181.494 164.262 182.544 165.074 183.384C165.895 184.224 166.908 184.644 168.112 184.644C169.055 184.644 169.885 184.299 170.604 183.608L171.178 184.602C170.805 184.929 170.329 185.19 169.75 185.386C169.171 185.591 168.625 185.694 168.112 185.694C166.553 185.694 165.247 185.171 164.192 184.126C163.147 183.09 162.624 181.793 162.624 180.234C162.624 178.666 163.175 177.331 164.276 176.23C165.387 175.119 166.721 174.564 168.28 174.564C169.839 174.564 171.141 175.096 172.186 176.16C173.231 177.224 173.754 178.549 173.754 180.136C173.754 181.163 173.539 181.989 173.11 182.614C172.69 183.23 172.135 183.538 171.444 183.538C171.089 183.538 170.763 183.431 170.464 183.216C170.175 183.001 169.974 182.731 169.862 182.404C169.349 183.067 168.695 183.398 167.902 183.398C167.118 183.398 166.432 183.099 165.844 182.502C165.265 181.905 164.976 181.149 164.976 180.234C164.976 179.31 165.237 178.535 165.76 177.91C166.292 177.275 166.987 176.958 167.846 176.958C168.135 176.958 168.411 177.023 168.672 177.154C168.933 177.275 169.12 177.397 169.232 177.518L169.414 177.7V177.126H171.164V181.592C171.164 182.059 171.304 182.292 171.584 182.292ZM169.428 180.178C169.428 179.711 169.302 179.324 169.05 179.016C168.807 178.708 168.485 178.554 168.084 178.554C167.683 178.554 167.361 178.708 167.118 179.016C166.885 179.324 166.768 179.707 166.768 180.164C166.768 180.612 166.885 181.004 167.118 181.34C167.361 181.676 167.687 181.844 168.098 181.844C168.509 181.844 168.831 181.685 169.064 181.368C169.307 181.041 169.428 180.645 169.428 180.178ZM182.139 182.908C181.289 183.711 180.291 184.112 179.143 184.112C178.004 184.112 177.061 183.762 176.315 183.062C175.568 182.353 175.195 181.405 175.195 180.22C175.195 179.035 175.573 178.092 176.329 177.392C177.094 176.692 177.995 176.342 179.031 176.342C180.067 176.342 180.944 176.655 181.663 177.28C182.391 177.905 182.755 178.764 182.755 179.856V180.976H177.267C177.332 181.387 177.547 181.723 177.911 181.984C178.275 182.245 178.685 182.376 179.143 182.376C179.88 182.376 180.487 182.129 180.963 181.634L182.139 182.908ZM180.627 179.478C180.58 179.03 180.412 178.685 180.123 178.442C179.833 178.199 179.479 178.078 179.059 178.078C178.648 178.078 178.27 178.204 177.925 178.456C177.579 178.708 177.379 179.049 177.323 179.478H180.627ZM186.098 176.468L187.386 178.484L188.716 176.468H191.18L188.59 180.15L191.278 184H188.772L187.302 181.928L185.874 184H183.452L186.084 180.164L183.592 176.468H186.098ZM198.915 184H196.941V183.09C196.399 183.771 195.727 184.112 194.925 184.112C194.131 184.112 193.464 183.883 192.923 183.426C192.381 182.959 192.111 182.343 192.111 181.578C192.111 180.803 192.391 180.225 192.951 179.842C193.511 179.459 194.276 179.268 195.247 179.268H196.815V179.226C196.815 178.423 196.39 178.022 195.541 178.022C195.177 178.022 194.789 178.097 194.379 178.246C193.977 178.386 193.637 178.563 193.357 178.778L192.419 177.42C193.408 176.701 194.537 176.342 195.807 176.342C196.721 176.342 197.468 176.571 198.047 177.028C198.625 177.485 198.915 178.209 198.915 179.198V184ZM196.801 181.13V180.766H195.485C194.645 180.766 194.225 181.027 194.225 181.55C194.225 181.821 194.323 182.031 194.519 182.18C194.724 182.32 195.013 182.39 195.387 182.39C195.76 182.39 196.087 182.278 196.367 182.054C196.656 181.821 196.801 181.513 196.801 181.13ZM207.945 179.94V184H205.831V179.884C205.831 179.287 205.738 178.848 205.551 178.568C205.374 178.288 205.08 178.148 204.669 178.148C204.268 178.148 203.908 178.302 203.591 178.61C203.283 178.909 203.129 179.352 203.129 179.94V184H201.029V176.468H203.129V177.322C203.708 176.669 204.37 176.342 205.117 176.342C205.593 176.342 206.022 176.482 206.405 176.762C206.797 177.042 207.091 177.383 207.287 177.784C207.576 177.327 207.964 176.972 208.449 176.72C208.944 176.468 209.438 176.342 209.933 176.342C210.82 176.342 211.534 176.608 212.075 177.14C212.616 177.663 212.887 178.423 212.887 179.422V184H210.773V179.884C210.773 178.727 210.348 178.148 209.499 178.148C209.079 178.148 208.715 178.302 208.407 178.61C208.099 178.909 207.945 179.352 207.945 179.94ZM219.379 176.342C220.256 176.342 221.035 176.711 221.717 177.448C222.407 178.176 222.753 179.095 222.753 180.206C222.753 181.317 222.407 182.245 221.717 182.992C221.035 183.739 220.233 184.112 219.309 184.112C218.394 184.112 217.657 183.743 217.097 183.006V186.716H214.997V176.468H217.097V177.308C217.741 176.664 218.501 176.342 219.379 176.342ZM217.069 180.248C217.069 180.855 217.237 181.354 217.573 181.746C217.918 182.129 218.333 182.32 218.819 182.32C219.304 182.32 219.729 182.129 220.093 181.746C220.457 181.354 220.639 180.855 220.639 180.248C220.639 179.641 220.461 179.133 220.107 178.722C219.752 178.311 219.327 178.106 218.833 178.106C218.338 178.106 217.918 178.311 217.573 178.722C217.237 179.123 217.069 179.632 217.069 180.248ZM226.621 184H224.521V173.612H226.621V184ZM235.333 182.908C234.484 183.711 233.485 184.112 232.337 184.112C231.198 184.112 230.256 183.762 229.509 183.062C228.762 182.353 228.389 181.405 228.389 180.22C228.389 179.035 228.767 178.092 229.523 177.392C230.288 176.692 231.189 176.342 232.225 176.342C233.261 176.342 234.138 176.655 234.857 177.28C235.585 177.905 235.949 178.764 235.949 179.856V180.976H230.461C230.526 181.387 230.741 181.723 231.105 181.984C231.469 182.245 231.88 182.376 232.337 182.376C233.074 182.376 233.681 182.129 234.157 181.634L235.333 182.908ZM233.821 179.478C233.774 179.03 233.606 178.685 233.317 178.442C233.028 178.199 232.673 178.078 232.253 178.078C231.842 178.078 231.464 178.204 231.119 178.456C230.774 178.708 230.573 179.049 230.517 179.478H233.821ZM237.803 183.762C237.57 183.519 237.453 183.225 237.453 182.88C237.453 182.535 237.57 182.245 237.803 182.012C238.046 181.769 238.34 181.648 238.685 181.648C239.03 181.648 239.32 181.769 239.553 182.012C239.796 182.245 239.917 182.535 239.917 182.88C239.917 183.225 239.796 183.519 239.553 183.762C239.32 183.995 239.03 184.112 238.685 184.112C238.34 184.112 238.046 183.995 237.803 183.762ZM245.508 182.25C246.208 182.25 246.838 181.9 247.398 181.2L248.644 182.6C247.674 183.608 246.624 184.112 245.494 184.112C244.365 184.112 243.408 183.757 242.624 183.048C241.85 182.329 241.462 181.396 241.462 180.248C241.462 179.091 241.854 178.153 242.638 177.434C243.432 176.706 244.37 176.342 245.452 176.342C245.994 176.342 246.54 176.454 247.09 176.678C247.65 176.902 248.14 177.233 248.56 177.672L247.468 179.1C247.226 178.811 246.927 178.587 246.572 178.428C246.227 178.269 245.882 178.19 245.536 178.19C244.986 178.19 244.51 178.372 244.108 178.736C243.716 179.091 243.52 179.59 243.52 180.234C243.52 180.869 243.716 181.363 244.108 181.718C244.51 182.073 244.976 182.25 245.508 182.25ZM251.802 180.234C251.802 180.85 251.974 181.354 252.32 181.746C252.674 182.129 253.122 182.32 253.664 182.32C254.214 182.32 254.662 182.129 255.008 181.746C255.362 181.354 255.54 180.85 255.54 180.234C255.54 179.618 255.362 179.114 255.008 178.722C254.662 178.33 254.214 178.134 253.664 178.134C253.122 178.134 252.674 178.33 252.32 178.722C251.974 179.114 251.802 179.618 251.802 180.234ZM257.654 180.234C257.654 181.326 257.276 182.245 256.52 182.992C255.764 183.739 254.812 184.112 253.664 184.112C252.525 184.112 251.578 183.739 250.822 182.992C250.066 182.245 249.688 181.326 249.688 180.234C249.688 179.142 250.066 178.223 250.822 177.476C251.578 176.72 252.525 176.342 253.664 176.342C254.812 176.342 255.764 176.72 256.52 177.476C257.276 178.223 257.654 179.142 257.654 180.234ZM266.33 179.94V184H264.216V179.884C264.216 179.287 264.122 178.848 263.936 178.568C263.758 178.288 263.464 178.148 263.054 178.148C262.652 178.148 262.293 178.302 261.976 178.61C261.668 178.909 261.514 179.352 261.514 179.94V184H259.414V176.468H261.514V177.322C262.092 176.669 262.755 176.342 263.502 176.342C263.978 176.342 264.407 176.482 264.79 176.762C265.182 177.042 265.476 177.383 265.672 177.784C265.961 177.327 266.348 176.972 266.834 176.72C267.328 176.468 267.823 176.342 268.318 176.342C269.204 176.342 269.918 176.608 270.46 177.14C271.001 177.663 271.272 178.423 271.272 179.422V184H269.158V179.884C269.158 178.727 268.733 178.148 267.884 178.148C267.464 178.148 267.1 178.302 266.792 178.61C266.484 178.909 266.33 179.352 266.33 179.94Z" fill="white"/>
<path d="M82.7759 204.08C82.7759 203.473 82.6079 202.997 82.2719 202.652C81.9359 202.307 81.5206 202.134 81.0259 202.134C80.5312 202.134 80.1019 202.307 79.7379 202.652C79.3832 202.997 79.2059 203.469 79.2059 204.066C79.2059 204.663 79.3786 205.149 79.7239 205.522C80.0786 205.886 80.5079 206.068 81.0119 206.068C81.5159 206.068 81.9359 205.886 82.2719 205.522C82.6079 205.158 82.7759 204.677 82.7759 204.08ZM83.0699 206.726C82.4072 207.463 81.5812 207.832 80.5919 207.832C79.6119 207.832 78.7812 207.501 78.0999 206.838C77.4279 206.166 77.0919 205.275 77.0919 204.164C77.0919 203.044 77.4372 202.129 78.1279 201.42C78.8279 200.701 79.6259 200.342 80.5219 200.342C81.4179 200.342 82.1599 200.711 82.7479 201.448V200.454H84.8479V207.02C84.8479 207.692 84.7312 208.289 84.4979 208.812C84.2646 209.335 83.9519 209.745 83.5599 210.044C82.7852 210.66 81.8706 210.968 80.8159 210.968C80.2559 210.968 79.6819 210.875 79.0939 210.688C78.5152 210.511 78.0066 210.254 77.5679 209.918L78.3799 208.336C79.0706 208.859 79.7986 209.12 80.5639 209.12C81.3386 209.12 81.9499 208.929 82.3979 208.546C82.8459 208.163 83.0699 207.557 83.0699 206.726ZM93.5598 206.908C92.7105 207.711 91.7118 208.112 90.5638 208.112C89.4251 208.112 88.4825 207.762 87.7358 207.062C86.9891 206.353 86.6158 205.405 86.6158 204.22C86.6158 203.035 86.9938 202.092 87.7498 201.392C88.5151 200.692 89.4158 200.342 90.4518 200.342C91.4878 200.342 92.3651 200.655 93.0838 201.28C93.8118 201.905 94.1758 202.764 94.1758 203.856V204.976H88.6878C88.7531 205.387 88.9678 205.723 89.3318 205.984C89.6958 206.245 90.1065 206.376 90.5638 206.376C91.3011 206.376 91.9078 206.129 92.3838 205.634L93.5598 206.908ZM92.0478 203.478C92.0011 203.03 91.8331 202.685 91.5438 202.442C91.2545 202.199 90.8998 202.078 90.4798 202.078C90.0691 202.078 89.6911 202.204 89.3458 202.456C89.0005 202.708 88.7998 203.049 88.7438 203.478H92.0478ZM97.5701 204.234C97.5701 204.85 97.7428 205.354 98.0881 205.746C98.4428 206.129 98.8908 206.32 99.4321 206.32C99.9828 206.32 100.431 206.129 100.776 205.746C101.131 205.354 101.308 204.85 101.308 204.234C101.308 203.618 101.131 203.114 100.776 202.722C100.431 202.33 99.9828 202.134 99.4321 202.134C98.8908 202.134 98.4428 202.33 98.0881 202.722C97.7428 203.114 97.5701 203.618 97.5701 204.234ZM103.422 204.234C103.422 205.326 103.044 206.245 102.288 206.992C101.532 207.739 100.58 208.112 99.4321 208.112C98.2934 208.112 97.3461 207.739 96.5901 206.992C95.8341 206.245 95.4561 205.326 95.4561 204.234C95.4561 203.142 95.8341 202.223 96.5901 201.476C97.3461 200.72 98.2934 200.342 99.4321 200.342C100.58 200.342 101.532 200.72 102.288 201.476C103.044 202.223 103.422 203.142 103.422 204.234ZM109.144 202.316C108.519 202.316 108.052 202.54 107.744 202.988C107.436 203.427 107.282 204.01 107.282 204.738V208H105.182V200.468H107.282V201.462C107.553 201.154 107.889 200.893 108.29 200.678C108.701 200.463 109.116 200.351 109.536 200.342L109.55 202.316H109.144ZM116.416 204.08C116.416 203.473 116.248 202.997 115.912 202.652C115.576 202.307 115.16 202.134 114.666 202.134C114.171 202.134 113.742 202.307 113.378 202.652C113.023 202.997 112.846 203.469 112.846 204.066C112.846 204.663 113.018 205.149 113.364 205.522C113.718 205.886 114.148 206.068 114.652 206.068C115.156 206.068 115.576 205.886 115.912 205.522C116.248 205.158 116.416 204.677 116.416 204.08ZM116.71 206.726C116.047 207.463 115.221 207.832 114.232 207.832C113.252 207.832 112.421 207.501 111.74 206.838C111.068 206.166 110.732 205.275 110.732 204.164C110.732 203.044 111.077 202.129 111.768 201.42C112.468 200.701 113.266 200.342 114.162 200.342C115.058 200.342 115.8 200.711 116.388 201.448V200.454H118.488V207.02C118.488 207.692 118.371 208.289 118.138 208.812C117.904 209.335 117.592 209.745 117.2 210.044C116.425 210.66 115.51 210.968 114.456 210.968C113.896 210.968 113.322 210.875 112.734 210.688C112.155 210.511 111.646 210.254 111.208 209.918L112.02 208.336C112.71 208.859 113.438 209.12 114.204 209.12C114.978 209.12 115.59 208.929 116.038 208.546C116.486 208.163 116.71 207.557 116.71 206.726ZM122.776 208H120.676V200.468H122.776V208ZM120.844 199.516C120.61 199.273 120.494 198.979 120.494 198.634C120.494 198.289 120.61 197.999 120.844 197.766C121.086 197.523 121.38 197.402 121.726 197.402C122.071 197.402 122.36 197.523 122.594 197.766C122.836 197.999 122.958 198.289 122.958 198.634C122.958 198.979 122.836 199.273 122.594 199.516C122.36 199.749 122.071 199.866 121.726 199.866C121.38 199.866 121.086 199.749 120.844 199.516ZM131.362 208H129.388V207.09C128.846 207.771 128.174 208.112 127.372 208.112C126.578 208.112 125.911 207.883 125.37 207.426C124.828 206.959 124.558 206.343 124.558 205.578C124.558 204.803 124.838 204.225 125.398 203.842C125.958 203.459 126.723 203.268 127.694 203.268H129.262V203.226C129.262 202.423 128.837 202.022 127.988 202.022C127.624 202.022 127.236 202.097 126.826 202.246C126.424 202.386 126.084 202.563 125.804 202.778L124.866 201.42C125.855 200.701 126.984 200.342 128.254 200.342C129.168 200.342 129.915 200.571 130.494 201.028C131.072 201.485 131.362 202.209 131.362 203.198V208ZM129.248 205.13V204.766H127.932C127.092 204.766 126.672 205.027 126.672 205.55C126.672 205.821 126.77 206.031 126.966 206.18C127.171 206.32 127.46 206.39 127.834 206.39C128.207 206.39 128.534 206.278 128.814 206.054C129.103 205.821 129.248 205.513 129.248 205.13ZM133.616 207.762C133.383 207.519 133.266 207.225 133.266 206.88C133.266 206.535 133.383 206.245 133.616 206.012C133.859 205.769 134.153 205.648 134.498 205.648C134.843 205.648 135.133 205.769 135.366 206.012C135.609 206.245 135.73 206.535 135.73 206.88C135.73 207.225 135.609 207.519 135.366 207.762C135.133 207.995 134.843 208.112 134.498 208.112C134.153 208.112 133.859 207.995 133.616 207.762ZM138.533 210.968C137.795 210.968 137.1 210.669 136.447 210.072L137.399 208.518C137.753 208.863 138.117 209.036 138.491 209.036C138.687 209.036 138.855 208.938 138.995 208.742C139.135 208.555 139.205 208.355 139.205 208.14C139.205 207.925 138.234 205.368 136.293 200.468H138.533L140.367 205.158L142.201 200.468H144.441L140.941 209.344C140.735 209.857 140.413 210.254 139.975 210.534C139.545 210.823 139.065 210.968 138.533 210.968ZM147.191 204.234C147.191 204.85 147.363 205.354 147.709 205.746C148.063 206.129 148.511 206.32 149.053 206.32C149.603 206.32 150.051 206.129 150.397 205.746C150.751 205.354 150.929 204.85 150.929 204.234C150.929 203.618 150.751 203.114 150.397 202.722C150.051 202.33 149.603 202.134 149.053 202.134C148.511 202.134 148.063 202.33 147.709 202.722C147.363 203.114 147.191 203.618 147.191 204.234ZM153.043 204.234C153.043 205.326 152.665 206.245 151.909 206.992C151.153 207.739 150.201 208.112 149.053 208.112C147.914 208.112 146.967 207.739 146.211 206.992C145.455 206.245 145.077 205.326 145.077 204.234C145.077 203.142 145.455 202.223 146.211 201.476C146.967 200.72 147.914 200.342 149.053 200.342C150.201 200.342 151.153 200.72 151.909 201.476C152.665 202.223 153.043 203.142 153.043 204.234ZM159.661 204.528V200.468H161.775V208H159.661V207.006C159.138 207.743 158.461 208.112 157.631 208.112C156.809 208.112 156.119 207.855 155.559 207.342C154.999 206.819 154.719 206.049 154.719 205.032V200.468H156.833V204.57C156.833 205.727 157.257 206.306 158.107 206.306C158.527 206.306 158.891 206.157 159.199 205.858C159.507 205.55 159.661 205.107 159.661 204.528ZM166.058 203.8V208H163.958V200.468H166.058V201.308C166.692 200.664 167.406 200.342 168.2 200.342C168.993 200.342 169.656 200.622 170.188 201.182C170.729 201.742 171 202.489 171 203.422V208H168.9V203.744C168.9 202.587 168.475 202.008 167.626 202.008C167.206 202.008 166.837 202.162 166.52 202.47C166.212 202.769 166.058 203.212 166.058 203.8ZM178.377 204.08C178.377 203.473 178.209 202.997 177.873 202.652C177.537 202.307 177.122 202.134 176.627 202.134C176.132 202.134 175.703 202.307 175.339 202.652C174.984 202.997 174.807 203.469 174.807 204.066C174.807 204.663 174.98 205.149 175.325 205.522C175.68 205.886 176.109 206.068 176.613 206.068C177.117 206.068 177.537 205.886 177.873 205.522C178.209 205.158 178.377 204.677 178.377 204.08ZM178.671 206.726C178.008 207.463 177.182 207.832 176.193 207.832C175.213 207.832 174.382 207.501 173.701 206.838C173.029 206.166 172.693 205.275 172.693 204.164C172.693 203.044 173.038 202.129 173.729 201.42C174.429 200.701 175.227 200.342 176.123 200.342C177.019 200.342 177.761 200.711 178.349 201.448V200.454H180.449V207.02C180.449 207.692 180.332 208.289 180.099 208.812C179.866 209.335 179.553 209.745 179.161 210.044C178.386 210.66 177.472 210.968 176.417 210.968C175.857 210.968 175.283 210.875 174.695 210.688C174.116 210.511 173.608 210.254 173.169 209.918L173.981 208.336C174.672 208.859 175.4 209.12 176.165 209.12C176.94 209.12 177.551 208.929 177.999 208.546C178.447 208.163 178.671 207.557 178.671 206.726ZM191.275 206.292C191.527 206.292 191.746 206.091 191.933 205.69C192.129 205.289 192.227 204.785 192.227 204.178C192.227 202.862 191.849 201.775 191.093 200.916C190.337 200.048 189.324 199.614 188.055 199.614C186.786 199.614 185.717 200.067 184.849 200.972C183.981 201.877 183.547 202.965 183.547 204.234C183.547 205.494 183.953 206.544 184.765 207.384C185.586 208.224 186.599 208.644 187.803 208.644C188.746 208.644 189.576 208.299 190.295 207.608L190.869 208.602C190.496 208.929 190.02 209.19 189.441 209.386C188.862 209.591 188.316 209.694 187.803 209.694C186.244 209.694 184.938 209.171 183.883 208.126C182.838 207.09 182.315 205.793 182.315 204.234C182.315 202.666 182.866 201.331 183.967 200.23C185.078 199.119 186.412 198.564 187.971 198.564C189.53 198.564 190.832 199.096 191.877 200.16C192.922 201.224 193.445 202.549 193.445 204.136C193.445 205.163 193.23 205.989 192.801 206.614C192.381 207.23 191.826 207.538 191.135 207.538C190.78 207.538 190.454 207.431 190.155 207.216C189.866 207.001 189.665 206.731 189.553 206.404C189.04 207.067 188.386 207.398 187.593 207.398C186.809 207.398 186.123 207.099 185.535 206.502C184.956 205.905 184.667 205.149 184.667 204.234C184.667 203.31 184.928 202.535 185.451 201.91C185.983 201.275 186.678 200.958 187.537 200.958C187.826 200.958 188.102 201.023 188.363 201.154C188.624 201.275 188.811 201.397 188.923 201.518L189.105 201.7V201.126H190.855V205.592C190.855 206.059 190.995 206.292 191.275 206.292ZM189.119 204.178C189.119 203.711 188.993 203.324 188.741 203.016C188.498 202.708 188.176 202.554 187.775 202.554C187.374 202.554 187.052 202.708 186.809 203.016C186.576 203.324 186.459 203.707 186.459 204.164C186.459 204.612 186.576 205.004 186.809 205.34C187.052 205.676 187.378 205.844 187.789 205.844C188.2 205.844 188.522 205.685 188.755 205.368C188.998 205.041 189.119 204.645 189.119 204.178ZM199.688 200.342C200.565 200.342 201.344 200.711 202.026 201.448C202.716 202.176 203.062 203.095 203.062 204.206C203.062 205.317 202.716 206.245 202.026 206.992C201.344 207.739 200.542 208.112 199.618 208.112C198.703 208.112 197.966 207.743 197.406 207.006V210.716H195.306V200.468H197.406V201.308C198.05 200.664 198.81 200.342 199.688 200.342ZM197.378 204.248C197.378 204.855 197.546 205.354 197.882 205.746C198.227 206.129 198.642 206.32 199.128 206.32C199.613 206.32 200.038 206.129 200.402 205.746C200.766 205.354 200.948 204.855 200.948 204.248C200.948 203.641 200.77 203.133 200.416 202.722C200.061 202.311 199.636 202.106 199.142 202.106C198.647 202.106 198.227 202.311 197.882 202.722C197.546 203.123 197.378 203.632 197.378 204.248ZM206.93 208H204.83V197.612H206.93V208ZM215.642 206.908C214.792 207.711 213.794 208.112 212.646 208.112C211.507 208.112 210.564 207.762 209.818 207.062C209.071 206.353 208.698 205.405 208.698 204.22C208.698 203.035 209.076 202.092 209.832 201.392C210.597 200.692 211.498 200.342 212.534 200.342C213.57 200.342 214.447 200.655 215.166 201.28C215.894 201.905 216.258 202.764 216.258 203.856V204.976H210.77C210.835 205.387 211.05 205.723 211.414 205.984C211.778 206.245 212.188 206.376 212.646 206.376C213.383 206.376 213.99 206.129 214.466 205.634L215.642 206.908ZM214.13 203.478C214.083 203.03 213.915 202.685 213.626 202.442C213.336 202.199 212.982 202.078 212.562 202.078C212.151 202.078 211.773 202.204 211.428 202.456C211.082 202.708 210.882 203.049 210.826 203.478H214.13ZM218.112 207.762C217.879 207.519 217.762 207.225 217.762 206.88C217.762 206.535 217.879 206.245 218.112 206.012C218.355 205.769 218.649 205.648 218.994 205.648C219.339 205.648 219.629 205.769 219.862 206.012C220.105 206.245 220.226 206.535 220.226 206.88C220.226 207.225 220.105 207.519 219.862 207.762C219.629 207.995 219.339 208.112 218.994 208.112C218.649 208.112 218.355 207.995 218.112 207.762ZM225.817 206.25C226.517 206.25 227.147 205.9 227.707 205.2L228.953 206.6C227.983 207.608 226.933 208.112 225.803 208.112C224.674 208.112 223.717 207.757 222.933 207.048C222.159 206.329 221.771 205.396 221.771 204.248C221.771 203.091 222.163 202.153 222.947 201.434C223.741 200.706 224.679 200.342 225.761 200.342C226.303 200.342 226.849 200.454 227.399 200.678C227.959 200.902 228.449 201.233 228.869 201.672L227.777 203.1C227.535 202.811 227.236 202.587 226.881 202.428C226.536 202.269 226.191 202.19 225.845 202.19C225.295 202.19 224.819 202.372 224.417 202.736C224.025 203.091 223.829 203.59 223.829 204.234C223.829 204.869 224.025 205.363 224.417 205.718C224.819 206.073 225.285 206.25 225.817 206.25ZM232.111 204.234C232.111 204.85 232.283 205.354 232.629 205.746C232.983 206.129 233.431 206.32 233.973 206.32C234.523 206.32 234.971 206.129 235.317 205.746C235.671 205.354 235.849 204.85 235.849 204.234C235.849 203.618 235.671 203.114 235.317 202.722C234.971 202.33 234.523 202.134 233.973 202.134C233.431 202.134 232.983 202.33 232.629 202.722C232.283 203.114 232.111 203.618 232.111 204.234ZM237.963 204.234C237.963 205.326 237.585 206.245 236.829 206.992C236.073 207.739 235.121 208.112 233.973 208.112C232.834 208.112 231.887 207.739 231.131 206.992C230.375 206.245 229.997 205.326 229.997 204.234C229.997 203.142 230.375 202.223 231.131 201.476C231.887 200.72 232.834 200.342 233.973 200.342C235.121 200.342 236.073 200.72 236.829 201.476C237.585 202.223 237.963 203.142 237.963 204.234ZM246.639 203.94V208H244.525V203.884C244.525 203.287 244.431 202.848 244.245 202.568C244.067 202.288 243.773 202.148 243.363 202.148C242.961 202.148 242.602 202.302 242.285 202.61C241.977 202.909 241.823 203.352 241.823 203.94V208H239.723V200.468H241.823V201.322C242.401 200.669 243.064 200.342 243.811 200.342C244.287 200.342 244.716 200.482 245.099 200.762C245.491 201.042 245.785 201.383 245.981 201.784C246.27 201.327 246.657 200.972 247.143 200.72C247.637 200.468 248.132 200.342 248.627 200.342C249.513 200.342 250.227 200.608 250.769 201.14C251.31 201.663 251.581 202.423 251.581 203.422V208H249.467V203.884C249.467 202.727 249.042 202.148 248.193 202.148C247.773 202.148 247.409 202.302 247.101 202.61C246.793 202.909 246.639 203.352 246.639 203.94Z" fill="white"/>
</g>
<path d="M123.281 242.304H125.793V246.272C124.683 247.509 123.147 248.128 121.185 248.128C119.542 248.128 118.161 247.584 117.041 246.496C115.931 245.408 115.377 244.037 115.377 242.384C115.377 240.72 115.942 239.333 117.073 238.224C118.214 237.115 119.585 236.56 121.185 236.56C122.795 236.56 124.193 237.088 125.377 238.144L124.081 240.016C123.579 239.579 123.115 239.28 122.689 239.12C122.273 238.949 121.819 238.864 121.329 238.864C120.379 238.864 119.579 239.189 118.929 239.84C118.278 240.48 117.953 241.328 117.953 242.384C117.953 243.44 118.262 244.288 118.881 244.928C119.51 245.557 120.257 245.872 121.121 245.872C121.985 245.872 122.705 245.707 123.281 245.376V242.304ZM135.333 246.752C134.362 247.669 133.221 248.128 131.909 248.128C130.607 248.128 129.53 247.728 128.677 246.928C127.823 246.117 127.397 245.035 127.397 243.68C127.397 242.325 127.829 241.248 128.693 240.448C129.567 239.648 130.597 239.248 131.781 239.248C132.965 239.248 133.967 239.605 134.789 240.32C135.621 241.035 136.037 242.016 136.037 243.264V244.544H129.765C129.839 245.013 130.085 245.397 130.501 245.696C130.917 245.995 131.386 246.144 131.909 246.144C132.751 246.144 133.445 245.861 133.989 245.296L135.333 246.752ZM133.605 242.832C133.551 242.32 133.359 241.925 133.029 241.648C132.698 241.371 132.293 241.232 131.813 241.232C131.343 241.232 130.911 241.376 130.517 241.664C130.122 241.952 129.893 242.341 129.829 242.832H133.605ZM140.638 241.12V244.976C140.638 245.307 140.723 245.568 140.894 245.76C141.064 245.941 141.267 246.032 141.502 246.032C141.95 246.032 142.328 245.829 142.638 245.424L143.534 247.104C142.787 247.787 141.998 248.128 141.166 248.128C140.344 248.128 139.646 247.856 139.07 247.312C138.504 246.768 138.222 246.027 138.222 245.088V241.12H137.214V239.392H138.222V236.816H140.638V239.392H142.718V241.12H140.638ZM153.079 238.752C152.663 238.752 152.332 238.853 152.087 239.056C151.852 239.248 151.735 239.509 151.735 239.84C151.735 240.16 151.879 240.416 152.167 240.608C152.466 240.8 153.143 241.029 154.199 241.296C155.266 241.552 156.092 241.941 156.679 242.464C157.266 242.987 157.559 243.749 157.559 244.752C157.559 245.755 157.18 246.571 156.423 247.2C155.676 247.819 154.69 248.128 153.463 248.128C151.692 248.128 150.098 247.472 148.679 246.16L150.167 244.336C151.372 245.392 152.487 245.92 153.511 245.92C153.97 245.92 154.327 245.824 154.583 245.632C154.85 245.429 154.983 245.163 154.983 244.832C154.983 244.491 154.844 244.224 154.567 244.032C154.29 243.829 153.74 243.627 152.919 243.424C151.618 243.115 150.663 242.715 150.055 242.224C149.458 241.723 149.159 240.944 149.159 239.888C149.159 238.821 149.538 238 150.295 237.424C151.063 236.848 152.018 236.56 153.159 236.56C153.906 236.56 154.652 236.688 155.399 236.944C156.146 237.2 156.796 237.563 157.351 238.032L156.087 239.856C155.116 239.12 154.114 238.752 153.079 238.752ZM164.985 244.032V239.392H167.401V248H164.985V246.864C164.388 247.707 163.614 248.128 162.665 248.128C161.726 248.128 160.937 247.835 160.297 247.248C159.657 246.651 159.337 245.771 159.337 244.608V239.392H161.753V244.08C161.753 245.403 162.238 246.064 163.209 246.064C163.689 246.064 164.105 245.893 164.457 245.552C164.809 245.2 164.985 244.693 164.985 244.032ZM174.775 239.248C175.778 239.248 176.669 239.669 177.447 240.512C178.237 241.344 178.631 242.395 178.631 243.664C178.631 244.933 178.237 245.995 177.447 246.848C176.669 247.701 175.751 248.128 174.695 248.128C173.65 248.128 172.807 247.707 172.167 246.864V251.104H169.767V239.392H172.167V240.352C172.903 239.616 173.773 239.248 174.775 239.248ZM172.135 243.712C172.135 244.405 172.327 244.976 172.711 245.424C173.106 245.861 173.581 246.08 174.135 246.08C174.69 246.08 175.175 245.861 175.591 245.424C176.007 244.976 176.215 244.405 176.215 243.712C176.215 243.019 176.013 242.437 175.607 241.968C175.202 241.499 174.717 241.264 174.151 241.264C173.586 241.264 173.106 241.499 172.711 241.968C172.327 242.427 172.135 243.008 172.135 243.712ZM185.531 239.248C186.534 239.248 187.425 239.669 188.203 240.512C188.993 241.344 189.387 242.395 189.387 243.664C189.387 244.933 188.993 245.995 188.203 246.848C187.425 247.701 186.507 248.128 185.451 248.128C184.406 248.128 183.563 247.707 182.923 246.864V251.104H180.523V239.392H182.923V240.352C183.659 239.616 184.529 239.248 185.531 239.248ZM182.891 243.712C182.891 244.405 183.083 244.976 183.467 245.424C183.862 245.861 184.337 246.08 184.891 246.08C185.446 246.08 185.931 245.861 186.347 245.424C186.763 244.976 186.971 244.405 186.971 243.712C186.971 243.019 186.769 242.437 186.363 241.968C185.958 241.499 185.473 241.264 184.907 241.264C184.342 241.264 183.862 241.499 183.467 241.968C183.083 242.427 182.891 243.008 182.891 243.712ZM193.2 243.696C193.2 244.4 193.397 244.976 193.792 245.424C194.197 245.861 194.709 246.08 195.328 246.08C195.957 246.08 196.469 245.861 196.864 245.424C197.269 244.976 197.472 244.4 197.472 243.696C197.472 242.992 197.269 242.416 196.864 241.968C196.469 241.52 195.957 241.296 195.328 241.296C194.709 241.296 194.197 241.52 193.792 241.968C193.397 242.416 193.2 242.992 193.2 243.696ZM199.888 243.696C199.888 244.944 199.456 245.995 198.592 246.848C197.728 247.701 196.64 248.128 195.328 248.128C194.026 248.128 192.944 247.701 192.08 246.848C191.216 245.995 190.784 244.944 190.784 243.696C190.784 242.448 191.216 241.397 192.08 240.544C192.944 239.68 194.026 239.248 195.328 239.248C196.64 239.248 197.728 239.68 198.592 240.544C199.456 241.397 199.888 242.448 199.888 243.696ZM206.298 241.504C205.584 241.504 205.05 241.76 204.698 242.272C204.346 242.773 204.17 243.44 204.17 244.272V248H201.77V239.392H204.17V240.528C204.48 240.176 204.864 239.877 205.322 239.632C205.792 239.387 206.266 239.259 206.746 239.248L206.762 241.504H206.298ZM211.312 241.12V244.976C211.312 245.307 211.398 245.568 211.569 245.76C211.739 245.941 211.942 246.032 212.177 246.032C212.625 246.032 213.003 245.829 213.313 245.424L214.209 247.104C213.462 247.787 212.673 248.128 211.841 248.128C211.019 248.128 210.321 247.856 209.745 247.312C209.179 246.768 208.897 246.027 208.897 245.088V241.12H207.889V239.392H208.897V236.816H211.312V239.392H213.393V241.12H211.312Z" fill="white"/>
<rect x="70.5" y="269.5" width="188" height="53" rx="26.5" stroke="#23A6F0"/>
<path d="M110.57 292.908C110.206 292.908 109.916 292.997 109.702 293.174C109.496 293.342 109.394 293.571 109.394 293.86C109.394 294.14 109.52 294.364 109.772 294.532C110.033 294.7 110.626 294.901 111.55 295.134C112.483 295.358 113.206 295.699 113.72 296.156C114.233 296.613 114.49 297.281 114.49 298.158C114.49 299.035 114.158 299.749 113.496 300.3C112.842 300.841 111.979 301.112 110.906 301.112C109.356 301.112 107.961 300.538 106.72 299.39L108.022 297.794C109.076 298.718 110.052 299.18 110.948 299.18C111.349 299.18 111.662 299.096 111.886 298.928C112.119 298.751 112.236 298.517 112.236 298.228C112.236 297.929 112.114 297.696 111.872 297.528C111.629 297.351 111.148 297.173 110.43 296.996C109.291 296.725 108.456 296.375 107.924 295.946C107.401 295.507 107.14 294.826 107.14 293.902C107.14 292.969 107.471 292.25 108.134 291.746C108.806 291.242 109.641 290.99 110.64 290.99C111.293 290.99 111.946 291.102 112.6 291.326C113.253 291.55 113.822 291.867 114.308 292.278L113.202 293.874C112.352 293.23 111.475 292.908 110.57 292.908ZM121.1 297.528V293.468H123.214V301H121.1V300.006C120.577 300.743 119.9 301.112 119.07 301.112C118.248 301.112 117.558 300.855 116.998 300.342C116.438 299.819 116.158 299.049 116.158 298.032V293.468H118.272V297.57C118.272 298.727 118.696 299.306 119.546 299.306C119.966 299.306 120.33 299.157 120.638 298.858C120.946 298.55 121.1 298.107 121.1 297.528ZM129.737 293.342C130.651 293.342 131.449 293.701 132.131 294.42C132.812 295.129 133.153 296.044 133.153 297.164C133.153 298.284 132.803 299.222 132.103 299.978C131.403 300.734 130.605 301.112 129.709 301.112C128.822 301.112 128.085 300.743 127.497 300.006V301H125.397V290.612H127.497V294.308C128.075 293.664 128.822 293.342 129.737 293.342ZM127.469 297.248C127.469 297.855 127.637 298.354 127.973 298.746C128.318 299.129 128.733 299.32 129.219 299.32C129.704 299.32 130.129 299.129 130.493 298.746C130.857 298.354 131.039 297.855 131.039 297.248C131.039 296.641 130.861 296.133 130.507 295.722C130.152 295.311 129.727 295.106 129.233 295.106C128.738 295.106 128.318 295.311 127.973 295.722C127.637 296.123 127.469 296.632 127.469 297.248ZM141.837 296.94V301H139.723V296.884C139.723 296.287 139.63 295.848 139.443 295.568C139.266 295.288 138.972 295.148 138.561 295.148C138.16 295.148 137.8 295.302 137.483 295.61C137.175 295.909 137.021 296.352 137.021 296.94V301H134.921V293.468H137.021V294.322C137.6 293.669 138.262 293.342 139.009 293.342C139.485 293.342 139.914 293.482 140.297 293.762C140.689 294.042 140.983 294.383 141.179 294.784C141.468 294.327 141.856 293.972 142.341 293.72C142.836 293.468 143.33 293.342 143.825 293.342C144.712 293.342 145.426 293.608 145.967 294.14C146.508 294.663 146.779 295.423 146.779 296.422V301H144.665V296.884C144.665 295.727 144.24 295.148 143.391 295.148C142.971 295.148 142.607 295.302 142.299 295.61C141.991 295.909 141.837 296.352 141.837 296.94ZM150.989 301H148.889V293.468H150.989V301ZM149.057 292.516C148.823 292.273 148.707 291.979 148.707 291.634C148.707 291.289 148.823 290.999 149.057 290.766C149.299 290.523 149.593 290.402 149.939 290.402C150.284 290.402 150.573 290.523 150.807 290.766C151.049 290.999 151.171 291.289 151.171 291.634C151.171 291.979 151.049 292.273 150.807 292.516C150.573 292.749 150.284 292.866 149.939 292.866C149.593 292.866 149.299 292.749 149.057 292.516ZM155.682 294.98V298.354C155.682 298.643 155.757 298.872 155.906 299.04C156.056 299.199 156.233 299.278 156.438 299.278C156.83 299.278 157.162 299.101 157.432 298.746L158.216 300.216C157.563 300.813 156.872 301.112 156.144 301.112C155.426 301.112 154.814 300.874 154.31 300.398C153.816 299.922 153.568 299.273 153.568 298.452V294.98H152.686V293.468H153.568V291.214H155.682V293.468H157.502V294.98H155.682ZM171.582 294.462C171.582 296.03 170.961 297.043 169.72 297.5L172.198 301H169.51L167.34 297.878H165.828V301H163.644V291.214H167.354C168.875 291.214 169.958 291.471 170.602 291.984C171.255 292.497 171.582 293.323 171.582 294.462ZM167.424 295.988C168.171 295.988 168.679 295.867 168.95 295.624C169.221 295.381 169.356 294.999 169.356 294.476C169.356 293.944 169.216 293.58 168.936 293.384C168.656 293.188 168.166 293.09 167.466 293.09H165.828V295.988H167.424ZM180.33 299.908C179.48 300.711 178.482 301.112 177.334 301.112C176.195 301.112 175.252 300.762 174.506 300.062C173.759 299.353 173.386 298.405 173.386 297.22C173.386 296.035 173.764 295.092 174.52 294.392C175.285 293.692 176.186 293.342 177.222 293.342C178.258 293.342 179.135 293.655 179.854 294.28C180.582 294.905 180.946 295.764 180.946 296.856V297.976H175.458C175.523 298.387 175.738 298.723 176.102 298.984C176.466 299.245 176.876 299.376 177.334 299.376C178.071 299.376 178.678 299.129 179.154 298.634L180.33 299.908ZM178.818 296.478C178.771 296.03 178.603 295.685 178.314 295.442C178.024 295.199 177.67 295.078 177.25 295.078C176.839 295.078 176.461 295.204 176.116 295.456C175.77 295.708 175.57 296.049 175.514 296.478H178.818ZM185.838 301.112C184.877 301.112 184.037 300.753 183.318 300.034C182.599 299.306 182.24 298.377 182.24 297.248C182.24 296.109 182.59 295.176 183.29 294.448C183.99 293.711 184.769 293.342 185.628 293.342C186.487 293.342 187.238 293.664 187.882 294.308V293.468H189.996V303.716H187.882V300.398C187.285 300.874 186.603 301.112 185.838 301.112ZM184.354 297.248C184.354 297.855 184.536 298.354 184.9 298.746C185.264 299.129 185.689 299.32 186.174 299.32C186.659 299.32 187.07 299.129 187.406 298.746C187.742 298.354 187.91 297.855 187.91 297.248C187.91 296.632 187.742 296.123 187.406 295.722C187.07 295.311 186.655 295.106 186.16 295.106C185.665 295.106 185.241 295.311 184.886 295.722C184.531 296.123 184.354 296.632 184.354 297.248ZM197.042 297.528V293.468H199.156V301H197.042V300.006C196.52 300.743 195.843 301.112 195.012 301.112C194.191 301.112 193.5 300.855 192.94 300.342C192.38 299.819 192.1 299.049 192.1 298.032V293.468H194.214V297.57C194.214 298.727 194.639 299.306 195.488 299.306C195.908 299.306 196.272 299.157 196.58 298.858C196.888 298.55 197.042 298.107 197.042 297.528ZM207.863 299.908C207.014 300.711 206.015 301.112 204.867 301.112C203.729 301.112 202.786 300.762 202.039 300.062C201.293 299.353 200.919 298.405 200.919 297.22C200.919 296.035 201.297 295.092 202.053 294.392C202.819 293.692 203.719 293.342 204.755 293.342C205.791 293.342 206.669 293.655 207.387 294.28C208.115 294.905 208.479 295.764 208.479 296.856V297.976H202.991C203.057 298.387 203.271 298.723 203.635 298.984C203.999 299.245 204.41 299.376 204.867 299.376C205.605 299.376 206.211 299.129 206.687 298.634L207.863 299.908ZM206.351 296.478C206.305 296.03 206.137 295.685 205.847 295.442C205.558 295.199 205.203 295.078 204.783 295.078C204.373 295.078 203.995 295.204 203.649 295.456C203.304 295.708 203.103 296.049 203.047 296.478H206.351ZM215.864 298.662C215.864 299.399 215.588 299.992 215.038 300.44C214.496 300.888 213.806 301.112 212.966 301.112C212.406 301.112 211.822 301.014 211.216 300.818C210.609 300.613 210.063 300.314 209.578 299.922L210.502 298.606C211.286 299.213 212.121 299.516 213.008 299.516C213.278 299.516 213.493 299.465 213.652 299.362C213.81 299.25 213.89 299.105 213.89 298.928C213.89 298.751 213.778 298.587 213.554 298.438C213.339 298.289 213.022 298.149 212.602 298.018C212.191 297.887 211.874 297.775 211.65 297.682C211.435 297.589 211.188 297.453 210.908 297.276C210.338 296.921 210.054 296.399 210.054 295.708C210.054 295.008 210.334 294.439 210.894 294C211.454 293.561 212.177 293.342 213.064 293.342C213.95 293.342 214.837 293.641 215.724 294.238L214.94 295.638C214.286 295.19 213.633 294.966 212.98 294.966C212.336 294.966 212.014 295.143 212.014 295.498C212.014 295.694 212.116 295.848 212.322 295.96C212.527 296.072 212.868 296.203 213.344 296.352C213.82 296.501 214.156 296.618 214.352 296.702C214.557 296.777 214.8 296.898 215.08 297.066C215.602 297.383 215.864 297.915 215.864 298.662ZM220.118 294.98V298.354C220.118 298.643 220.193 298.872 220.342 299.04C220.492 299.199 220.669 299.278 220.874 299.278C221.266 299.278 221.598 299.101 221.868 298.746L222.652 300.216C221.999 300.813 221.308 301.112 220.58 301.112C219.862 301.112 219.25 300.874 218.746 300.398C218.252 299.922 218.004 299.273 218.004 298.452V294.98H217.122V293.468H218.004V291.214H220.118V293.468H221.938V294.98H220.118Z" fill="#23A6F0"/>
<defs>
<clipPath id="clip0_232_743">
<rect width="216" height="48" fill="white" transform="translate(56.5 167)"/>
</clipPath>
</defs>
</svg>
