<svg width="12" height="12" viewBox="0 0 12 12" fill="none" xmlns="http://www.w3.org/2000/svg">
<g clip-path="url(#clip0_1_5027)">
<path d="M5.99976 6C6.79541 6 7.55847 5.68393 8.12108 5.12132C8.68369 4.55871 8.99976 3.79565 8.99976 3C8.99976 2.20435 8.68369 1.44129 8.12108 0.87868C7.55847 0.316071 6.79541 0 5.99976 0C5.20411 0 4.44104 0.316071 3.87844 0.87868C3.31583 1.44129 2.99976 2.20435 2.99976 3C2.99976 3.79565 3.31583 4.55871 3.87844 5.12132C4.44104 5.68393 5.20411 6 5.99976 6ZM7.99976 3C7.99976 3.53043 7.78904 4.03914 7.41397 4.41421C7.0389 4.78929 6.53019 5 5.99976 5C5.46932 5 4.96062 4.78929 4.58554 4.41421C4.21047 4.03914 3.99976 3.53043 3.99976 3C3.99976 2.46957 4.21047 1.96086 4.58554 1.58579C4.96062 1.21071 5.46932 1 5.99976 1C6.53019 1 7.0389 1.21071 7.41397 1.58579C7.78904 1.96086 7.99976 2.46957 7.99976 3ZM11.9998 11C11.9998 12 10.9998 12 10.9998 12H0.999756C0.999756 12 -0.000244141 12 -0.000244141 11C-0.000244141 10 0.999756 7 5.99976 7C10.9998 7 11.9998 10 11.9998 11ZM10.9998 10.996C10.9988 10.75 10.8458 10.01 10.1678 9.332C9.51576 8.68 8.28876 8 5.99976 8C3.70976 8 2.48376 8.68 1.83176 9.332C1.15376 10.01 1.00176 10.75 0.999756 10.996H10.9998Z" fill="#23A6F0"/>
</g>
<defs>
<clipPath id="clip0_1_5027">
<rect width="12" height="12" fill="white" transform="translate(-0.000244141)"/>
</clipPath>
</defs>
</svg>
