<svg width="412" height="429" viewBox="0 0 412 429" fill="none" xmlns="http://www.w3.org/2000/svg">
<path d="M135.16 9.86C134.48 9.86 133.92 10 133.48 10.28C133.04 10.56 132.82 10.9867 132.82 11.56C132.82 12.12 133.04 12.5533 133.48 12.86C133.92 13.1533 134.853 13.4733 136.28 13.82C137.72 14.1667 138.8 14.6533 139.52 15.28C140.253 15.9067 140.62 16.8333 140.62 18.06C140.62 19.2733 140.16 20.26 139.24 21.02C138.32 21.78 137.113 22.16 135.62 22.16C133.433 22.16 131.493 21.4067 129.8 19.9L131.28 18.12C132.693 19.3467 134.16 19.96 135.68 19.96C136.44 19.96 137.04 19.8 137.48 19.48C137.933 19.1467 138.16 18.7133 138.16 18.18C138.16 17.6333 137.947 17.2133 137.52 16.92C137.107 16.6133 136.387 16.34 135.36 16.1C134.333 15.8467 133.553 15.62 133.02 15.42C132.487 15.2067 132.013 14.9333 131.6 14.6C130.773 13.9733 130.36 13.0133 130.36 11.72C130.36 10.4267 130.827 9.43333 131.76 8.74C132.707 8.03333 133.873 7.68 135.26 7.68C136.153 7.68 137.04 7.82667 137.92 8.12C138.8 8.41333 139.56 8.82667 140.2 9.36L138.94 11.14C138.527 10.7667 137.967 10.46 137.26 10.22C136.553 9.98 135.853 9.86 135.16 9.86ZM146.878 18.8C147.518 19.5467 148.384 19.92 149.478 19.92C150.571 19.92 151.438 19.5467 152.078 18.8C152.718 18.0533 153.038 17.04 153.038 15.76V8.02H155.398V15.86C155.398 17.8733 154.844 19.4267 153.738 20.52C152.631 21.6 151.211 22.14 149.478 22.14C147.744 22.14 146.324 21.6 145.218 20.52C144.111 19.4267 143.558 17.8733 143.558 15.86V8.02H145.918V15.76C145.918 17.04 146.238 18.0533 146.878 18.8ZM161.649 22H159.289V8.02H162.969L167.189 16.8L171.409 8.02H175.069V22H172.709V11.08L167.829 20.78H166.509L161.649 11.08V22ZM181.517 22H179.157V8.02H182.837L187.057 16.8L191.277 8.02H194.937V22H192.577V11.08L187.697 20.78H186.377L181.517 11.08V22ZM208.845 8.02V10.24H201.385V13.94H208.085V16.04H201.385V19.78H209.085V22H199.025V8.02H208.845ZM223.471 12.56C223.471 14.8667 222.464 16.32 220.451 16.92L224.111 22H221.111L217.771 17.3H214.671V22H212.311V8.02H217.511C219.644 8.02 221.171 8.38 222.091 9.1C223.011 9.82 223.471 10.9733 223.471 12.56ZM217.611 15.16C218.944 15.16 219.851 14.9533 220.331 14.54C220.811 14.1267 221.051 13.4667 221.051 12.56C221.051 11.64 220.804 11.0133 220.311 10.68C219.818 10.3333 218.938 10.16 217.671 10.16H214.671V15.16H217.611ZM236.21 15.74C237.157 14.78 237.83 14.0267 238.23 13.48C238.63 12.9333 238.83 12.38 238.83 11.82C238.83 11.26 238.617 10.7867 238.19 10.4C237.763 10 237.223 9.8 236.57 9.8C235.423 9.8 234.47 10.3867 233.71 11.56L231.81 10.46C232.423 9.54 233.097 8.84667 233.83 8.38C234.577 7.91333 235.53 7.68 236.69 7.68C237.863 7.68 238.89 8.05333 239.77 8.8C240.65 9.53333 241.09 10.54 241.09 11.82C241.09 12.54 240.903 13.2267 240.53 13.88C240.157 14.5333 239.47 15.3733 238.47 16.4L235.19 19.74H241.53V22H231.97V20L236.21 15.74ZM247.067 11.14C246.521 12.1 246.247 13.36 246.247 14.92C246.247 16.48 246.521 17.74 247.067 18.7C247.627 19.66 248.494 20.14 249.667 20.14C250.841 20.14 251.694 19.6667 252.227 18.72C252.774 17.76 253.047 16.4933 253.047 14.92C253.047 13.3467 252.774 12.0867 252.227 11.14C251.694 10.18 250.841 9.7 249.667 9.7C248.494 9.7 247.627 10.18 247.067 11.14ZM245.387 20.2C244.441 18.88 243.967 17.12 243.967 14.92C243.967 12.72 244.441 10.9667 245.387 9.66C246.334 8.34 247.761 7.68 249.667 7.68C251.574 7.68 253.001 8.34 253.947 9.66C254.894 10.9667 255.367 12.72 255.367 14.92C255.367 17.12 254.894 18.88 253.947 20.2C253.001 21.5067 251.574 22.16 249.667 22.16C247.761 22.16 246.334 21.5067 245.387 20.2ZM262.157 15.74C263.104 14.78 263.777 14.0267 264.177 13.48C264.577 12.9333 264.777 12.38 264.777 11.82C264.777 11.26 264.564 10.7867 264.137 10.4C263.71 10 263.17 9.8 262.517 9.8C261.37 9.8 260.417 10.3867 259.657 11.56L257.757 10.46C258.37 9.54 259.044 8.84667 259.777 8.38C260.524 7.91333 261.477 7.68 262.637 7.68C263.81 7.68 264.837 8.05333 265.717 8.8C266.597 9.53333 267.037 10.54 267.037 11.82C267.037 12.54 266.85 13.2267 266.477 13.88C266.104 14.5333 265.417 15.3733 264.417 16.4L261.137 19.74H267.477V22H257.917V20L262.157 15.74ZM273.014 11.14C272.468 12.1 272.194 13.36 272.194 14.92C272.194 16.48 272.468 17.74 273.014 18.7C273.574 19.66 274.441 20.14 275.614 20.14C276.788 20.14 277.641 19.6667 278.174 18.72C278.721 17.76 278.994 16.4933 278.994 14.92C278.994 13.3467 278.721 12.0867 278.174 11.14C277.641 10.18 276.788 9.7 275.614 9.7C274.441 9.7 273.574 10.18 273.014 11.14ZM271.334 20.2C270.388 18.88 269.914 17.12 269.914 14.92C269.914 12.72 270.388 10.9667 271.334 9.66C272.281 8.34 273.708 7.68 275.614 7.68C277.521 7.68 278.948 8.34 279.894 9.66C280.841 10.9667 281.314 12.72 281.314 14.92C281.314 17.12 280.841 18.88 279.894 20.2C278.948 21.5067 277.521 22.16 275.614 22.16C273.708 22.16 272.281 21.5067 271.334 20.2Z" fill="white"/>
<path d="M97.0952 93.84L104.215 76.04H110.975L99.7352 104H94.4552L83.2152 76.04H89.9752L97.0952 93.84ZM119.914 104H113.914V82.48H119.914V104ZM114.394 79.76C113.728 79.0667 113.394 78.2267 113.394 77.24C113.394 76.2533 113.728 75.4267 114.394 74.76C115.088 74.0667 115.928 73.72 116.914 73.72C117.901 73.72 118.728 74.0667 119.394 74.76C120.088 75.4267 120.434 76.2533 120.434 77.24C120.434 78.2267 120.088 79.0667 119.394 79.76C118.728 80.4267 117.901 80.76 116.914 80.76C115.928 80.76 115.088 80.4267 114.394 79.76ZM132.954 86.8V96.44C132.954 97.2667 133.167 97.92 133.594 98.4C134.021 98.8533 134.527 99.08 135.114 99.08C136.234 99.08 137.181 98.5733 137.954 97.56L140.194 101.76C138.327 103.467 136.354 104.32 134.274 104.32C132.221 104.32 130.474 103.64 129.034 102.28C127.621 100.92 126.914 99.0667 126.914 96.72V86.8H124.394V82.48H126.914V76.04H132.954V82.48H138.154V86.8H132.954ZM161.891 104H156.251V101.4C154.704 103.347 152.784 104.32 150.491 104.32C148.224 104.32 146.318 103.667 144.771 102.36C143.224 101.027 142.451 99.2667 142.451 97.08C142.451 94.8667 143.251 93.2133 144.851 92.12C146.451 91.0267 148.638 90.48 151.411 90.48H155.891V90.36C155.891 88.0667 154.678 86.92 152.251 86.92C151.211 86.92 150.104 87.1333 148.931 87.56C147.784 87.96 146.811 88.4667 146.011 89.08L143.331 85.2C146.158 83.1467 149.384 82.12 153.011 82.12C155.624 82.12 157.758 82.7733 159.411 84.08C161.064 85.3867 161.891 87.4533 161.891 90.28V104ZM155.851 95.8V94.76H152.091C149.691 94.76 148.491 95.5067 148.491 97C148.491 97.7733 148.771 98.3733 149.331 98.8C149.918 99.2 150.744 99.4 151.811 99.4C152.878 99.4 153.811 99.08 154.611 98.44C155.438 97.7733 155.851 96.8933 155.851 95.8ZM191.748 98.48C194.815 98.48 197.321 97.2667 199.268 94.84L203.268 98.96C200.095 102.533 196.348 104.32 192.028 104.32C187.735 104.32 184.188 102.96 181.388 100.24C178.615 97.52 177.228 94.0933 177.228 89.96C177.228 85.8 178.641 82.3333 181.468 79.56C184.321 76.7867 187.801 75.4 191.908 75.4C196.495 75.4 200.335 77.1467 203.428 80.64L199.548 85.04C197.575 82.5867 195.121 81.36 192.188 81.36C189.841 81.36 187.828 82.1333 186.148 83.68C184.495 85.2 183.668 87.2667 183.668 89.88C183.668 92.4667 184.455 94.5467 186.028 96.12C187.601 97.6933 189.508 98.48 191.748 98.48ZM213.805 104H207.805V74.32H213.805V104ZM237.965 104H232.325V101.4C230.778 103.347 228.858 104.32 226.565 104.32C224.298 104.32 222.391 103.667 220.845 102.36C219.298 101.027 218.525 99.2667 218.525 97.08C218.525 94.8667 219.325 93.2133 220.925 92.12C222.525 91.0267 224.711 90.48 227.485 90.48H231.965V90.36C231.965 88.0667 230.751 86.92 228.325 86.92C227.285 86.92 226.178 87.1333 225.005 87.56C223.858 87.96 222.885 88.4667 222.085 89.08L219.405 85.2C222.231 83.1467 225.458 82.12 229.085 82.12C231.698 82.12 233.831 82.7733 235.485 84.08C237.138 85.3867 237.965 87.4533 237.965 90.28V104ZM231.925 95.8V94.76H228.165C225.765 94.76 224.565 95.5067 224.565 97C224.565 97.7733 224.845 98.3733 225.405 98.8C225.991 99.2 226.818 99.4 227.885 99.4C228.951 99.4 229.885 99.08 230.685 98.44C231.511 97.7733 231.925 96.8933 231.925 95.8ZM259.835 97.32C259.835 99.4267 259.048 101.12 257.475 102.4C255.928 103.68 253.955 104.32 251.555 104.32C249.955 104.32 248.288 104.04 246.555 103.48C244.821 102.893 243.261 102.04 241.875 100.92L244.515 97.16C246.755 98.8933 249.141 99.76 251.675 99.76C252.448 99.76 253.061 99.6133 253.515 99.32C253.968 99 254.195 98.5867 254.195 98.08C254.195 97.5733 253.875 97.1067 253.235 96.68C252.621 96.2533 251.715 95.8533 250.515 95.48C249.341 95.1067 248.435 94.7867 247.795 94.52C247.181 94.2533 246.475 93.8667 245.675 93.36C244.048 92.3467 243.235 90.8533 243.235 88.88C243.235 86.88 244.035 85.2533 245.635 84C247.235 82.7467 249.301 82.12 251.835 82.12C254.368 82.12 256.901 82.9733 259.435 84.68L257.195 88.68C255.328 87.4 253.461 86.76 251.595 86.76C249.755 86.76 248.835 87.2667 248.835 88.28C248.835 88.84 249.128 89.28 249.715 89.6C250.301 89.92 251.275 90.2933 252.635 90.72C253.995 91.1467 254.955 91.48 255.515 91.72C256.101 91.9333 256.795 92.28 257.595 92.76C259.088 93.6667 259.835 95.1867 259.835 97.32ZM280.816 97.32C280.816 99.4267 280.029 101.12 278.456 102.4C276.909 103.68 274.936 104.32 272.536 104.32C270.936 104.32 269.269 104.04 267.536 103.48C265.802 102.893 264.242 102.04 262.856 100.92L265.496 97.16C267.736 98.8933 270.122 99.76 272.656 99.76C273.429 99.76 274.042 99.6133 274.496 99.32C274.949 99 275.176 98.5867 275.176 98.08C275.176 97.5733 274.856 97.1067 274.216 96.68C273.602 96.2533 272.696 95.8533 271.496 95.48C270.322 95.1067 269.416 94.7867 268.776 94.52C268.162 94.2533 267.456 93.8667 266.656 93.36C265.029 92.3467 264.216 90.8533 264.216 88.88C264.216 86.88 265.016 85.2533 266.616 84C268.216 82.7467 270.282 82.12 272.816 82.12C275.349 82.12 277.882 82.9733 280.416 84.68L278.176 88.68C276.309 87.4 274.442 86.76 272.576 86.76C270.736 86.76 269.816 87.2667 269.816 88.28C269.816 88.84 270.109 89.28 270.696 89.6C271.282 89.92 272.256 90.2933 273.616 90.72C274.976 91.1467 275.936 91.48 276.496 91.72C277.082 91.9333 277.776 92.28 278.576 92.76C280.069 93.6667 280.816 95.1867 280.816 97.32ZM291.597 104H285.597V82.48H291.597V104ZM286.077 79.76C285.41 79.0667 285.077 78.2267 285.077 77.24C285.077 76.2533 285.41 75.4267 286.077 74.76C286.77 74.0667 287.61 73.72 288.597 73.72C289.584 73.72 290.41 74.0667 291.077 74.76C291.77 75.4267 292.117 76.2533 292.117 77.24C292.117 78.2267 291.77 79.0667 291.077 79.76C290.41 80.4267 289.584 80.76 288.597 80.76C287.61 80.76 286.77 80.4267 286.077 79.76ZM307.797 99C309.797 99 311.597 98 313.197 96L316.757 100C313.983 102.88 310.983 104.32 307.757 104.32C304.53 104.32 301.797 103.307 299.557 101.28C297.343 99.2267 296.237 96.56 296.237 93.28C296.237 89.9733 297.357 87.2933 299.597 85.24C301.863 83.16 304.543 82.12 307.637 82.12C309.183 82.12 310.743 82.44 312.317 83.08C313.917 83.72 315.317 84.6667 316.517 85.92L313.397 90C312.703 89.1733 311.85 88.5333 310.837 88.08C309.85 87.6267 308.863 87.4 307.877 87.4C306.303 87.4 304.943 87.92 303.797 88.96C302.677 89.9733 302.117 91.4 302.117 93.24C302.117 95.0533 302.677 96.4667 303.797 97.48C304.943 98.4933 306.277 99 307.797 99ZM137.568 126.04C141.861 126.04 144.981 126.88 146.928 128.56C148.901 130.213 149.888 132.773 149.888 136.24C149.888 139.68 148.874 142.2 146.848 143.8C144.848 145.4 141.781 146.2 137.648 146.2H133.928V154H127.688V126.04H137.568ZM138.128 140.8C140.208 140.8 141.621 140.387 142.368 139.56C143.114 138.707 143.488 137.48 143.488 135.88C143.488 134.253 142.994 133.107 142.008 132.44C141.048 131.747 139.541 131.4 137.488 131.4H133.928V140.8H138.128ZM165.678 137.76C163.891 137.76 162.558 138.4 161.678 139.68C160.798 140.933 160.358 142.6 160.358 144.68V154H154.358V132.48H160.358V135.32C161.131 134.44 162.091 133.693 163.238 133.08C164.411 132.467 165.598 132.147 166.798 132.12L166.838 137.76H165.678ZM175.491 143.24C175.491 145 175.984 146.44 176.971 147.56C177.984 148.653 179.264 149.2 180.811 149.2C182.384 149.2 183.664 148.653 184.651 147.56C185.664 146.44 186.171 145 186.171 143.24C186.171 141.48 185.664 140.04 184.651 138.92C183.664 137.8 182.384 137.24 180.811 137.24C179.264 137.24 177.984 137.8 176.971 138.92C175.984 140.04 175.491 141.48 175.491 143.24ZM192.211 143.24C192.211 146.36 191.131 148.987 188.971 151.12C186.811 153.253 184.091 154.32 180.811 154.32C177.557 154.32 174.851 153.253 172.691 151.12C170.531 148.987 169.451 146.36 169.451 143.24C169.451 140.12 170.531 137.493 172.691 135.36C174.851 133.2 177.557 132.12 180.811 132.12C184.091 132.12 186.811 133.2 188.971 135.36C191.131 137.493 192.211 140.12 192.211 143.24ZM205.467 154.32C202.934 154.32 200.667 153.24 198.667 151.08C196.667 148.92 195.667 146.24 195.667 143.04C195.667 139.84 196.641 137.227 198.587 135.2C200.534 133.147 202.814 132.12 205.427 132.12C208.041 132.12 210.174 133.04 211.827 134.88V124.32H217.827V154H211.827V151.16C210.147 153.267 208.027 154.32 205.467 154.32ZM201.707 143.28C201.707 145.013 202.227 146.44 203.267 147.56C204.307 148.653 205.521 149.2 206.907 149.2C208.294 149.2 209.467 148.653 210.427 147.56C211.414 146.44 211.907 145.013 211.907 143.28C211.907 141.52 211.414 140.067 210.427 138.92C209.467 137.747 208.281 137.16 206.867 137.16C205.454 137.16 204.241 137.747 203.227 138.92C202.214 140.093 201.707 141.547 201.707 143.28ZM237.588 144.08V132.48H243.628V154H237.588V151.16C236.095 153.267 234.161 154.32 231.788 154.32C229.441 154.32 227.468 153.587 225.868 152.12C224.268 150.627 223.468 148.427 223.468 145.52V132.48H229.508V144.2C229.508 147.507 230.721 149.16 233.148 149.16C234.348 149.16 235.388 148.733 236.268 147.88C237.148 147 237.588 145.733 237.588 144.08ZM259.814 149C261.814 149 263.614 148 265.214 146L268.774 150C266.001 152.88 263.001 154.32 259.774 154.32C256.547 154.32 253.814 153.307 251.574 151.28C249.361 149.227 248.254 146.56 248.254 143.28C248.254 139.973 249.374 137.293 251.614 135.24C253.881 133.16 256.561 132.12 259.654 132.12C261.201 132.12 262.761 132.44 264.334 133.08C265.934 133.72 267.334 134.667 268.534 135.92L265.414 140C264.721 139.173 263.867 138.533 262.854 138.08C261.867 137.627 260.881 137.4 259.894 137.4C258.321 137.4 256.961 137.92 255.814 138.96C254.694 139.973 254.134 141.4 254.134 143.24C254.134 145.053 254.694 146.467 255.814 147.48C256.961 148.493 258.294 149 259.814 149ZM280.135 136.8V146.44C280.135 147.267 280.348 147.92 280.775 148.4C281.202 148.853 281.708 149.08 282.295 149.08C283.415 149.08 284.362 148.573 285.135 147.56L287.375 151.76C285.508 153.467 283.535 154.32 281.455 154.32C279.402 154.32 277.655 153.64 276.215 152.28C274.802 150.92 274.095 149.067 274.095 146.72V136.8H271.575V132.48H274.095V126.04H280.135V132.48H285.335V136.8H280.135Z" fill="white"/>
<path d="M67.0461 218.08L70.1661 208.02H72.2861L75.4061 218.08L78.9261 208.02H81.4661L76.5861 222H74.2461L71.3061 212.42H71.1461L68.2061 222H65.8661L60.9861 208.02H63.5261L67.0461 218.08ZM93.4231 217.66H85.0831C85.1365 218.433 85.4898 219.06 86.1431 219.54C86.7965 220.007 87.5431 220.24 88.3831 220.24C89.7165 220.24 90.7298 219.82 91.4231 218.98L92.7031 220.38C91.5565 221.567 90.0631 222.16 88.2231 222.16C86.7298 222.16 85.4565 221.667 84.4031 220.68C83.3631 219.68 82.8431 218.347 82.8431 216.68C82.8431 215 83.3765 213.667 84.4431 212.68C85.5098 211.693 86.7631 211.2 88.2031 211.2C89.6565 211.2 90.8898 211.64 91.9031 212.52C92.9165 213.387 93.4231 214.587 93.4231 216.12V217.66ZM85.0831 215.9H91.1831C91.1831 215.007 90.9031 214.32 90.3431 213.84C89.7831 213.36 89.0898 213.12 88.2631 213.12C87.4498 213.12 86.7165 213.373 86.0631 213.88C85.4098 214.373 85.0831 215.047 85.0831 215.9ZM104.015 222H101.775V207.16H104.015V215.88L108.335 211.36H111.215L107.175 215.58L111.515 222H108.795L105.635 217.34L104.015 218.98V222ZM115.836 216.24V222H113.596V211.36H115.836V213.3C116.196 212.647 116.689 212.133 117.316 211.76C117.956 211.387 118.642 211.2 119.376 211.2C120.576 211.2 121.542 211.567 122.276 212.3C123.022 213.033 123.396 214.093 123.396 215.48V222H121.156V216.16C121.156 214.2 120.342 213.22 118.716 213.22C117.942 213.22 117.269 213.48 116.696 214C116.122 214.507 115.836 215.253 115.836 216.24ZM129.205 219.2C129.845 219.84 130.652 220.16 131.625 220.16C132.599 220.16 133.399 219.84 134.025 219.2C134.665 218.547 134.985 217.707 134.985 216.68C134.985 215.653 134.665 214.82 134.025 214.18C133.399 213.527 132.599 213.2 131.625 213.2C130.652 213.2 129.845 213.527 129.205 214.18C128.579 214.82 128.265 215.653 128.265 216.68C128.265 217.707 128.579 218.547 129.205 219.2ZM135.625 220.58C134.559 221.633 133.225 222.16 131.625 222.16C130.025 222.16 128.692 221.633 127.625 220.58C126.559 219.513 126.025 218.213 126.025 216.68C126.025 215.147 126.559 213.853 127.625 212.8C128.692 211.733 130.025 211.2 131.625 211.2C133.225 211.2 134.559 211.733 135.625 212.8C136.692 213.853 137.225 215.147 137.225 216.68C137.225 218.213 136.692 219.513 135.625 220.58ZM144.816 222H142.256L138.576 211.36H140.896L143.536 219.4L146.176 211.36H148.496L151.136 219.4L153.776 211.36H156.096L152.416 222H149.856L147.336 214.72L144.816 222ZM166.206 216.24V222H163.966V207.18H166.206V213.3C166.526 212.647 167.006 212.133 167.646 211.76C168.299 211.387 168.999 211.2 169.746 211.2C170.946 211.2 171.913 211.567 172.646 212.3C173.393 213.033 173.766 214.093 173.766 215.48V222H171.526V216.16C171.526 214.2 170.713 213.22 169.086 213.22C168.313 213.22 167.639 213.48 167.066 214C166.493 214.507 166.206 215.253 166.206 216.24ZM179.576 219.2C180.216 219.84 181.022 220.16 181.996 220.16C182.969 220.16 183.769 219.84 184.396 219.2C185.036 218.547 185.356 217.707 185.356 216.68C185.356 215.653 185.036 214.82 184.396 214.18C183.769 213.527 182.969 213.2 181.996 213.2C181.022 213.2 180.216 213.527 179.576 214.18C178.949 214.82 178.636 215.653 178.636 216.68C178.636 217.707 178.949 218.547 179.576 219.2ZM185.996 220.58C184.929 221.633 183.596 222.16 181.996 222.16C180.396 222.16 179.062 221.633 177.996 220.58C176.929 219.513 176.396 218.213 176.396 216.68C176.396 215.147 176.929 213.853 177.996 212.8C179.062 211.733 180.396 211.2 181.996 211.2C183.596 211.2 184.929 211.733 185.996 212.8C187.062 213.853 187.596 215.147 187.596 216.68C187.596 218.213 187.062 219.513 185.996 220.58ZM195.186 222H192.626L188.946 211.36H191.266L193.906 219.4L196.546 211.36H198.866L201.506 219.4L204.146 211.36H206.466L202.786 222H200.226L197.706 214.72L195.186 222ZM216.576 222H214.336V207.16H216.576V222ZM228.645 222H226.605V220.58C225.725 221.633 224.545 222.16 223.065 222.16C221.958 222.16 221.038 221.847 220.305 221.22C219.585 220.593 219.225 219.76 219.225 218.72C219.225 217.667 219.611 216.88 220.385 216.36C221.158 215.84 222.205 215.58 223.525 215.58H226.425V215.18C226.425 213.767 225.638 213.06 224.065 213.06C223.078 213.06 222.051 213.42 220.985 214.14L219.985 212.74C221.278 211.713 222.745 211.2 224.385 211.2C225.638 211.2 226.658 211.52 227.445 212.16C228.245 212.787 228.645 213.78 228.645 215.14V222ZM226.405 218.04V217.14H223.885C222.271 217.14 221.465 217.647 221.465 218.66C221.465 219.18 221.665 219.58 222.065 219.86C222.465 220.127 223.018 220.26 223.725 220.26C224.445 220.26 225.071 220.06 225.605 219.66C226.138 219.26 226.405 218.72 226.405 218.04ZM237.543 213.46C236.436 213.46 235.603 213.82 235.043 214.54C234.483 215.26 234.203 216.227 234.203 217.44V222H231.963V211.36H234.203V213.5C234.563 212.833 235.05 212.287 235.663 211.86C236.29 211.433 236.95 211.213 237.643 211.2L237.663 213.46C237.623 213.46 237.583 213.46 237.543 213.46ZM249.952 211.36V220.64C249.952 222.52 249.439 223.927 248.412 224.86C247.399 225.807 246.092 226.28 244.492 226.28C242.892 226.28 241.446 225.78 240.152 224.78L241.212 223.08C242.252 223.867 243.299 224.26 244.352 224.26C245.419 224.26 246.259 223.987 246.872 223.44C247.499 222.893 247.812 222.02 247.812 220.82V219.46C247.479 220.087 246.999 220.587 246.372 220.96C245.759 221.333 245.066 221.52 244.292 221.52C242.879 221.52 241.719 221.027 240.812 220.04C239.906 219.053 239.452 217.827 239.452 216.36C239.452 214.893 239.906 213.667 240.812 212.68C241.719 211.693 242.872 211.2 244.272 211.2C245.686 211.2 246.832 211.78 247.712 212.94V211.36H249.952ZM241.652 216.28C241.652 217.147 241.919 217.9 242.452 218.54C242.999 219.167 243.726 219.48 244.632 219.48C245.552 219.48 246.292 219.173 246.852 218.56C247.426 217.947 247.712 217.187 247.712 216.28C247.712 215.36 247.426 214.587 246.852 213.96C246.279 213.32 245.539 213 244.632 213C243.726 213 242.999 213.327 242.452 213.98C241.919 214.633 241.652 215.4 241.652 216.28ZM263.298 217.66H254.958C255.011 218.433 255.365 219.06 256.018 219.54C256.671 220.007 257.418 220.24 258.258 220.24C259.591 220.24 260.605 219.82 261.298 218.98L262.578 220.38C261.431 221.567 259.938 222.16 258.098 222.16C256.605 222.16 255.331 221.667 254.278 220.68C253.238 219.68 252.718 218.347 252.718 216.68C252.718 215 253.251 213.667 254.318 212.68C255.385 211.693 256.638 211.2 258.078 211.2C259.531 211.2 260.765 211.64 261.778 212.52C262.791 213.387 263.298 214.587 263.298 216.12V217.66ZM254.958 215.9H261.058C261.058 215.007 260.778 214.32 260.218 213.84C259.658 213.36 258.965 213.12 258.138 213.12C257.325 213.12 256.591 213.373 255.938 213.88C255.285 214.373 254.958 215.047 254.958 215.9ZM274.13 219.2C274.77 219.84 275.576 220.16 276.55 220.16C277.523 220.16 278.323 219.84 278.95 219.2C279.59 218.547 279.91 217.707 279.91 216.68C279.91 215.653 279.59 214.82 278.95 214.18C278.323 213.527 277.523 213.2 276.55 213.2C275.576 213.2 274.77 213.527 274.13 214.18C273.503 214.82 273.19 215.653 273.19 216.68C273.19 217.707 273.503 218.547 274.13 219.2ZM280.55 220.58C279.483 221.633 278.15 222.16 276.55 222.16C274.95 222.16 273.616 221.633 272.55 220.58C271.483 219.513 270.95 218.213 270.95 216.68C270.95 215.147 271.483 213.853 272.55 212.8C273.616 211.733 274.95 211.2 276.55 211.2C278.15 211.2 279.483 211.733 280.55 212.8C281.616 213.853 282.15 215.147 282.15 216.68C282.15 218.213 281.616 219.513 280.55 220.58ZM290.597 211.2C292.023 211.2 293.243 211.693 294.257 212.68C295.27 213.667 295.777 214.98 295.777 216.62C295.777 218.26 295.27 219.593 294.257 220.62C293.257 221.647 292.083 222.16 290.737 222.16C289.403 222.16 288.203 221.573 287.137 220.4V222H284.897V207.16H287.137V213.22C288.017 211.873 289.17 211.2 290.597 211.2ZM287.097 216.7C287.097 217.713 287.403 218.547 288.017 219.2C288.63 219.84 289.377 220.16 290.257 220.16C291.137 220.16 291.903 219.84 292.557 219.2C293.21 218.56 293.537 217.733 293.537 216.72C293.537 215.693 293.217 214.847 292.577 214.18C291.937 213.5 291.17 213.16 290.277 213.16C289.383 213.16 288.63 213.5 288.017 214.18C287.403 214.847 287.097 215.687 287.097 216.7ZM298.534 222.5V211.36H300.774V222.58C300.774 223.7 300.434 224.587 299.754 225.24C299.087 225.907 298.274 226.24 297.314 226.24C296.367 226.24 295.501 225.887 294.714 225.18L295.754 223.5C296.207 223.94 296.661 224.16 297.114 224.16C297.581 224.16 297.934 224.013 298.174 223.72C298.414 223.427 298.534 223.02 298.534 222.5ZM298.634 209.24C298.354 208.96 298.214 208.627 298.214 208.24C298.214 207.853 298.354 207.52 298.634 207.24C298.914 206.96 299.247 206.82 299.634 206.82C300.021 206.82 300.354 206.96 300.634 207.24C300.914 207.52 301.054 207.853 301.054 208.24C301.054 208.627 300.914 208.96 300.634 209.24C300.354 209.52 300.021 209.66 299.634 209.66C299.247 209.66 298.914 209.52 298.634 209.24ZM314.122 217.66H305.782C305.836 218.433 306.189 219.06 306.842 219.54C307.496 220.007 308.242 220.24 309.082 220.24C310.416 220.24 311.429 219.82 312.122 218.98L313.402 220.38C312.256 221.567 310.762 222.16 308.922 222.16C307.429 222.16 306.156 221.667 305.102 220.68C304.062 219.68 303.542 218.347 303.542 216.68C303.542 215 304.076 213.667 305.142 212.68C306.209 211.693 307.462 211.2 308.902 211.2C310.356 211.2 311.589 211.64 312.602 212.52C313.616 213.387 314.122 214.587 314.122 216.12V217.66ZM305.782 215.9H311.882C311.882 215.007 311.602 214.32 311.042 213.84C310.482 213.36 309.789 213.12 308.962 213.12C308.149 213.12 307.416 213.373 306.762 213.88C306.109 214.373 305.782 215.047 305.782 215.9ZM321.506 222.16C320.026 222.16 318.752 221.66 317.686 220.66C316.619 219.647 316.086 218.327 316.086 216.7C316.086 215.073 316.639 213.753 317.746 212.74C318.866 211.713 320.226 211.2 321.826 211.2C323.426 211.2 324.779 211.753 325.886 212.86L324.566 214.48C323.646 213.68 322.719 213.28 321.786 213.28C320.852 213.28 320.039 213.593 319.346 214.22C318.666 214.833 318.326 215.633 318.326 216.62C318.326 217.593 318.666 218.42 319.346 219.1C320.026 219.78 320.859 220.12 321.846 220.12C322.846 220.12 323.786 219.667 324.666 218.76L325.986 220.2C324.692 221.507 323.199 222.16 321.506 222.16ZM331.269 213.16V218.56C331.269 219.067 331.402 219.473 331.669 219.78C331.936 220.073 332.309 220.22 332.789 220.22C333.269 220.22 333.729 219.987 334.169 219.52L335.089 221.1C334.302 221.807 333.429 222.16 332.469 222.16C331.522 222.16 330.709 221.833 330.029 221.18C329.362 220.513 329.029 219.62 329.029 218.5V213.16H327.689V211.36H329.029V208.02H331.269V211.36H334.069V213.16H331.269ZM344.648 218.82C344.648 219.833 344.282 220.647 343.548 221.26C342.815 221.86 341.875 222.16 340.728 222.16C339.955 222.16 339.148 222.02 338.308 221.74C337.482 221.46 336.748 221.067 336.108 220.56L337.188 218.82C338.428 219.753 339.628 220.22 340.788 220.22C341.295 220.22 341.695 220.107 341.988 219.88C342.282 219.64 342.428 219.34 342.428 218.98C342.428 218.447 341.722 217.967 340.308 217.54C340.202 217.5 340.122 217.473 340.068 217.46C337.855 216.86 336.748 215.86 336.748 214.46C336.748 213.473 337.128 212.687 337.888 212.1C338.662 211.5 339.662 211.2 340.888 211.2C342.115 211.2 343.275 211.56 344.368 212.28L343.528 213.94C342.662 213.367 341.722 213.08 340.708 213.08C340.175 213.08 339.742 213.18 339.408 213.38C339.075 213.567 338.908 213.853 338.908 214.24C338.908 214.587 339.082 214.84 339.428 215C339.668 215.12 340.002 215.233 340.428 215.34C340.868 215.447 341.255 215.553 341.588 215.66C341.922 215.767 342.242 215.887 342.548 216.02C342.868 216.153 343.208 216.34 343.568 216.58C344.288 217.06 344.648 217.807 344.648 218.82ZM89.9828 252H87.4228L83.7428 241.36H86.0628L88.7028 249.4L91.3428 241.36H93.6628L96.3028 249.4L98.9428 241.36H101.263L97.5828 252H95.0228L92.5028 244.72L89.9828 252ZM105.685 252H103.445V241.36H105.685V252ZM103.585 239.24C103.305 238.96 103.165 238.627 103.165 238.24C103.165 237.853 103.305 237.52 103.585 237.24C103.865 236.96 104.198 236.82 104.585 236.82C104.972 236.82 105.305 236.96 105.585 237.24C105.865 237.52 106.005 237.853 106.005 238.24C106.005 238.627 105.865 238.96 105.585 239.24C105.305 239.52 104.972 239.66 104.585 239.66C104.198 239.66 103.865 239.52 103.585 239.24ZM111.373 252H109.133V237.16H111.373V252ZM117.062 252H114.822V237.16H117.062V252ZM134.818 252H132.778V250.58C131.898 251.633 130.718 252.16 129.238 252.16C128.131 252.16 127.211 251.847 126.478 251.22C125.758 250.593 125.398 249.76 125.398 248.72C125.398 247.667 125.785 246.88 126.558 246.36C127.331 245.84 128.378 245.58 129.698 245.58H132.598V245.18C132.598 243.767 131.811 243.06 130.238 243.06C129.251 243.06 128.225 243.42 127.158 244.14L126.158 242.74C127.451 241.713 128.918 241.2 130.558 241.2C131.811 241.2 132.831 241.52 133.618 242.16C134.418 242.787 134.818 243.78 134.818 245.14V252ZM132.578 248.04V247.14H130.058C128.445 247.14 127.638 247.647 127.638 248.66C127.638 249.18 127.838 249.58 128.238 249.86C128.638 250.127 129.191 250.26 129.898 250.26C130.618 250.26 131.245 250.06 131.778 249.66C132.311 249.26 132.578 248.72 132.578 248.04ZM142.856 252.16C141.376 252.16 140.103 251.66 139.036 250.66C137.97 249.647 137.436 248.327 137.436 246.7C137.436 245.073 137.99 243.753 139.096 242.74C140.216 241.713 141.576 241.2 143.176 241.2C144.776 241.2 146.13 241.753 147.236 242.86L145.916 244.48C144.996 243.68 144.07 243.28 143.136 243.28C142.203 243.28 141.39 243.593 140.696 244.22C140.016 244.833 139.676 245.633 139.676 246.62C139.676 247.593 140.016 248.42 140.696 249.1C141.376 249.78 142.21 250.12 143.196 250.12C144.196 250.12 145.136 249.667 146.016 248.76L147.336 250.2C146.043 251.507 144.55 252.16 142.856 252.16ZM152.62 243.16V248.56C152.62 249.067 152.753 249.473 153.02 249.78C153.287 250.073 153.66 250.22 154.14 250.22C154.62 250.22 155.08 249.987 155.52 249.52L156.44 251.1C155.653 251.807 154.78 252.16 153.82 252.16C152.873 252.16 152.06 251.833 151.38 251.18C150.713 250.513 150.38 249.62 150.38 248.5V243.16H149.04V241.36H150.38V238.02H152.62V241.36H155.42V243.16H152.62ZM158.119 250.7C158.119 250.273 158.266 249.92 158.559 249.64C158.853 249.347 159.199 249.2 159.599 249.2C159.999 249.2 160.346 249.347 160.639 249.64C160.946 249.92 161.099 250.26 161.099 250.66C161.099 251.06 160.919 251.547 160.559 252.12L159.359 254.1H158.199L158.939 252.02C158.393 251.767 158.119 251.327 158.119 250.7ZM175.633 241.2C177.059 241.2 178.279 241.693 179.293 242.68C180.306 243.667 180.812 244.98 180.812 246.62C180.812 248.26 180.306 249.593 179.293 250.62C178.293 251.647 177.119 252.16 175.773 252.16C174.439 252.16 173.239 251.573 172.173 250.4V252H169.933V237.16H172.173V243.22C173.053 241.873 174.206 241.2 175.633 241.2ZM172.133 246.7C172.133 247.713 172.439 248.547 173.053 249.2C173.666 249.84 174.413 250.16 175.293 250.16C176.173 250.16 176.939 249.84 177.593 249.2C178.246 248.56 178.573 247.733 178.573 246.72C178.573 245.693 178.253 244.847 177.613 244.18C176.973 243.5 176.206 243.16 175.313 243.16C174.419 243.16 173.666 243.5 173.053 244.18C172.439 244.847 172.133 245.687 172.133 246.7ZM191.01 247.12V241.36H193.25V252H191.01V250.06C190.65 250.713 190.15 251.227 189.51 251.6C188.883 251.973 188.203 252.16 187.47 252.16C186.27 252.16 185.297 251.793 184.55 251.06C183.817 250.327 183.45 249.267 183.45 247.88V241.36H185.69V247.2C185.69 249.16 186.503 250.14 188.13 250.14C188.903 250.14 189.577 249.887 190.15 249.38C190.723 248.86 191.01 248.107 191.01 247.12ZM199.46 243.16V248.56C199.46 249.067 199.593 249.473 199.86 249.78C200.126 250.073 200.5 250.22 200.98 250.22C201.46 250.22 201.92 249.987 202.36 249.52L203.28 251.1C202.493 251.807 201.62 252.16 200.66 252.16C199.713 252.16 198.9 251.833 198.22 251.18C197.553 250.513 197.22 249.62 197.22 248.5V243.16H195.88V241.36H197.22V238.02H199.46V241.36H202.26V243.16H199.46ZM213.707 243.16V248.56C213.707 249.067 213.841 249.473 214.107 249.78C214.374 250.073 214.747 250.22 215.227 250.22C215.707 250.22 216.167 249.987 216.607 249.52L217.527 251.1C216.741 251.807 215.867 252.16 214.907 252.16C213.961 252.16 213.147 251.833 212.467 251.18C211.801 250.513 211.467 249.62 211.467 248.5V243.16H210.127V241.36H211.467V238.02H213.707V241.36H216.507V243.16H213.707ZM221.747 246.24V252H219.507V237.18H221.747V243.3C222.067 242.647 222.547 242.133 223.187 241.76C223.84 241.387 224.54 241.2 225.287 241.2C226.487 241.2 227.453 241.567 228.187 242.3C228.933 243.033 229.307 244.093 229.307 245.48V252H227.067V246.16C227.067 244.2 226.253 243.22 224.627 243.22C223.853 243.22 223.18 243.48 222.607 244C222.033 244.507 221.747 245.253 221.747 246.24ZM234.876 252H232.636V241.36H234.876V252ZM232.776 239.24C232.496 238.96 232.356 238.627 232.356 238.24C232.356 237.853 232.496 237.52 232.776 237.24C233.056 236.96 233.39 236.82 233.776 236.82C234.163 236.82 234.496 236.96 234.776 237.24C235.056 237.52 235.196 237.853 235.196 238.24C235.196 238.627 235.056 238.96 234.776 239.24C234.496 239.52 234.163 239.66 233.776 239.66C233.39 239.66 233.056 239.52 232.776 239.24ZM240.565 246.24V252H238.325V241.36H240.565V243.3C240.925 242.647 241.418 242.133 242.045 241.76C242.685 241.387 243.371 241.2 244.105 241.2C245.305 241.2 246.271 241.567 247.005 242.3C247.751 243.033 248.125 244.093 248.125 245.48V252H245.885V246.16C245.885 244.2 245.071 243.22 243.445 243.22C242.671 243.22 241.998 243.48 241.425 244C240.851 244.507 240.565 245.253 240.565 246.24ZM261.294 241.36V250.64C261.294 252.52 260.781 253.927 259.754 254.86C258.741 255.807 257.434 256.28 255.834 256.28C254.234 256.28 252.788 255.78 251.494 254.78L252.554 253.08C253.594 253.867 254.641 254.26 255.694 254.26C256.761 254.26 257.601 253.987 258.214 253.44C258.841 252.893 259.154 252.02 259.154 250.82V249.46C258.821 250.087 258.341 250.587 257.714 250.96C257.101 251.333 256.408 251.52 255.634 251.52C254.221 251.52 253.061 251.027 252.154 250.04C251.248 249.053 250.794 247.827 250.794 246.36C250.794 244.893 251.248 243.667 252.154 242.68C253.061 241.693 254.214 241.2 255.614 241.2C257.028 241.2 258.174 241.78 259.054 242.94V241.36H261.294ZM252.994 246.28C252.994 247.147 253.261 247.9 253.794 248.54C254.341 249.167 255.068 249.48 255.974 249.48C256.894 249.48 257.634 249.173 258.194 248.56C258.768 247.947 259.054 247.187 259.054 246.28C259.054 245.36 258.768 244.587 258.194 243.96C257.621 243.32 256.881 243 255.974 243C255.068 243 254.341 243.327 253.794 243.98C253.261 244.633 252.994 245.4 252.994 246.28ZM272.32 248.82C272.32 249.833 271.954 250.647 271.22 251.26C270.487 251.86 269.547 252.16 268.4 252.16C267.627 252.16 266.82 252.02 265.98 251.74C265.154 251.46 264.42 251.067 263.78 250.56L264.86 248.82C266.1 249.753 267.3 250.22 268.46 250.22C268.967 250.22 269.367 250.107 269.66 249.88C269.954 249.64 270.1 249.34 270.1 248.98C270.1 248.447 269.394 247.967 267.98 247.54C267.874 247.5 267.794 247.473 267.74 247.46C265.527 246.86 264.42 245.86 264.42 244.46C264.42 243.473 264.8 242.687 265.56 242.1C266.334 241.5 267.334 241.2 268.56 241.2C269.787 241.2 270.947 241.56 272.04 242.28L271.2 243.94C270.334 243.367 269.394 243.08 268.38 243.08C267.847 243.08 267.414 243.18 267.08 243.38C266.747 243.567 266.58 243.853 266.58 244.24C266.58 244.587 266.754 244.84 267.1 245C267.34 245.12 267.674 245.233 268.1 245.34C268.54 245.447 268.927 245.553 269.26 245.66C269.594 245.767 269.914 245.887 270.22 246.02C270.54 246.153 270.88 246.34 271.24 246.58C271.96 247.06 272.32 247.807 272.32 248.82ZM283.226 249.2C283.866 249.84 284.672 250.16 285.646 250.16C286.619 250.16 287.419 249.84 288.046 249.2C288.686 248.547 289.006 247.707 289.006 246.68C289.006 245.653 288.686 244.82 288.046 244.18C287.419 243.527 286.619 243.2 285.646 243.2C284.672 243.2 283.866 243.527 283.226 244.18C282.599 244.82 282.286 245.653 282.286 246.68C282.286 247.707 282.599 248.547 283.226 249.2ZM289.646 250.58C288.579 251.633 287.246 252.16 285.646 252.16C284.046 252.16 282.712 251.633 281.646 250.58C280.579 249.513 280.046 248.213 280.046 246.68C280.046 245.147 280.579 243.853 281.646 242.8C282.712 241.733 284.046 241.2 285.646 241.2C287.246 241.2 288.579 241.733 289.646 242.8C290.712 243.853 291.246 245.147 291.246 246.68C291.246 248.213 290.712 249.513 289.646 250.58ZM296.233 246.24V252H293.993V241.36H296.233V243.3C296.593 242.647 297.086 242.133 297.713 241.76C298.353 241.387 299.039 241.2 299.773 241.2C300.973 241.2 301.939 241.567 302.673 242.3C303.419 243.033 303.793 244.093 303.793 245.48V252H301.553V246.16C301.553 244.2 300.739 243.22 299.113 243.22C298.339 243.22 297.666 243.48 297.093 244C296.519 244.507 296.233 245.253 296.233 246.24ZM321.431 252H319.391V250.58C318.511 251.633 317.331 252.16 315.851 252.16C314.744 252.16 313.824 251.847 313.091 251.22C312.371 250.593 312.011 249.76 312.011 248.72C312.011 247.667 312.397 246.88 313.171 246.36C313.944 245.84 314.991 245.58 316.311 245.58H319.211V245.18C319.211 243.767 318.424 243.06 316.851 243.06C315.864 243.06 314.837 243.42 313.771 244.14L312.771 242.74C314.064 241.713 315.531 241.2 317.171 241.2C318.424 241.2 319.444 241.52 320.231 242.16C321.031 242.787 321.431 243.78 321.431 245.14V252ZM319.191 248.04V247.14H316.671C315.057 247.14 314.251 247.647 314.251 248.66C314.251 249.18 314.451 249.58 314.851 249.86C315.251 250.127 315.804 250.26 316.511 250.26C317.231 250.26 317.857 250.06 318.391 249.66C318.924 249.26 319.191 248.72 319.191 248.04ZM156.424 278.82C156.424 279.833 156.058 280.647 155.324 281.26C154.591 281.86 153.651 282.16 152.504 282.16C151.731 282.16 150.924 282.02 150.084 281.74C149.258 281.46 148.524 281.067 147.884 280.56L148.964 278.82C150.204 279.753 151.404 280.22 152.564 280.22C153.071 280.22 153.471 280.107 153.764 279.88C154.058 279.64 154.204 279.34 154.204 278.98C154.204 278.447 153.498 277.967 152.084 277.54C151.978 277.5 151.898 277.473 151.844 277.46C149.631 276.86 148.524 275.86 148.524 274.46C148.524 273.473 148.904 272.687 149.664 272.1C150.438 271.5 151.438 271.2 152.664 271.2C153.891 271.2 155.051 271.56 156.144 272.28L155.304 273.94C154.438 273.367 153.498 273.08 152.484 273.08C151.951 273.08 151.518 273.18 151.184 273.38C150.851 273.567 150.684 273.853 150.684 274.24C150.684 274.587 150.858 274.84 151.204 275C151.444 275.12 151.778 275.233 152.204 275.34C152.644 275.447 153.031 275.553 153.364 275.66C153.698 275.767 154.018 275.887 154.324 276.02C154.644 276.153 154.984 276.34 155.344 276.58C156.064 277.06 156.424 277.807 156.424 278.82ZM161.401 276.24V282H159.161V271.36H161.401V273.3C161.721 272.647 162.201 272.133 162.841 271.76C163.495 271.387 164.195 271.2 164.941 271.2C166.621 271.2 167.761 271.893 168.361 273.28C169.415 271.893 170.728 271.2 172.301 271.2C173.501 271.2 174.468 271.567 175.201 272.3C175.948 273.033 176.321 274.093 176.321 275.48V282H174.081V276.16C174.081 274.2 173.268 273.22 171.641 273.22C170.881 273.22 170.215 273.467 169.641 273.96C169.081 274.44 168.788 275.147 168.761 276.08V282H166.521V276.16C166.521 275.147 166.341 274.407 165.981 273.94C165.621 273.46 165.055 273.22 164.281 273.22C163.508 273.22 162.835 273.48 162.261 274C161.688 274.507 161.401 275.253 161.401 276.24ZM188.255 282H186.215V280.58C185.335 281.633 184.155 282.16 182.675 282.16C181.568 282.16 180.648 281.847 179.915 281.22C179.195 280.593 178.835 279.76 178.835 278.72C178.835 277.667 179.222 276.88 179.995 276.36C180.768 275.84 181.815 275.58 183.135 275.58H186.035V275.18C186.035 273.767 185.248 273.06 183.675 273.06C182.688 273.06 181.662 273.42 180.595 274.14L179.595 272.74C180.888 271.713 182.355 271.2 183.995 271.2C185.248 271.2 186.268 271.52 187.055 272.16C187.855 272.787 188.255 273.78 188.255 275.14V282ZM186.015 278.04V277.14H183.495C181.882 277.14 181.075 277.647 181.075 278.66C181.075 279.18 181.275 279.58 181.675 279.86C182.075 280.127 182.628 280.26 183.335 280.26C184.055 280.26 184.682 280.06 185.215 279.66C185.748 279.26 186.015 278.72 186.015 278.04ZM193.813 282H191.573V267.16H193.813V282ZM199.501 282H197.261V267.16H199.501V282ZM216.218 278.82C216.218 279.833 215.851 280.647 215.118 281.26C214.385 281.86 213.445 282.16 212.298 282.16C211.525 282.16 210.718 282.02 209.878 281.74C209.051 281.46 208.318 281.067 207.678 280.56L208.758 278.82C209.998 279.753 211.198 280.22 212.358 280.22C212.865 280.22 213.265 280.107 213.558 279.88C213.851 279.64 213.998 279.34 213.998 278.98C213.998 278.447 213.291 277.967 211.878 277.54C211.771 277.5 211.691 277.473 211.638 277.46C209.425 276.86 208.318 275.86 208.318 274.46C208.318 273.473 208.698 272.687 209.458 272.1C210.231 271.5 211.231 271.2 212.458 271.2C213.685 271.2 214.845 271.56 215.938 272.28L215.098 273.94C214.231 273.367 213.291 273.08 212.278 273.08C211.745 273.08 211.311 273.18 210.978 273.38C210.645 273.567 210.478 273.853 210.478 274.24C210.478 274.587 210.651 274.84 210.998 275C211.238 275.12 211.571 275.233 211.998 275.34C212.438 275.447 212.825 275.553 213.158 275.66C213.491 275.767 213.811 275.887 214.118 276.02C214.438 276.153 214.778 276.34 215.138 276.58C215.858 277.06 216.218 277.807 216.218 278.82ZM223.675 282.16C222.195 282.16 220.922 281.66 219.855 280.66C218.788 279.647 218.255 278.327 218.255 276.7C218.255 275.073 218.808 273.753 219.915 272.74C221.035 271.713 222.395 271.2 223.995 271.2C225.595 271.2 226.948 271.753 228.055 272.86L226.735 274.48C225.815 273.68 224.888 273.28 223.955 273.28C223.022 273.28 222.208 273.593 221.515 274.22C220.835 274.833 220.495 275.633 220.495 276.62C220.495 277.593 220.835 278.42 221.515 279.1C222.195 279.78 223.028 280.12 224.015 280.12C225.015 280.12 225.955 279.667 226.835 278.76L228.155 280.2C226.862 281.507 225.368 282.16 223.675 282.16ZM239.22 282H237.18V280.58C236.3 281.633 235.12 282.16 233.64 282.16C232.534 282.16 231.614 281.847 230.88 281.22C230.16 280.593 229.8 279.76 229.8 278.72C229.8 277.667 230.187 276.88 230.96 276.36C231.734 275.84 232.78 275.58 234.1 275.58H237V275.18C237 273.767 236.214 273.06 234.64 273.06C233.654 273.06 232.627 273.42 231.56 274.14L230.56 272.74C231.854 271.713 233.32 271.2 234.96 271.2C236.214 271.2 237.234 271.52 238.02 272.16C238.82 272.787 239.22 273.78 239.22 275.14V282ZM236.98 278.04V277.14H234.46C232.847 277.14 232.04 277.647 232.04 278.66C232.04 279.18 232.24 279.58 232.64 279.86C233.04 280.127 233.594 280.26 234.3 280.26C235.02 280.26 235.647 280.06 236.18 279.66C236.714 279.26 236.98 278.72 236.98 278.04ZM244.779 282H242.539V267.16H244.779V282ZM258.127 277.66H249.787C249.84 278.433 250.194 279.06 250.847 279.54C251.5 280.007 252.247 280.24 253.087 280.24C254.42 280.24 255.434 279.82 256.127 278.98L257.407 280.38C256.26 281.567 254.767 282.16 252.927 282.16C251.434 282.16 250.16 281.667 249.107 280.68C248.067 279.68 247.547 278.347 247.547 276.68C247.547 275 248.08 273.667 249.147 272.68C250.214 271.693 251.467 271.2 252.907 271.2C254.36 271.2 255.594 271.64 256.607 272.52C257.62 273.387 258.127 274.587 258.127 276.12V277.66ZM249.787 275.9H255.887C255.887 275.007 255.607 274.32 255.047 273.84C254.487 273.36 253.794 273.12 252.967 273.12C252.154 273.12 251.42 273.373 250.767 273.88C250.114 274.373 249.787 275.047 249.787 275.9ZM260.91 281.72C260.63 281.427 260.49 281.073 260.49 280.66C260.49 280.247 260.63 279.9 260.91 279.62C261.204 279.327 261.557 279.18 261.97 279.18C262.384 279.18 262.737 279.327 263.03 279.62C263.324 279.9 263.47 280.247 263.47 280.66C263.47 281.073 263.324 281.427 263.03 281.72C262.737 282.013 262.384 282.16 261.97 282.16C261.557 282.16 261.204 282.013 260.91 281.72Z" fill="white"/>
<path d="M174.003 351.656V349.904C171.971 349.584 170.099 348.664 168.387 347.144L170.619 344.432C171.867 345.52 172.995 346.216 174.003 346.52V342.944C172.323 342.512 171.091 341.936 170.307 341.216C169.523 340.48 169.131 339.432 169.131 338.072C169.131 336.696 169.579 335.568 170.475 334.688C171.371 333.792 172.547 333.256 174.003 333.08V331.904H176.547V333.128C178.147 333.352 179.739 334.016 181.323 335.12L179.355 337.952C178.347 337.232 177.411 336.752 176.547 336.512V339.968C178.275 340.416 179.547 341.016 180.363 341.768C181.195 342.52 181.611 343.584 181.611 344.96C181.611 346.336 181.147 347.472 180.219 348.368C179.307 349.264 178.083 349.8 176.547 349.976V351.656H174.003ZM177.771 345.152C177.771 344.816 177.683 344.536 177.507 344.312C177.331 344.088 177.011 343.88 176.547 343.688V346.64C177.363 346.384 177.771 345.888 177.771 345.152ZM174.003 336.416C173.315 336.656 172.971 337.096 172.971 337.736C172.971 338.376 173.315 338.864 174.003 339.2V336.416ZM183.602 333.224H190.394V350H186.794V336.416H183.602V333.224ZM201.134 336.056C200.094 336.056 199.286 336.408 198.71 337.112C198.15 337.8 197.806 338.744 197.678 339.944C198.718 339.272 199.822 338.936 200.99 338.936C202.558 338.936 203.862 339.448 204.902 340.472C205.958 341.496 206.486 342.864 206.486 344.576C206.486 346.272 205.918 347.632 204.782 348.656C203.662 349.68 202.246 350.192 200.534 350.192C199.35 350.192 198.318 349.968 197.438 349.52C196.574 349.056 195.902 348.416 195.422 347.6C194.462 346.016 193.982 344.032 193.982 341.648C193.982 340.112 194.166 338.768 194.534 337.616C194.918 336.448 195.438 335.528 196.094 334.856C197.374 333.512 198.958 332.84 200.846 332.84C201.63 332.84 202.374 332.96 203.078 333.2C203.798 333.424 204.35 333.656 204.734 333.896C205.118 334.136 205.542 334.44 206.006 334.808L204.23 337.448C204.134 337.352 203.99 337.224 203.798 337.064C203.622 336.904 203.262 336.696 202.718 336.44C202.174 336.184 201.646 336.056 201.134 336.056ZM200.63 342.104C199.894 342.104 199.27 342.328 198.758 342.776C198.262 343.208 198.014 343.776 198.014 344.48C198.014 345.184 198.254 345.792 198.734 346.304C199.214 346.8 199.814 347.048 200.534 347.048C201.254 347.048 201.854 346.824 202.334 346.376C202.814 345.928 203.054 345.352 203.054 344.648C203.054 343.928 202.838 343.328 202.406 342.848C201.974 342.352 201.382 342.104 200.63 342.104ZM209.799 349.592C209.399 349.176 209.199 348.672 209.199 348.08C209.199 347.488 209.399 346.992 209.799 346.592C210.215 346.176 210.719 345.968 211.311 345.968C211.903 345.968 212.399 346.176 212.799 346.592C213.215 346.992 213.423 347.488 213.423 348.08C213.423 348.672 213.215 349.176 212.799 349.592C212.399 349.992 211.903 350.192 211.311 350.192C210.719 350.192 210.215 349.992 209.799 349.592ZM222.477 342.752V339.824H226.077V342.752H227.973V345.992H226.077V350H222.477V345.992H215.733V343.136L221.709 333.224H225.789L220.101 342.752H222.477ZM232.606 334.16C233.726 333.28 235.118 332.84 236.782 332.84C238.446 332.84 239.83 333.28 240.934 334.16C242.038 335.04 242.59 336.128 242.59 337.424C242.59 338.704 242.094 339.808 241.102 340.736C242.494 341.808 243.19 343.216 243.19 344.96C243.19 346.432 242.598 347.672 241.414 348.68C240.23 349.688 238.686 350.192 236.782 350.192C234.878 350.192 233.334 349.688 232.15 348.68C230.966 347.672 230.374 346.432 230.374 344.96C230.374 343.216 231.07 341.808 232.462 340.736C231.454 339.792 230.95 338.68 230.95 337.4C230.95 336.12 231.502 335.04 232.606 334.16ZM234.958 346.52C235.518 346.888 236.126 347.072 236.782 347.072C237.438 347.072 238.046 346.888 238.606 346.52C239.166 346.136 239.446 345.584 239.446 344.864C239.446 344.144 239.174 343.592 238.63 343.208C238.086 342.824 237.47 342.632 236.782 342.632C236.094 342.632 235.478 342.824 234.934 343.208C234.39 343.592 234.118 344.144 234.118 344.864C234.118 345.584 234.398 346.136 234.958 346.52ZM235.174 339.176C235.638 339.56 236.174 339.752 236.782 339.752C237.39 339.752 237.918 339.56 238.366 339.176C238.83 338.792 239.062 338.32 239.062 337.76C239.062 337.184 238.838 336.704 238.39 336.32C237.942 335.936 237.406 335.744 236.782 335.744C236.158 335.744 235.622 335.936 235.174 336.32C234.726 336.704 234.502 337.184 234.502 337.76C234.502 338.32 234.726 338.792 235.174 339.176Z" fill="white"/>
<rect x="114" y="377" width="184" height="52" rx="5" fill="#2DC071"/>
<path d="M154.008 408L158.376 398.2H160.616L164.998 408H162.618L159.034 399.348H159.93L156.332 408H154.008ZM156.192 405.9L156.794 404.178H161.834L162.45 405.9H156.192ZM166.215 408V398.2H170.667C171.731 398.2 172.669 398.405 173.481 398.816C174.293 399.217 174.927 399.782 175.385 400.51C175.842 401.238 176.071 402.101 176.071 403.1C176.071 404.089 175.842 404.953 175.385 405.69C174.927 406.418 174.293 406.987 173.481 407.398C172.669 407.799 171.731 408 170.667 408H166.215ZM168.483 406.138H170.555C171.208 406.138 171.773 406.017 172.249 405.774C172.734 405.522 173.107 405.167 173.369 404.71C173.639 404.253 173.775 403.716 173.775 403.1C173.775 402.475 173.639 401.938 173.369 401.49C173.107 401.033 172.734 400.683 172.249 400.44C171.773 400.188 171.208 400.062 170.555 400.062H168.483V406.138ZM177.981 408V398.2H182.433C183.497 398.2 184.435 398.405 185.247 398.816C186.059 399.217 186.694 399.782 187.151 400.51C187.608 401.238 187.837 402.101 187.837 403.1C187.837 404.089 187.608 404.953 187.151 405.69C186.694 406.418 186.059 406.987 185.247 407.398C184.435 407.799 183.497 408 182.433 408H177.981ZM180.249 406.138H182.321C182.974 406.138 183.539 406.017 184.015 405.774C184.5 405.522 184.874 405.167 185.135 404.71C185.406 404.253 185.541 403.716 185.541 403.1C185.541 402.475 185.406 401.938 185.135 401.49C184.874 401.033 184.5 400.683 184.015 400.44C183.539 400.188 182.974 400.062 182.321 400.062H180.249V406.138ZM195.942 408V400.048H192.806V398.2H201.346V400.048H198.21V408H195.942ZM207.39 408.168C206.615 408.168 205.896 408.042 205.234 407.79C204.58 407.538 204.011 407.183 203.526 406.726C203.05 406.269 202.676 405.732 202.406 405.116C202.144 404.5 202.014 403.828 202.014 403.1C202.014 402.372 202.144 401.7 202.406 401.084C202.676 400.468 203.054 399.931 203.54 399.474C204.025 399.017 204.594 398.662 205.248 398.41C205.901 398.158 206.61 398.032 207.376 398.032C208.15 398.032 208.86 398.158 209.504 398.41C210.157 398.662 210.722 399.017 211.198 399.474C211.683 399.931 212.061 400.468 212.332 401.084C212.602 401.691 212.738 402.363 212.738 403.1C212.738 403.828 212.602 404.505 212.332 405.13C212.061 405.746 211.683 406.283 211.198 406.74C210.722 407.188 210.157 407.538 209.504 407.79C208.86 408.042 208.155 408.168 207.39 408.168ZM207.376 406.236C207.814 406.236 208.216 406.161 208.58 406.012C208.953 405.863 209.28 405.648 209.56 405.368C209.84 405.088 210.054 404.757 210.204 404.374C210.362 403.991 210.442 403.567 210.442 403.1C210.442 402.633 210.362 402.209 210.204 401.826C210.054 401.443 209.84 401.112 209.56 400.832C209.289 400.552 208.967 400.337 208.594 400.188C208.22 400.039 207.814 399.964 207.376 399.964C206.937 399.964 206.531 400.039 206.158 400.188C205.794 400.337 205.472 400.552 205.192 400.832C204.912 401.112 204.692 401.443 204.534 401.826C204.384 402.209 204.31 402.633 204.31 403.1C204.31 403.557 204.384 403.982 204.534 404.374C204.692 404.757 204.907 405.088 205.178 405.368C205.458 405.648 205.784 405.863 206.158 406.012C206.531 406.161 206.937 406.236 207.376 406.236ZM223.497 408.168C222.741 408.168 222.036 408.047 221.383 407.804C220.739 407.552 220.179 407.197 219.703 406.74C219.227 406.283 218.854 405.746 218.583 405.13C218.322 404.514 218.191 403.837 218.191 403.1C218.191 402.363 218.322 401.686 218.583 401.07C218.854 400.454 219.227 399.917 219.703 399.46C220.188 399.003 220.753 398.653 221.397 398.41C222.041 398.158 222.746 398.032 223.511 398.032C224.36 398.032 225.126 398.181 225.807 398.48C226.498 398.769 227.076 399.199 227.543 399.768L226.087 401.112C225.751 400.729 225.378 400.445 224.967 400.258C224.556 400.062 224.108 399.964 223.623 399.964C223.166 399.964 222.746 400.039 222.363 400.188C221.98 400.337 221.649 400.552 221.369 400.832C221.089 401.112 220.87 401.443 220.711 401.826C220.562 402.209 220.487 402.633 220.487 403.1C220.487 403.567 220.562 403.991 220.711 404.374C220.87 404.757 221.089 405.088 221.369 405.368C221.649 405.648 221.98 405.863 222.363 406.012C222.746 406.161 223.166 406.236 223.623 406.236C224.108 406.236 224.556 406.143 224.967 405.956C225.378 405.76 225.751 405.466 226.087 405.074L227.543 406.418C227.076 406.987 226.498 407.421 225.807 407.72C225.126 408.019 224.356 408.168 223.497 408.168ZM227.809 408L232.177 398.2H234.417L238.799 408H236.419L232.835 399.348H233.731L230.133 408H227.809ZM229.993 405.9L230.595 404.178H235.635L236.251 405.9H229.993ZM240.016 408V398.2H244.258C245.135 398.2 245.891 398.345 246.526 398.634C247.16 398.914 247.65 399.32 247.996 399.852C248.341 400.384 248.514 401.019 248.514 401.756C248.514 402.484 248.341 403.114 247.996 403.646C247.65 404.169 247.16 404.57 246.526 404.85C245.891 405.13 245.135 405.27 244.258 405.27H241.276L242.284 404.276V408H240.016ZM246.246 408L243.796 404.444H246.218L248.696 408H246.246ZM242.284 404.528L241.276 403.464H244.132C244.832 403.464 245.354 403.315 245.7 403.016C246.045 402.708 246.218 402.288 246.218 401.756C246.218 401.215 246.045 400.795 245.7 400.496C245.354 400.197 244.832 400.048 244.132 400.048H241.276L242.284 398.97V404.528ZM252.404 408V400.048H249.268V398.2H257.808V400.048H254.672V408H252.404Z" fill="white"/>
</svg>
