<svg width="260" height="44" viewBox="0 0 260 44" fill="none" xmlns="http://www.w3.org/2000/svg">
<g clip-path="url(#clip0_1_4935)">
<path d="M9.50049 18C9.50049 17.4696 9.7112 16.9609 10.0863 16.5858C10.4613 16.2107 10.9701 16 11.5005 16H23.5005C24.0309 16 24.5396 16.2107 24.9147 16.5858C25.2898 16.9609 25.5005 17.4696 25.5005 18V26C25.5005 26.5304 25.2898 27.0391 24.9147 27.4142C24.5396 27.7893 24.0309 28 23.5005 28H11.5005C10.9701 28 10.4613 27.7893 10.0863 27.4142C9.7112 27.0391 9.50049 26.5304 9.50049 26V18ZM11.5005 17C11.2353 17 10.9809 17.1054 10.7934 17.2929C10.6058 17.4804 10.5005 17.7348 10.5005 18V18.217L17.5005 22.417L24.5005 18.217V18C24.5005 17.7348 24.3951 17.4804 24.2076 17.2929C24.0201 17.1054 23.7657 17 23.5005 17H11.5005ZM24.5005 19.383L19.7425 22.238L24.5005 25.114V19.384V19.383ZM24.4665 26.261L18.7715 22.82L17.5005 23.583L16.2285 22.82L10.5345 26.26C10.5917 26.4724 10.7173 26.6601 10.892 26.7938C11.0666 26.9276 11.2805 27.0001 11.5005 27H23.5005C23.7203 27.0001 23.9341 26.9278 24.1088 26.7942C24.2834 26.6607 24.4091 26.4732 24.4665 26.261ZM10.5005 25.114L15.2585 22.238L10.5005 19.383V25.113V25.114Z" fill="white"/>
</g>
<path d="M38.9105 22.94V27H36.7965V22.884C36.7965 22.2867 36.7032 21.848 36.5165 21.568C36.3392 21.288 36.0452 21.148 35.6345 21.148C35.2332 21.148 34.8738 21.302 34.5565 21.61C34.2485 21.9087 34.0945 22.352 34.0945 22.94V27H31.9945V19.468H34.0945V20.322C34.6732 19.6687 35.3358 19.342 36.0825 19.342C36.5585 19.342 36.9878 19.482 37.3705 19.762C37.7625 20.042 38.0565 20.3827 38.2525 20.784C38.5418 20.3267 38.9292 19.972 39.4145 19.72C39.9092 19.468 40.4038 19.342 40.8985 19.342C41.7852 19.342 42.4992 19.608 43.0405 20.14C43.5818 20.6627 43.8525 21.4233 43.8525 22.422V27H41.7385V22.884C41.7385 21.7267 41.3138 21.148 40.4645 21.148C40.0445 21.148 39.6805 21.302 39.3725 21.61C39.0645 21.9087 38.9105 22.352 38.9105 22.94ZM48.0621 27H45.9621V19.468H48.0621V27ZM46.1301 18.516C45.8967 18.2733 45.7801 17.9793 45.7801 17.634C45.7801 17.2887 45.8967 16.9993 46.1301 16.766C46.3727 16.5233 46.6667 16.402 47.0121 16.402C47.3574 16.402 47.6467 16.5233 47.8801 16.766C48.1227 16.9993 48.2441 17.2887 48.2441 17.634C48.2441 17.9793 48.1227 18.2733 47.8801 18.516C47.6467 18.7493 47.3574 18.866 47.0121 18.866C46.6667 18.866 46.3727 18.7493 46.1301 18.516ZM53.862 25.25C54.562 25.25 55.192 24.9 55.752 24.2L56.998 25.6C56.0273 26.608 54.9773 27.112 53.848 27.112C52.7186 27.112 51.762 26.7573 50.978 26.048C50.2033 25.3293 49.816 24.396 49.816 23.248C49.816 22.0907 50.208 21.1527 50.992 20.434C51.7853 19.706 52.7233 19.342 53.806 19.342C54.3473 19.342 54.8933 19.454 55.444 19.678C56.004 19.902 56.494 20.2333 56.914 20.672L55.822 22.1C55.5793 21.8107 55.2806 21.5867 54.926 21.428C54.5806 21.2693 54.2353 21.19 53.89 21.19C53.3393 21.19 52.8633 21.372 52.462 21.736C52.07 22.0907 51.874 22.59 51.874 23.234C51.874 23.8687 52.07 24.3633 52.462 24.718C52.8633 25.0727 53.33 25.25 53.862 25.25ZM60.6984 22.94V27H58.5984V16.612H60.6984V20.308C61.3331 19.664 62.0424 19.342 62.8264 19.342C63.6197 19.342 64.2871 19.622 64.8284 20.182C65.3697 20.742 65.6404 21.4887 65.6404 22.422V27H63.5404V22.884C63.5404 21.7267 63.1157 21.148 62.2664 21.148C61.8464 21.148 61.4777 21.302 61.1604 21.61C60.8524 21.9087 60.6984 22.352 60.6984 22.94ZM74.2638 25.908C73.4145 26.7107 72.4158 27.112 71.2678 27.112C70.1291 27.112 69.1865 26.762 68.4398 26.062C67.6931 25.3527 67.3198 24.4053 67.3198 23.22C67.3198 22.0347 67.6978 21.092 68.4538 20.392C69.2191 19.692 70.1198 19.342 71.1558 19.342C72.1918 19.342 73.0691 19.6547 73.7878 20.28C74.5158 20.9053 74.8798 21.764 74.8798 22.856V23.976H69.3918C69.4571 24.3867 69.6718 24.7227 70.0358 24.984C70.3998 25.2453 70.8105 25.376 71.2678 25.376C72.0051 25.376 72.6118 25.1287 73.0878 24.634L74.2638 25.908ZM72.7518 22.478C72.7051 22.03 72.5371 21.6847 72.2478 21.442C71.9585 21.1993 71.6038 21.078 71.1838 21.078C70.7731 21.078 70.3951 21.204 70.0498 21.456C69.7045 21.708 69.5038 22.0487 69.4478 22.478H72.7518ZM78.6941 27H76.5941V16.612H78.6941V27ZM82.982 27H80.882V16.612H82.982V27ZM91.6939 25.908C90.8445 26.7107 89.8459 27.112 88.6979 27.112C87.5592 27.112 86.6165 26.762 85.8699 26.062C85.1232 25.3527 84.7499 24.4053 84.7499 23.22C84.7499 22.0347 85.1279 21.092 85.8839 20.392C86.6492 19.692 87.5499 19.342 88.5859 19.342C89.6219 19.342 90.4992 19.6547 91.2179 20.28C91.9459 20.9053 92.3099 21.764 92.3099 22.856V23.976H86.8219C86.8872 24.3867 87.1019 24.7227 87.4659 24.984C87.8299 25.2453 88.2405 25.376 88.6979 25.376C89.4352 25.376 90.0419 25.1287 90.5179 24.634L91.6939 25.908ZM90.1819 22.478C90.1352 22.03 89.9672 21.6847 89.6779 21.442C89.3885 21.1993 89.0339 21.078 88.6139 21.078C88.2032 21.078 87.8252 21.204 87.4799 21.456C87.1345 21.708 86.9339 22.0487 86.8779 22.478H90.1819ZM94.1642 26.762C93.9308 26.5193 93.8142 26.2253 93.8142 25.88C93.8142 25.5347 93.9308 25.2453 94.1642 25.012C94.4068 24.7693 94.7008 24.648 95.0462 24.648C95.3915 24.648 95.6808 24.7693 95.9142 25.012C96.1568 25.2453 96.2782 25.5347 96.2782 25.88C96.2782 26.2253 96.1568 26.5193 95.9142 26.762C95.6808 26.9953 95.3915 27.112 95.0462 27.112C94.7008 27.112 94.4068 26.9953 94.1642 26.762ZM102.219 21.316C101.594 21.316 101.127 21.54 100.819 21.988C100.511 22.4267 100.357 23.01 100.357 23.738V27H98.2574V19.468H100.357V20.462C100.628 20.154 100.964 19.8927 101.365 19.678C101.776 19.4633 102.191 19.3513 102.611 19.342L102.625 21.316H102.219ZM106.313 27H104.213V19.468H106.313V27ZM104.381 18.516C104.148 18.2733 104.031 17.9793 104.031 17.634C104.031 17.2887 104.148 16.9993 104.381 16.766C104.624 16.5233 104.918 16.402 105.263 16.402C105.609 16.402 105.898 16.5233 106.131 16.766C106.374 16.9993 106.495 17.2887 106.495 17.634C106.495 17.9793 106.374 18.2733 106.131 18.516C105.898 18.7493 105.609 18.866 105.263 18.866C104.918 18.866 104.624 18.7493 104.381 18.516ZM110.531 27L107.549 19.454H109.733L111.609 24.2L113.485 19.454H115.669L112.687 27H110.531ZM123.428 25.908C122.579 26.7107 121.58 27.112 120.432 27.112C119.294 27.112 118.351 26.762 117.604 26.062C116.858 25.3527 116.484 24.4053 116.484 23.22C116.484 22.0347 116.862 21.092 117.618 20.392C118.384 19.692 119.284 19.342 120.32 19.342C121.356 19.342 122.234 19.6547 122.952 20.28C123.68 20.9053 124.044 21.764 124.044 22.856V23.976H118.556C118.622 24.3867 118.836 24.7227 119.2 24.984C119.564 25.2453 119.975 25.376 120.432 25.376C121.17 25.376 121.776 25.1287 122.252 24.634L123.428 25.908ZM121.916 22.478C121.87 22.03 121.702 21.6847 121.412 21.442C121.123 21.1993 120.768 21.078 120.348 21.078C119.938 21.078 119.56 21.204 119.214 21.456C118.869 21.708 118.668 22.0487 118.612 22.478H121.916ZM129.721 21.316C129.095 21.316 128.629 21.54 128.321 21.988C128.013 22.4267 127.859 23.01 127.859 23.738V27H125.759V19.468H127.859V20.462C128.129 20.154 128.465 19.8927 128.867 19.678C129.277 19.4633 129.693 19.3513 130.113 19.342L130.127 21.316H129.721ZM138.044 27H136.07V26.09C135.529 26.7713 134.857 27.112 134.054 27.112C133.261 27.112 132.593 26.8833 132.052 26.426C131.511 25.9593 131.24 25.3433 131.24 24.578C131.24 23.8033 131.52 23.2247 132.08 22.842C132.64 22.4593 133.405 22.268 134.376 22.268H135.944V22.226C135.944 21.4233 135.519 21.022 134.67 21.022C134.306 21.022 133.919 21.0967 133.508 21.246C133.107 21.386 132.766 21.5633 132.486 21.778L131.548 20.42C132.537 19.7013 133.667 19.342 134.936 19.342C135.851 19.342 136.597 19.5707 137.176 20.028C137.755 20.4853 138.044 21.2087 138.044 22.198V27ZM135.93 24.13V23.766H134.614C133.774 23.766 133.354 24.0273 133.354 24.55C133.354 24.8207 133.452 25.0307 133.648 25.18C133.853 25.32 134.143 25.39 134.516 25.39C134.889 25.39 135.216 25.278 135.496 25.054C135.785 24.8207 135.93 24.5127 135.93 24.13ZM148.797 25.292C149.049 25.292 149.268 25.0913 149.455 24.69C149.651 24.2887 149.749 23.7847 149.749 23.178C149.749 21.862 149.371 20.7747 148.615 19.916C147.859 19.048 146.846 18.614 145.577 18.614C144.307 18.614 143.239 19.0667 142.371 19.972C141.503 20.8773 141.069 21.9647 141.069 23.234C141.069 24.494 141.475 25.544 142.287 26.384C143.108 27.224 144.121 27.644 145.325 27.644C146.267 27.644 147.098 27.2987 147.817 26.608L148.391 27.602C148.017 27.9287 147.541 28.19 146.963 28.386C146.384 28.5913 145.838 28.694 145.325 28.694C143.766 28.694 142.459 28.1713 141.405 27.126C140.359 26.09 139.837 24.7927 139.837 23.234C139.837 21.666 140.387 20.3313 141.489 19.23C142.599 18.1193 143.934 17.564 145.493 17.564C147.051 17.564 148.353 18.096 149.399 19.16C150.444 20.224 150.967 21.5493 150.967 23.136C150.967 24.1627 150.752 24.9887 150.323 25.614C149.903 26.23 149.347 26.538 148.657 26.538C148.302 26.538 147.975 26.4307 147.677 26.216C147.387 26.0013 147.187 25.7307 147.075 25.404C146.561 26.0667 145.908 26.398 145.115 26.398C144.331 26.398 143.645 26.0993 143.057 25.502C142.478 24.9047 142.189 24.1487 142.189 23.234C142.189 22.31 142.45 21.5353 142.973 20.91C143.505 20.2753 144.2 19.958 145.059 19.958C145.348 19.958 145.623 20.0233 145.885 20.154C146.146 20.2753 146.333 20.3967 146.445 20.518L146.627 20.7V20.126H148.377V24.592C148.377 25.0587 148.517 25.292 148.797 25.292ZM146.641 23.178C146.641 22.7113 146.515 22.324 146.263 22.016C146.02 21.708 145.698 21.554 145.297 21.554C144.895 21.554 144.573 21.708 144.331 22.016C144.097 22.324 143.981 22.7067 143.981 23.164C143.981 23.612 144.097 24.004 144.331 24.34C144.573 24.676 144.9 24.844 145.311 24.844C145.721 24.844 146.043 24.6853 146.277 24.368C146.519 24.0413 146.641 23.6447 146.641 23.178ZM159.351 25.908C158.502 26.7107 157.503 27.112 156.355 27.112C155.217 27.112 154.274 26.762 153.527 26.062C152.781 25.3527 152.407 24.4053 152.407 23.22C152.407 22.0347 152.785 21.092 153.541 20.392C154.307 19.692 155.207 19.342 156.243 19.342C157.279 19.342 158.157 19.6547 158.875 20.28C159.603 20.9053 159.967 21.764 159.967 22.856V23.976H154.479C154.545 24.3867 154.759 24.7227 155.123 24.984C155.487 25.2453 155.898 25.376 156.355 25.376C157.093 25.376 157.699 25.1287 158.175 24.634L159.351 25.908ZM157.839 22.478C157.793 22.03 157.625 21.6847 157.335 21.442C157.046 21.1993 156.691 21.078 156.271 21.078C155.861 21.078 155.483 21.204 155.137 21.456C154.792 21.708 154.591 22.0487 154.535 22.478H157.839ZM163.311 19.468L164.599 21.484L165.929 19.468H168.393L165.803 23.15L168.491 27H165.985L164.515 24.928L163.087 27H160.665L163.297 23.164L160.805 19.468H163.311ZM176.127 27H174.153V26.09C173.612 26.7713 172.94 27.112 172.137 27.112C171.344 27.112 170.677 26.8833 170.135 26.426C169.594 25.9593 169.323 25.3433 169.323 24.578C169.323 23.8033 169.603 23.2247 170.163 22.842C170.723 22.4593 171.489 22.268 172.459 22.268H174.027V22.226C174.027 21.4233 173.603 21.022 172.753 21.022C172.389 21.022 172.002 21.0967 171.591 21.246C171.19 21.386 170.849 21.5633 170.569 21.778L169.631 20.42C170.621 19.7013 171.75 19.342 173.019 19.342C173.934 19.342 174.681 19.5707 175.259 20.028C175.838 20.4853 176.127 21.2087 176.127 22.198V27ZM174.013 24.13V23.766H172.697C171.857 23.766 171.437 24.0273 171.437 24.55C171.437 24.8207 171.535 25.0307 171.731 25.18C171.937 25.32 172.226 25.39 172.599 25.39C172.973 25.39 173.299 25.278 173.579 25.054C173.869 24.8207 174.013 24.5127 174.013 24.13ZM185.158 22.94V27H183.044V22.884C183.044 22.2867 182.95 21.848 182.764 21.568C182.586 21.288 182.292 21.148 181.882 21.148C181.48 21.148 181.121 21.302 180.804 21.61C180.496 21.9087 180.342 22.352 180.342 22.94V27H178.242V19.468H180.342V20.322C180.92 19.6687 181.583 19.342 182.33 19.342C182.806 19.342 183.235 19.482 183.618 19.762C184.01 20.042 184.304 20.3827 184.5 20.784C184.789 20.3267 185.176 19.972 185.662 19.72C186.156 19.468 186.651 19.342 187.146 19.342C188.032 19.342 188.746 19.608 189.288 20.14C189.829 20.6627 190.1 21.4233 190.1 22.422V27H187.986V22.884C187.986 21.7267 187.561 21.148 186.712 21.148C186.292 21.148 185.928 21.302 185.62 21.61C185.312 21.9087 185.158 22.352 185.158 22.94ZM196.591 19.342C197.469 19.342 198.248 19.7107 198.929 20.448C199.62 21.176 199.965 22.0953 199.965 23.206C199.965 24.3167 199.62 25.2453 198.929 25.992C198.248 26.7387 197.445 27.112 196.521 27.112C195.607 27.112 194.869 26.7433 194.309 26.006V29.716H192.209V19.468H194.309V20.308C194.953 19.664 195.714 19.342 196.591 19.342ZM194.281 23.248C194.281 23.8547 194.449 24.354 194.785 24.746C195.131 25.1287 195.546 25.32 196.031 25.32C196.517 25.32 196.941 25.1287 197.305 24.746C197.669 24.354 197.851 23.8547 197.851 23.248C197.851 22.6413 197.674 22.1327 197.319 21.722C196.965 21.3113 196.54 21.106 196.045 21.106C195.551 21.106 195.131 21.3113 194.785 21.722C194.449 22.1233 194.281 22.632 194.281 23.248ZM203.834 27H201.734V16.612H203.834V27ZM212.545 25.908C211.696 26.7107 210.697 27.112 209.549 27.112C208.411 27.112 207.468 26.762 206.721 26.062C205.975 25.3527 205.601 24.4053 205.601 23.22C205.601 22.0347 205.979 21.092 206.735 20.392C207.501 19.692 208.401 19.342 209.437 19.342C210.473 19.342 211.351 19.6547 212.069 20.28C212.797 20.9053 213.161 21.764 213.161 22.856V23.976H207.673C207.739 24.3867 207.953 24.7227 208.317 24.984C208.681 25.2453 209.092 25.376 209.549 25.376C210.287 25.376 210.893 25.1287 211.369 24.634L212.545 25.908ZM211.033 22.478C210.987 22.03 210.819 21.6847 210.529 21.442C210.24 21.1993 209.885 21.078 209.465 21.078C209.055 21.078 208.677 21.204 208.331 21.456C207.986 21.708 207.785 22.0487 207.729 22.478H211.033ZM215.016 26.762C214.782 26.5193 214.666 26.2253 214.666 25.88C214.666 25.5347 214.782 25.2453 215.016 25.012C215.258 24.7693 215.552 24.648 215.898 24.648C216.243 24.648 216.532 24.7693 216.766 25.012C217.008 25.2453 217.13 25.5347 217.13 25.88C217.13 26.2253 217.008 26.5193 216.766 26.762C216.532 26.9953 216.243 27.112 215.898 27.112C215.552 27.112 215.258 26.9953 215.016 26.762ZM222.721 25.25C223.421 25.25 224.051 24.9 224.611 24.2L225.857 25.6C224.886 26.608 223.836 27.112 222.707 27.112C221.578 27.112 220.621 26.7573 219.837 26.048C219.062 25.3293 218.675 24.396 218.675 23.248C218.675 22.0907 219.067 21.1527 219.851 20.434C220.644 19.706 221.582 19.342 222.665 19.342C223.206 19.342 223.752 19.454 224.303 19.678C224.863 19.902 225.353 20.2333 225.773 20.672L224.681 22.1C224.438 21.8107 224.14 21.5867 223.785 21.428C223.44 21.2693 223.094 21.19 222.749 21.19C222.198 21.19 221.722 21.372 221.321 21.736C220.929 22.0907 220.733 22.59 220.733 23.234C220.733 23.8687 220.929 24.3633 221.321 24.718C221.722 25.0727 222.189 25.25 222.721 25.25ZM229.014 23.234C229.014 23.85 229.187 24.354 229.532 24.746C229.887 25.1287 230.335 25.32 230.876 25.32C231.427 25.32 231.875 25.1287 232.22 24.746C232.575 24.354 232.752 23.85 232.752 23.234C232.752 22.618 232.575 22.114 232.22 21.722C231.875 21.33 231.427 21.134 230.876 21.134C230.335 21.134 229.887 21.33 229.532 21.722C229.187 22.114 229.014 22.618 229.014 23.234ZM234.866 23.234C234.866 24.326 234.488 25.2453 233.732 25.992C232.976 26.7387 232.024 27.112 230.876 27.112C229.738 27.112 228.79 26.7387 228.034 25.992C227.278 25.2453 226.9 24.326 226.9 23.234C226.9 22.142 227.278 21.2227 228.034 20.476C228.79 19.72 229.738 19.342 230.876 19.342C232.024 19.342 232.976 19.72 233.732 20.476C234.488 21.2227 234.866 22.142 234.866 23.234ZM243.542 22.94V27H241.428V22.884C241.428 22.2867 241.335 21.848 241.148 21.568C240.971 21.288 240.677 21.148 240.266 21.148C239.865 21.148 239.505 21.302 239.188 21.61C238.88 21.9087 238.726 22.352 238.726 22.94V27H236.626V19.468H238.726V20.322C239.305 19.6687 239.967 19.342 240.714 19.342C241.19 19.342 241.619 19.482 242.002 19.762C242.394 20.042 242.688 20.3827 242.884 20.784C243.173 20.3267 243.561 19.972 244.046 19.72C244.541 19.468 245.035 19.342 245.53 19.342C246.417 19.342 247.131 19.608 247.672 20.14C248.213 20.6627 248.484 21.4233 248.484 22.422V27H246.37V22.884C246.37 21.7267 245.945 21.148 245.096 21.148C244.676 21.148 244.312 21.302 244.004 21.61C243.696 21.9087 243.542 22.352 243.542 22.94Z" fill="white"/>
<defs>
<clipPath id="clip0_1_4935">
<rect width="16" height="16" fill="white" transform="translate(10.0005 14)"/>
</clipPath>
</defs>
</svg>
