<svg width="145" height="44" viewBox="0 0 145 44" fill="none" xmlns="http://www.w3.org/2000/svg">
<g clip-path="url(#clip0_1_4931)">
<path d="M13.6545 15.3283C13.5954 15.2524 13.5209 15.1898 13.4359 15.1449C13.3508 15.1 13.2572 15.0737 13.1612 15.0677C13.0652 15.0618 12.969 15.0763 12.8791 15.1104C12.7891 15.1444 12.7074 15.1972 12.6395 15.2653L11.6055 16.3003C11.1225 16.7843 10.9445 17.4693 11.1555 18.0703C12.0312 20.5579 13.4558 22.8164 15.3235 24.6783C17.1854 26.546 19.4439 27.9705 21.9315 28.8463C22.5325 29.0573 23.2175 28.8793 23.7015 28.3963L24.7355 27.3623C24.8035 27.2943 24.8563 27.2127 24.8904 27.1227C24.9245 27.0327 24.939 26.9366 24.933 26.8406C24.9271 26.7446 24.9008 26.6509 24.8558 26.5659C24.8109 26.4808 24.7484 26.4063 24.6725 26.3473L22.3655 24.5533C22.2843 24.4904 22.19 24.4467 22.0895 24.4256C21.989 24.4044 21.8851 24.4064 21.7855 24.4313L19.5955 24.9783C19.3032 25.0514 18.9969 25.0475 18.7065 24.967C18.4161 24.8866 18.1515 24.7324 17.9385 24.5193L15.4825 22.0623C15.2692 21.8493 15.1148 21.5848 15.0342 21.2944C14.9536 21.004 14.9495 20.6977 15.0225 20.4053L15.5705 18.2153C15.5954 18.1157 15.5973 18.0117 15.5762 17.9113C15.5551 17.8108 15.5114 17.7164 15.4485 17.6353L13.6545 15.3283ZM11.8845 14.5113C12.0595 14.3362 12.2697 14.2004 12.5012 14.1129C12.7327 14.0253 12.9802 13.988 13.2273 14.0034C13.4743 14.0188 13.7152 14.0866 13.9341 14.2023C14.1529 14.3179 14.3446 14.4788 14.4965 14.6743L16.2905 16.9803C16.6195 17.4033 16.7355 17.9543 16.6055 18.4743L16.0585 20.6643C16.0302 20.7777 16.0317 20.8965 16.0629 21.0092C16.0941 21.1219 16.1539 21.2246 16.2365 21.3073L18.6935 23.7643C18.7763 23.847 18.8792 23.9069 18.992 23.9381C19.1049 23.9693 19.2239 23.9708 19.3375 23.9423L21.5265 23.3953C21.7831 23.3311 22.0509 23.3261 22.3098 23.3807C22.5686 23.4353 22.8116 23.548 23.0205 23.7103L25.3265 25.5043C26.1555 26.1493 26.2315 27.3743 25.4895 28.1153L24.4555 29.1493C23.7155 29.8893 22.6095 30.2143 21.5785 29.8513C18.9397 28.9228 16.5437 27.4121 14.5685 25.4313C12.5878 23.4563 11.0771 21.0608 10.1485 18.4223C9.78647 17.3923 10.1115 16.2853 10.8515 15.5453L11.8855 14.5113H11.8845Z" fill="white"/>
</g>
<path d="M35.7185 16.444C35.1585 17.2467 34.6825 18.2267 34.2905 19.384C33.9078 20.532 33.7165 21.61 33.7165 22.618C33.7165 23.6167 33.9078 24.6947 34.2905 25.852C34.6825 27.0093 35.1585 27.9847 35.7185 28.778H33.4505C32.9932 28.134 32.5732 27.2287 32.1905 26.062C31.8172 24.886 31.6305 23.738 31.6305 22.618C31.6305 21.498 31.8172 20.35 32.1905 19.174C32.5732 17.998 32.9932 17.088 33.4505 16.444H35.7185ZM39.9548 22.436C40.5334 21.848 40.9441 21.3813 41.1868 21.036C41.4388 20.6813 41.5648 20.3407 41.5648 20.014C41.5648 19.6873 41.4574 19.4167 41.2428 19.202C41.0281 18.978 40.7528 18.866 40.4168 18.866C39.8008 18.866 39.2174 19.3047 38.6668 20.182L36.9168 19.146C37.3741 18.4367 37.8734 17.9 38.4148 17.536C38.9654 17.172 39.6608 16.99 40.5008 16.99C41.3501 16.99 42.0921 17.2607 42.7268 17.802C43.3708 18.334 43.6928 19.062 43.6928 19.986C43.6928 20.49 43.5621 20.9753 43.3008 21.442C43.0488 21.8993 42.5774 22.4873 41.8868 23.206L40.1228 25.04H43.9868V27H37.0848V25.376L39.9548 22.436ZM48.6313 22.436C49.21 21.848 49.6206 21.3813 49.8633 21.036C50.1153 20.6813 50.2413 20.3407 50.2413 20.014C50.2413 19.6873 50.134 19.4167 49.9193 19.202C49.7046 18.978 49.4293 18.866 49.0933 18.866C48.4773 18.866 47.894 19.3047 47.3433 20.182L45.5933 19.146C46.0506 18.4367 46.55 17.9 47.0913 17.536C47.642 17.172 48.3373 16.99 49.1773 16.99C50.0266 16.99 50.7686 17.2607 51.4033 17.802C52.0473 18.334 52.3693 19.062 52.3693 19.986C52.3693 20.49 52.2386 20.9753 51.9773 21.442C51.7253 21.8993 51.254 22.4873 50.5633 23.206L48.7993 25.04H52.6633V27H45.7613V25.376L48.6313 22.436ZM60.7099 17.214V19.104H56.8459V20.742C57.1352 20.658 57.4665 20.616 57.8399 20.616C58.7825 20.616 59.5945 20.9007 60.2759 21.47C60.9572 22.0393 61.2979 22.8093 61.2979 23.78C61.2979 24.7413 60.9432 25.5393 60.2339 26.174C59.5339 26.7993 58.6659 27.112 57.6299 27.112C56.3045 27.112 55.1985 26.622 54.3119 25.642L55.4599 24.046C55.5439 24.13 55.6559 24.2327 55.7959 24.354C55.9359 24.4753 56.1925 24.6387 56.5659 24.844C56.9392 25.04 57.3125 25.138 57.6859 25.138C58.0592 25.138 58.3905 25.026 58.6799 24.802C58.9692 24.578 59.1139 24.2467 59.1139 23.808C59.1139 23.3693 58.9552 23.0333 58.6379 22.8C58.3299 22.5573 57.9285 22.436 57.4339 22.436C56.9392 22.436 56.3652 22.6133 55.7119 22.968L54.8019 21.988V17.214H60.7099ZM62.5157 28.778C63.0757 27.9847 63.5471 27.0093 63.9297 25.852C64.3217 24.6947 64.5177 23.6167 64.5177 22.618C64.5177 21.61 64.3217 20.532 63.9297 19.384C63.5471 18.2267 63.0757 17.2467 62.5157 16.444H64.7837C65.2411 17.088 65.6564 17.998 66.0297 19.174C66.4124 20.35 66.6037 21.498 66.6037 22.618C66.6037 23.738 66.4124 24.886 66.0297 26.062C65.6564 27.2287 65.2411 28.134 64.7837 28.778H62.5157ZM78.4134 17.214V19.104H74.5494V20.742C74.8387 20.658 75.1701 20.616 75.5434 20.616C76.4861 20.616 77.2981 20.9007 77.9794 21.47C78.6607 22.0393 79.0014 22.8093 79.0014 23.78C79.0014 24.7413 78.6467 25.5393 77.9374 26.174C77.2374 26.7993 76.3694 27.112 75.3334 27.112C74.0081 27.112 72.9021 26.622 72.0154 25.642L73.1634 24.046C73.2474 24.13 73.3594 24.2327 73.4994 24.354C73.6394 24.4753 73.8961 24.6387 74.2694 24.844C74.6427 25.04 75.0161 25.138 75.3894 25.138C75.7627 25.138 76.0941 25.026 76.3834 24.802C76.6727 24.578 76.8174 24.2467 76.8174 23.808C76.8174 23.3693 76.6587 23.0333 76.3414 22.8C76.0334 22.5573 75.6321 22.436 75.1374 22.436C74.6427 22.436 74.0687 22.6133 73.4154 22.968L72.5054 21.988V17.214H78.4134ZM86.9532 17.214V19.104H83.0892V20.742C83.3786 20.658 83.7099 20.616 84.0832 20.616C85.0259 20.616 85.8379 20.9007 86.5192 21.47C87.2006 22.0393 87.5412 22.8093 87.5412 23.78C87.5412 24.7413 87.1866 25.5393 86.4772 26.174C85.7772 26.7993 84.9092 27.112 83.8732 27.112C82.5479 27.112 81.4419 26.622 80.5552 25.642L81.7032 24.046C81.7872 24.13 81.8992 24.2327 82.0392 24.354C82.1792 24.4753 82.4359 24.6387 82.8092 24.844C83.1826 25.04 83.5559 25.138 83.9292 25.138C84.3026 25.138 84.6339 25.026 84.9232 24.802C85.2126 24.578 85.3572 24.2467 85.3572 23.808C85.3572 23.3693 85.1986 23.0333 84.8812 22.8C84.5732 22.5573 84.1719 22.436 83.6772 22.436C83.1826 22.436 82.6086 22.6133 81.9552 22.968L81.0452 21.988V17.214H86.9532ZM95.4931 17.214V19.104H91.6291V20.742C91.9184 20.658 92.2497 20.616 92.6231 20.616C93.5657 20.616 94.3777 20.9007 95.0591 21.47C95.7404 22.0393 96.0811 22.8093 96.0811 23.78C96.0811 24.7413 95.7264 25.5393 95.0171 26.174C94.3171 26.7993 93.4491 27.112 92.4131 27.112C91.0877 27.112 89.9817 26.622 89.0951 25.642L90.2431 24.046C90.3271 24.13 90.4391 24.2327 90.5791 24.354C90.7191 24.4753 90.9757 24.6387 91.3491 24.844C91.7224 25.04 92.0957 25.138 92.4691 25.138C92.8424 25.138 93.1737 25.026 93.4631 24.802C93.7524 24.578 93.8971 24.2467 93.8971 23.808C93.8971 23.3693 93.7384 23.0333 93.4211 22.8C93.1131 22.5573 92.7117 22.436 92.2171 22.436C91.7224 22.436 91.1484 22.6133 90.4951 22.968L89.5851 21.988V17.214H95.4931ZM97.8869 23.724V21.862H102.871V23.724H97.8869ZM107.4 19.692C107.092 20.2893 106.938 21.078 106.938 22.058C106.938 23.038 107.092 23.8267 107.4 24.424C107.708 25.0213 108.189 25.32 108.842 25.32C109.496 25.32 109.976 25.0213 110.284 24.424C110.592 23.8267 110.746 23.038 110.746 22.058C110.746 21.078 110.592 20.2893 110.284 19.692C109.976 19.0947 109.496 18.796 108.842 18.796C108.189 18.796 107.708 19.0947 107.4 19.692ZM108.842 27.112C107.489 27.112 106.476 26.6547 105.804 25.74C105.132 24.816 104.796 23.5887 104.796 22.058C104.796 20.518 105.132 19.2907 105.804 18.376C106.476 17.452 107.489 16.99 108.842 16.99C110.196 16.99 111.208 17.452 111.88 18.376C112.552 19.2907 112.888 20.518 112.888 22.058C112.888 23.5887 112.552 24.816 111.88 25.74C111.208 26.6547 110.196 27.112 108.842 27.112ZM114.312 17.214H118.274V27H116.174V19.076H114.312V17.214ZM120.159 17.214H124.121V27H122.021V19.076H120.159V17.214ZM127.629 17.76C128.283 17.2467 129.095 16.99 130.065 16.99C131.036 16.99 131.843 17.2467 132.487 17.76C133.131 18.2733 133.453 18.908 133.453 19.664C133.453 20.4107 133.164 21.0547 132.585 21.596C133.397 22.2213 133.803 23.0427 133.803 24.06C133.803 24.9187 133.458 25.642 132.767 26.23C132.077 26.818 131.176 27.112 130.065 27.112C128.955 27.112 128.054 26.818 127.363 26.23C126.673 25.642 126.327 24.9187 126.327 24.06C126.327 23.0427 126.733 22.2213 127.545 21.596C126.957 21.0453 126.663 20.3967 126.663 19.65C126.663 18.9033 126.985 18.2733 127.629 17.76ZM129.001 24.97C129.328 25.1847 129.683 25.292 130.065 25.292C130.448 25.292 130.803 25.1847 131.129 24.97C131.456 24.746 131.619 24.424 131.619 24.004C131.619 23.584 131.461 23.262 131.143 23.038C130.826 22.814 130.467 22.702 130.065 22.702C129.664 22.702 129.305 22.814 128.987 23.038C128.67 23.262 128.511 23.584 128.511 24.004C128.511 24.424 128.675 24.746 129.001 24.97ZM129.127 20.686C129.398 20.91 129.711 21.022 130.065 21.022C130.42 21.022 130.728 20.91 130.989 20.686C131.26 20.462 131.395 20.1867 131.395 19.86C131.395 19.524 131.265 19.244 131.003 19.02C130.742 18.796 130.429 18.684 130.065 18.684C129.701 18.684 129.389 18.796 129.127 19.02C128.866 19.244 128.735 19.524 128.735 19.86C128.735 20.1867 128.866 20.462 129.127 20.686Z" fill="white"/>
<defs>
<clipPath id="clip0_1_4931">
<rect width="16.0005" height="16.0004" fill="white" transform="translate(10 14)"/>
</clipPath>
</defs>
</svg>
