<svg width="205" height="223" viewBox="0 0 205 223" fill="none" xmlns="http://www.w3.org/2000/svg">
<path d="M75.9808 102.792C77.2074 102.792 78.2101 102.307 78.9888 101.336L80.5888 102.984C79.3194 104.413 77.8208 105.128 76.0928 105.128C74.3754 105.128 72.9568 104.584 71.8368 103.496C70.7274 102.408 70.1728 101.037 70.1728 99.384C70.1728 97.72 70.7381 96.3333 71.8688 95.224C73.0101 94.1147 74.4021 93.56 76.0448 93.56C77.8794 93.56 79.4154 94.2587 80.6528 95.656L79.1008 97.416C78.3114 96.4347 77.3301 95.944 76.1568 95.944C75.2181 95.944 74.4128 96.2533 73.7408 96.872C73.0794 97.48 72.7488 98.3067 72.7488 99.352C72.7488 100.387 73.0634 101.219 73.6927 101.848C74.3221 102.477 75.0848 102.792 75.9808 102.792ZM82.6635 105V93.816H85.1595V102.776H89.9275V105H82.6635ZM100.12 99.352C100.12 98.3493 99.8004 97.496 99.1604 96.792C98.5204 96.088 97.731 95.736 96.7924 95.736C95.8644 95.736 95.0804 96.088 94.4404 96.792C93.8004 97.496 93.4804 98.3493 93.4804 99.352C93.4804 100.344 93.8004 101.192 94.4404 101.896C95.0804 102.589 95.8644 102.936 96.7924 102.936C97.731 102.936 98.5204 102.589 99.1604 101.896C99.8004 101.192 100.12 100.344 100.12 99.352ZM100.968 103.464C99.8377 104.563 98.4457 105.112 96.7924 105.112C95.139 105.112 93.747 104.563 92.6164 103.464C91.4857 102.355 90.9204 100.979 90.9204 99.336C90.9204 97.6933 91.4857 96.3227 92.6164 95.224C93.747 94.1147 95.139 93.56 96.7924 93.56C98.4457 93.56 99.8377 94.1147 100.968 95.224C102.099 96.3227 102.664 97.6933 102.664 99.336C102.664 100.979 102.099 102.355 100.968 103.464ZM109.318 95.976V105H106.822V95.976H103.654V93.816H112.486V95.976H109.318ZM121.361 93.816H123.857V105H121.361V100.6H116.913V105H114.417V93.816H116.913V98.488H121.361V93.816ZM130.304 95.752C129.888 95.752 129.557 95.8533 129.312 96.056C129.077 96.248 128.96 96.5093 128.96 96.84C128.96 97.16 129.104 97.416 129.392 97.608C129.691 97.8 130.368 98.0293 131.424 98.296C132.491 98.552 133.317 98.9413 133.904 99.464C134.491 99.9867 134.784 100.749 134.784 101.752C134.784 102.755 134.405 103.571 133.648 104.2C132.901 104.819 131.915 105.128 130.688 105.128C128.917 105.128 127.323 104.472 125.904 103.16L127.392 101.336C128.597 102.392 129.712 102.92 130.736 102.92C131.195 102.92 131.552 102.824 131.808 102.632C132.075 102.429 132.208 102.163 132.208 101.832C132.208 101.491 132.069 101.224 131.792 101.032C131.515 100.829 130.965 100.627 130.144 100.424C128.843 100.115 127.888 99.7147 127.28 99.224C126.683 98.7227 126.384 97.944 126.384 96.888C126.384 95.8213 126.763 95 127.52 94.424C128.288 93.848 129.243 93.56 130.384 93.56C131.131 93.56 131.877 93.688 132.624 93.944C133.371 94.2 134.021 94.5627 134.576 95.032L133.312 96.856C132.341 96.12 131.339 95.752 130.304 95.752Z" fill="white"/>
<path d="M82.804 126.2V127.698H78.674V130.106C79.0847 129.882 79.5513 129.77 80.074 129.77C80.9887 129.77 81.7773 130.045 82.44 130.596C83.1027 131.147 83.434 131.893 83.434 132.836C83.434 133.779 83.0887 134.563 82.398 135.188C81.7073 135.804 80.858 136.112 79.85 136.112C78.534 136.112 77.484 135.673 76.7 134.796L77.582 133.592C77.6567 133.667 77.7547 133.755 77.876 133.858C78.0067 133.961 78.268 134.101 78.66 134.278C79.052 134.446 79.4813 134.53 79.948 134.53C80.4147 134.53 80.8393 134.39 81.222 134.11C81.6047 133.83 81.796 133.424 81.796 132.892C81.796 132.351 81.5907 131.935 81.18 131.646C80.7787 131.347 80.2653 131.198 79.64 131.198C79.024 131.198 78.436 131.352 77.876 131.66L77.176 130.904V126.2H82.804ZM89.7072 126.214H91.3592V136H89.7072V126.214ZM95.8672 129.812V133.592C95.8672 133.947 95.9605 134.231 96.1472 134.446C96.3338 134.651 96.5952 134.754 96.9312 134.754C97.2672 134.754 97.5892 134.591 97.8972 134.264L98.5412 135.37C97.9905 135.865 97.3792 136.112 96.7072 136.112C96.0445 136.112 95.4752 135.883 94.9992 135.426C94.5325 134.959 94.2992 134.334 94.2992 133.55V129.812H93.3612V128.552H94.2992V126.214H95.8672V128.552H97.8272V129.812H95.8672ZM106.917 132.962H101.079C101.116 133.503 101.363 133.942 101.821 134.278C102.278 134.605 102.801 134.768 103.389 134.768C104.322 134.768 105.031 134.474 105.517 133.886L106.413 134.866C105.61 135.697 104.565 136.112 103.277 136.112C102.231 136.112 101.34 135.767 100.603 135.076C99.8747 134.376 99.5107 133.443 99.5107 132.276C99.5107 131.1 99.8841 130.167 100.631 129.476C101.377 128.785 102.255 128.44 103.263 128.44C104.28 128.44 105.143 128.748 105.853 129.364C106.562 129.971 106.917 130.811 106.917 131.884V132.962ZM101.079 131.73H105.349C105.349 131.105 105.153 130.624 104.761 130.288C104.369 129.952 103.883 129.784 103.305 129.784C102.735 129.784 102.222 129.961 101.765 130.316C101.307 130.661 101.079 131.133 101.079 131.73ZM110.409 131.968V136H108.841V128.552H110.409V129.91C110.633 129.453 110.969 129.093 111.417 128.832C111.874 128.571 112.364 128.44 112.887 128.44C114.063 128.44 114.861 128.925 115.281 129.896C116.018 128.925 116.938 128.44 118.039 128.44C118.879 128.44 119.556 128.697 120.069 129.21C120.592 129.723 120.853 130.465 120.853 131.436V136H119.285V131.912C119.285 130.54 118.716 129.854 117.577 129.854C117.045 129.854 116.578 130.027 116.177 130.372C115.785 130.708 115.58 131.203 115.561 131.856V136H113.993V131.912C113.993 131.203 113.867 130.685 113.615 130.358C113.363 130.022 112.966 129.854 112.425 129.854C111.884 129.854 111.412 130.036 111.011 130.4C110.61 130.755 110.409 131.277 110.409 131.968ZM128.538 133.774C128.538 134.483 128.282 135.053 127.768 135.482C127.255 135.902 126.597 136.112 125.794 136.112C125.253 136.112 124.688 136.014 124.1 135.818C123.522 135.622 123.008 135.347 122.56 134.992L123.316 133.774C124.184 134.427 125.024 134.754 125.836 134.754C126.191 134.754 126.471 134.675 126.676 134.516C126.882 134.348 126.984 134.138 126.984 133.886C126.984 133.513 126.49 133.177 125.5 132.878C125.426 132.85 125.37 132.831 125.332 132.822C123.783 132.402 123.008 131.702 123.008 130.722C123.008 130.031 123.274 129.481 123.806 129.07C124.348 128.65 125.048 128.44 125.906 128.44C126.765 128.44 127.577 128.692 128.342 129.196L127.754 130.358C127.148 129.957 126.49 129.756 125.78 129.756C125.407 129.756 125.104 129.826 124.87 129.966C124.637 130.097 124.52 130.297 124.52 130.568C124.52 130.811 124.642 130.988 124.884 131.1C125.052 131.184 125.286 131.263 125.584 131.338C125.892 131.413 126.163 131.487 126.396 131.562C126.63 131.637 126.854 131.721 127.068 131.814C127.292 131.907 127.53 132.038 127.782 132.206C128.286 132.542 128.538 133.065 128.538 133.774Z" fill="white"/>
</svg>
