<svg width="16" height="16" viewBox="0 0 16 16" fill="none" xmlns="http://www.w3.org/2000/svg">
<g clip-path="url(#clip0_1_5033)">
<path d="M11.7427 10.3441C12.7109 9.02279 13.1446 7.38459 12.957 5.75725C12.7693 4.12991 11.9741 2.63344 10.7304 1.56723C9.48677 0.501022 7.8864 -0.0562959 6.24949 0.00677721C4.61258 0.0698504 3.05984 0.748663 1.90192 1.90741C0.744005 3.06615 0.0663042 4.61938 0.00440239 6.25633C-0.0574994 7.89329 0.500963 9.49326 1.56806 10.7361C2.63516 11.979 4.1322 12.7732 5.75967 12.9597C7.38715 13.1462 9.02503 12.7113 10.3457 11.7421H10.3447C10.3747 11.7821 10.4067 11.8201 10.4427 11.8571L14.2927 15.7071C14.4802 15.8947 14.7345 16.0002 14.9998 16.0003C15.2651 16.0004 15.5195 15.8951 15.7072 15.7076C15.8948 15.5201 16.0003 15.2657 16.0004 15.0005C16.0005 14.7352 15.8952 14.4807 15.7077 14.2931L11.8577 10.4431C11.8219 10.4069 11.7835 10.3735 11.7427 10.3431V10.3441ZM12.0007 6.5001C12.0007 7.22237 11.8584 7.93757 11.582 8.60486C11.3056 9.27215 10.9005 9.87847 10.3897 10.3892C9.87902 10.8999 9.2727 11.305 8.60541 11.5814C7.93812 11.8578 7.22292 12.0001 6.50065 12.0001C5.77838 12.0001 5.06319 11.8578 4.3959 11.5814C3.7286 11.305 3.12229 10.8999 2.61157 10.3892C2.10084 9.87847 1.69572 9.27215 1.41932 8.60486C1.14292 7.93757 1.00065 7.22237 1.00065 6.5001C1.00065 5.04141 1.58012 3.64246 2.61157 2.61101C3.64302 1.57956 5.04196 1.0001 6.50065 1.0001C7.95934 1.0001 9.35829 1.57956 10.3897 2.61101C11.4212 3.64246 12.0007 5.04141 12.0007 6.5001Z" fill="#23A6F0"/>
</g>
<defs>
<clipPath id="clip0_1_5033">
<rect width="16.0006" height="16.0003" fill="white" transform="translate(-0.000244141)"/>
</clipPath>
</defs>
</svg>
