<svg width="24" height="24" viewBox="0 0 24 24" fill="none" xmlns="http://www.w3.org/2000/svg">
<g clip-path="url(#clip0_1_4588)">
<path fill-rule="evenodd" clip-rule="evenodd" d="M17.1901 15.4778L23.6458 21.9335C23.8727 22.1605 24.0001 22.4684 24 22.7895C23.9999 23.1105 23.8723 23.4183 23.6452 23.6452C23.4181 23.8721 23.1102 23.9995 22.7892 23.9994C22.4682 23.9993 22.1604 23.8717 21.9335 23.6446L15.4778 17.1889C13.5479 18.6836 11.1211 19.387 8.69104 19.156C6.26097 18.925 4.01018 17.7769 2.39656 15.9453C0.782936 14.1137 -0.0723147 11.7361 0.00479537 9.29632C0.0819054 6.85651 1.08558 4.53771 2.81165 2.81165C4.53771 1.08558 6.85651 0.0819055 9.29632 0.00479537C11.7361 -0.0723147 14.1137 0.782936 15.9453 2.39656C17.7769 4.01019 18.925 6.26097 19.156 8.69104C19.387 11.1211 18.6836 13.5479 17.1889 15.4778H17.1901ZM9.60045 16.7989C11.5099 16.7989 13.3412 16.0404 14.6914 14.6902C16.0416 13.34 16.8001 11.5087 16.8001 9.59925C16.8001 7.68978 16.0416 5.85851 14.6914 4.50832C13.3412 3.15812 11.5099 2.39958 9.60045 2.39958C7.69098 2.39958 5.85971 3.15812 4.50951 4.50832C3.15932 5.85851 2.40078 7.68978 2.40078 9.59925C2.40078 11.5087 3.15932 13.34 4.50951 14.6902C5.85971 16.0404 7.69098 16.7989 9.60045 16.7989Z" fill="#252B42"/>
</g>
<defs>
<clipPath id="clip0_1_4588">
<rect width="24" height="23.9997" fill="white"/>
</clipPath>
</defs>
</svg>
