<svg width="46" height="46" viewBox="0 0 46 46" fill="none" xmlns="http://www.w3.org/2000/svg">
<g clip-path="url(#clip0_1_5030)">
<g clip-path="url(#clip1_1_5030)">
<g clip-path="url(#clip2_1_5030)">
<path d="M26.7427 25.3441C27.7109 24.0228 28.1446 22.3846 27.957 20.7572C27.7693 19.1299 26.9741 17.6334 25.7304 16.5672C24.4868 15.501 22.8864 14.9437 21.2495 15.0068C19.6126 15.0699 18.0598 15.7487 16.9019 16.9074C15.744 18.0662 15.0663 19.6194 15.0044 21.2563C14.9425 22.8933 15.501 24.4933 16.5681 25.7361C17.6352 26.979 19.1322 27.7732 20.7597 27.9597C22.3871 28.1462 24.025 27.7113 25.3457 26.7421H25.3447C25.3747 26.7821 25.4067 26.8201 25.4427 26.8571L29.2927 30.7071C29.4802 30.8947 29.7345 31.0002 29.9998 31.0003C30.2651 31.0004 30.5195 30.8951 30.7072 30.7076C30.8948 30.5201 31.0003 30.2657 31.0004 30.0005C31.0005 29.7352 30.8952 29.4807 30.7077 29.2931L26.8577 25.4431C26.8219 25.4069 26.7835 25.3735 26.7427 25.3431V25.3441ZM27.0007 21.5001C27.0007 22.2224 26.8584 22.9376 26.582 23.6049C26.3056 24.2722 25.9005 24.8785 25.3897 25.3892C24.879 25.8999 24.2727 26.305 23.6054 26.5814C22.9381 26.8578 22.2229 27.0001 21.5007 27.0001C20.7784 27.0001 20.0632 26.8578 19.3959 26.5814C18.7286 26.305 18.1223 25.8999 17.6116 25.3892C17.1008 24.8785 16.6957 24.2722 16.4193 23.6049C16.1429 22.9376 16.0007 22.2224 16.0007 21.5001C16.0007 20.0414 16.5801 18.6425 17.6116 17.611C18.643 16.5796 20.042 16.0001 21.5007 16.0001C22.9593 16.0001 24.3583 16.5796 25.3897 17.611C26.4212 18.6425 27.0007 20.0414 27.0007 21.5001Z" fill="#23A6F0"/>
</g>
</g>
</g>
<defs>
<clipPath id="clip0_1_5030">
<rect width="46.0006" height="46.0003" fill="white" transform="translate(-0.000244141)"/>
</clipPath>
<clipPath id="clip1_1_5030">
<rect width="46.0006" height="46.0003" fill="white" transform="translate(-0.000244141)"/>
</clipPath>
<clipPath id="clip2_1_5030">
<rect width="16.0006" height="16.0003" fill="white" transform="translate(14.9998 15)"/>
</clipPath>
</defs>
</svg>
