<svg width="178" height="46" viewBox="0 0 178 46" fill="none" xmlns="http://www.w3.org/2000/svg">
<path d="M9.83 18.2L6.806 25.2L3.824 18.2H1.374L5.602 28H7.842L12.084 18.2H9.83ZM14.177 19.418C14.989 19.418 15.535 18.886 15.535 18.158C15.535 17.486 14.989 16.982 14.177 16.982C13.365 16.982 12.819 17.514 12.819 18.2C12.819 18.886 13.365 19.418 14.177 19.418ZM13.085 28H15.269V20.468H13.085V28ZM24.8739 24.262C24.8739 21.84 23.1659 20.356 20.9539 20.356C18.6579 20.356 16.9359 21.98 16.9359 24.234C16.9359 26.474 18.6299 28.112 21.2339 28.112C22.5919 28.112 23.6419 27.692 24.3419 26.894L23.1799 25.634C22.6619 26.124 22.0879 26.362 21.2899 26.362C20.1419 26.362 19.3439 25.788 19.1339 24.85H24.8319C24.8459 24.668 24.8739 24.43 24.8739 24.262ZM20.9679 22.008C21.9479 22.008 22.6619 22.624 22.8159 23.576H19.1059C19.2599 22.61 19.9739 22.008 20.9679 22.008ZM36.5552 20.468L34.7212 25.564L32.9292 20.468H31.0812L29.2332 25.564L27.4552 20.468H25.3972L28.1132 28H30.2132L31.9632 23.324L33.6572 28H35.7572L38.4872 20.468H36.5552ZM42.1272 28.112C44.3812 28.112 45.6832 27.118 45.6832 25.718C45.6832 22.75 41.1332 23.996 41.1332 22.708C41.1332 22.316 41.5532 22.008 42.5332 22.008C43.2192 22.008 43.9612 22.148 44.7032 22.568L45.4312 21.014C44.7172 20.594 43.5692 20.356 42.5332 20.356C40.3352 20.356 39.0472 21.364 39.0472 22.792C39.0472 25.802 43.5972 24.542 43.5972 25.774C43.5972 26.194 43.2192 26.46 42.2112 26.46C41.2872 26.46 40.2652 26.166 39.5932 25.732L38.8652 27.3C39.5652 27.762 40.8532 28.112 42.1272 28.112ZM48.0567 23.086C48.8127 23.086 49.4147 22.512 49.4147 21.714C49.4147 20.902 48.8127 20.37 48.0567 20.37C47.3007 20.37 46.6987 20.902 46.6987 21.714C46.6987 22.512 47.3007 23.086 48.0567 23.086ZM48.0567 28.112C48.8127 28.112 49.4147 27.538 49.4147 26.74C49.4147 25.928 48.8127 25.396 48.0567 25.396C47.3007 25.396 46.6987 25.928 46.6987 26.74C46.6987 27.538 47.3007 28.112 48.0567 28.112Z" fill="#737373"/>
<rect x="70" y="0.5" width="45" height="45" rx="4.5" stroke="#ECECEC"/>
<path d="M85.5 17.5C85.5 17.1022 85.658 16.7206 85.9393 16.4393C86.2206 16.158 86.6022 16 87 16H90C90.3978 16 90.7794 16.158 91.0607 16.4393C91.342 16.7206 91.5 17.1022 91.5 17.5V20.5C91.5 20.8978 91.342 21.2794 91.0607 21.5607C90.7794 21.842 90.3978 22 90 22H87C86.6022 22 86.2206 21.842 85.9393 21.5607C85.658 21.2794 85.5 20.8978 85.5 20.5V17.5ZM93.5 17.5C93.5 17.1022 93.658 16.7206 93.9393 16.4393C94.2206 16.158 94.6022 16 95 16H98C98.3978 16 98.7794 16.158 99.0607 16.4393C99.342 16.7206 99.5 17.1022 99.5 17.5V20.5C99.5 20.8978 99.342 21.2794 99.0607 21.5607C98.7794 21.842 98.3978 22 98 22H95C94.6022 22 94.2206 21.842 93.9393 21.5607C93.658 21.2794 93.5 20.8978 93.5 20.5V17.5ZM85.5 25.5C85.5 25.1022 85.658 24.7206 85.9393 24.4393C86.2206 24.158 86.6022 24 87 24H90C90.3978 24 90.7794 24.158 91.0607 24.4393C91.342 24.7206 91.5 25.1022 91.5 25.5V28.5C91.5 28.8978 91.342 29.2794 91.0607 29.5607C90.7794 29.842 90.3978 30 90 30H87C86.6022 30 86.2206 29.842 85.9393 29.5607C85.658 29.2794 85.5 28.8978 85.5 28.5V25.5ZM93.5 25.5C93.5 25.1022 93.658 24.7206 93.9393 24.4393C94.2206 24.158 94.6022 24 95 24H98C98.3978 24 98.7794 24.158 99.0607 24.4393C99.342 24.7206 99.5 25.1022 99.5 25.5V28.5C99.5 28.8978 99.342 29.2794 99.0607 29.5607C98.7794 29.842 98.3978 30 98 30H95C94.6022 30 94.2206 29.842 93.9393 29.5607C93.658 29.2794 93.5 28.8978 93.5 28.5V25.5Z" fill="#252B42"/>
<rect x="131" y="0.5" width="45" height="45" rx="4.5" stroke="#ECECEC"/>
<path fill-rule="evenodd" clip-rule="evenodd" d="M150.001 27.5009C150.001 27.3683 150.053 27.2411 150.147 27.1473C150.241 27.0536 150.368 27.0009 150.501 27.0009H159.501C159.633 27.0009 159.76 27.0536 159.854 27.1473C159.948 27.2411 160.001 27.3683 160.001 27.5009C160.001 27.6335 159.948 27.7607 159.854 27.8544C159.76 27.9482 159.633 28.0009 159.501 28.0009H150.501C150.368 28.0009 150.241 27.9482 150.147 27.8544C150.053 27.7607 150.001 27.6335 150.001 27.5009ZM150.001 23.5009C150.001 23.3683 150.053 23.2411 150.147 23.1473C150.241 23.0536 150.368 23.0009 150.501 23.0009H159.501C159.633 23.0009 159.76 23.0536 159.854 23.1473C159.948 23.2411 160.001 23.3683 160.001 23.5009C160.001 23.6335 159.948 23.7607 159.854 23.8544C159.76 23.9482 159.633 24.0009 159.501 24.0009H150.501C150.368 24.0009 150.241 23.9482 150.147 23.8544C150.053 23.7607 150.001 23.6335 150.001 23.5009ZM150.001 19.5009C150.001 19.3683 150.053 19.2411 150.147 19.1473C150.241 19.0536 150.368 19.0009 150.501 19.0009H159.501C159.633 19.0009 159.76 19.0536 159.854 19.1473C159.948 19.2411 160.001 19.3683 160.001 19.5009C160.001 19.6335 159.948 19.7607 159.854 19.8544C159.76 19.9482 159.633 20.0009 159.501 20.0009H150.501C150.368 20.0009 150.241 19.9482 150.147 19.8544C150.053 19.7607 150.001 19.6335 150.001 19.5009ZM148.855 18.1469C148.901 18.1933 148.938 18.2485 148.963 18.3093C148.989 18.37 149.002 18.4351 149.002 18.5009C149.002 18.5667 148.989 18.6318 148.963 18.6925C148.938 18.7533 148.901 18.8084 148.855 18.8549L147.355 20.3549C147.308 20.4015 147.253 20.4384 147.192 20.4636C147.132 20.4888 147.066 20.5018 147.001 20.5018C146.935 20.5018 146.87 20.4888 146.809 20.4636C146.748 20.4384 146.693 20.4015 146.647 20.3549L146.147 19.8549C146.1 19.8084 146.063 19.7532 146.038 19.6925C146.013 19.6317 146 19.5666 146 19.5009C146 19.4351 146.013 19.37 146.038 19.3093C146.063 19.2486 146.1 19.1934 146.147 19.1469C146.193 19.1004 146.248 19.0635 146.309 19.0384C146.37 19.0132 146.435 19.0003 146.501 19.0003C146.566 19.0003 146.631 19.0132 146.692 19.0384C146.753 19.0635 146.808 19.1004 146.855 19.1469L147.001 19.2939L148.147 18.1469C148.193 18.1003 148.248 18.0634 148.309 18.0382C148.37 18.013 148.435 18 148.501 18C148.566 18 148.632 18.013 148.692 18.0382C148.753 18.0634 148.808 18.1003 148.855 18.1469ZM148.855 22.1469C148.901 22.1933 148.938 22.2485 148.963 22.3093C148.989 22.37 149.002 22.4351 149.002 22.5009C149.002 22.5667 148.989 22.6318 148.963 22.6925C148.938 22.7533 148.901 22.8084 148.855 22.8549L147.355 24.3549C147.308 24.4015 147.253 24.4384 147.192 24.4636C147.132 24.4888 147.066 24.5018 147.001 24.5018C146.935 24.5018 146.87 24.4888 146.809 24.4636C146.748 24.4384 146.693 24.4015 146.647 24.3549L146.147 23.8549C146.053 23.761 146 23.6337 146 23.5009C146 23.3681 146.053 23.2408 146.147 23.1469C146.241 23.053 146.368 23.0003 146.501 23.0003C146.633 23.0003 146.761 23.053 146.855 23.1469L147.001 23.2939L148.147 22.1469C148.193 22.1003 148.248 22.0634 148.309 22.0382C148.37 22.013 148.435 22 148.501 22C148.566 22 148.632 22.013 148.692 22.0382C148.753 22.0634 148.808 22.1003 148.855 22.1469ZM148.855 26.1469C148.901 26.1933 148.938 26.2485 148.963 26.3093C148.989 26.37 149.002 26.4351 149.002 26.5009C149.002 26.5667 148.989 26.6318 148.963 26.6925C148.938 26.7533 148.901 26.8084 148.855 26.8549L147.355 28.3549C147.308 28.4015 147.253 28.4384 147.192 28.4636C147.132 28.4888 147.066 28.5018 147.001 28.5018C146.935 28.5018 146.87 28.4888 146.809 28.4636C146.748 28.4384 146.693 28.4015 146.647 28.3549L146.147 27.8549C146.053 27.761 146 27.6337 146 27.5009C146 27.3681 146.053 27.2408 146.147 27.1469C146.241 27.053 146.368 27.0003 146.501 27.0003C146.633 27.0003 146.761 27.053 146.855 27.1469L147.001 27.2939L148.147 26.1469C148.193 26.1003 148.248 26.0634 148.309 26.0382C148.37 26.013 148.435 26 148.501 26C148.566 26 148.632 26.013 148.692 26.0382C148.753 26.0634 148.808 26.1003 148.855 26.1469Z" fill="#737373"/>
</svg>
