<svg width="253" height="50" viewBox="0 0 253 50" fill="none" xmlns="http://www.w3.org/2000/svg">
<g clip-path="url(#clip0_1_6900)">
<g clip-path="url(#clip1_1_6900)">
<rect x="2" y="0.5" width="140" height="49" rx="4.5" fill="#F9F9F9"/>
<rect x="2" y="0.5" width="140" height="49" rx="4.5" stroke="#DDDDDD"/>
<path d="M24.764 20.2H21.096V30H22.132V26.906H24.764C27.256 26.906 28.768 25.646 28.768 23.56C28.768 21.46 27.256 20.2 24.764 20.2ZM24.736 25.996H22.132V21.096H24.736C26.696 21.096 27.732 21.992 27.732 23.56C27.732 25.1 26.696 25.996 24.736 25.996ZM33.9671 30.07C36.1231 30.07 37.7051 28.502 37.7051 26.318C37.7051 24.134 36.1231 22.58 33.9671 22.58C31.8111 22.58 30.2151 24.134 30.2151 26.318C30.2151 28.502 31.8111 30.07 33.9671 30.07ZM33.9671 29.188C32.3991 29.188 31.2231 28.04 31.2231 26.318C31.2231 24.596 32.3991 23.448 33.9671 23.448C35.5351 23.448 36.6971 24.596 36.6971 26.318C36.6971 28.04 35.5351 29.188 33.9671 29.188ZM43.7284 22.58C42.5104 22.58 41.4884 23.112 40.8864 24.092V22.636H39.9344V32.716H40.9284V28.614C41.5444 29.566 42.5524 30.07 43.7284 30.07C45.8284 30.07 47.3964 28.558 47.3964 26.318C47.3964 24.092 45.8284 22.58 43.7284 22.58ZM43.6584 29.188C42.0904 29.188 40.9144 28.04 40.9144 26.318C40.9144 24.61 42.0904 23.448 43.6584 23.448C45.2124 23.448 46.4024 24.61 46.4024 26.318C46.4024 28.04 45.2124 29.188 43.6584 29.188ZM55.2647 22.636V26.5C55.2647 28.18 54.2987 29.174 52.7587 29.174C51.3587 29.174 50.5467 28.376 50.5467 26.808V22.636H49.5527V26.906C49.5527 29.02 50.7847 30.07 52.6607 30.07C53.8367 30.07 54.7887 29.552 55.3067 28.656V30H56.2587V22.636H55.2647ZM59.2426 30H60.2366V19.612H59.2426V30ZM65.7784 22.58C64.6164 22.58 63.5244 22.944 62.7824 23.574L63.2304 24.316C63.8324 23.784 64.7284 23.448 65.6804 23.448C67.0524 23.448 67.7664 24.134 67.7664 25.394V25.842H65.4284C63.3144 25.842 62.5864 26.794 62.5864 27.928C62.5864 29.202 63.6084 30.07 65.2744 30.07C66.4924 30.07 67.3604 29.608 67.8084 28.852V30H68.7604V25.436C68.7604 23.532 67.6824 22.58 65.7784 22.58ZM65.4284 29.286C64.2524 29.286 63.5664 28.754 63.5664 27.9C63.5664 27.144 64.0284 26.584 65.4564 26.584H67.7664V27.788C67.3744 28.754 66.5484 29.286 65.4284 29.286ZM72.6122 24.078V22.636H71.6602V30H72.6542V26.248C72.6542 24.512 73.5922 23.532 75.1322 23.532C75.2022 23.532 75.2862 23.546 75.3702 23.546V22.58C74.0122 22.58 73.0742 23.098 72.6122 24.078ZM77.874 21.026C78.294 21.026 78.602 20.704 78.602 20.298C78.602 19.92 78.28 19.612 77.874 19.612C77.468 19.612 77.146 19.934 77.146 20.312C77.146 20.704 77.468 21.026 77.874 21.026ZM77.37 30H78.364V22.636H77.37V30ZM84.8577 28.838C84.5777 29.09 84.1717 29.216 83.7657 29.216C82.9397 29.216 82.4917 28.74 82.4917 27.872V23.476H84.7317V22.636H82.4917V21.026H81.4977V22.636H80.1817V23.476H81.4977V27.928C81.4977 29.286 82.2677 30.07 83.6537 30.07C84.2277 30.07 84.8157 29.902 85.2077 29.552L84.8577 28.838ZM92.2885 22.636L89.5165 28.894L86.7445 22.636H85.7085L88.9985 29.986L88.6765 30.7C88.2565 31.624 87.8085 31.932 87.1505 31.932C86.6185 31.932 86.1705 31.736 85.8065 31.372L85.3445 32.114C85.7925 32.562 86.4505 32.786 87.1365 32.786C88.1865 32.786 88.9705 32.324 89.5865 30.882L93.2685 22.636H92.2885Z" fill="#737373"/>
<path d="M101.492 21L106.492 26L111.492 21L113.492 22L106.492 29L99.4922 22L101.492 21Z" fill="#737373"/>
</g>
</g>
<rect x="157.5" width="94" height="50" rx="5" fill="#23A6F0"/>
<path d="M193.325 19.02V17.2H185.919V27H188.187V23.43H192.723V21.61H188.187V19.02H193.325ZM195.862 18.418C196.674 18.418 197.22 17.886 197.22 17.158C197.22 16.486 196.674 15.982 195.862 15.982C195.05 15.982 194.504 16.514 194.504 17.2C194.504 17.886 195.05 18.418 195.862 18.418ZM194.77 27H196.954V19.468H194.77V27ZM199.18 27H201.364V16.612H199.18V27ZM208.408 25.096C208.17 25.278 207.848 25.376 207.526 25.376C206.938 25.376 206.588 25.026 206.588 24.382V21.316H208.464V19.636H206.588V17.802H204.404V19.636H203.242V21.316H204.404V24.41C204.404 26.202 205.44 27.112 207.218 27.112C207.89 27.112 208.548 26.958 208.996 26.636L208.408 25.096ZM217.568 23.262C217.568 20.84 215.86 19.356 213.648 19.356C211.352 19.356 209.63 20.98 209.63 23.234C209.63 25.474 211.324 27.112 213.928 27.112C215.286 27.112 216.336 26.692 217.036 25.894L215.874 24.634C215.356 25.124 214.782 25.362 213.984 25.362C212.836 25.362 212.038 24.788 211.828 23.85H217.526C217.54 23.668 217.568 23.43 217.568 23.262ZM213.662 21.008C214.642 21.008 215.356 21.624 215.51 22.576H211.8C211.954 21.61 212.668 21.008 213.662 21.008ZM221.308 20.462V19.468H219.222V27H221.406V23.444C221.406 22.002 222.204 21.344 223.408 21.344C223.576 21.344 223.716 21.358 223.898 21.372V19.356C222.736 19.356 221.84 19.734 221.308 20.462Z" fill="white"/>
<defs>
<clipPath id="clip0_1_6900">
<rect width="141" height="50" fill="white" transform="translate(1.5)"/>
</clipPath>
<clipPath id="clip1_1_6900">
<rect width="141" height="50" fill="white" transform="translate(1.5)"/>
</clipPath>
</defs>
</svg>
