<svg width="1050" height="348" viewBox="0 0 1050 348" fill="none" xmlns="http://www.w3.org/2000/svg">
<g clip-path="url(#clip0_232_764)">
<path d="M410.492 93.248L412.476 86.816H415.084L417.052 93.248L419.276 86.816H421.98L418.076 98H416.22L413.772 90.224L411.34 98H409.484L405.58 86.816H408.284L410.492 93.248ZM431.465 86.816V89.04H425.897V91.344H430.905V93.472H425.897V95.792H431.641V98H423.401V86.816H431.465ZM443.425 95.792C444.651 95.792 445.654 95.3067 446.433 94.336L448.033 95.984C446.763 97.4133 445.265 98.128 443.537 98.128C441.819 98.128 440.401 97.584 439.281 96.496C438.171 95.408 437.617 94.0373 437.617 92.384C437.617 90.72 438.182 89.3333 439.313 88.224C440.454 87.1147 441.846 86.56 443.489 86.56C445.323 86.56 446.859 87.2587 448.097 88.656L446.545 90.416C445.755 89.4347 444.774 88.944 443.601 88.944C442.662 88.944 441.857 89.2533 441.185 89.872C440.523 90.48 440.193 91.3067 440.193 92.352C440.193 93.3867 440.507 94.2187 441.137 94.848C441.766 95.4773 442.529 95.792 443.425 95.792ZM457.086 98H454.83V96.96C454.211 97.7387 453.443 98.128 452.526 98.128C451.619 98.128 450.856 97.8667 450.238 97.344C449.619 96.8107 449.31 96.1067 449.31 95.232C449.31 94.3467 449.63 93.6853 450.27 93.248C450.91 92.8107 451.784 92.592 452.894 92.592H454.686V92.544C454.686 91.6267 454.2 91.168 453.23 91.168C452.814 91.168 452.371 91.2533 451.902 91.424C451.443 91.584 451.054 91.7867 450.734 92.032L449.662 90.48C450.792 89.6587 452.083 89.248 453.534 89.248C454.579 89.248 455.432 89.5093 456.094 90.032C456.755 90.5547 457.086 91.3813 457.086 92.512V98ZM454.67 94.72V94.304H453.166C452.206 94.304 451.726 94.6027 451.726 95.2C451.726 95.5093 451.838 95.7493 452.062 95.92C452.296 96.08 452.627 96.16 453.054 96.16C453.48 96.16 453.854 96.032 454.174 95.776C454.504 95.5093 454.67 95.1573 454.67 94.72ZM461.774 93.2V98H459.374V89.392H461.774V90.352C462.499 89.616 463.315 89.248 464.222 89.248C465.128 89.248 465.886 89.568 466.494 90.208C467.112 90.848 467.422 91.7013 467.422 92.768V98H465.022V93.136C465.022 91.8133 464.536 91.152 463.566 91.152C463.086 91.152 462.664 91.328 462.302 91.68C461.95 92.0213 461.774 92.528 461.774 93.2ZM469.692 91.104V86.816H471.596V91.104H469.692ZM476.828 91.12V94.976C476.828 95.3067 476.913 95.568 477.084 95.76C477.255 95.9413 477.457 96.032 477.692 96.032C478.14 96.032 478.519 95.8293 478.828 95.424L479.724 97.104C478.977 97.7867 478.188 98.128 477.356 98.128C476.535 98.128 475.836 97.856 475.26 97.312C474.695 96.768 474.412 96.0267 474.412 95.088V91.12H473.404V89.392H474.412V86.816H476.828V89.392H478.908V91.12H476.828ZM489.158 93.248L491.142 86.816H493.75L495.718 93.248L497.942 86.816H500.646L496.742 98H494.886L492.438 90.224L490.006 98H488.15L484.246 86.816H486.95L489.158 93.248ZM509.441 98L508.401 95.584H503.713L502.673 98H500.017L504.849 86.816H507.265L512.097 98H509.441ZM506.065 90.144L504.657 93.392H507.457L506.065 90.144ZM513.495 86.816H515.991V98H513.495V86.816ZM523.581 88.976V98H521.085V88.976H517.917V86.816H526.749V88.976H523.581ZM537.734 88.976V98H535.238V88.976H532.07V86.816H540.902V88.976H537.734ZM551.095 92.352C551.095 91.3493 550.775 90.496 550.135 89.792C549.495 89.088 548.706 88.736 547.767 88.736C546.839 88.736 546.055 89.088 545.415 89.792C544.775 90.496 544.455 91.3493 544.455 92.352C544.455 93.344 544.775 94.192 545.415 94.896C546.055 95.5893 546.839 95.936 547.767 95.936C548.706 95.936 549.495 95.5893 550.135 94.896C550.775 94.192 551.095 93.344 551.095 92.352ZM551.943 96.464C550.813 97.5627 549.421 98.112 547.767 98.112C546.114 98.112 544.722 97.5627 543.591 96.464C542.461 95.3547 541.895 93.9787 541.895 92.336C541.895 90.6933 542.461 89.3227 543.591 88.224C544.722 87.1147 546.114 86.56 547.767 86.56C549.421 86.56 550.813 87.1147 551.943 88.224C553.074 89.3227 553.639 90.6933 553.639 92.336C553.639 93.9787 553.074 95.3547 551.943 96.464ZM570.189 90.96L567.165 97.072H565.677L562.669 90.96V98H560.173V86.816H563.549L566.429 92.96L569.325 86.816H572.685V98H570.189V90.96ZM583.603 86.816V89.04H578.035V91.344H583.043V93.472H578.035V95.792H583.779V98H575.539V86.816H583.603ZM594.171 86.816V89.04H588.603V91.344H593.611V93.472H588.603V95.792H594.347V98H586.107V86.816H594.171ZM601.412 88.976V98H598.916V88.976H595.748V86.816H604.58V88.976H601.412ZM615.645 98H613.149V93.584L609.277 86.816H611.981L614.397 90.976L616.813 86.816H619.517L615.645 93.584V98ZM628.974 92.352C628.974 91.3493 628.654 90.496 628.014 89.792C627.374 89.088 626.584 88.736 625.646 88.736C624.718 88.736 623.934 89.088 623.294 89.792C622.654 90.496 622.334 91.3493 622.334 92.352C622.334 93.344 622.654 94.192 623.294 94.896C623.934 95.5893 624.718 95.936 625.646 95.936C626.584 95.936 627.374 95.5893 628.014 94.896C628.654 94.192 628.974 93.344 628.974 92.352ZM629.822 96.464C628.691 97.5627 627.299 98.112 625.646 98.112C623.992 98.112 622.6 97.5627 621.47 96.464C620.339 95.3547 619.774 93.9787 619.774 92.336C619.774 90.6933 620.339 89.3227 621.47 88.224C622.6 87.1147 623.992 86.56 625.646 86.56C627.299 86.56 628.691 87.1147 629.822 88.224C630.952 89.3227 631.518 90.6933 631.518 92.336C631.518 93.9787 630.952 95.3547 629.822 96.464ZM636.692 95.12C637.108 95.632 637.668 95.888 638.372 95.888C639.076 95.888 639.631 95.632 640.036 95.12C640.452 94.5973 640.66 93.888 640.66 92.992V86.816H643.156V93.072C643.156 94.6933 642.708 95.9413 641.812 96.816C640.916 97.68 639.77 98.112 638.372 98.112C636.975 98.112 635.823 97.6747 634.916 96.8C634.02 95.9253 633.572 94.6827 633.572 93.072V86.816H636.068V92.992C636.068 93.888 636.276 94.5973 636.692 95.12Z" fill="#252B42"/>
<path d="M394.312 181V140.458H403.36V172.938H420.644V181H394.312ZM453.634 176.476C450.116 179.801 445.978 181.464 441.222 181.464C436.505 181.464 432.6 180.014 429.506 177.114C426.413 174.175 424.866 170.251 424.866 165.34C424.866 160.429 426.432 156.524 429.564 153.624C432.735 150.724 436.466 149.274 440.758 149.274C445.05 149.274 448.685 150.569 451.662 153.16C454.678 155.751 456.186 159.308 456.186 163.832V168.472H433.45C433.721 170.173 434.61 171.565 436.118 172.648C437.626 173.731 439.328 174.272 441.222 174.272C444.277 174.272 446.79 173.247 448.762 171.198L453.634 176.476ZM447.37 162.266C447.177 160.41 446.481 158.979 445.282 157.974C444.084 156.969 442.614 156.466 440.874 156.466C439.173 156.466 437.607 156.988 436.176 158.032C434.746 159.076 433.914 160.487 433.682 162.266H447.37ZM472.702 156.06V170.038C472.702 171.237 473.011 172.184 473.63 172.88C474.249 173.537 474.983 173.866 475.834 173.866C477.458 173.866 478.831 173.131 479.952 171.662L483.2 177.752C480.493 180.227 477.632 181.464 474.616 181.464C471.639 181.464 469.106 180.478 467.018 178.506C464.969 176.534 463.944 173.847 463.944 170.444V156.06H460.29V149.796H463.944V140.458H472.702V149.796H480.242V156.06H472.702ZM488.123 148.926C486.847 148.075 486.209 146.896 486.209 145.388C486.209 143.841 486.654 142.623 487.543 141.734C488.471 140.845 489.612 140.4 490.965 140.4C492.357 140.4 493.498 140.825 494.387 141.676C495.315 142.527 495.779 143.629 495.779 144.982C495.779 146.335 495.354 147.669 494.503 148.984L490.269 155.132H485.513L488.123 148.926ZM524.443 171.314C524.443 174.369 523.302 176.824 521.021 178.68C518.778 180.536 515.917 181.464 512.437 181.464C510.117 181.464 507.7 181.058 505.187 180.246C502.673 179.395 500.411 178.158 498.401 176.534L502.229 171.082C505.477 173.595 508.937 174.852 512.611 174.852C513.732 174.852 514.621 174.639 515.279 174.214C515.936 173.75 516.265 173.151 516.265 172.416C516.265 171.681 515.801 171.005 514.873 170.386C513.983 169.767 512.669 169.187 510.929 168.646C509.227 168.105 507.913 167.641 506.985 167.254C506.095 166.867 505.071 166.307 503.911 165.572C501.552 164.103 500.373 161.937 500.373 159.076C500.373 156.176 501.533 153.817 503.853 152C506.173 150.183 509.169 149.274 512.843 149.274C516.516 149.274 520.189 150.511 523.863 152.986L520.615 158.786C517.908 156.93 515.201 156.002 512.495 156.002C509.827 156.002 508.493 156.737 508.493 158.206C508.493 159.018 508.918 159.656 509.769 160.12C510.619 160.584 512.031 161.125 514.003 161.744C515.975 162.363 517.367 162.846 518.179 163.194C519.029 163.503 520.035 164.006 521.195 164.702C523.36 166.017 524.443 168.221 524.443 171.314ZM564.816 148.288V181H555.768V148.288H544.284V140.458H576.3V148.288H564.816ZM605.033 181H596.855V177.23C594.613 180.053 591.829 181.464 588.503 181.464C585.217 181.464 582.452 180.517 580.209 178.622C577.967 176.689 576.845 174.137 576.845 170.966C576.845 167.757 578.005 165.359 580.325 163.774C582.645 162.189 585.816 161.396 589.837 161.396H596.333V161.222C596.333 157.897 594.574 156.234 591.055 156.234C589.547 156.234 587.943 156.543 586.241 157.162C584.579 157.742 583.167 158.477 582.007 159.366L578.121 153.74C582.22 150.763 586.899 149.274 592.157 149.274C595.947 149.274 599.04 150.221 601.437 152.116C603.835 154.011 605.033 157.007 605.033 161.106V181ZM596.275 169.11V167.602H590.823C587.343 167.602 585.603 168.685 585.603 170.85C585.603 171.971 586.009 172.841 586.821 173.46C587.672 174.04 588.871 174.33 590.417 174.33C591.964 174.33 593.317 173.866 594.477 172.938C595.676 171.971 596.275 170.695 596.275 169.11ZM621.865 181H613.165V137.964H621.865V181ZM639 181H630.3V137.964H639V160.062L648.686 149.738H659.648L647.758 162.382L660.112 181H649.788L641.842 169.052L639 172.01V181Z" fill="#252B42"/>
<rect x="432" y="216" width="186" height="52" rx="5" fill="#23A6F0"/>
<path d="M477.405 239.104V247H475.221V239.104H472.449V237.214H480.177V239.104H477.405ZM485.731 241.316C485.105 241.316 484.639 241.54 484.331 241.988C484.023 242.427 483.869 243.01 483.869 243.738V247H481.769V239.468H483.869V240.462C484.139 240.154 484.475 239.893 484.877 239.678C485.287 239.463 485.703 239.351 486.123 239.342L486.137 241.316H485.731ZM489.026 249.968C488.289 249.968 487.594 249.669 486.94 249.072L487.892 247.518C488.247 247.863 488.611 248.036 488.984 248.036C489.18 248.036 489.348 247.938 489.488 247.742C489.628 247.555 489.698 247.355 489.698 247.14C489.698 246.925 488.728 244.368 486.786 239.468H489.026L490.86 244.158L492.694 239.468H494.934L491.434 248.344C491.229 248.857 490.907 249.254 490.468 249.534C490.039 249.823 489.558 249.968 489.026 249.968ZM502.174 247H500.074V239.468H502.174V247ZM500.242 238.516C500.008 238.273 499.892 237.979 499.892 237.634C499.892 237.289 500.008 236.999 500.242 236.766C500.484 236.523 500.778 236.402 501.124 236.402C501.469 236.402 501.758 236.523 501.992 236.766C502.234 236.999 502.356 237.289 502.356 237.634C502.356 237.979 502.234 238.273 501.992 238.516C501.758 238.749 501.469 238.866 501.124 238.866C500.778 238.866 500.484 238.749 500.242 238.516ZM506.868 240.98V244.354C506.868 244.643 506.942 244.872 507.092 245.04C507.241 245.199 507.418 245.278 507.624 245.278C508.016 245.278 508.347 245.101 508.618 244.746L509.402 246.216C508.748 246.813 508.058 247.112 507.33 247.112C506.611 247.112 506 246.874 505.496 246.398C505.001 245.922 504.754 245.273 504.754 244.452V240.98H503.872V239.468H504.754V237.214H506.868V239.468H508.688V240.98H506.868ZM517.125 239.034V239.538H518.945V241.05H517.125V247H515.011V241.05H514.129V239.538H515.011V239.076C515.011 238.255 515.258 237.606 515.753 237.13C516.257 236.645 516.878 236.402 517.615 236.402C518.362 236.402 519.038 236.682 519.645 237.242L518.889 238.656C518.581 238.301 518.24 238.124 517.867 238.124C517.652 238.124 517.475 238.203 517.335 238.362C517.195 238.511 517.125 238.735 517.125 239.034ZM524.414 241.316C523.788 241.316 523.322 241.54 523.014 241.988C522.706 242.427 522.552 243.01 522.552 243.738V247H520.452V239.468H522.552V240.462C522.822 240.154 523.158 239.893 523.56 239.678C523.97 239.463 524.386 239.351 524.806 239.342L524.82 241.316H524.414ZM532.932 245.908C532.082 246.711 531.084 247.112 529.936 247.112C528.797 247.112 527.854 246.762 527.108 246.062C526.361 245.353 525.988 244.405 525.988 243.22C525.988 242.035 526.366 241.092 527.122 240.392C527.887 239.692 528.788 239.342 529.824 239.342C530.86 239.342 531.737 239.655 532.456 240.28C533.184 240.905 533.548 241.764 533.548 242.856V243.976H528.06C528.125 244.387 528.34 244.723 528.704 244.984C529.068 245.245 529.478 245.376 529.936 245.376C530.673 245.376 531.28 245.129 531.756 244.634L532.932 245.908ZM531.42 242.478C531.373 242.03 531.205 241.685 530.916 241.442C530.626 241.199 530.272 241.078 529.852 241.078C529.441 241.078 529.063 241.204 528.718 241.456C528.372 241.708 528.172 242.049 528.116 242.478H531.42ZM541.786 245.908C540.937 246.711 539.938 247.112 538.79 247.112C537.651 247.112 536.709 246.762 535.962 246.062C535.215 245.353 534.842 244.405 534.842 243.22C534.842 242.035 535.22 241.092 535.976 240.392C536.741 239.692 537.642 239.342 538.678 239.342C539.714 239.342 540.591 239.655 541.31 240.28C542.038 240.905 542.402 241.764 542.402 242.856V243.976H536.914C536.979 244.387 537.194 244.723 537.558 244.984C537.922 245.245 538.333 245.376 538.79 245.376C539.527 245.376 540.134 245.129 540.61 244.634L541.786 245.908ZM540.274 242.478C540.227 242.03 540.059 241.685 539.77 241.442C539.481 241.199 539.126 241.078 538.706 241.078C538.295 241.078 537.917 241.204 537.572 241.456C537.227 241.708 537.026 242.049 536.97 242.478H540.274ZM550.108 242.8V247H548.008V239.468H550.108V240.308C550.742 239.664 551.456 239.342 552.25 239.342C553.043 239.342 553.706 239.622 554.238 240.182C554.779 240.742 555.05 241.489 555.05 242.422V247H552.95V242.744C552.95 241.587 552.525 241.008 551.676 241.008C551.256 241.008 550.887 241.162 550.57 241.47C550.262 241.769 550.108 242.212 550.108 242.8ZM558.829 243.234C558.829 243.85 559.002 244.354 559.347 244.746C559.702 245.129 560.15 245.32 560.691 245.32C561.242 245.32 561.69 245.129 562.035 244.746C562.39 244.354 562.567 243.85 562.567 243.234C562.567 242.618 562.39 242.114 562.035 241.722C561.69 241.33 561.242 241.134 560.691 241.134C560.15 241.134 559.702 241.33 559.347 241.722C559.002 242.114 558.829 242.618 558.829 243.234ZM564.681 243.234C564.681 244.326 564.303 245.245 563.547 245.992C562.791 246.739 561.839 247.112 560.691 247.112C559.552 247.112 558.605 246.739 557.849 245.992C557.093 245.245 556.715 244.326 556.715 243.234C556.715 242.142 557.093 241.223 557.849 240.476C558.605 239.72 559.552 239.342 560.691 239.342C561.839 239.342 562.791 239.72 563.547 240.476C564.303 241.223 564.681 242.142 564.681 243.234ZM570.224 247H568.054L565.492 239.468H567.662L569.132 244.018L570.602 239.468H572.632L574.102 244.018L575.572 239.468H577.756L575.194 247H573.01L571.624 242.898L570.224 247Z" fill="white"/>
</g>
<defs>
<clipPath id="clip0_232_764">
<rect width="272" height="188" fill="white" transform="translate(389 80)"/>
</clipPath>
</defs>
</svg>
